G04 #@! TF.GenerationSoftware,KiCad,Pcbnew,5.0.2-bee76a0~70~ubuntu16.04.1*
G04 #@! TF.CreationDate,2018-12-12T21:45:08+05:30*
G04 #@! TF.ProjectId,sanjaya,73616e6a-6179-4612-9e6b-696361645f70,rev?*
G04 #@! TF.SameCoordinates,Original*
G04 #@! TF.FileFunction,Copper,L2,Bot*
G04 #@! TF.FilePolarity,Positive*
%FSLAX46Y46*%
G04 Gerber Fmt 4.6, Leading zero omitted, Abs format (unit mm)*
G04 Created by KiCad (PCBNEW 5.0.2-bee76a0~70~ubuntu16.04.1) date Wed Dec 12 21:45:08 2018*
%MOMM*%
%LPD*%
G01*
G04 APERTURE LIST*
G04 #@! TA.AperFunction,ComponentPad*
%ADD10O,1.000000X1.550000*%
G04 #@! TD*
G04 #@! TA.AperFunction,ComponentPad*
%ADD11O,1.250000X0.950000*%
G04 #@! TD*
G04 #@! TA.AperFunction,Conductor*
%ADD12C,0.100000*%
G04 #@! TD*
G04 #@! TA.AperFunction,SMDPad,CuDef*
%ADD13C,0.975000*%
G04 #@! TD*
G04 #@! TA.AperFunction,SMDPad,CuDef*
%ADD14R,0.800000X0.900000*%
G04 #@! TD*
G04 #@! TA.AperFunction,SMDPad,CuDef*
%ADD15C,1.125000*%
G04 #@! TD*
G04 #@! TA.AperFunction,ComponentPad*
%ADD16R,1.700000X2.000000*%
G04 #@! TD*
G04 #@! TA.AperFunction,ComponentPad*
%ADD17O,1.700000X2.000000*%
G04 #@! TD*
G04 #@! TA.AperFunction,ComponentPad*
%ADD18R,1.727200X1.727200*%
G04 #@! TD*
G04 #@! TA.AperFunction,ComponentPad*
%ADD19O,1.727200X1.727200*%
G04 #@! TD*
G04 #@! TA.AperFunction,ComponentPad*
%ADD20O,2.000000X1.700000*%
G04 #@! TD*
G04 #@! TA.AperFunction,ComponentPad*
%ADD21R,2.000000X1.700000*%
G04 #@! TD*
G04 #@! TA.AperFunction,ComponentPad*
%ADD22C,3.000000*%
G04 #@! TD*
G04 #@! TA.AperFunction,ComponentPad*
%ADD23C,2.500000*%
G04 #@! TD*
G04 #@! TA.AperFunction,SMDPad,CuDef*
%ADD24R,2.650000X0.760000*%
G04 #@! TD*
G04 #@! TA.AperFunction,SMDPad,CuDef*
%ADD25R,1.500000X0.450000*%
G04 #@! TD*
G04 #@! TA.AperFunction,SMDPad,CuDef*
%ADD26R,1.550000X0.600000*%
G04 #@! TD*
G04 #@! TA.AperFunction,ComponentPad*
%ADD27R,2.200000X2.200000*%
G04 #@! TD*
G04 #@! TA.AperFunction,ComponentPad*
%ADD28C,2.200000*%
G04 #@! TD*
G04 #@! TA.AperFunction,ViaPad*
%ADD29C,0.800000*%
G04 #@! TD*
G04 #@! TA.AperFunction,Conductor*
%ADD30C,0.250000*%
G04 #@! TD*
G04 #@! TA.AperFunction,Conductor*
%ADD31C,0.254000*%
G04 #@! TD*
G04 APERTURE END LIST*
D10*
G04 #@! TO.P,J11,6*
G04 #@! TO.N,Net-(J11-Pad6)*
X98500000Y-86150000D03*
X105500000Y-86150000D03*
D11*
X99500000Y-88850000D03*
X104500000Y-88850000D03*
G04 #@! TD*
D12*
G04 #@! TO.N,Net-(C3-Pad2)*
G04 #@! TO.C,C3*
G36*
X145230142Y-104701174D02*
X145253803Y-104704684D01*
X145277007Y-104710496D01*
X145299529Y-104718554D01*
X145321153Y-104728782D01*
X145341670Y-104741079D01*
X145360883Y-104755329D01*
X145378607Y-104771393D01*
X145394671Y-104789117D01*
X145408921Y-104808330D01*
X145421218Y-104828847D01*
X145431446Y-104850471D01*
X145439504Y-104872993D01*
X145445316Y-104896197D01*
X145448826Y-104919858D01*
X145450000Y-104943750D01*
X145450000Y-105431250D01*
X145448826Y-105455142D01*
X145445316Y-105478803D01*
X145439504Y-105502007D01*
X145431446Y-105524529D01*
X145421218Y-105546153D01*
X145408921Y-105566670D01*
X145394671Y-105585883D01*
X145378607Y-105603607D01*
X145360883Y-105619671D01*
X145341670Y-105633921D01*
X145321153Y-105646218D01*
X145299529Y-105656446D01*
X145277007Y-105664504D01*
X145253803Y-105670316D01*
X145230142Y-105673826D01*
X145206250Y-105675000D01*
X144293750Y-105675000D01*
X144269858Y-105673826D01*
X144246197Y-105670316D01*
X144222993Y-105664504D01*
X144200471Y-105656446D01*
X144178847Y-105646218D01*
X144158330Y-105633921D01*
X144139117Y-105619671D01*
X144121393Y-105603607D01*
X144105329Y-105585883D01*
X144091079Y-105566670D01*
X144078782Y-105546153D01*
X144068554Y-105524529D01*
X144060496Y-105502007D01*
X144054684Y-105478803D01*
X144051174Y-105455142D01*
X144050000Y-105431250D01*
X144050000Y-104943750D01*
X144051174Y-104919858D01*
X144054684Y-104896197D01*
X144060496Y-104872993D01*
X144068554Y-104850471D01*
X144078782Y-104828847D01*
X144091079Y-104808330D01*
X144105329Y-104789117D01*
X144121393Y-104771393D01*
X144139117Y-104755329D01*
X144158330Y-104741079D01*
X144178847Y-104728782D01*
X144200471Y-104718554D01*
X144222993Y-104710496D01*
X144246197Y-104704684D01*
X144269858Y-104701174D01*
X144293750Y-104700000D01*
X145206250Y-104700000D01*
X145230142Y-104701174D01*
X145230142Y-104701174D01*
G37*
D13*
G04 #@! TD*
G04 #@! TO.P,C3,2*
G04 #@! TO.N,Net-(C3-Pad2)*
X144750000Y-105187500D03*
D12*
G04 #@! TO.N,Net-(C3-Pad1)*
G04 #@! TO.C,C3*
G36*
X145230142Y-102826174D02*
X145253803Y-102829684D01*
X145277007Y-102835496D01*
X145299529Y-102843554D01*
X145321153Y-102853782D01*
X145341670Y-102866079D01*
X145360883Y-102880329D01*
X145378607Y-102896393D01*
X145394671Y-102914117D01*
X145408921Y-102933330D01*
X145421218Y-102953847D01*
X145431446Y-102975471D01*
X145439504Y-102997993D01*
X145445316Y-103021197D01*
X145448826Y-103044858D01*
X145450000Y-103068750D01*
X145450000Y-103556250D01*
X145448826Y-103580142D01*
X145445316Y-103603803D01*
X145439504Y-103627007D01*
X145431446Y-103649529D01*
X145421218Y-103671153D01*
X145408921Y-103691670D01*
X145394671Y-103710883D01*
X145378607Y-103728607D01*
X145360883Y-103744671D01*
X145341670Y-103758921D01*
X145321153Y-103771218D01*
X145299529Y-103781446D01*
X145277007Y-103789504D01*
X145253803Y-103795316D01*
X145230142Y-103798826D01*
X145206250Y-103800000D01*
X144293750Y-103800000D01*
X144269858Y-103798826D01*
X144246197Y-103795316D01*
X144222993Y-103789504D01*
X144200471Y-103781446D01*
X144178847Y-103771218D01*
X144158330Y-103758921D01*
X144139117Y-103744671D01*
X144121393Y-103728607D01*
X144105329Y-103710883D01*
X144091079Y-103691670D01*
X144078782Y-103671153D01*
X144068554Y-103649529D01*
X144060496Y-103627007D01*
X144054684Y-103603803D01*
X144051174Y-103580142D01*
X144050000Y-103556250D01*
X144050000Y-103068750D01*
X144051174Y-103044858D01*
X144054684Y-103021197D01*
X144060496Y-102997993D01*
X144068554Y-102975471D01*
X144078782Y-102953847D01*
X144091079Y-102933330D01*
X144105329Y-102914117D01*
X144121393Y-102896393D01*
X144139117Y-102880329D01*
X144158330Y-102866079D01*
X144178847Y-102853782D01*
X144200471Y-102843554D01*
X144222993Y-102835496D01*
X144246197Y-102829684D01*
X144269858Y-102826174D01*
X144293750Y-102825000D01*
X145206250Y-102825000D01*
X145230142Y-102826174D01*
X145230142Y-102826174D01*
G37*
D13*
G04 #@! TD*
G04 #@! TO.P,C3,1*
G04 #@! TO.N,Net-(C3-Pad1)*
X144750000Y-103312500D03*
D12*
G04 #@! TO.N,Net-(C4-Pad1)*
G04 #@! TO.C,C4*
G36*
X148980142Y-117326174D02*
X149003803Y-117329684D01*
X149027007Y-117335496D01*
X149049529Y-117343554D01*
X149071153Y-117353782D01*
X149091670Y-117366079D01*
X149110883Y-117380329D01*
X149128607Y-117396393D01*
X149144671Y-117414117D01*
X149158921Y-117433330D01*
X149171218Y-117453847D01*
X149181446Y-117475471D01*
X149189504Y-117497993D01*
X149195316Y-117521197D01*
X149198826Y-117544858D01*
X149200000Y-117568750D01*
X149200000Y-118056250D01*
X149198826Y-118080142D01*
X149195316Y-118103803D01*
X149189504Y-118127007D01*
X149181446Y-118149529D01*
X149171218Y-118171153D01*
X149158921Y-118191670D01*
X149144671Y-118210883D01*
X149128607Y-118228607D01*
X149110883Y-118244671D01*
X149091670Y-118258921D01*
X149071153Y-118271218D01*
X149049529Y-118281446D01*
X149027007Y-118289504D01*
X149003803Y-118295316D01*
X148980142Y-118298826D01*
X148956250Y-118300000D01*
X148043750Y-118300000D01*
X148019858Y-118298826D01*
X147996197Y-118295316D01*
X147972993Y-118289504D01*
X147950471Y-118281446D01*
X147928847Y-118271218D01*
X147908330Y-118258921D01*
X147889117Y-118244671D01*
X147871393Y-118228607D01*
X147855329Y-118210883D01*
X147841079Y-118191670D01*
X147828782Y-118171153D01*
X147818554Y-118149529D01*
X147810496Y-118127007D01*
X147804684Y-118103803D01*
X147801174Y-118080142D01*
X147800000Y-118056250D01*
X147800000Y-117568750D01*
X147801174Y-117544858D01*
X147804684Y-117521197D01*
X147810496Y-117497993D01*
X147818554Y-117475471D01*
X147828782Y-117453847D01*
X147841079Y-117433330D01*
X147855329Y-117414117D01*
X147871393Y-117396393D01*
X147889117Y-117380329D01*
X147908330Y-117366079D01*
X147928847Y-117353782D01*
X147950471Y-117343554D01*
X147972993Y-117335496D01*
X147996197Y-117329684D01*
X148019858Y-117326174D01*
X148043750Y-117325000D01*
X148956250Y-117325000D01*
X148980142Y-117326174D01*
X148980142Y-117326174D01*
G37*
D13*
G04 #@! TD*
G04 #@! TO.P,C4,1*
G04 #@! TO.N,Net-(C4-Pad1)*
X148500000Y-117812500D03*
D12*
G04 #@! TO.N,/DGND*
G04 #@! TO.C,C4*
G36*
X148980142Y-119201174D02*
X149003803Y-119204684D01*
X149027007Y-119210496D01*
X149049529Y-119218554D01*
X149071153Y-119228782D01*
X149091670Y-119241079D01*
X149110883Y-119255329D01*
X149128607Y-119271393D01*
X149144671Y-119289117D01*
X149158921Y-119308330D01*
X149171218Y-119328847D01*
X149181446Y-119350471D01*
X149189504Y-119372993D01*
X149195316Y-119396197D01*
X149198826Y-119419858D01*
X149200000Y-119443750D01*
X149200000Y-119931250D01*
X149198826Y-119955142D01*
X149195316Y-119978803D01*
X149189504Y-120002007D01*
X149181446Y-120024529D01*
X149171218Y-120046153D01*
X149158921Y-120066670D01*
X149144671Y-120085883D01*
X149128607Y-120103607D01*
X149110883Y-120119671D01*
X149091670Y-120133921D01*
X149071153Y-120146218D01*
X149049529Y-120156446D01*
X149027007Y-120164504D01*
X149003803Y-120170316D01*
X148980142Y-120173826D01*
X148956250Y-120175000D01*
X148043750Y-120175000D01*
X148019858Y-120173826D01*
X147996197Y-120170316D01*
X147972993Y-120164504D01*
X147950471Y-120156446D01*
X147928847Y-120146218D01*
X147908330Y-120133921D01*
X147889117Y-120119671D01*
X147871393Y-120103607D01*
X147855329Y-120085883D01*
X147841079Y-120066670D01*
X147828782Y-120046153D01*
X147818554Y-120024529D01*
X147810496Y-120002007D01*
X147804684Y-119978803D01*
X147801174Y-119955142D01*
X147800000Y-119931250D01*
X147800000Y-119443750D01*
X147801174Y-119419858D01*
X147804684Y-119396197D01*
X147810496Y-119372993D01*
X147818554Y-119350471D01*
X147828782Y-119328847D01*
X147841079Y-119308330D01*
X147855329Y-119289117D01*
X147871393Y-119271393D01*
X147889117Y-119255329D01*
X147908330Y-119241079D01*
X147928847Y-119228782D01*
X147950471Y-119218554D01*
X147972993Y-119210496D01*
X147996197Y-119204684D01*
X148019858Y-119201174D01*
X148043750Y-119200000D01*
X148956250Y-119200000D01*
X148980142Y-119201174D01*
X148980142Y-119201174D01*
G37*
D13*
G04 #@! TD*
G04 #@! TO.P,C4,2*
G04 #@! TO.N,/DGND*
X148500000Y-119687500D03*
D12*
G04 #@! TO.N,/DGND*
G04 #@! TO.C,C5*
G36*
X131730142Y-102701174D02*
X131753803Y-102704684D01*
X131777007Y-102710496D01*
X131799529Y-102718554D01*
X131821153Y-102728782D01*
X131841670Y-102741079D01*
X131860883Y-102755329D01*
X131878607Y-102771393D01*
X131894671Y-102789117D01*
X131908921Y-102808330D01*
X131921218Y-102828847D01*
X131931446Y-102850471D01*
X131939504Y-102872993D01*
X131945316Y-102896197D01*
X131948826Y-102919858D01*
X131950000Y-102943750D01*
X131950000Y-103431250D01*
X131948826Y-103455142D01*
X131945316Y-103478803D01*
X131939504Y-103502007D01*
X131931446Y-103524529D01*
X131921218Y-103546153D01*
X131908921Y-103566670D01*
X131894671Y-103585883D01*
X131878607Y-103603607D01*
X131860883Y-103619671D01*
X131841670Y-103633921D01*
X131821153Y-103646218D01*
X131799529Y-103656446D01*
X131777007Y-103664504D01*
X131753803Y-103670316D01*
X131730142Y-103673826D01*
X131706250Y-103675000D01*
X130793750Y-103675000D01*
X130769858Y-103673826D01*
X130746197Y-103670316D01*
X130722993Y-103664504D01*
X130700471Y-103656446D01*
X130678847Y-103646218D01*
X130658330Y-103633921D01*
X130639117Y-103619671D01*
X130621393Y-103603607D01*
X130605329Y-103585883D01*
X130591079Y-103566670D01*
X130578782Y-103546153D01*
X130568554Y-103524529D01*
X130560496Y-103502007D01*
X130554684Y-103478803D01*
X130551174Y-103455142D01*
X130550000Y-103431250D01*
X130550000Y-102943750D01*
X130551174Y-102919858D01*
X130554684Y-102896197D01*
X130560496Y-102872993D01*
X130568554Y-102850471D01*
X130578782Y-102828847D01*
X130591079Y-102808330D01*
X130605329Y-102789117D01*
X130621393Y-102771393D01*
X130639117Y-102755329D01*
X130658330Y-102741079D01*
X130678847Y-102728782D01*
X130700471Y-102718554D01*
X130722993Y-102710496D01*
X130746197Y-102704684D01*
X130769858Y-102701174D01*
X130793750Y-102700000D01*
X131706250Y-102700000D01*
X131730142Y-102701174D01*
X131730142Y-102701174D01*
G37*
D13*
G04 #@! TD*
G04 #@! TO.P,C5,2*
G04 #@! TO.N,/DGND*
X131250000Y-103187500D03*
D12*
G04 #@! TO.N,/3V3*
G04 #@! TO.C,C5*
G36*
X131730142Y-100826174D02*
X131753803Y-100829684D01*
X131777007Y-100835496D01*
X131799529Y-100843554D01*
X131821153Y-100853782D01*
X131841670Y-100866079D01*
X131860883Y-100880329D01*
X131878607Y-100896393D01*
X131894671Y-100914117D01*
X131908921Y-100933330D01*
X131921218Y-100953847D01*
X131931446Y-100975471D01*
X131939504Y-100997993D01*
X131945316Y-101021197D01*
X131948826Y-101044858D01*
X131950000Y-101068750D01*
X131950000Y-101556250D01*
X131948826Y-101580142D01*
X131945316Y-101603803D01*
X131939504Y-101627007D01*
X131931446Y-101649529D01*
X131921218Y-101671153D01*
X131908921Y-101691670D01*
X131894671Y-101710883D01*
X131878607Y-101728607D01*
X131860883Y-101744671D01*
X131841670Y-101758921D01*
X131821153Y-101771218D01*
X131799529Y-101781446D01*
X131777007Y-101789504D01*
X131753803Y-101795316D01*
X131730142Y-101798826D01*
X131706250Y-101800000D01*
X130793750Y-101800000D01*
X130769858Y-101798826D01*
X130746197Y-101795316D01*
X130722993Y-101789504D01*
X130700471Y-101781446D01*
X130678847Y-101771218D01*
X130658330Y-101758921D01*
X130639117Y-101744671D01*
X130621393Y-101728607D01*
X130605329Y-101710883D01*
X130591079Y-101691670D01*
X130578782Y-101671153D01*
X130568554Y-101649529D01*
X130560496Y-101627007D01*
X130554684Y-101603803D01*
X130551174Y-101580142D01*
X130550000Y-101556250D01*
X130550000Y-101068750D01*
X130551174Y-101044858D01*
X130554684Y-101021197D01*
X130560496Y-100997993D01*
X130568554Y-100975471D01*
X130578782Y-100953847D01*
X130591079Y-100933330D01*
X130605329Y-100914117D01*
X130621393Y-100896393D01*
X130639117Y-100880329D01*
X130658330Y-100866079D01*
X130678847Y-100853782D01*
X130700471Y-100843554D01*
X130722993Y-100835496D01*
X130746197Y-100829684D01*
X130769858Y-100826174D01*
X130793750Y-100825000D01*
X131706250Y-100825000D01*
X131730142Y-100826174D01*
X131730142Y-100826174D01*
G37*
D13*
G04 #@! TD*
G04 #@! TO.P,C5,1*
G04 #@! TO.N,/3V3*
X131250000Y-101312500D03*
D12*
G04 #@! TO.N,/DGND*
G04 #@! TO.C,C6*
G36*
X148980142Y-109201174D02*
X149003803Y-109204684D01*
X149027007Y-109210496D01*
X149049529Y-109218554D01*
X149071153Y-109228782D01*
X149091670Y-109241079D01*
X149110883Y-109255329D01*
X149128607Y-109271393D01*
X149144671Y-109289117D01*
X149158921Y-109308330D01*
X149171218Y-109328847D01*
X149181446Y-109350471D01*
X149189504Y-109372993D01*
X149195316Y-109396197D01*
X149198826Y-109419858D01*
X149200000Y-109443750D01*
X149200000Y-109931250D01*
X149198826Y-109955142D01*
X149195316Y-109978803D01*
X149189504Y-110002007D01*
X149181446Y-110024529D01*
X149171218Y-110046153D01*
X149158921Y-110066670D01*
X149144671Y-110085883D01*
X149128607Y-110103607D01*
X149110883Y-110119671D01*
X149091670Y-110133921D01*
X149071153Y-110146218D01*
X149049529Y-110156446D01*
X149027007Y-110164504D01*
X149003803Y-110170316D01*
X148980142Y-110173826D01*
X148956250Y-110175000D01*
X148043750Y-110175000D01*
X148019858Y-110173826D01*
X147996197Y-110170316D01*
X147972993Y-110164504D01*
X147950471Y-110156446D01*
X147928847Y-110146218D01*
X147908330Y-110133921D01*
X147889117Y-110119671D01*
X147871393Y-110103607D01*
X147855329Y-110085883D01*
X147841079Y-110066670D01*
X147828782Y-110046153D01*
X147818554Y-110024529D01*
X147810496Y-110002007D01*
X147804684Y-109978803D01*
X147801174Y-109955142D01*
X147800000Y-109931250D01*
X147800000Y-109443750D01*
X147801174Y-109419858D01*
X147804684Y-109396197D01*
X147810496Y-109372993D01*
X147818554Y-109350471D01*
X147828782Y-109328847D01*
X147841079Y-109308330D01*
X147855329Y-109289117D01*
X147871393Y-109271393D01*
X147889117Y-109255329D01*
X147908330Y-109241079D01*
X147928847Y-109228782D01*
X147950471Y-109218554D01*
X147972993Y-109210496D01*
X147996197Y-109204684D01*
X148019858Y-109201174D01*
X148043750Y-109200000D01*
X148956250Y-109200000D01*
X148980142Y-109201174D01*
X148980142Y-109201174D01*
G37*
D13*
G04 #@! TD*
G04 #@! TO.P,C6,2*
G04 #@! TO.N,/DGND*
X148500000Y-109687500D03*
D12*
G04 #@! TO.N,Net-(C6-Pad1)*
G04 #@! TO.C,C6*
G36*
X148980142Y-107326174D02*
X149003803Y-107329684D01*
X149027007Y-107335496D01*
X149049529Y-107343554D01*
X149071153Y-107353782D01*
X149091670Y-107366079D01*
X149110883Y-107380329D01*
X149128607Y-107396393D01*
X149144671Y-107414117D01*
X149158921Y-107433330D01*
X149171218Y-107453847D01*
X149181446Y-107475471D01*
X149189504Y-107497993D01*
X149195316Y-107521197D01*
X149198826Y-107544858D01*
X149200000Y-107568750D01*
X149200000Y-108056250D01*
X149198826Y-108080142D01*
X149195316Y-108103803D01*
X149189504Y-108127007D01*
X149181446Y-108149529D01*
X149171218Y-108171153D01*
X149158921Y-108191670D01*
X149144671Y-108210883D01*
X149128607Y-108228607D01*
X149110883Y-108244671D01*
X149091670Y-108258921D01*
X149071153Y-108271218D01*
X149049529Y-108281446D01*
X149027007Y-108289504D01*
X149003803Y-108295316D01*
X148980142Y-108298826D01*
X148956250Y-108300000D01*
X148043750Y-108300000D01*
X148019858Y-108298826D01*
X147996197Y-108295316D01*
X147972993Y-108289504D01*
X147950471Y-108281446D01*
X147928847Y-108271218D01*
X147908330Y-108258921D01*
X147889117Y-108244671D01*
X147871393Y-108228607D01*
X147855329Y-108210883D01*
X147841079Y-108191670D01*
X147828782Y-108171153D01*
X147818554Y-108149529D01*
X147810496Y-108127007D01*
X147804684Y-108103803D01*
X147801174Y-108080142D01*
X147800000Y-108056250D01*
X147800000Y-107568750D01*
X147801174Y-107544858D01*
X147804684Y-107521197D01*
X147810496Y-107497993D01*
X147818554Y-107475471D01*
X147828782Y-107453847D01*
X147841079Y-107433330D01*
X147855329Y-107414117D01*
X147871393Y-107396393D01*
X147889117Y-107380329D01*
X147908330Y-107366079D01*
X147928847Y-107353782D01*
X147950471Y-107343554D01*
X147972993Y-107335496D01*
X147996197Y-107329684D01*
X148019858Y-107326174D01*
X148043750Y-107325000D01*
X148956250Y-107325000D01*
X148980142Y-107326174D01*
X148980142Y-107326174D01*
G37*
D13*
G04 #@! TD*
G04 #@! TO.P,C6,1*
G04 #@! TO.N,Net-(C6-Pad1)*
X148500000Y-107812500D03*
D12*
G04 #@! TO.N,Net-(C7-Pad1)*
G04 #@! TO.C,C7*
G36*
X145230142Y-107326174D02*
X145253803Y-107329684D01*
X145277007Y-107335496D01*
X145299529Y-107343554D01*
X145321153Y-107353782D01*
X145341670Y-107366079D01*
X145360883Y-107380329D01*
X145378607Y-107396393D01*
X145394671Y-107414117D01*
X145408921Y-107433330D01*
X145421218Y-107453847D01*
X145431446Y-107475471D01*
X145439504Y-107497993D01*
X145445316Y-107521197D01*
X145448826Y-107544858D01*
X145450000Y-107568750D01*
X145450000Y-108056250D01*
X145448826Y-108080142D01*
X145445316Y-108103803D01*
X145439504Y-108127007D01*
X145431446Y-108149529D01*
X145421218Y-108171153D01*
X145408921Y-108191670D01*
X145394671Y-108210883D01*
X145378607Y-108228607D01*
X145360883Y-108244671D01*
X145341670Y-108258921D01*
X145321153Y-108271218D01*
X145299529Y-108281446D01*
X145277007Y-108289504D01*
X145253803Y-108295316D01*
X145230142Y-108298826D01*
X145206250Y-108300000D01*
X144293750Y-108300000D01*
X144269858Y-108298826D01*
X144246197Y-108295316D01*
X144222993Y-108289504D01*
X144200471Y-108281446D01*
X144178847Y-108271218D01*
X144158330Y-108258921D01*
X144139117Y-108244671D01*
X144121393Y-108228607D01*
X144105329Y-108210883D01*
X144091079Y-108191670D01*
X144078782Y-108171153D01*
X144068554Y-108149529D01*
X144060496Y-108127007D01*
X144054684Y-108103803D01*
X144051174Y-108080142D01*
X144050000Y-108056250D01*
X144050000Y-107568750D01*
X144051174Y-107544858D01*
X144054684Y-107521197D01*
X144060496Y-107497993D01*
X144068554Y-107475471D01*
X144078782Y-107453847D01*
X144091079Y-107433330D01*
X144105329Y-107414117D01*
X144121393Y-107396393D01*
X144139117Y-107380329D01*
X144158330Y-107366079D01*
X144178847Y-107353782D01*
X144200471Y-107343554D01*
X144222993Y-107335496D01*
X144246197Y-107329684D01*
X144269858Y-107326174D01*
X144293750Y-107325000D01*
X145206250Y-107325000D01*
X145230142Y-107326174D01*
X145230142Y-107326174D01*
G37*
D13*
G04 #@! TD*
G04 #@! TO.P,C7,1*
G04 #@! TO.N,Net-(C7-Pad1)*
X144750000Y-107812500D03*
D12*
G04 #@! TO.N,Net-(C7-Pad2)*
G04 #@! TO.C,C7*
G36*
X145230142Y-109201174D02*
X145253803Y-109204684D01*
X145277007Y-109210496D01*
X145299529Y-109218554D01*
X145321153Y-109228782D01*
X145341670Y-109241079D01*
X145360883Y-109255329D01*
X145378607Y-109271393D01*
X145394671Y-109289117D01*
X145408921Y-109308330D01*
X145421218Y-109328847D01*
X145431446Y-109350471D01*
X145439504Y-109372993D01*
X145445316Y-109396197D01*
X145448826Y-109419858D01*
X145450000Y-109443750D01*
X145450000Y-109931250D01*
X145448826Y-109955142D01*
X145445316Y-109978803D01*
X145439504Y-110002007D01*
X145431446Y-110024529D01*
X145421218Y-110046153D01*
X145408921Y-110066670D01*
X145394671Y-110085883D01*
X145378607Y-110103607D01*
X145360883Y-110119671D01*
X145341670Y-110133921D01*
X145321153Y-110146218D01*
X145299529Y-110156446D01*
X145277007Y-110164504D01*
X145253803Y-110170316D01*
X145230142Y-110173826D01*
X145206250Y-110175000D01*
X144293750Y-110175000D01*
X144269858Y-110173826D01*
X144246197Y-110170316D01*
X144222993Y-110164504D01*
X144200471Y-110156446D01*
X144178847Y-110146218D01*
X144158330Y-110133921D01*
X144139117Y-110119671D01*
X144121393Y-110103607D01*
X144105329Y-110085883D01*
X144091079Y-110066670D01*
X144078782Y-110046153D01*
X144068554Y-110024529D01*
X144060496Y-110002007D01*
X144054684Y-109978803D01*
X144051174Y-109955142D01*
X144050000Y-109931250D01*
X144050000Y-109443750D01*
X144051174Y-109419858D01*
X144054684Y-109396197D01*
X144060496Y-109372993D01*
X144068554Y-109350471D01*
X144078782Y-109328847D01*
X144091079Y-109308330D01*
X144105329Y-109289117D01*
X144121393Y-109271393D01*
X144139117Y-109255329D01*
X144158330Y-109241079D01*
X144178847Y-109228782D01*
X144200471Y-109218554D01*
X144222993Y-109210496D01*
X144246197Y-109204684D01*
X144269858Y-109201174D01*
X144293750Y-109200000D01*
X145206250Y-109200000D01*
X145230142Y-109201174D01*
X145230142Y-109201174D01*
G37*
D13*
G04 #@! TD*
G04 #@! TO.P,C7,2*
G04 #@! TO.N,Net-(C7-Pad2)*
X144750000Y-109687500D03*
D12*
G04 #@! TO.N,Net-(C8-Pad1)*
G04 #@! TO.C,C8*
G36*
X148980142Y-102826174D02*
X149003803Y-102829684D01*
X149027007Y-102835496D01*
X149049529Y-102843554D01*
X149071153Y-102853782D01*
X149091670Y-102866079D01*
X149110883Y-102880329D01*
X149128607Y-102896393D01*
X149144671Y-102914117D01*
X149158921Y-102933330D01*
X149171218Y-102953847D01*
X149181446Y-102975471D01*
X149189504Y-102997993D01*
X149195316Y-103021197D01*
X149198826Y-103044858D01*
X149200000Y-103068750D01*
X149200000Y-103556250D01*
X149198826Y-103580142D01*
X149195316Y-103603803D01*
X149189504Y-103627007D01*
X149181446Y-103649529D01*
X149171218Y-103671153D01*
X149158921Y-103691670D01*
X149144671Y-103710883D01*
X149128607Y-103728607D01*
X149110883Y-103744671D01*
X149091670Y-103758921D01*
X149071153Y-103771218D01*
X149049529Y-103781446D01*
X149027007Y-103789504D01*
X149003803Y-103795316D01*
X148980142Y-103798826D01*
X148956250Y-103800000D01*
X148043750Y-103800000D01*
X148019858Y-103798826D01*
X147996197Y-103795316D01*
X147972993Y-103789504D01*
X147950471Y-103781446D01*
X147928847Y-103771218D01*
X147908330Y-103758921D01*
X147889117Y-103744671D01*
X147871393Y-103728607D01*
X147855329Y-103710883D01*
X147841079Y-103691670D01*
X147828782Y-103671153D01*
X147818554Y-103649529D01*
X147810496Y-103627007D01*
X147804684Y-103603803D01*
X147801174Y-103580142D01*
X147800000Y-103556250D01*
X147800000Y-103068750D01*
X147801174Y-103044858D01*
X147804684Y-103021197D01*
X147810496Y-102997993D01*
X147818554Y-102975471D01*
X147828782Y-102953847D01*
X147841079Y-102933330D01*
X147855329Y-102914117D01*
X147871393Y-102896393D01*
X147889117Y-102880329D01*
X147908330Y-102866079D01*
X147928847Y-102853782D01*
X147950471Y-102843554D01*
X147972993Y-102835496D01*
X147996197Y-102829684D01*
X148019858Y-102826174D01*
X148043750Y-102825000D01*
X148956250Y-102825000D01*
X148980142Y-102826174D01*
X148980142Y-102826174D01*
G37*
D13*
G04 #@! TD*
G04 #@! TO.P,C8,1*
G04 #@! TO.N,Net-(C8-Pad1)*
X148500000Y-103312500D03*
D12*
G04 #@! TO.N,/DGND*
G04 #@! TO.C,C8*
G36*
X148980142Y-104701174D02*
X149003803Y-104704684D01*
X149027007Y-104710496D01*
X149049529Y-104718554D01*
X149071153Y-104728782D01*
X149091670Y-104741079D01*
X149110883Y-104755329D01*
X149128607Y-104771393D01*
X149144671Y-104789117D01*
X149158921Y-104808330D01*
X149171218Y-104828847D01*
X149181446Y-104850471D01*
X149189504Y-104872993D01*
X149195316Y-104896197D01*
X149198826Y-104919858D01*
X149200000Y-104943750D01*
X149200000Y-105431250D01*
X149198826Y-105455142D01*
X149195316Y-105478803D01*
X149189504Y-105502007D01*
X149181446Y-105524529D01*
X149171218Y-105546153D01*
X149158921Y-105566670D01*
X149144671Y-105585883D01*
X149128607Y-105603607D01*
X149110883Y-105619671D01*
X149091670Y-105633921D01*
X149071153Y-105646218D01*
X149049529Y-105656446D01*
X149027007Y-105664504D01*
X149003803Y-105670316D01*
X148980142Y-105673826D01*
X148956250Y-105675000D01*
X148043750Y-105675000D01*
X148019858Y-105673826D01*
X147996197Y-105670316D01*
X147972993Y-105664504D01*
X147950471Y-105656446D01*
X147928847Y-105646218D01*
X147908330Y-105633921D01*
X147889117Y-105619671D01*
X147871393Y-105603607D01*
X147855329Y-105585883D01*
X147841079Y-105566670D01*
X147828782Y-105546153D01*
X147818554Y-105524529D01*
X147810496Y-105502007D01*
X147804684Y-105478803D01*
X147801174Y-105455142D01*
X147800000Y-105431250D01*
X147800000Y-104943750D01*
X147801174Y-104919858D01*
X147804684Y-104896197D01*
X147810496Y-104872993D01*
X147818554Y-104850471D01*
X147828782Y-104828847D01*
X147841079Y-104808330D01*
X147855329Y-104789117D01*
X147871393Y-104771393D01*
X147889117Y-104755329D01*
X147908330Y-104741079D01*
X147928847Y-104728782D01*
X147950471Y-104718554D01*
X147972993Y-104710496D01*
X147996197Y-104704684D01*
X148019858Y-104701174D01*
X148043750Y-104700000D01*
X148956250Y-104700000D01*
X148980142Y-104701174D01*
X148980142Y-104701174D01*
G37*
D13*
G04 #@! TD*
G04 #@! TO.P,C8,2*
G04 #@! TO.N,/DGND*
X148500000Y-105187500D03*
D12*
G04 #@! TO.N,Net-(C9-Pad2)*
G04 #@! TO.C,C9*
G36*
X128980142Y-113951174D02*
X129003803Y-113954684D01*
X129027007Y-113960496D01*
X129049529Y-113968554D01*
X129071153Y-113978782D01*
X129091670Y-113991079D01*
X129110883Y-114005329D01*
X129128607Y-114021393D01*
X129144671Y-114039117D01*
X129158921Y-114058330D01*
X129171218Y-114078847D01*
X129181446Y-114100471D01*
X129189504Y-114122993D01*
X129195316Y-114146197D01*
X129198826Y-114169858D01*
X129200000Y-114193750D01*
X129200000Y-114681250D01*
X129198826Y-114705142D01*
X129195316Y-114728803D01*
X129189504Y-114752007D01*
X129181446Y-114774529D01*
X129171218Y-114796153D01*
X129158921Y-114816670D01*
X129144671Y-114835883D01*
X129128607Y-114853607D01*
X129110883Y-114869671D01*
X129091670Y-114883921D01*
X129071153Y-114896218D01*
X129049529Y-114906446D01*
X129027007Y-114914504D01*
X129003803Y-114920316D01*
X128980142Y-114923826D01*
X128956250Y-114925000D01*
X128043750Y-114925000D01*
X128019858Y-114923826D01*
X127996197Y-114920316D01*
X127972993Y-114914504D01*
X127950471Y-114906446D01*
X127928847Y-114896218D01*
X127908330Y-114883921D01*
X127889117Y-114869671D01*
X127871393Y-114853607D01*
X127855329Y-114835883D01*
X127841079Y-114816670D01*
X127828782Y-114796153D01*
X127818554Y-114774529D01*
X127810496Y-114752007D01*
X127804684Y-114728803D01*
X127801174Y-114705142D01*
X127800000Y-114681250D01*
X127800000Y-114193750D01*
X127801174Y-114169858D01*
X127804684Y-114146197D01*
X127810496Y-114122993D01*
X127818554Y-114100471D01*
X127828782Y-114078847D01*
X127841079Y-114058330D01*
X127855329Y-114039117D01*
X127871393Y-114021393D01*
X127889117Y-114005329D01*
X127908330Y-113991079D01*
X127928847Y-113978782D01*
X127950471Y-113968554D01*
X127972993Y-113960496D01*
X127996197Y-113954684D01*
X128019858Y-113951174D01*
X128043750Y-113950000D01*
X128956250Y-113950000D01*
X128980142Y-113951174D01*
X128980142Y-113951174D01*
G37*
D13*
G04 #@! TD*
G04 #@! TO.P,C9,2*
G04 #@! TO.N,Net-(C9-Pad2)*
X128500000Y-114437500D03*
D12*
G04 #@! TO.N,/3V3*
G04 #@! TO.C,C9*
G36*
X128980142Y-112076174D02*
X129003803Y-112079684D01*
X129027007Y-112085496D01*
X129049529Y-112093554D01*
X129071153Y-112103782D01*
X129091670Y-112116079D01*
X129110883Y-112130329D01*
X129128607Y-112146393D01*
X129144671Y-112164117D01*
X129158921Y-112183330D01*
X129171218Y-112203847D01*
X129181446Y-112225471D01*
X129189504Y-112247993D01*
X129195316Y-112271197D01*
X129198826Y-112294858D01*
X129200000Y-112318750D01*
X129200000Y-112806250D01*
X129198826Y-112830142D01*
X129195316Y-112853803D01*
X129189504Y-112877007D01*
X129181446Y-112899529D01*
X129171218Y-112921153D01*
X129158921Y-112941670D01*
X129144671Y-112960883D01*
X129128607Y-112978607D01*
X129110883Y-112994671D01*
X129091670Y-113008921D01*
X129071153Y-113021218D01*
X129049529Y-113031446D01*
X129027007Y-113039504D01*
X129003803Y-113045316D01*
X128980142Y-113048826D01*
X128956250Y-113050000D01*
X128043750Y-113050000D01*
X128019858Y-113048826D01*
X127996197Y-113045316D01*
X127972993Y-113039504D01*
X127950471Y-113031446D01*
X127928847Y-113021218D01*
X127908330Y-113008921D01*
X127889117Y-112994671D01*
X127871393Y-112978607D01*
X127855329Y-112960883D01*
X127841079Y-112941670D01*
X127828782Y-112921153D01*
X127818554Y-112899529D01*
X127810496Y-112877007D01*
X127804684Y-112853803D01*
X127801174Y-112830142D01*
X127800000Y-112806250D01*
X127800000Y-112318750D01*
X127801174Y-112294858D01*
X127804684Y-112271197D01*
X127810496Y-112247993D01*
X127818554Y-112225471D01*
X127828782Y-112203847D01*
X127841079Y-112183330D01*
X127855329Y-112164117D01*
X127871393Y-112146393D01*
X127889117Y-112130329D01*
X127908330Y-112116079D01*
X127928847Y-112103782D01*
X127950471Y-112093554D01*
X127972993Y-112085496D01*
X127996197Y-112079684D01*
X128019858Y-112076174D01*
X128043750Y-112075000D01*
X128956250Y-112075000D01*
X128980142Y-112076174D01*
X128980142Y-112076174D01*
G37*
D13*
G04 #@! TD*
G04 #@! TO.P,C9,1*
G04 #@! TO.N,/3V3*
X128500000Y-112562500D03*
D12*
G04 #@! TO.N,Net-(C10-Pad1)*
G04 #@! TO.C,C10*
G36*
X132480142Y-116826174D02*
X132503803Y-116829684D01*
X132527007Y-116835496D01*
X132549529Y-116843554D01*
X132571153Y-116853782D01*
X132591670Y-116866079D01*
X132610883Y-116880329D01*
X132628607Y-116896393D01*
X132644671Y-116914117D01*
X132658921Y-116933330D01*
X132671218Y-116953847D01*
X132681446Y-116975471D01*
X132689504Y-116997993D01*
X132695316Y-117021197D01*
X132698826Y-117044858D01*
X132700000Y-117068750D01*
X132700000Y-117556250D01*
X132698826Y-117580142D01*
X132695316Y-117603803D01*
X132689504Y-117627007D01*
X132681446Y-117649529D01*
X132671218Y-117671153D01*
X132658921Y-117691670D01*
X132644671Y-117710883D01*
X132628607Y-117728607D01*
X132610883Y-117744671D01*
X132591670Y-117758921D01*
X132571153Y-117771218D01*
X132549529Y-117781446D01*
X132527007Y-117789504D01*
X132503803Y-117795316D01*
X132480142Y-117798826D01*
X132456250Y-117800000D01*
X131543750Y-117800000D01*
X131519858Y-117798826D01*
X131496197Y-117795316D01*
X131472993Y-117789504D01*
X131450471Y-117781446D01*
X131428847Y-117771218D01*
X131408330Y-117758921D01*
X131389117Y-117744671D01*
X131371393Y-117728607D01*
X131355329Y-117710883D01*
X131341079Y-117691670D01*
X131328782Y-117671153D01*
X131318554Y-117649529D01*
X131310496Y-117627007D01*
X131304684Y-117603803D01*
X131301174Y-117580142D01*
X131300000Y-117556250D01*
X131300000Y-117068750D01*
X131301174Y-117044858D01*
X131304684Y-117021197D01*
X131310496Y-116997993D01*
X131318554Y-116975471D01*
X131328782Y-116953847D01*
X131341079Y-116933330D01*
X131355329Y-116914117D01*
X131371393Y-116896393D01*
X131389117Y-116880329D01*
X131408330Y-116866079D01*
X131428847Y-116853782D01*
X131450471Y-116843554D01*
X131472993Y-116835496D01*
X131496197Y-116829684D01*
X131519858Y-116826174D01*
X131543750Y-116825000D01*
X132456250Y-116825000D01*
X132480142Y-116826174D01*
X132480142Y-116826174D01*
G37*
D13*
G04 #@! TD*
G04 #@! TO.P,C10,1*
G04 #@! TO.N,Net-(C10-Pad1)*
X132000000Y-117312500D03*
D12*
G04 #@! TO.N,/DGND*
G04 #@! TO.C,C10*
G36*
X132480142Y-118701174D02*
X132503803Y-118704684D01*
X132527007Y-118710496D01*
X132549529Y-118718554D01*
X132571153Y-118728782D01*
X132591670Y-118741079D01*
X132610883Y-118755329D01*
X132628607Y-118771393D01*
X132644671Y-118789117D01*
X132658921Y-118808330D01*
X132671218Y-118828847D01*
X132681446Y-118850471D01*
X132689504Y-118872993D01*
X132695316Y-118896197D01*
X132698826Y-118919858D01*
X132700000Y-118943750D01*
X132700000Y-119431250D01*
X132698826Y-119455142D01*
X132695316Y-119478803D01*
X132689504Y-119502007D01*
X132681446Y-119524529D01*
X132671218Y-119546153D01*
X132658921Y-119566670D01*
X132644671Y-119585883D01*
X132628607Y-119603607D01*
X132610883Y-119619671D01*
X132591670Y-119633921D01*
X132571153Y-119646218D01*
X132549529Y-119656446D01*
X132527007Y-119664504D01*
X132503803Y-119670316D01*
X132480142Y-119673826D01*
X132456250Y-119675000D01*
X131543750Y-119675000D01*
X131519858Y-119673826D01*
X131496197Y-119670316D01*
X131472993Y-119664504D01*
X131450471Y-119656446D01*
X131428847Y-119646218D01*
X131408330Y-119633921D01*
X131389117Y-119619671D01*
X131371393Y-119603607D01*
X131355329Y-119585883D01*
X131341079Y-119566670D01*
X131328782Y-119546153D01*
X131318554Y-119524529D01*
X131310496Y-119502007D01*
X131304684Y-119478803D01*
X131301174Y-119455142D01*
X131300000Y-119431250D01*
X131300000Y-118943750D01*
X131301174Y-118919858D01*
X131304684Y-118896197D01*
X131310496Y-118872993D01*
X131318554Y-118850471D01*
X131328782Y-118828847D01*
X131341079Y-118808330D01*
X131355329Y-118789117D01*
X131371393Y-118771393D01*
X131389117Y-118755329D01*
X131408330Y-118741079D01*
X131428847Y-118728782D01*
X131450471Y-118718554D01*
X131472993Y-118710496D01*
X131496197Y-118704684D01*
X131519858Y-118701174D01*
X131543750Y-118700000D01*
X132456250Y-118700000D01*
X132480142Y-118701174D01*
X132480142Y-118701174D01*
G37*
D13*
G04 #@! TD*
G04 #@! TO.P,C10,2*
G04 #@! TO.N,/DGND*
X132000000Y-119187500D03*
D14*
G04 #@! TO.P,D3,2*
G04 #@! TO.N,Net-(C4-Pad1)*
X152950000Y-115500000D03*
G04 #@! TO.P,D3,*
G04 #@! TO.N,*
X151050000Y-115500000D03*
G04 #@! TO.P,D3,1*
G04 #@! TO.N,Net-(D3-Pad1)*
X152000000Y-113500000D03*
G04 #@! TD*
D12*
G04 #@! TO.N,/rPi/UART_RX*
G04 #@! TO.C,D_RX1*
G36*
X165230142Y-100951174D02*
X165253803Y-100954684D01*
X165277007Y-100960496D01*
X165299529Y-100968554D01*
X165321153Y-100978782D01*
X165341670Y-100991079D01*
X165360883Y-101005329D01*
X165378607Y-101021393D01*
X165394671Y-101039117D01*
X165408921Y-101058330D01*
X165421218Y-101078847D01*
X165431446Y-101100471D01*
X165439504Y-101122993D01*
X165445316Y-101146197D01*
X165448826Y-101169858D01*
X165450000Y-101193750D01*
X165450000Y-101681250D01*
X165448826Y-101705142D01*
X165445316Y-101728803D01*
X165439504Y-101752007D01*
X165431446Y-101774529D01*
X165421218Y-101796153D01*
X165408921Y-101816670D01*
X165394671Y-101835883D01*
X165378607Y-101853607D01*
X165360883Y-101869671D01*
X165341670Y-101883921D01*
X165321153Y-101896218D01*
X165299529Y-101906446D01*
X165277007Y-101914504D01*
X165253803Y-101920316D01*
X165230142Y-101923826D01*
X165206250Y-101925000D01*
X164293750Y-101925000D01*
X164269858Y-101923826D01*
X164246197Y-101920316D01*
X164222993Y-101914504D01*
X164200471Y-101906446D01*
X164178847Y-101896218D01*
X164158330Y-101883921D01*
X164139117Y-101869671D01*
X164121393Y-101853607D01*
X164105329Y-101835883D01*
X164091079Y-101816670D01*
X164078782Y-101796153D01*
X164068554Y-101774529D01*
X164060496Y-101752007D01*
X164054684Y-101728803D01*
X164051174Y-101705142D01*
X164050000Y-101681250D01*
X164050000Y-101193750D01*
X164051174Y-101169858D01*
X164054684Y-101146197D01*
X164060496Y-101122993D01*
X164068554Y-101100471D01*
X164078782Y-101078847D01*
X164091079Y-101058330D01*
X164105329Y-101039117D01*
X164121393Y-101021393D01*
X164139117Y-101005329D01*
X164158330Y-100991079D01*
X164178847Y-100978782D01*
X164200471Y-100968554D01*
X164222993Y-100960496D01*
X164246197Y-100954684D01*
X164269858Y-100951174D01*
X164293750Y-100950000D01*
X165206250Y-100950000D01*
X165230142Y-100951174D01*
X165230142Y-100951174D01*
G37*
D13*
G04 #@! TD*
G04 #@! TO.P,D_RX1,1*
G04 #@! TO.N,/rPi/UART_RX*
X164750000Y-101437500D03*
D12*
G04 #@! TO.N,Net-(D_RX1-Pad2)*
G04 #@! TO.C,D_RX1*
G36*
X165230142Y-99076174D02*
X165253803Y-99079684D01*
X165277007Y-99085496D01*
X165299529Y-99093554D01*
X165321153Y-99103782D01*
X165341670Y-99116079D01*
X165360883Y-99130329D01*
X165378607Y-99146393D01*
X165394671Y-99164117D01*
X165408921Y-99183330D01*
X165421218Y-99203847D01*
X165431446Y-99225471D01*
X165439504Y-99247993D01*
X165445316Y-99271197D01*
X165448826Y-99294858D01*
X165450000Y-99318750D01*
X165450000Y-99806250D01*
X165448826Y-99830142D01*
X165445316Y-99853803D01*
X165439504Y-99877007D01*
X165431446Y-99899529D01*
X165421218Y-99921153D01*
X165408921Y-99941670D01*
X165394671Y-99960883D01*
X165378607Y-99978607D01*
X165360883Y-99994671D01*
X165341670Y-100008921D01*
X165321153Y-100021218D01*
X165299529Y-100031446D01*
X165277007Y-100039504D01*
X165253803Y-100045316D01*
X165230142Y-100048826D01*
X165206250Y-100050000D01*
X164293750Y-100050000D01*
X164269858Y-100048826D01*
X164246197Y-100045316D01*
X164222993Y-100039504D01*
X164200471Y-100031446D01*
X164178847Y-100021218D01*
X164158330Y-100008921D01*
X164139117Y-99994671D01*
X164121393Y-99978607D01*
X164105329Y-99960883D01*
X164091079Y-99941670D01*
X164078782Y-99921153D01*
X164068554Y-99899529D01*
X164060496Y-99877007D01*
X164054684Y-99853803D01*
X164051174Y-99830142D01*
X164050000Y-99806250D01*
X164050000Y-99318750D01*
X164051174Y-99294858D01*
X164054684Y-99271197D01*
X164060496Y-99247993D01*
X164068554Y-99225471D01*
X164078782Y-99203847D01*
X164091079Y-99183330D01*
X164105329Y-99164117D01*
X164121393Y-99146393D01*
X164139117Y-99130329D01*
X164158330Y-99116079D01*
X164178847Y-99103782D01*
X164200471Y-99093554D01*
X164222993Y-99085496D01*
X164246197Y-99079684D01*
X164269858Y-99076174D01*
X164293750Y-99075000D01*
X165206250Y-99075000D01*
X165230142Y-99076174D01*
X165230142Y-99076174D01*
G37*
D13*
G04 #@! TD*
G04 #@! TO.P,D_RX1,2*
G04 #@! TO.N,Net-(D_RX1-Pad2)*
X164750000Y-99562500D03*
D12*
G04 #@! TO.N,Net-(D_TX1-Pad2)*
G04 #@! TO.C,D_TX1*
G36*
X168730142Y-99076174D02*
X168753803Y-99079684D01*
X168777007Y-99085496D01*
X168799529Y-99093554D01*
X168821153Y-99103782D01*
X168841670Y-99116079D01*
X168860883Y-99130329D01*
X168878607Y-99146393D01*
X168894671Y-99164117D01*
X168908921Y-99183330D01*
X168921218Y-99203847D01*
X168931446Y-99225471D01*
X168939504Y-99247993D01*
X168945316Y-99271197D01*
X168948826Y-99294858D01*
X168950000Y-99318750D01*
X168950000Y-99806250D01*
X168948826Y-99830142D01*
X168945316Y-99853803D01*
X168939504Y-99877007D01*
X168931446Y-99899529D01*
X168921218Y-99921153D01*
X168908921Y-99941670D01*
X168894671Y-99960883D01*
X168878607Y-99978607D01*
X168860883Y-99994671D01*
X168841670Y-100008921D01*
X168821153Y-100021218D01*
X168799529Y-100031446D01*
X168777007Y-100039504D01*
X168753803Y-100045316D01*
X168730142Y-100048826D01*
X168706250Y-100050000D01*
X167793750Y-100050000D01*
X167769858Y-100048826D01*
X167746197Y-100045316D01*
X167722993Y-100039504D01*
X167700471Y-100031446D01*
X167678847Y-100021218D01*
X167658330Y-100008921D01*
X167639117Y-99994671D01*
X167621393Y-99978607D01*
X167605329Y-99960883D01*
X167591079Y-99941670D01*
X167578782Y-99921153D01*
X167568554Y-99899529D01*
X167560496Y-99877007D01*
X167554684Y-99853803D01*
X167551174Y-99830142D01*
X167550000Y-99806250D01*
X167550000Y-99318750D01*
X167551174Y-99294858D01*
X167554684Y-99271197D01*
X167560496Y-99247993D01*
X167568554Y-99225471D01*
X167578782Y-99203847D01*
X167591079Y-99183330D01*
X167605329Y-99164117D01*
X167621393Y-99146393D01*
X167639117Y-99130329D01*
X167658330Y-99116079D01*
X167678847Y-99103782D01*
X167700471Y-99093554D01*
X167722993Y-99085496D01*
X167746197Y-99079684D01*
X167769858Y-99076174D01*
X167793750Y-99075000D01*
X168706250Y-99075000D01*
X168730142Y-99076174D01*
X168730142Y-99076174D01*
G37*
D13*
G04 #@! TD*
G04 #@! TO.P,D_TX1,2*
G04 #@! TO.N,Net-(D_TX1-Pad2)*
X168250000Y-99562500D03*
D12*
G04 #@! TO.N,/rPi/UART_TX*
G04 #@! TO.C,D_TX1*
G36*
X168730142Y-100951174D02*
X168753803Y-100954684D01*
X168777007Y-100960496D01*
X168799529Y-100968554D01*
X168821153Y-100978782D01*
X168841670Y-100991079D01*
X168860883Y-101005329D01*
X168878607Y-101021393D01*
X168894671Y-101039117D01*
X168908921Y-101058330D01*
X168921218Y-101078847D01*
X168931446Y-101100471D01*
X168939504Y-101122993D01*
X168945316Y-101146197D01*
X168948826Y-101169858D01*
X168950000Y-101193750D01*
X168950000Y-101681250D01*
X168948826Y-101705142D01*
X168945316Y-101728803D01*
X168939504Y-101752007D01*
X168931446Y-101774529D01*
X168921218Y-101796153D01*
X168908921Y-101816670D01*
X168894671Y-101835883D01*
X168878607Y-101853607D01*
X168860883Y-101869671D01*
X168841670Y-101883921D01*
X168821153Y-101896218D01*
X168799529Y-101906446D01*
X168777007Y-101914504D01*
X168753803Y-101920316D01*
X168730142Y-101923826D01*
X168706250Y-101925000D01*
X167793750Y-101925000D01*
X167769858Y-101923826D01*
X167746197Y-101920316D01*
X167722993Y-101914504D01*
X167700471Y-101906446D01*
X167678847Y-101896218D01*
X167658330Y-101883921D01*
X167639117Y-101869671D01*
X167621393Y-101853607D01*
X167605329Y-101835883D01*
X167591079Y-101816670D01*
X167578782Y-101796153D01*
X167568554Y-101774529D01*
X167560496Y-101752007D01*
X167554684Y-101728803D01*
X167551174Y-101705142D01*
X167550000Y-101681250D01*
X167550000Y-101193750D01*
X167551174Y-101169858D01*
X167554684Y-101146197D01*
X167560496Y-101122993D01*
X167568554Y-101100471D01*
X167578782Y-101078847D01*
X167591079Y-101058330D01*
X167605329Y-101039117D01*
X167621393Y-101021393D01*
X167639117Y-101005329D01*
X167658330Y-100991079D01*
X167678847Y-100978782D01*
X167700471Y-100968554D01*
X167722993Y-100960496D01*
X167746197Y-100954684D01*
X167769858Y-100951174D01*
X167793750Y-100950000D01*
X168706250Y-100950000D01*
X168730142Y-100951174D01*
X168730142Y-100951174D01*
G37*
D13*
G04 #@! TD*
G04 #@! TO.P,D_TX1,1*
G04 #@! TO.N,/rPi/UART_TX*
X168250000Y-101437500D03*
D12*
G04 #@! TO.N,/serial/RS485_B-*
G04 #@! TO.C,F2*
G36*
X117449505Y-109301204D02*
X117473773Y-109304804D01*
X117497572Y-109310765D01*
X117520671Y-109319030D01*
X117542850Y-109329520D01*
X117563893Y-109342132D01*
X117583599Y-109356747D01*
X117601777Y-109373223D01*
X117618253Y-109391401D01*
X117632868Y-109411107D01*
X117645480Y-109432150D01*
X117655970Y-109454329D01*
X117664235Y-109477428D01*
X117670196Y-109501227D01*
X117673796Y-109525495D01*
X117675000Y-109549999D01*
X117675000Y-112450001D01*
X117673796Y-112474505D01*
X117670196Y-112498773D01*
X117664235Y-112522572D01*
X117655970Y-112545671D01*
X117645480Y-112567850D01*
X117632868Y-112588893D01*
X117618253Y-112608599D01*
X117601777Y-112626777D01*
X117583599Y-112643253D01*
X117563893Y-112657868D01*
X117542850Y-112670480D01*
X117520671Y-112680970D01*
X117497572Y-112689235D01*
X117473773Y-112695196D01*
X117449505Y-112698796D01*
X117425001Y-112700000D01*
X116799999Y-112700000D01*
X116775495Y-112698796D01*
X116751227Y-112695196D01*
X116727428Y-112689235D01*
X116704329Y-112680970D01*
X116682150Y-112670480D01*
X116661107Y-112657868D01*
X116641401Y-112643253D01*
X116623223Y-112626777D01*
X116606747Y-112608599D01*
X116592132Y-112588893D01*
X116579520Y-112567850D01*
X116569030Y-112545671D01*
X116560765Y-112522572D01*
X116554804Y-112498773D01*
X116551204Y-112474505D01*
X116550000Y-112450001D01*
X116550000Y-109549999D01*
X116551204Y-109525495D01*
X116554804Y-109501227D01*
X116560765Y-109477428D01*
X116569030Y-109454329D01*
X116579520Y-109432150D01*
X116592132Y-109411107D01*
X116606747Y-109391401D01*
X116623223Y-109373223D01*
X116641401Y-109356747D01*
X116661107Y-109342132D01*
X116682150Y-109329520D01*
X116704329Y-109319030D01*
X116727428Y-109310765D01*
X116751227Y-109304804D01*
X116775495Y-109301204D01*
X116799999Y-109300000D01*
X117425001Y-109300000D01*
X117449505Y-109301204D01*
X117449505Y-109301204D01*
G37*
D15*
G04 #@! TD*
G04 #@! TO.P,F2,1*
G04 #@! TO.N,/serial/RS485_B-*
X117112500Y-111000000D03*
D12*
G04 #@! TO.N,Net-(C9-Pad2)*
G04 #@! TO.C,F2*
G36*
X121724505Y-109301204D02*
X121748773Y-109304804D01*
X121772572Y-109310765D01*
X121795671Y-109319030D01*
X121817850Y-109329520D01*
X121838893Y-109342132D01*
X121858599Y-109356747D01*
X121876777Y-109373223D01*
X121893253Y-109391401D01*
X121907868Y-109411107D01*
X121920480Y-109432150D01*
X121930970Y-109454329D01*
X121939235Y-109477428D01*
X121945196Y-109501227D01*
X121948796Y-109525495D01*
X121950000Y-109549999D01*
X121950000Y-112450001D01*
X121948796Y-112474505D01*
X121945196Y-112498773D01*
X121939235Y-112522572D01*
X121930970Y-112545671D01*
X121920480Y-112567850D01*
X121907868Y-112588893D01*
X121893253Y-112608599D01*
X121876777Y-112626777D01*
X121858599Y-112643253D01*
X121838893Y-112657868D01*
X121817850Y-112670480D01*
X121795671Y-112680970D01*
X121772572Y-112689235D01*
X121748773Y-112695196D01*
X121724505Y-112698796D01*
X121700001Y-112700000D01*
X121074999Y-112700000D01*
X121050495Y-112698796D01*
X121026227Y-112695196D01*
X121002428Y-112689235D01*
X120979329Y-112680970D01*
X120957150Y-112670480D01*
X120936107Y-112657868D01*
X120916401Y-112643253D01*
X120898223Y-112626777D01*
X120881747Y-112608599D01*
X120867132Y-112588893D01*
X120854520Y-112567850D01*
X120844030Y-112545671D01*
X120835765Y-112522572D01*
X120829804Y-112498773D01*
X120826204Y-112474505D01*
X120825000Y-112450001D01*
X120825000Y-109549999D01*
X120826204Y-109525495D01*
X120829804Y-109501227D01*
X120835765Y-109477428D01*
X120844030Y-109454329D01*
X120854520Y-109432150D01*
X120867132Y-109411107D01*
X120881747Y-109391401D01*
X120898223Y-109373223D01*
X120916401Y-109356747D01*
X120936107Y-109342132D01*
X120957150Y-109329520D01*
X120979329Y-109319030D01*
X121002428Y-109310765D01*
X121026227Y-109304804D01*
X121050495Y-109301204D01*
X121074999Y-109300000D01*
X121700001Y-109300000D01*
X121724505Y-109301204D01*
X121724505Y-109301204D01*
G37*
D15*
G04 #@! TD*
G04 #@! TO.P,F2,2*
G04 #@! TO.N,Net-(C9-Pad2)*
X121387500Y-111000000D03*
D12*
G04 #@! TO.N,Net-(C10-Pad1)*
G04 #@! TO.C,F3*
G36*
X121974505Y-118051204D02*
X121998773Y-118054804D01*
X122022572Y-118060765D01*
X122045671Y-118069030D01*
X122067850Y-118079520D01*
X122088893Y-118092132D01*
X122108599Y-118106747D01*
X122126777Y-118123223D01*
X122143253Y-118141401D01*
X122157868Y-118161107D01*
X122170480Y-118182150D01*
X122180970Y-118204329D01*
X122189235Y-118227428D01*
X122195196Y-118251227D01*
X122198796Y-118275495D01*
X122200000Y-118299999D01*
X122200000Y-121200001D01*
X122198796Y-121224505D01*
X122195196Y-121248773D01*
X122189235Y-121272572D01*
X122180970Y-121295671D01*
X122170480Y-121317850D01*
X122157868Y-121338893D01*
X122143253Y-121358599D01*
X122126777Y-121376777D01*
X122108599Y-121393253D01*
X122088893Y-121407868D01*
X122067850Y-121420480D01*
X122045671Y-121430970D01*
X122022572Y-121439235D01*
X121998773Y-121445196D01*
X121974505Y-121448796D01*
X121950001Y-121450000D01*
X121324999Y-121450000D01*
X121300495Y-121448796D01*
X121276227Y-121445196D01*
X121252428Y-121439235D01*
X121229329Y-121430970D01*
X121207150Y-121420480D01*
X121186107Y-121407868D01*
X121166401Y-121393253D01*
X121148223Y-121376777D01*
X121131747Y-121358599D01*
X121117132Y-121338893D01*
X121104520Y-121317850D01*
X121094030Y-121295671D01*
X121085765Y-121272572D01*
X121079804Y-121248773D01*
X121076204Y-121224505D01*
X121075000Y-121200001D01*
X121075000Y-118299999D01*
X121076204Y-118275495D01*
X121079804Y-118251227D01*
X121085765Y-118227428D01*
X121094030Y-118204329D01*
X121104520Y-118182150D01*
X121117132Y-118161107D01*
X121131747Y-118141401D01*
X121148223Y-118123223D01*
X121166401Y-118106747D01*
X121186107Y-118092132D01*
X121207150Y-118079520D01*
X121229329Y-118069030D01*
X121252428Y-118060765D01*
X121276227Y-118054804D01*
X121300495Y-118051204D01*
X121324999Y-118050000D01*
X121950001Y-118050000D01*
X121974505Y-118051204D01*
X121974505Y-118051204D01*
G37*
D15*
G04 #@! TD*
G04 #@! TO.P,F3,2*
G04 #@! TO.N,Net-(C10-Pad1)*
X121637500Y-119750000D03*
D12*
G04 #@! TO.N,/serial/RS485_A+*
G04 #@! TO.C,F3*
G36*
X117699505Y-118051204D02*
X117723773Y-118054804D01*
X117747572Y-118060765D01*
X117770671Y-118069030D01*
X117792850Y-118079520D01*
X117813893Y-118092132D01*
X117833599Y-118106747D01*
X117851777Y-118123223D01*
X117868253Y-118141401D01*
X117882868Y-118161107D01*
X117895480Y-118182150D01*
X117905970Y-118204329D01*
X117914235Y-118227428D01*
X117920196Y-118251227D01*
X117923796Y-118275495D01*
X117925000Y-118299999D01*
X117925000Y-121200001D01*
X117923796Y-121224505D01*
X117920196Y-121248773D01*
X117914235Y-121272572D01*
X117905970Y-121295671D01*
X117895480Y-121317850D01*
X117882868Y-121338893D01*
X117868253Y-121358599D01*
X117851777Y-121376777D01*
X117833599Y-121393253D01*
X117813893Y-121407868D01*
X117792850Y-121420480D01*
X117770671Y-121430970D01*
X117747572Y-121439235D01*
X117723773Y-121445196D01*
X117699505Y-121448796D01*
X117675001Y-121450000D01*
X117049999Y-121450000D01*
X117025495Y-121448796D01*
X117001227Y-121445196D01*
X116977428Y-121439235D01*
X116954329Y-121430970D01*
X116932150Y-121420480D01*
X116911107Y-121407868D01*
X116891401Y-121393253D01*
X116873223Y-121376777D01*
X116856747Y-121358599D01*
X116842132Y-121338893D01*
X116829520Y-121317850D01*
X116819030Y-121295671D01*
X116810765Y-121272572D01*
X116804804Y-121248773D01*
X116801204Y-121224505D01*
X116800000Y-121200001D01*
X116800000Y-118299999D01*
X116801204Y-118275495D01*
X116804804Y-118251227D01*
X116810765Y-118227428D01*
X116819030Y-118204329D01*
X116829520Y-118182150D01*
X116842132Y-118161107D01*
X116856747Y-118141401D01*
X116873223Y-118123223D01*
X116891401Y-118106747D01*
X116911107Y-118092132D01*
X116932150Y-118079520D01*
X116954329Y-118069030D01*
X116977428Y-118060765D01*
X117001227Y-118054804D01*
X117025495Y-118051204D01*
X117049999Y-118050000D01*
X117675001Y-118050000D01*
X117699505Y-118051204D01*
X117699505Y-118051204D01*
G37*
D15*
G04 #@! TD*
G04 #@! TO.P,F3,1*
G04 #@! TO.N,/serial/RS485_A+*
X117362500Y-119750000D03*
D16*
G04 #@! TO.P,J12,1*
G04 #@! TO.N,Net-(J11-Pad1)*
X88000000Y-96250000D03*
D17*
G04 #@! TO.P,J12,2*
G04 #@! TO.N,/rPi/5V_In*
X85500000Y-96250000D03*
G04 #@! TD*
D18*
G04 #@! TO.P,J13,1*
G04 #@! TO.N,/3V3_Net+*
X116750000Y-89500000D03*
D19*
G04 #@! TO.P,J13,2*
G04 #@! TO.N,/rPi/5V_In*
X116750000Y-86960000D03*
G04 #@! TO.P,J13,3*
G04 #@! TO.N,/analogSensing/SDA*
X119290000Y-89500000D03*
G04 #@! TO.P,J13,4*
G04 #@! TO.N,/rPi/5V_In*
X119290000Y-86960000D03*
G04 #@! TO.P,J13,5*
G04 #@! TO.N,/analogSensing/SCL*
X121830000Y-89500000D03*
G04 #@! TO.P,J13,6*
G04 #@! TO.N,/AGND*
X121830000Y-86960000D03*
G04 #@! TO.P,J13,7*
G04 #@! TO.N,N/C*
X124370000Y-89500000D03*
G04 #@! TO.P,J13,8*
G04 #@! TO.N,/rPi/UART_TX*
X124370000Y-86960000D03*
G04 #@! TO.P,J13,9*
G04 #@! TO.N,/DGND*
X126910000Y-89500000D03*
G04 #@! TO.P,J13,10*
G04 #@! TO.N,/rPi/UART_RX*
X126910000Y-86960000D03*
G04 #@! TO.P,J13,11*
G04 #@! TO.N,N/C*
X129450000Y-89500000D03*
G04 #@! TO.P,J13,12*
X129450000Y-86960000D03*
G04 #@! TO.P,J13,13*
X131990000Y-89500000D03*
G04 #@! TO.P,J13,14*
G04 #@! TO.N,/DGND*
X131990000Y-86960000D03*
G04 #@! TO.P,J13,15*
G04 #@! TO.N,/D_INPUT_A*
X134530000Y-89500000D03*
G04 #@! TO.P,J13,16*
G04 #@! TO.N,/D_INPUT_B*
X134530000Y-86960000D03*
G04 #@! TO.P,J13,17*
G04 #@! TO.N,N/C*
X137070000Y-89500000D03*
G04 #@! TO.P,J13,18*
G04 #@! TO.N,/D_INPUT_C*
X137070000Y-86960000D03*
G04 #@! TO.P,J13,19*
G04 #@! TO.N,N/C*
X139610000Y-89500000D03*
G04 #@! TO.P,J13,20*
G04 #@! TO.N,/DGND*
X139610000Y-86960000D03*
G04 #@! TO.P,J13,21*
G04 #@! TO.N,N/C*
X142150000Y-89500000D03*
G04 #@! TO.P,J13,22*
G04 #@! TO.N,/D_INPUT_D*
X142150000Y-86960000D03*
G04 #@! TO.P,J13,23*
G04 #@! TO.N,N/C*
X144690000Y-89500000D03*
G04 #@! TO.P,J13,24*
X144690000Y-86960000D03*
G04 #@! TO.P,J13,25*
G04 #@! TO.N,/DGND*
X147230000Y-89500000D03*
G04 #@! TO.P,J13,26*
G04 #@! TO.N,N/C*
X147230000Y-86960000D03*
G04 #@! TO.P,J13,27*
G04 #@! TO.N,/actuation/Fan_Ctrl*
X149770000Y-89500000D03*
G04 #@! TO.P,J13,28*
G04 #@! TO.N,N/C*
X149770000Y-86960000D03*
G04 #@! TO.P,J13,29*
G04 #@! TO.N,/actuation/Relay1_Ctrl*
X152310000Y-89500000D03*
G04 #@! TO.P,J13,30*
G04 #@! TO.N,/DGND*
X152310000Y-86960000D03*
G04 #@! TO.P,J13,31*
G04 #@! TO.N,/actuation/Relay2_Ctrl*
X154850000Y-89500000D03*
G04 #@! TO.P,J13,32*
G04 #@! TO.N,N/C*
X154850000Y-86960000D03*
G04 #@! TO.P,J13,33*
X157390000Y-89500000D03*
G04 #@! TO.P,J13,34*
G04 #@! TO.N,/DGND*
X157390000Y-86960000D03*
G04 #@! TO.P,J13,35*
G04 #@! TO.N,N/C*
X159930000Y-89500000D03*
G04 #@! TO.P,J13,36*
X159930000Y-86960000D03*
G04 #@! TO.P,J13,37*
X162470000Y-89500000D03*
G04 #@! TO.P,J13,38*
X162470000Y-86960000D03*
G04 #@! TO.P,J13,39*
G04 #@! TO.N,/DGND*
X165010000Y-89500000D03*
G04 #@! TO.P,J13,40*
G04 #@! TO.N,N/C*
X165010000Y-86960000D03*
G04 #@! TD*
D20*
G04 #@! TO.P,J14,2*
G04 #@! TO.N,/rPi/5V_In*
X77250000Y-92750000D03*
D21*
G04 #@! TO.P,J14,1*
G04 #@! TO.N,Net-(J14-Pad1)*
X77250000Y-95250000D03*
G04 #@! TD*
D22*
G04 #@! TO.P,K1,1*
G04 #@! TO.N,/actuation/RL1_C*
X82750000Y-101500000D03*
D23*
G04 #@! TO.P,K1,5*
G04 #@! TO.N,/rPi/5V_In*
X88700000Y-103450000D03*
D22*
G04 #@! TO.P,K1,4*
G04 #@! TO.N,/actuation/RL1_NC*
X88750000Y-115700000D03*
G04 #@! TO.P,K1,3*
G04 #@! TO.N,/actuation/RL1_NO*
X76700000Y-115650000D03*
D23*
G04 #@! TO.P,K1,2*
G04 #@! TO.N,Net-(K1-Pad2)*
X76700000Y-103450000D03*
G04 #@! TD*
G04 #@! TO.P,K2,2*
G04 #@! TO.N,/rPi/5V_In*
X93200000Y-103450000D03*
D22*
G04 #@! TO.P,K2,3*
G04 #@! TO.N,/actuation/RL2_NO*
X93200000Y-115650000D03*
G04 #@! TO.P,K2,4*
G04 #@! TO.N,/actuation/RL2_NC*
X105250000Y-115700000D03*
D23*
G04 #@! TO.P,K2,5*
G04 #@! TO.N,Net-(K2-Pad5)*
X105200000Y-103450000D03*
D22*
G04 #@! TO.P,K2,1*
G04 #@! TO.N,/actuation/RL2_C*
X99250000Y-101500000D03*
G04 #@! TD*
D12*
G04 #@! TO.N,Net-(D3-Pad1)*
G04 #@! TO.C,R16*
G36*
X148980142Y-113076174D02*
X149003803Y-113079684D01*
X149027007Y-113085496D01*
X149049529Y-113093554D01*
X149071153Y-113103782D01*
X149091670Y-113116079D01*
X149110883Y-113130329D01*
X149128607Y-113146393D01*
X149144671Y-113164117D01*
X149158921Y-113183330D01*
X149171218Y-113203847D01*
X149181446Y-113225471D01*
X149189504Y-113247993D01*
X149195316Y-113271197D01*
X149198826Y-113294858D01*
X149200000Y-113318750D01*
X149200000Y-113806250D01*
X149198826Y-113830142D01*
X149195316Y-113853803D01*
X149189504Y-113877007D01*
X149181446Y-113899529D01*
X149171218Y-113921153D01*
X149158921Y-113941670D01*
X149144671Y-113960883D01*
X149128607Y-113978607D01*
X149110883Y-113994671D01*
X149091670Y-114008921D01*
X149071153Y-114021218D01*
X149049529Y-114031446D01*
X149027007Y-114039504D01*
X149003803Y-114045316D01*
X148980142Y-114048826D01*
X148956250Y-114050000D01*
X148043750Y-114050000D01*
X148019858Y-114048826D01*
X147996197Y-114045316D01*
X147972993Y-114039504D01*
X147950471Y-114031446D01*
X147928847Y-114021218D01*
X147908330Y-114008921D01*
X147889117Y-113994671D01*
X147871393Y-113978607D01*
X147855329Y-113960883D01*
X147841079Y-113941670D01*
X147828782Y-113921153D01*
X147818554Y-113899529D01*
X147810496Y-113877007D01*
X147804684Y-113853803D01*
X147801174Y-113830142D01*
X147800000Y-113806250D01*
X147800000Y-113318750D01*
X147801174Y-113294858D01*
X147804684Y-113271197D01*
X147810496Y-113247993D01*
X147818554Y-113225471D01*
X147828782Y-113203847D01*
X147841079Y-113183330D01*
X147855329Y-113164117D01*
X147871393Y-113146393D01*
X147889117Y-113130329D01*
X147908330Y-113116079D01*
X147928847Y-113103782D01*
X147950471Y-113093554D01*
X147972993Y-113085496D01*
X147996197Y-113079684D01*
X148019858Y-113076174D01*
X148043750Y-113075000D01*
X148956250Y-113075000D01*
X148980142Y-113076174D01*
X148980142Y-113076174D01*
G37*
D13*
G04 #@! TD*
G04 #@! TO.P,R16,1*
G04 #@! TO.N,Net-(D3-Pad1)*
X148500000Y-113562500D03*
D12*
G04 #@! TO.N,Net-(C4-Pad1)*
G04 #@! TO.C,R16*
G36*
X148980142Y-114951174D02*
X149003803Y-114954684D01*
X149027007Y-114960496D01*
X149049529Y-114968554D01*
X149071153Y-114978782D01*
X149091670Y-114991079D01*
X149110883Y-115005329D01*
X149128607Y-115021393D01*
X149144671Y-115039117D01*
X149158921Y-115058330D01*
X149171218Y-115078847D01*
X149181446Y-115100471D01*
X149189504Y-115122993D01*
X149195316Y-115146197D01*
X149198826Y-115169858D01*
X149200000Y-115193750D01*
X149200000Y-115681250D01*
X149198826Y-115705142D01*
X149195316Y-115728803D01*
X149189504Y-115752007D01*
X149181446Y-115774529D01*
X149171218Y-115796153D01*
X149158921Y-115816670D01*
X149144671Y-115835883D01*
X149128607Y-115853607D01*
X149110883Y-115869671D01*
X149091670Y-115883921D01*
X149071153Y-115896218D01*
X149049529Y-115906446D01*
X149027007Y-115914504D01*
X149003803Y-115920316D01*
X148980142Y-115923826D01*
X148956250Y-115925000D01*
X148043750Y-115925000D01*
X148019858Y-115923826D01*
X147996197Y-115920316D01*
X147972993Y-115914504D01*
X147950471Y-115906446D01*
X147928847Y-115896218D01*
X147908330Y-115883921D01*
X147889117Y-115869671D01*
X147871393Y-115853607D01*
X147855329Y-115835883D01*
X147841079Y-115816670D01*
X147828782Y-115796153D01*
X147818554Y-115774529D01*
X147810496Y-115752007D01*
X147804684Y-115728803D01*
X147801174Y-115705142D01*
X147800000Y-115681250D01*
X147800000Y-115193750D01*
X147801174Y-115169858D01*
X147804684Y-115146197D01*
X147810496Y-115122993D01*
X147818554Y-115100471D01*
X147828782Y-115078847D01*
X147841079Y-115058330D01*
X147855329Y-115039117D01*
X147871393Y-115021393D01*
X147889117Y-115005329D01*
X147908330Y-114991079D01*
X147928847Y-114978782D01*
X147950471Y-114968554D01*
X147972993Y-114960496D01*
X147996197Y-114954684D01*
X148019858Y-114951174D01*
X148043750Y-114950000D01*
X148956250Y-114950000D01*
X148980142Y-114951174D01*
X148980142Y-114951174D01*
G37*
D13*
G04 #@! TD*
G04 #@! TO.P,R16,2*
G04 #@! TO.N,Net-(C4-Pad1)*
X148500000Y-115437500D03*
D12*
G04 #@! TO.N,/3V3*
G04 #@! TO.C,R17*
G36*
X132480142Y-112076174D02*
X132503803Y-112079684D01*
X132527007Y-112085496D01*
X132549529Y-112093554D01*
X132571153Y-112103782D01*
X132591670Y-112116079D01*
X132610883Y-112130329D01*
X132628607Y-112146393D01*
X132644671Y-112164117D01*
X132658921Y-112183330D01*
X132671218Y-112203847D01*
X132681446Y-112225471D01*
X132689504Y-112247993D01*
X132695316Y-112271197D01*
X132698826Y-112294858D01*
X132700000Y-112318750D01*
X132700000Y-112806250D01*
X132698826Y-112830142D01*
X132695316Y-112853803D01*
X132689504Y-112877007D01*
X132681446Y-112899529D01*
X132671218Y-112921153D01*
X132658921Y-112941670D01*
X132644671Y-112960883D01*
X132628607Y-112978607D01*
X132610883Y-112994671D01*
X132591670Y-113008921D01*
X132571153Y-113021218D01*
X132549529Y-113031446D01*
X132527007Y-113039504D01*
X132503803Y-113045316D01*
X132480142Y-113048826D01*
X132456250Y-113050000D01*
X131543750Y-113050000D01*
X131519858Y-113048826D01*
X131496197Y-113045316D01*
X131472993Y-113039504D01*
X131450471Y-113031446D01*
X131428847Y-113021218D01*
X131408330Y-113008921D01*
X131389117Y-112994671D01*
X131371393Y-112978607D01*
X131355329Y-112960883D01*
X131341079Y-112941670D01*
X131328782Y-112921153D01*
X131318554Y-112899529D01*
X131310496Y-112877007D01*
X131304684Y-112853803D01*
X131301174Y-112830142D01*
X131300000Y-112806250D01*
X131300000Y-112318750D01*
X131301174Y-112294858D01*
X131304684Y-112271197D01*
X131310496Y-112247993D01*
X131318554Y-112225471D01*
X131328782Y-112203847D01*
X131341079Y-112183330D01*
X131355329Y-112164117D01*
X131371393Y-112146393D01*
X131389117Y-112130329D01*
X131408330Y-112116079D01*
X131428847Y-112103782D01*
X131450471Y-112093554D01*
X131472993Y-112085496D01*
X131496197Y-112079684D01*
X131519858Y-112076174D01*
X131543750Y-112075000D01*
X132456250Y-112075000D01*
X132480142Y-112076174D01*
X132480142Y-112076174D01*
G37*
D13*
G04 #@! TD*
G04 #@! TO.P,R17,1*
G04 #@! TO.N,/3V3*
X132000000Y-112562500D03*
D12*
G04 #@! TO.N,Net-(C9-Pad2)*
G04 #@! TO.C,R17*
G36*
X132480142Y-113951174D02*
X132503803Y-113954684D01*
X132527007Y-113960496D01*
X132549529Y-113968554D01*
X132571153Y-113978782D01*
X132591670Y-113991079D01*
X132610883Y-114005329D01*
X132628607Y-114021393D01*
X132644671Y-114039117D01*
X132658921Y-114058330D01*
X132671218Y-114078847D01*
X132681446Y-114100471D01*
X132689504Y-114122993D01*
X132695316Y-114146197D01*
X132698826Y-114169858D01*
X132700000Y-114193750D01*
X132700000Y-114681250D01*
X132698826Y-114705142D01*
X132695316Y-114728803D01*
X132689504Y-114752007D01*
X132681446Y-114774529D01*
X132671218Y-114796153D01*
X132658921Y-114816670D01*
X132644671Y-114835883D01*
X132628607Y-114853607D01*
X132610883Y-114869671D01*
X132591670Y-114883921D01*
X132571153Y-114896218D01*
X132549529Y-114906446D01*
X132527007Y-114914504D01*
X132503803Y-114920316D01*
X132480142Y-114923826D01*
X132456250Y-114925000D01*
X131543750Y-114925000D01*
X131519858Y-114923826D01*
X131496197Y-114920316D01*
X131472993Y-114914504D01*
X131450471Y-114906446D01*
X131428847Y-114896218D01*
X131408330Y-114883921D01*
X131389117Y-114869671D01*
X131371393Y-114853607D01*
X131355329Y-114835883D01*
X131341079Y-114816670D01*
X131328782Y-114796153D01*
X131318554Y-114774529D01*
X131310496Y-114752007D01*
X131304684Y-114728803D01*
X131301174Y-114705142D01*
X131300000Y-114681250D01*
X131300000Y-114193750D01*
X131301174Y-114169858D01*
X131304684Y-114146197D01*
X131310496Y-114122993D01*
X131318554Y-114100471D01*
X131328782Y-114078847D01*
X131341079Y-114058330D01*
X131355329Y-114039117D01*
X131371393Y-114021393D01*
X131389117Y-114005329D01*
X131408330Y-113991079D01*
X131428847Y-113978782D01*
X131450471Y-113968554D01*
X131472993Y-113960496D01*
X131496197Y-113954684D01*
X131519858Y-113951174D01*
X131543750Y-113950000D01*
X132456250Y-113950000D01*
X132480142Y-113951174D01*
X132480142Y-113951174D01*
G37*
D13*
G04 #@! TD*
G04 #@! TO.P,R17,2*
G04 #@! TO.N,Net-(C9-Pad2)*
X132000000Y-114437500D03*
D12*
G04 #@! TO.N,/DGND*
G04 #@! TO.C,R18*
G36*
X128980142Y-118701174D02*
X129003803Y-118704684D01*
X129027007Y-118710496D01*
X129049529Y-118718554D01*
X129071153Y-118728782D01*
X129091670Y-118741079D01*
X129110883Y-118755329D01*
X129128607Y-118771393D01*
X129144671Y-118789117D01*
X129158921Y-118808330D01*
X129171218Y-118828847D01*
X129181446Y-118850471D01*
X129189504Y-118872993D01*
X129195316Y-118896197D01*
X129198826Y-118919858D01*
X129200000Y-118943750D01*
X129200000Y-119431250D01*
X129198826Y-119455142D01*
X129195316Y-119478803D01*
X129189504Y-119502007D01*
X129181446Y-119524529D01*
X129171218Y-119546153D01*
X129158921Y-119566670D01*
X129144671Y-119585883D01*
X129128607Y-119603607D01*
X129110883Y-119619671D01*
X129091670Y-119633921D01*
X129071153Y-119646218D01*
X129049529Y-119656446D01*
X129027007Y-119664504D01*
X129003803Y-119670316D01*
X128980142Y-119673826D01*
X128956250Y-119675000D01*
X128043750Y-119675000D01*
X128019858Y-119673826D01*
X127996197Y-119670316D01*
X127972993Y-119664504D01*
X127950471Y-119656446D01*
X127928847Y-119646218D01*
X127908330Y-119633921D01*
X127889117Y-119619671D01*
X127871393Y-119603607D01*
X127855329Y-119585883D01*
X127841079Y-119566670D01*
X127828782Y-119546153D01*
X127818554Y-119524529D01*
X127810496Y-119502007D01*
X127804684Y-119478803D01*
X127801174Y-119455142D01*
X127800000Y-119431250D01*
X127800000Y-118943750D01*
X127801174Y-118919858D01*
X127804684Y-118896197D01*
X127810496Y-118872993D01*
X127818554Y-118850471D01*
X127828782Y-118828847D01*
X127841079Y-118808330D01*
X127855329Y-118789117D01*
X127871393Y-118771393D01*
X127889117Y-118755329D01*
X127908330Y-118741079D01*
X127928847Y-118728782D01*
X127950471Y-118718554D01*
X127972993Y-118710496D01*
X127996197Y-118704684D01*
X128019858Y-118701174D01*
X128043750Y-118700000D01*
X128956250Y-118700000D01*
X128980142Y-118701174D01*
X128980142Y-118701174D01*
G37*
D13*
G04 #@! TD*
G04 #@! TO.P,R18,2*
G04 #@! TO.N,/DGND*
X128500000Y-119187500D03*
D12*
G04 #@! TO.N,Net-(C10-Pad1)*
G04 #@! TO.C,R18*
G36*
X128980142Y-116826174D02*
X129003803Y-116829684D01*
X129027007Y-116835496D01*
X129049529Y-116843554D01*
X129071153Y-116853782D01*
X129091670Y-116866079D01*
X129110883Y-116880329D01*
X129128607Y-116896393D01*
X129144671Y-116914117D01*
X129158921Y-116933330D01*
X129171218Y-116953847D01*
X129181446Y-116975471D01*
X129189504Y-116997993D01*
X129195316Y-117021197D01*
X129198826Y-117044858D01*
X129200000Y-117068750D01*
X129200000Y-117556250D01*
X129198826Y-117580142D01*
X129195316Y-117603803D01*
X129189504Y-117627007D01*
X129181446Y-117649529D01*
X129171218Y-117671153D01*
X129158921Y-117691670D01*
X129144671Y-117710883D01*
X129128607Y-117728607D01*
X129110883Y-117744671D01*
X129091670Y-117758921D01*
X129071153Y-117771218D01*
X129049529Y-117781446D01*
X129027007Y-117789504D01*
X129003803Y-117795316D01*
X128980142Y-117798826D01*
X128956250Y-117800000D01*
X128043750Y-117800000D01*
X128019858Y-117798826D01*
X127996197Y-117795316D01*
X127972993Y-117789504D01*
X127950471Y-117781446D01*
X127928847Y-117771218D01*
X127908330Y-117758921D01*
X127889117Y-117744671D01*
X127871393Y-117728607D01*
X127855329Y-117710883D01*
X127841079Y-117691670D01*
X127828782Y-117671153D01*
X127818554Y-117649529D01*
X127810496Y-117627007D01*
X127804684Y-117603803D01*
X127801174Y-117580142D01*
X127800000Y-117556250D01*
X127800000Y-117068750D01*
X127801174Y-117044858D01*
X127804684Y-117021197D01*
X127810496Y-116997993D01*
X127818554Y-116975471D01*
X127828782Y-116953847D01*
X127841079Y-116933330D01*
X127855329Y-116914117D01*
X127871393Y-116896393D01*
X127889117Y-116880329D01*
X127908330Y-116866079D01*
X127928847Y-116853782D01*
X127950471Y-116843554D01*
X127972993Y-116835496D01*
X127996197Y-116829684D01*
X128019858Y-116826174D01*
X128043750Y-116825000D01*
X128956250Y-116825000D01*
X128980142Y-116826174D01*
X128980142Y-116826174D01*
G37*
D13*
G04 #@! TD*
G04 #@! TO.P,R18,1*
G04 #@! TO.N,Net-(C10-Pad1)*
X128500000Y-117312500D03*
D12*
G04 #@! TO.N,Net-(C9-Pad2)*
G04 #@! TO.C,R19*
G36*
X124230142Y-114076174D02*
X124253803Y-114079684D01*
X124277007Y-114085496D01*
X124299529Y-114093554D01*
X124321153Y-114103782D01*
X124341670Y-114116079D01*
X124360883Y-114130329D01*
X124378607Y-114146393D01*
X124394671Y-114164117D01*
X124408921Y-114183330D01*
X124421218Y-114203847D01*
X124431446Y-114225471D01*
X124439504Y-114247993D01*
X124445316Y-114271197D01*
X124448826Y-114294858D01*
X124450000Y-114318750D01*
X124450000Y-114806250D01*
X124448826Y-114830142D01*
X124445316Y-114853803D01*
X124439504Y-114877007D01*
X124431446Y-114899529D01*
X124421218Y-114921153D01*
X124408921Y-114941670D01*
X124394671Y-114960883D01*
X124378607Y-114978607D01*
X124360883Y-114994671D01*
X124341670Y-115008921D01*
X124321153Y-115021218D01*
X124299529Y-115031446D01*
X124277007Y-115039504D01*
X124253803Y-115045316D01*
X124230142Y-115048826D01*
X124206250Y-115050000D01*
X123293750Y-115050000D01*
X123269858Y-115048826D01*
X123246197Y-115045316D01*
X123222993Y-115039504D01*
X123200471Y-115031446D01*
X123178847Y-115021218D01*
X123158330Y-115008921D01*
X123139117Y-114994671D01*
X123121393Y-114978607D01*
X123105329Y-114960883D01*
X123091079Y-114941670D01*
X123078782Y-114921153D01*
X123068554Y-114899529D01*
X123060496Y-114877007D01*
X123054684Y-114853803D01*
X123051174Y-114830142D01*
X123050000Y-114806250D01*
X123050000Y-114318750D01*
X123051174Y-114294858D01*
X123054684Y-114271197D01*
X123060496Y-114247993D01*
X123068554Y-114225471D01*
X123078782Y-114203847D01*
X123091079Y-114183330D01*
X123105329Y-114164117D01*
X123121393Y-114146393D01*
X123139117Y-114130329D01*
X123158330Y-114116079D01*
X123178847Y-114103782D01*
X123200471Y-114093554D01*
X123222993Y-114085496D01*
X123246197Y-114079684D01*
X123269858Y-114076174D01*
X123293750Y-114075000D01*
X124206250Y-114075000D01*
X124230142Y-114076174D01*
X124230142Y-114076174D01*
G37*
D13*
G04 #@! TD*
G04 #@! TO.P,R19,1*
G04 #@! TO.N,Net-(C9-Pad2)*
X123750000Y-114562500D03*
D12*
G04 #@! TO.N,Net-(C10-Pad1)*
G04 #@! TO.C,R19*
G36*
X124230142Y-115951174D02*
X124253803Y-115954684D01*
X124277007Y-115960496D01*
X124299529Y-115968554D01*
X124321153Y-115978782D01*
X124341670Y-115991079D01*
X124360883Y-116005329D01*
X124378607Y-116021393D01*
X124394671Y-116039117D01*
X124408921Y-116058330D01*
X124421218Y-116078847D01*
X124431446Y-116100471D01*
X124439504Y-116122993D01*
X124445316Y-116146197D01*
X124448826Y-116169858D01*
X124450000Y-116193750D01*
X124450000Y-116681250D01*
X124448826Y-116705142D01*
X124445316Y-116728803D01*
X124439504Y-116752007D01*
X124431446Y-116774529D01*
X124421218Y-116796153D01*
X124408921Y-116816670D01*
X124394671Y-116835883D01*
X124378607Y-116853607D01*
X124360883Y-116869671D01*
X124341670Y-116883921D01*
X124321153Y-116896218D01*
X124299529Y-116906446D01*
X124277007Y-116914504D01*
X124253803Y-116920316D01*
X124230142Y-116923826D01*
X124206250Y-116925000D01*
X123293750Y-116925000D01*
X123269858Y-116923826D01*
X123246197Y-116920316D01*
X123222993Y-116914504D01*
X123200471Y-116906446D01*
X123178847Y-116896218D01*
X123158330Y-116883921D01*
X123139117Y-116869671D01*
X123121393Y-116853607D01*
X123105329Y-116835883D01*
X123091079Y-116816670D01*
X123078782Y-116796153D01*
X123068554Y-116774529D01*
X123060496Y-116752007D01*
X123054684Y-116728803D01*
X123051174Y-116705142D01*
X123050000Y-116681250D01*
X123050000Y-116193750D01*
X123051174Y-116169858D01*
X123054684Y-116146197D01*
X123060496Y-116122993D01*
X123068554Y-116100471D01*
X123078782Y-116078847D01*
X123091079Y-116058330D01*
X123105329Y-116039117D01*
X123121393Y-116021393D01*
X123139117Y-116005329D01*
X123158330Y-115991079D01*
X123178847Y-115978782D01*
X123200471Y-115968554D01*
X123222993Y-115960496D01*
X123246197Y-115954684D01*
X123269858Y-115951174D01*
X123293750Y-115950000D01*
X124206250Y-115950000D01*
X124230142Y-115951174D01*
X124230142Y-115951174D01*
G37*
D13*
G04 #@! TD*
G04 #@! TO.P,R19,2*
G04 #@! TO.N,Net-(C10-Pad1)*
X123750000Y-116437500D03*
D12*
G04 #@! TO.N,/3V3*
G04 #@! TO.C,R_RX1*
G36*
X165230142Y-94076174D02*
X165253803Y-94079684D01*
X165277007Y-94085496D01*
X165299529Y-94093554D01*
X165321153Y-94103782D01*
X165341670Y-94116079D01*
X165360883Y-94130329D01*
X165378607Y-94146393D01*
X165394671Y-94164117D01*
X165408921Y-94183330D01*
X165421218Y-94203847D01*
X165431446Y-94225471D01*
X165439504Y-94247993D01*
X165445316Y-94271197D01*
X165448826Y-94294858D01*
X165450000Y-94318750D01*
X165450000Y-94806250D01*
X165448826Y-94830142D01*
X165445316Y-94853803D01*
X165439504Y-94877007D01*
X165431446Y-94899529D01*
X165421218Y-94921153D01*
X165408921Y-94941670D01*
X165394671Y-94960883D01*
X165378607Y-94978607D01*
X165360883Y-94994671D01*
X165341670Y-95008921D01*
X165321153Y-95021218D01*
X165299529Y-95031446D01*
X165277007Y-95039504D01*
X165253803Y-95045316D01*
X165230142Y-95048826D01*
X165206250Y-95050000D01*
X164293750Y-95050000D01*
X164269858Y-95048826D01*
X164246197Y-95045316D01*
X164222993Y-95039504D01*
X164200471Y-95031446D01*
X164178847Y-95021218D01*
X164158330Y-95008921D01*
X164139117Y-94994671D01*
X164121393Y-94978607D01*
X164105329Y-94960883D01*
X164091079Y-94941670D01*
X164078782Y-94921153D01*
X164068554Y-94899529D01*
X164060496Y-94877007D01*
X164054684Y-94853803D01*
X164051174Y-94830142D01*
X164050000Y-94806250D01*
X164050000Y-94318750D01*
X164051174Y-94294858D01*
X164054684Y-94271197D01*
X164060496Y-94247993D01*
X164068554Y-94225471D01*
X164078782Y-94203847D01*
X164091079Y-94183330D01*
X164105329Y-94164117D01*
X164121393Y-94146393D01*
X164139117Y-94130329D01*
X164158330Y-94116079D01*
X164178847Y-94103782D01*
X164200471Y-94093554D01*
X164222993Y-94085496D01*
X164246197Y-94079684D01*
X164269858Y-94076174D01*
X164293750Y-94075000D01*
X165206250Y-94075000D01*
X165230142Y-94076174D01*
X165230142Y-94076174D01*
G37*
D13*
G04 #@! TD*
G04 #@! TO.P,R_RX1,1*
G04 #@! TO.N,/3V3*
X164750000Y-94562500D03*
D12*
G04 #@! TO.N,Net-(D_RX1-Pad2)*
G04 #@! TO.C,R_RX1*
G36*
X165230142Y-95951174D02*
X165253803Y-95954684D01*
X165277007Y-95960496D01*
X165299529Y-95968554D01*
X165321153Y-95978782D01*
X165341670Y-95991079D01*
X165360883Y-96005329D01*
X165378607Y-96021393D01*
X165394671Y-96039117D01*
X165408921Y-96058330D01*
X165421218Y-96078847D01*
X165431446Y-96100471D01*
X165439504Y-96122993D01*
X165445316Y-96146197D01*
X165448826Y-96169858D01*
X165450000Y-96193750D01*
X165450000Y-96681250D01*
X165448826Y-96705142D01*
X165445316Y-96728803D01*
X165439504Y-96752007D01*
X165431446Y-96774529D01*
X165421218Y-96796153D01*
X165408921Y-96816670D01*
X165394671Y-96835883D01*
X165378607Y-96853607D01*
X165360883Y-96869671D01*
X165341670Y-96883921D01*
X165321153Y-96896218D01*
X165299529Y-96906446D01*
X165277007Y-96914504D01*
X165253803Y-96920316D01*
X165230142Y-96923826D01*
X165206250Y-96925000D01*
X164293750Y-96925000D01*
X164269858Y-96923826D01*
X164246197Y-96920316D01*
X164222993Y-96914504D01*
X164200471Y-96906446D01*
X164178847Y-96896218D01*
X164158330Y-96883921D01*
X164139117Y-96869671D01*
X164121393Y-96853607D01*
X164105329Y-96835883D01*
X164091079Y-96816670D01*
X164078782Y-96796153D01*
X164068554Y-96774529D01*
X164060496Y-96752007D01*
X164054684Y-96728803D01*
X164051174Y-96705142D01*
X164050000Y-96681250D01*
X164050000Y-96193750D01*
X164051174Y-96169858D01*
X164054684Y-96146197D01*
X164060496Y-96122993D01*
X164068554Y-96100471D01*
X164078782Y-96078847D01*
X164091079Y-96058330D01*
X164105329Y-96039117D01*
X164121393Y-96021393D01*
X164139117Y-96005329D01*
X164158330Y-95991079D01*
X164178847Y-95978782D01*
X164200471Y-95968554D01*
X164222993Y-95960496D01*
X164246197Y-95954684D01*
X164269858Y-95951174D01*
X164293750Y-95950000D01*
X165206250Y-95950000D01*
X165230142Y-95951174D01*
X165230142Y-95951174D01*
G37*
D13*
G04 #@! TD*
G04 #@! TO.P,R_RX1,2*
G04 #@! TO.N,Net-(D_RX1-Pad2)*
X164750000Y-96437500D03*
D12*
G04 #@! TO.N,Net-(D_TX1-Pad2)*
G04 #@! TO.C,R_TX1*
G36*
X168730142Y-95951174D02*
X168753803Y-95954684D01*
X168777007Y-95960496D01*
X168799529Y-95968554D01*
X168821153Y-95978782D01*
X168841670Y-95991079D01*
X168860883Y-96005329D01*
X168878607Y-96021393D01*
X168894671Y-96039117D01*
X168908921Y-96058330D01*
X168921218Y-96078847D01*
X168931446Y-96100471D01*
X168939504Y-96122993D01*
X168945316Y-96146197D01*
X168948826Y-96169858D01*
X168950000Y-96193750D01*
X168950000Y-96681250D01*
X168948826Y-96705142D01*
X168945316Y-96728803D01*
X168939504Y-96752007D01*
X168931446Y-96774529D01*
X168921218Y-96796153D01*
X168908921Y-96816670D01*
X168894671Y-96835883D01*
X168878607Y-96853607D01*
X168860883Y-96869671D01*
X168841670Y-96883921D01*
X168821153Y-96896218D01*
X168799529Y-96906446D01*
X168777007Y-96914504D01*
X168753803Y-96920316D01*
X168730142Y-96923826D01*
X168706250Y-96925000D01*
X167793750Y-96925000D01*
X167769858Y-96923826D01*
X167746197Y-96920316D01*
X167722993Y-96914504D01*
X167700471Y-96906446D01*
X167678847Y-96896218D01*
X167658330Y-96883921D01*
X167639117Y-96869671D01*
X167621393Y-96853607D01*
X167605329Y-96835883D01*
X167591079Y-96816670D01*
X167578782Y-96796153D01*
X167568554Y-96774529D01*
X167560496Y-96752007D01*
X167554684Y-96728803D01*
X167551174Y-96705142D01*
X167550000Y-96681250D01*
X167550000Y-96193750D01*
X167551174Y-96169858D01*
X167554684Y-96146197D01*
X167560496Y-96122993D01*
X167568554Y-96100471D01*
X167578782Y-96078847D01*
X167591079Y-96058330D01*
X167605329Y-96039117D01*
X167621393Y-96021393D01*
X167639117Y-96005329D01*
X167658330Y-95991079D01*
X167678847Y-95978782D01*
X167700471Y-95968554D01*
X167722993Y-95960496D01*
X167746197Y-95954684D01*
X167769858Y-95951174D01*
X167793750Y-95950000D01*
X168706250Y-95950000D01*
X168730142Y-95951174D01*
X168730142Y-95951174D01*
G37*
D13*
G04 #@! TD*
G04 #@! TO.P,R_TX1,2*
G04 #@! TO.N,Net-(D_TX1-Pad2)*
X168250000Y-96437500D03*
D12*
G04 #@! TO.N,/3V3*
G04 #@! TO.C,R_TX1*
G36*
X168730142Y-94076174D02*
X168753803Y-94079684D01*
X168777007Y-94085496D01*
X168799529Y-94093554D01*
X168821153Y-94103782D01*
X168841670Y-94116079D01*
X168860883Y-94130329D01*
X168878607Y-94146393D01*
X168894671Y-94164117D01*
X168908921Y-94183330D01*
X168921218Y-94203847D01*
X168931446Y-94225471D01*
X168939504Y-94247993D01*
X168945316Y-94271197D01*
X168948826Y-94294858D01*
X168950000Y-94318750D01*
X168950000Y-94806250D01*
X168948826Y-94830142D01*
X168945316Y-94853803D01*
X168939504Y-94877007D01*
X168931446Y-94899529D01*
X168921218Y-94921153D01*
X168908921Y-94941670D01*
X168894671Y-94960883D01*
X168878607Y-94978607D01*
X168860883Y-94994671D01*
X168841670Y-95008921D01*
X168821153Y-95021218D01*
X168799529Y-95031446D01*
X168777007Y-95039504D01*
X168753803Y-95045316D01*
X168730142Y-95048826D01*
X168706250Y-95050000D01*
X167793750Y-95050000D01*
X167769858Y-95048826D01*
X167746197Y-95045316D01*
X167722993Y-95039504D01*
X167700471Y-95031446D01*
X167678847Y-95021218D01*
X167658330Y-95008921D01*
X167639117Y-94994671D01*
X167621393Y-94978607D01*
X167605329Y-94960883D01*
X167591079Y-94941670D01*
X167578782Y-94921153D01*
X167568554Y-94899529D01*
X167560496Y-94877007D01*
X167554684Y-94853803D01*
X167551174Y-94830142D01*
X167550000Y-94806250D01*
X167550000Y-94318750D01*
X167551174Y-94294858D01*
X167554684Y-94271197D01*
X167560496Y-94247993D01*
X167568554Y-94225471D01*
X167578782Y-94203847D01*
X167591079Y-94183330D01*
X167605329Y-94164117D01*
X167621393Y-94146393D01*
X167639117Y-94130329D01*
X167658330Y-94116079D01*
X167678847Y-94103782D01*
X167700471Y-94093554D01*
X167722993Y-94085496D01*
X167746197Y-94079684D01*
X167769858Y-94076174D01*
X167793750Y-94075000D01*
X168706250Y-94075000D01*
X168730142Y-94076174D01*
X168730142Y-94076174D01*
G37*
D13*
G04 #@! TD*
G04 #@! TO.P,R_TX1,1*
G04 #@! TO.N,/3V3*
X168250000Y-94562500D03*
D24*
G04 #@! TO.P,SW2,1*
G04 #@! TO.N,/rPi/UART_TX*
X161625000Y-104345000D03*
G04 #@! TO.P,SW2,5*
G04 #@! TO.N,Net-(SW2-Pad5)*
X156375000Y-108155000D03*
G04 #@! TO.P,SW2,2*
G04 #@! TO.N,/rPi/UART_RX*
X161625000Y-105615000D03*
G04 #@! TO.P,SW2,6*
G04 #@! TO.N,Net-(D3-Pad1)*
X156375000Y-106885000D03*
G04 #@! TO.P,SW2,3*
G04 #@! TO.N,/rPi/UART_TX*
X161625000Y-106885000D03*
G04 #@! TO.P,SW2,7*
G04 #@! TO.N,Net-(SW2-Pad7)*
X156375000Y-105615000D03*
G04 #@! TO.P,SW2,4*
G04 #@! TO.N,/rPi/UART_RX*
X161625000Y-108155000D03*
G04 #@! TO.P,SW2,8*
G04 #@! TO.N,Net-(SW2-Pad8)*
X156375000Y-104345000D03*
G04 #@! TD*
D25*
G04 #@! TO.P,U7,1*
G04 #@! TO.N,Net-(C3-Pad1)*
X140950000Y-103225000D03*
G04 #@! TO.P,U7,2*
G04 #@! TO.N,Net-(C8-Pad1)*
X140950000Y-103875000D03*
G04 #@! TO.P,U7,3*
G04 #@! TO.N,Net-(C3-Pad2)*
X140950000Y-104525000D03*
G04 #@! TO.P,U7,4*
G04 #@! TO.N,Net-(C7-Pad1)*
X140950000Y-105175000D03*
G04 #@! TO.P,U7,5*
G04 #@! TO.N,Net-(C7-Pad2)*
X140950000Y-105825000D03*
G04 #@! TO.P,U7,6*
G04 #@! TO.N,Net-(C6-Pad1)*
X140950000Y-106475000D03*
G04 #@! TO.P,U7,7*
G04 #@! TO.N,N/C*
X140950000Y-107125000D03*
G04 #@! TO.P,U7,8*
X140950000Y-107775000D03*
G04 #@! TO.P,U7,9*
X135050000Y-107775000D03*
G04 #@! TO.P,U7,10*
X135050000Y-107125000D03*
G04 #@! TO.P,U7,11*
G04 #@! TO.N,Net-(SW2-Pad8)*
X135050000Y-106475000D03*
G04 #@! TO.P,U7,12*
G04 #@! TO.N,Net-(SW2-Pad7)*
X135050000Y-105825000D03*
G04 #@! TO.P,U7,13*
G04 #@! TO.N,Net-(F5-Pad2)*
X135050000Y-105175000D03*
G04 #@! TO.P,U7,14*
G04 #@! TO.N,Net-(F4-Pad2)*
X135050000Y-104525000D03*
G04 #@! TO.P,U7,15*
G04 #@! TO.N,/DGND*
X135050000Y-103875000D03*
G04 #@! TO.P,U7,16*
G04 #@! TO.N,/3V3*
X135050000Y-103225000D03*
G04 #@! TD*
D26*
G04 #@! TO.P,U8,1*
G04 #@! TO.N,Net-(SW2-Pad5)*
X142450000Y-114095000D03*
G04 #@! TO.P,U8,2*
G04 #@! TO.N,Net-(U1-Pad10)*
X142450000Y-115365000D03*
G04 #@! TO.P,U8,3*
X142450000Y-116635000D03*
G04 #@! TO.P,U8,4*
G04 #@! TO.N,Net-(D3-Pad1)*
X142450000Y-117905000D03*
G04 #@! TO.P,U8,5*
G04 #@! TO.N,/DGND*
X137050000Y-117905000D03*
G04 #@! TO.P,U8,6*
G04 #@! TO.N,Net-(C10-Pad1)*
X137050000Y-116635000D03*
G04 #@! TO.P,U8,7*
G04 #@! TO.N,Net-(C9-Pad2)*
X137050000Y-115365000D03*
G04 #@! TO.P,U8,8*
G04 #@! TO.N,/3V3*
X137050000Y-114095000D03*
G04 #@! TD*
D21*
G04 #@! TO.P,J17,1*
G04 #@! TO.N,/analogSensing/SDA*
X134500000Y-125500000D03*
D20*
G04 #@! TO.P,J17,2*
G04 #@! TO.N,/analogSensing/SCL*
X134500000Y-123000000D03*
G04 #@! TD*
D16*
G04 #@! TO.P,F1,1*
G04 #@! TO.N,Net-(F1-Pad1)*
X99500000Y-95500000D03*
D17*
G04 #@! TO.P,F1,2*
G04 #@! TO.N,/powerSupply/V_adapter_out*
X102000000Y-95500000D03*
G04 #@! TD*
D12*
G04 #@! TO.N,/serial/RS232_TX*
G04 #@! TO.C,F4*
G36*
X124449505Y-102301204D02*
X124473773Y-102304804D01*
X124497572Y-102310765D01*
X124520671Y-102319030D01*
X124542850Y-102329520D01*
X124563893Y-102342132D01*
X124583599Y-102356747D01*
X124601777Y-102373223D01*
X124618253Y-102391401D01*
X124632868Y-102411107D01*
X124645480Y-102432150D01*
X124655970Y-102454329D01*
X124664235Y-102477428D01*
X124670196Y-102501227D01*
X124673796Y-102525495D01*
X124675000Y-102549999D01*
X124675000Y-105450001D01*
X124673796Y-105474505D01*
X124670196Y-105498773D01*
X124664235Y-105522572D01*
X124655970Y-105545671D01*
X124645480Y-105567850D01*
X124632868Y-105588893D01*
X124618253Y-105608599D01*
X124601777Y-105626777D01*
X124583599Y-105643253D01*
X124563893Y-105657868D01*
X124542850Y-105670480D01*
X124520671Y-105680970D01*
X124497572Y-105689235D01*
X124473773Y-105695196D01*
X124449505Y-105698796D01*
X124425001Y-105700000D01*
X123799999Y-105700000D01*
X123775495Y-105698796D01*
X123751227Y-105695196D01*
X123727428Y-105689235D01*
X123704329Y-105680970D01*
X123682150Y-105670480D01*
X123661107Y-105657868D01*
X123641401Y-105643253D01*
X123623223Y-105626777D01*
X123606747Y-105608599D01*
X123592132Y-105588893D01*
X123579520Y-105567850D01*
X123569030Y-105545671D01*
X123560765Y-105522572D01*
X123554804Y-105498773D01*
X123551204Y-105474505D01*
X123550000Y-105450001D01*
X123550000Y-102549999D01*
X123551204Y-102525495D01*
X123554804Y-102501227D01*
X123560765Y-102477428D01*
X123569030Y-102454329D01*
X123579520Y-102432150D01*
X123592132Y-102411107D01*
X123606747Y-102391401D01*
X123623223Y-102373223D01*
X123641401Y-102356747D01*
X123661107Y-102342132D01*
X123682150Y-102329520D01*
X123704329Y-102319030D01*
X123727428Y-102310765D01*
X123751227Y-102304804D01*
X123775495Y-102301204D01*
X123799999Y-102300000D01*
X124425001Y-102300000D01*
X124449505Y-102301204D01*
X124449505Y-102301204D01*
G37*
D15*
G04 #@! TD*
G04 #@! TO.P,F4,1*
G04 #@! TO.N,/serial/RS232_TX*
X124112500Y-104000000D03*
D12*
G04 #@! TO.N,Net-(F4-Pad2)*
G04 #@! TO.C,F4*
G36*
X128724505Y-102301204D02*
X128748773Y-102304804D01*
X128772572Y-102310765D01*
X128795671Y-102319030D01*
X128817850Y-102329520D01*
X128838893Y-102342132D01*
X128858599Y-102356747D01*
X128876777Y-102373223D01*
X128893253Y-102391401D01*
X128907868Y-102411107D01*
X128920480Y-102432150D01*
X128930970Y-102454329D01*
X128939235Y-102477428D01*
X128945196Y-102501227D01*
X128948796Y-102525495D01*
X128950000Y-102549999D01*
X128950000Y-105450001D01*
X128948796Y-105474505D01*
X128945196Y-105498773D01*
X128939235Y-105522572D01*
X128930970Y-105545671D01*
X128920480Y-105567850D01*
X128907868Y-105588893D01*
X128893253Y-105608599D01*
X128876777Y-105626777D01*
X128858599Y-105643253D01*
X128838893Y-105657868D01*
X128817850Y-105670480D01*
X128795671Y-105680970D01*
X128772572Y-105689235D01*
X128748773Y-105695196D01*
X128724505Y-105698796D01*
X128700001Y-105700000D01*
X128074999Y-105700000D01*
X128050495Y-105698796D01*
X128026227Y-105695196D01*
X128002428Y-105689235D01*
X127979329Y-105680970D01*
X127957150Y-105670480D01*
X127936107Y-105657868D01*
X127916401Y-105643253D01*
X127898223Y-105626777D01*
X127881747Y-105608599D01*
X127867132Y-105588893D01*
X127854520Y-105567850D01*
X127844030Y-105545671D01*
X127835765Y-105522572D01*
X127829804Y-105498773D01*
X127826204Y-105474505D01*
X127825000Y-105450001D01*
X127825000Y-102549999D01*
X127826204Y-102525495D01*
X127829804Y-102501227D01*
X127835765Y-102477428D01*
X127844030Y-102454329D01*
X127854520Y-102432150D01*
X127867132Y-102411107D01*
X127881747Y-102391401D01*
X127898223Y-102373223D01*
X127916401Y-102356747D01*
X127936107Y-102342132D01*
X127957150Y-102329520D01*
X127979329Y-102319030D01*
X128002428Y-102310765D01*
X128026227Y-102304804D01*
X128050495Y-102301204D01*
X128074999Y-102300000D01*
X128700001Y-102300000D01*
X128724505Y-102301204D01*
X128724505Y-102301204D01*
G37*
D15*
G04 #@! TD*
G04 #@! TO.P,F4,2*
G04 #@! TO.N,Net-(F4-Pad2)*
X128387500Y-104000000D03*
D12*
G04 #@! TO.N,Net-(F5-Pad2)*
G04 #@! TO.C,F5*
G36*
X128724505Y-107051204D02*
X128748773Y-107054804D01*
X128772572Y-107060765D01*
X128795671Y-107069030D01*
X128817850Y-107079520D01*
X128838893Y-107092132D01*
X128858599Y-107106747D01*
X128876777Y-107123223D01*
X128893253Y-107141401D01*
X128907868Y-107161107D01*
X128920480Y-107182150D01*
X128930970Y-107204329D01*
X128939235Y-107227428D01*
X128945196Y-107251227D01*
X128948796Y-107275495D01*
X128950000Y-107299999D01*
X128950000Y-110200001D01*
X128948796Y-110224505D01*
X128945196Y-110248773D01*
X128939235Y-110272572D01*
X128930970Y-110295671D01*
X128920480Y-110317850D01*
X128907868Y-110338893D01*
X128893253Y-110358599D01*
X128876777Y-110376777D01*
X128858599Y-110393253D01*
X128838893Y-110407868D01*
X128817850Y-110420480D01*
X128795671Y-110430970D01*
X128772572Y-110439235D01*
X128748773Y-110445196D01*
X128724505Y-110448796D01*
X128700001Y-110450000D01*
X128074999Y-110450000D01*
X128050495Y-110448796D01*
X128026227Y-110445196D01*
X128002428Y-110439235D01*
X127979329Y-110430970D01*
X127957150Y-110420480D01*
X127936107Y-110407868D01*
X127916401Y-110393253D01*
X127898223Y-110376777D01*
X127881747Y-110358599D01*
X127867132Y-110338893D01*
X127854520Y-110317850D01*
X127844030Y-110295671D01*
X127835765Y-110272572D01*
X127829804Y-110248773D01*
X127826204Y-110224505D01*
X127825000Y-110200001D01*
X127825000Y-107299999D01*
X127826204Y-107275495D01*
X127829804Y-107251227D01*
X127835765Y-107227428D01*
X127844030Y-107204329D01*
X127854520Y-107182150D01*
X127867132Y-107161107D01*
X127881747Y-107141401D01*
X127898223Y-107123223D01*
X127916401Y-107106747D01*
X127936107Y-107092132D01*
X127957150Y-107079520D01*
X127979329Y-107069030D01*
X128002428Y-107060765D01*
X128026227Y-107054804D01*
X128050495Y-107051204D01*
X128074999Y-107050000D01*
X128700001Y-107050000D01*
X128724505Y-107051204D01*
X128724505Y-107051204D01*
G37*
D15*
G04 #@! TD*
G04 #@! TO.P,F5,2*
G04 #@! TO.N,Net-(F5-Pad2)*
X128387500Y-108750000D03*
D12*
G04 #@! TO.N,/serial/RS232_RX*
G04 #@! TO.C,F5*
G36*
X124449505Y-107051204D02*
X124473773Y-107054804D01*
X124497572Y-107060765D01*
X124520671Y-107069030D01*
X124542850Y-107079520D01*
X124563893Y-107092132D01*
X124583599Y-107106747D01*
X124601777Y-107123223D01*
X124618253Y-107141401D01*
X124632868Y-107161107D01*
X124645480Y-107182150D01*
X124655970Y-107204329D01*
X124664235Y-107227428D01*
X124670196Y-107251227D01*
X124673796Y-107275495D01*
X124675000Y-107299999D01*
X124675000Y-110200001D01*
X124673796Y-110224505D01*
X124670196Y-110248773D01*
X124664235Y-110272572D01*
X124655970Y-110295671D01*
X124645480Y-110317850D01*
X124632868Y-110338893D01*
X124618253Y-110358599D01*
X124601777Y-110376777D01*
X124583599Y-110393253D01*
X124563893Y-110407868D01*
X124542850Y-110420480D01*
X124520671Y-110430970D01*
X124497572Y-110439235D01*
X124473773Y-110445196D01*
X124449505Y-110448796D01*
X124425001Y-110450000D01*
X123799999Y-110450000D01*
X123775495Y-110448796D01*
X123751227Y-110445196D01*
X123727428Y-110439235D01*
X123704329Y-110430970D01*
X123682150Y-110420480D01*
X123661107Y-110407868D01*
X123641401Y-110393253D01*
X123623223Y-110376777D01*
X123606747Y-110358599D01*
X123592132Y-110338893D01*
X123579520Y-110317850D01*
X123569030Y-110295671D01*
X123560765Y-110272572D01*
X123554804Y-110248773D01*
X123551204Y-110224505D01*
X123550000Y-110200001D01*
X123550000Y-107299999D01*
X123551204Y-107275495D01*
X123554804Y-107251227D01*
X123560765Y-107227428D01*
X123569030Y-107204329D01*
X123579520Y-107182150D01*
X123592132Y-107161107D01*
X123606747Y-107141401D01*
X123623223Y-107123223D01*
X123641401Y-107106747D01*
X123661107Y-107092132D01*
X123682150Y-107079520D01*
X123704329Y-107069030D01*
X123727428Y-107060765D01*
X123751227Y-107054804D01*
X123775495Y-107051204D01*
X123799999Y-107050000D01*
X124425001Y-107050000D01*
X124449505Y-107051204D01*
X124449505Y-107051204D01*
G37*
D15*
G04 #@! TD*
G04 #@! TO.P,F5,1*
G04 #@! TO.N,/serial/RS232_RX*
X124112500Y-108750000D03*
D27*
G04 #@! TO.P,J1,1*
G04 #@! TO.N,/powerSupply/V_adapter_out*
X78750000Y-124750000D03*
D28*
G04 #@! TO.P,J1,2*
G04 #@! TO.N,/powerSupply/Gnd_In*
X81290000Y-124750000D03*
G04 #@! TD*
D27*
G04 #@! TO.P,J2,1*
G04 #@! TO.N,/digitalSensing/Vin_1*
X148000000Y-124500000D03*
D28*
G04 #@! TO.P,J2,2*
G04 #@! TO.N,/digitalSensing/Vin_2*
X150540000Y-124500000D03*
G04 #@! TO.P,J2,3*
G04 #@! TO.N,/digitalSensing/Vin_3*
X153080000Y-124500000D03*
G04 #@! TO.P,J2,4*
G04 #@! TO.N,/digitalSensing/Vin_4*
X155620000Y-124500000D03*
G04 #@! TD*
D27*
G04 #@! TO.P,J3,1*
G04 #@! TO.N,/digitalSensing/Gnd_in*
X168250000Y-124500000D03*
D28*
G04 #@! TO.P,J3,2*
X170790000Y-124500000D03*
G04 #@! TD*
D27*
G04 #@! TO.P,J4,1*
G04 #@! TO.N,/actuation/RL1_NO*
X86250000Y-124750000D03*
D28*
G04 #@! TO.P,J4,2*
G04 #@! TO.N,/actuation/RL1_C*
X88790000Y-124750000D03*
G04 #@! TO.P,J4,3*
G04 #@! TO.N,/actuation/RL1_NC*
X91330000Y-124750000D03*
G04 #@! TD*
G04 #@! TO.P,J5,3*
G04 #@! TO.N,/actuation/RL2_NC*
X100580000Y-124750000D03*
G04 #@! TO.P,J5,2*
G04 #@! TO.N,/actuation/RL2_C*
X98040000Y-124750000D03*
D27*
G04 #@! TO.P,J5,1*
G04 #@! TO.N,/actuation/RL2_NO*
X95500000Y-124750000D03*
G04 #@! TD*
D28*
G04 #@! TO.P,J6,2*
G04 #@! TO.N,/AGND*
X123040000Y-124750000D03*
D27*
G04 #@! TO.P,J6,1*
G04 #@! TO.N,/analogSensing/R_Sense*
X120500000Y-124750000D03*
G04 #@! TD*
G04 #@! TO.P,J7,1*
G04 #@! TO.N,/analogSensing/420+*
X127000000Y-124750000D03*
D28*
G04 #@! TO.P,J7,2*
G04 #@! TO.N,/analogSensing/420-*
X129540000Y-124750000D03*
G04 #@! TD*
G04 #@! TO.P,J15,2*
G04 #@! TO.N,/serial/RS232_TX*
X107290000Y-124750000D03*
D27*
G04 #@! TO.P,J15,1*
G04 #@! TO.N,/serial/RS232_RX*
X104750000Y-124750000D03*
G04 #@! TD*
G04 #@! TO.P,J16,1*
G04 #@! TO.N,/serial/RS485_A+*
X111250000Y-124750000D03*
D28*
G04 #@! TO.P,J16,2*
G04 #@! TO.N,/serial/RS485_B-*
X113790000Y-124750000D03*
G04 #@! TO.P,J16,3*
G04 #@! TO.N,/DGND*
X116330000Y-124750000D03*
G04 #@! TD*
D11*
G04 #@! TO.P,J9,6*
G04 #@! TO.N,Net-(J9-Pad6)*
X88250000Y-88850000D03*
X83250000Y-88850000D03*
D10*
X89250000Y-86150000D03*
X82250000Y-86150000D03*
G04 #@! TD*
D29*
G04 #@! TO.N,/3V3*
X133500000Y-103000000D03*
X159250000Y-97750000D03*
X138000000Y-93999999D03*
X132000000Y-107750000D03*
X120750000Y-103000000D03*
X122750000Y-105000000D03*
G04 #@! TO.N,/AGND*
X123500000Y-100750000D03*
X127175010Y-103000000D03*
X127175010Y-106250000D03*
X131081403Y-107081403D03*
X137121332Y-108750000D03*
X117750000Y-113500000D03*
X115750000Y-113500000D03*
X115500000Y-111000000D03*
X116250000Y-107250000D03*
X109500000Y-107000000D03*
G04 #@! TO.N,/DGND*
X144000000Y-117500000D03*
X146500000Y-109750000D03*
X137000000Y-126000000D03*
X139262653Y-118262653D03*
X155500000Y-91250000D03*
X157500000Y-94000000D03*
X160000000Y-98750000D03*
X133750000Y-98500000D03*
X139500000Y-93737348D03*
X139000000Y-99250000D03*
X148500000Y-105187500D03*
G04 #@! TO.N,Net-(C4-Pad1)*
X145250000Y-95775000D03*
X145500000Y-111250000D03*
X144500000Y-116000000D03*
G04 #@! TO.N,Net-(C6-Pad1)*
X146250000Y-106500000D03*
X143000000Y-107000000D03*
G04 #@! TO.N,/powerSupply/Gnd_In*
X116250000Y-100500000D03*
X105000000Y-93900000D03*
X107300000Y-85900000D03*
X91100000Y-86200000D03*
G04 #@! TO.N,/rPi/UART_RX*
X164250000Y-106000000D03*
X165250000Y-107500000D03*
G04 #@! TO.N,/analogSensing/R_Sense*
X129533425Y-122808731D03*
X135000000Y-119725000D03*
X135000000Y-118250000D03*
X119000000Y-119000000D03*
G04 #@! TO.N,/analogSensing/420+*
X135250000Y-112000000D03*
X133725000Y-112000000D03*
G04 #@! TO.N,/analogSensing/420-*
X133250000Y-109500000D03*
G04 #@! TO.N,Net-(J11-Pad1)*
X94500000Y-91000000D03*
X91000000Y-91000000D03*
G04 #@! TO.N,/rPi/5V_In*
X112500000Y-96500000D03*
X112750000Y-94250000D03*
X120750000Y-85500000D03*
X122500000Y-83949999D03*
G04 #@! TO.N,/analogSensing/SDA*
X123250000Y-119250000D03*
X112262653Y-99512653D03*
X118750000Y-111000000D03*
X118887653Y-117387653D03*
G04 #@! TO.N,/analogSensing/SCL*
X123750000Y-112250000D03*
X126000000Y-120025000D03*
X129512653Y-120737347D03*
G04 #@! TO.N,/D_INPUT_C*
X135750000Y-94000000D03*
X134500000Y-97250000D03*
G04 #@! TO.N,/D_INPUT_D*
X141750000Y-93750000D03*
X145250000Y-99000000D03*
G04 #@! TO.N,Net-(K1-Pad2)*
X93250000Y-99000000D03*
X95500000Y-96750000D03*
X111000000Y-92750000D03*
X113750000Y-91000000D03*
X115500000Y-91000000D03*
X132000000Y-92000000D03*
X167000000Y-92000000D03*
G04 #@! TO.N,Net-(K2-Pad5)*
X109000000Y-122500000D03*
X169750000Y-103250000D03*
G04 #@! TO.N,Net-(R13-Pad1)*
X143750000Y-101000000D03*
X149000000Y-101000000D03*
G04 #@! TO.N,Net-(R14-Pad1)*
X152000000Y-102000000D03*
X142250000Y-101750000D03*
G04 #@! TO.N,Net-(R15-Pad1)*
X155750000Y-100000000D03*
X145000000Y-97250000D03*
G04 #@! TO.N,Net-(SW2-Pad8)*
X137750000Y-107000000D03*
X151750000Y-106000000D03*
G04 #@! TO.N,Net-(U1-Pad10)*
X140500000Y-95750000D03*
X136396332Y-104233741D03*
X139000000Y-112500000D03*
G04 #@! TO.N,/3V3_Net+*
X111250000Y-99500000D03*
G04 #@! TO.N,Net-(J18-Pad2)*
X92750000Y-94500000D03*
X115500000Y-92000000D03*
G04 #@! TO.N,Net-(J14-Pad1)*
X100250000Y-98000000D03*
X109250000Y-96250000D03*
X115500000Y-93000000D03*
X130000000Y-93000000D03*
X166500000Y-93500000D03*
G04 #@! TD*
D30*
G04 #@! TO.N,/3V3*
X164750000Y-94562500D02*
X168250000Y-94562500D01*
X133725000Y-103225000D02*
X133500000Y-103000000D01*
X135050000Y-103225000D02*
X133725000Y-103225000D01*
X128500000Y-112562500D02*
X132000000Y-112562500D01*
X137050000Y-114095000D02*
X135595000Y-114095000D01*
X135595000Y-114095000D02*
X134750000Y-113250000D01*
X132687500Y-113250000D02*
X132000000Y-112562500D01*
X134750000Y-113250000D02*
X132687500Y-113250000D01*
X162437500Y-94562500D02*
X164750000Y-94562500D01*
X159250000Y-97750000D02*
X162437500Y-94562500D01*
X133612500Y-101312500D02*
X131250000Y-101312500D01*
X135050000Y-102750000D02*
X133612500Y-101312500D01*
X135050000Y-103225000D02*
X135050000Y-102750000D01*
X135050000Y-102750000D02*
X135050000Y-99050000D01*
X135050000Y-99050000D02*
X135050000Y-98700000D01*
X135050000Y-98700000D02*
X136500000Y-97250000D01*
X136500000Y-97250000D02*
X136750000Y-97000000D01*
X136750000Y-97000000D02*
X136750000Y-94500000D01*
X137250001Y-93999999D02*
X138000000Y-93999999D01*
X136750000Y-94500000D02*
X137250001Y-93999999D01*
X132000000Y-107750000D02*
X132000000Y-112562500D01*
X120750000Y-103000000D02*
X122750000Y-105000000D01*
G04 #@! TO.N,/AGND*
X120641399Y-97891399D02*
X123500000Y-100750000D01*
X120641399Y-88148601D02*
X120641399Y-97891399D01*
X121830000Y-86960000D02*
X120641399Y-88148601D01*
X127175010Y-103000000D02*
X127175010Y-106250000D01*
X132004406Y-106681404D02*
X133500000Y-108176998D01*
X131481402Y-106681404D02*
X132004406Y-106681404D01*
X131081403Y-107081403D02*
X131481402Y-106681404D01*
X133500000Y-108676998D02*
X133823002Y-109000000D01*
X133500000Y-108176998D02*
X133500000Y-108676998D01*
X136871332Y-109000000D02*
X137121332Y-108750000D01*
X133823002Y-109000000D02*
X136871332Y-109000000D01*
X117750000Y-113500000D02*
X115750000Y-113500000D01*
X115500000Y-111000000D02*
X115500000Y-109828998D01*
X115500000Y-108000000D02*
X116250000Y-107250000D01*
X115500000Y-109828998D02*
X115500000Y-108000000D01*
X109899999Y-107399999D02*
X114899999Y-107399999D01*
X114899999Y-107399999D02*
X115500000Y-108000000D01*
X109500000Y-107000000D02*
X109899999Y-107399999D01*
G04 #@! TO.N,Net-(C3-Pad1)*
X144662500Y-103225000D02*
X144750000Y-103312500D01*
X140950000Y-103225000D02*
X144662500Y-103225000D01*
G04 #@! TO.N,Net-(C3-Pad2)*
X142612500Y-105187500D02*
X143950000Y-105187500D01*
X141950000Y-104525000D02*
X142612500Y-105187500D01*
X143950000Y-105187500D02*
X144750000Y-105187500D01*
X140950000Y-104525000D02*
X141950000Y-104525000D01*
G04 #@! TO.N,/DGND*
X131937500Y-103875000D02*
X135050000Y-103875000D01*
X131250000Y-103187500D02*
X131937500Y-103875000D01*
X128500000Y-119187500D02*
X132000000Y-119187500D01*
X146187500Y-119687500D02*
X144000000Y-117500000D01*
X148500000Y-119687500D02*
X146187500Y-119687500D01*
X148437500Y-109750000D02*
X148500000Y-109687500D01*
X146500000Y-109750000D02*
X148437500Y-109750000D01*
X137000000Y-117955000D02*
X137050000Y-117905000D01*
X137000000Y-126000000D02*
X137000000Y-117955000D01*
X137407653Y-118262653D02*
X137050000Y-117905000D01*
X139262653Y-118262653D02*
X137407653Y-118262653D01*
X132556237Y-118631263D02*
X132000000Y-119187500D01*
X133662501Y-117524999D02*
X132556237Y-118631263D01*
X135644999Y-117524999D02*
X133662501Y-117524999D01*
X136025000Y-117905000D02*
X135644999Y-117524999D01*
X137050000Y-117905000D02*
X136025000Y-117905000D01*
X163260000Y-91250000D02*
X155500000Y-91250000D01*
X165010000Y-89500000D02*
X163260000Y-91250000D01*
X159176998Y-98750000D02*
X160000000Y-98750000D01*
X157500000Y-97073002D02*
X159176998Y-98750000D01*
X157500000Y-94000000D02*
X157500000Y-97073002D01*
X151121399Y-88148601D02*
X151446401Y-87823599D01*
X151446401Y-87823599D02*
X152310000Y-86960000D01*
X148581399Y-88148601D02*
X151121399Y-88148601D01*
X147230000Y-89500000D02*
X148581399Y-88148601D01*
X131126401Y-87823599D02*
X131990000Y-86960000D01*
X128261399Y-88148601D02*
X130801399Y-88148601D01*
X130801399Y-88148601D02*
X131126401Y-87823599D01*
X126910000Y-89500000D02*
X128261399Y-88148601D01*
X138746401Y-87823599D02*
X139610000Y-86960000D01*
X138421399Y-88148601D02*
X138746401Y-87823599D01*
X133178601Y-88148601D02*
X138421399Y-88148601D01*
X131990000Y-86960000D02*
X133178601Y-88148601D01*
X146366401Y-88636401D02*
X147230000Y-89500000D01*
X145878601Y-88148601D02*
X146366401Y-88636401D01*
X140798601Y-88148601D02*
X145878601Y-88148601D01*
X139610000Y-86960000D02*
X140798601Y-88148601D01*
X156526401Y-87823599D02*
X157390000Y-86960000D01*
X156201399Y-88148601D02*
X156526401Y-87823599D01*
X153498601Y-88148601D02*
X156201399Y-88148601D01*
X152310000Y-86960000D02*
X153498601Y-88148601D01*
X164146401Y-88636401D02*
X165010000Y-89500000D01*
X163821399Y-88311399D02*
X164146401Y-88636401D01*
X158741399Y-88311399D02*
X163821399Y-88311399D01*
X157390000Y-86960000D02*
X158741399Y-88311399D01*
X139000000Y-94237348D02*
X139000000Y-99250000D01*
X139500000Y-93737348D02*
X139000000Y-94237348D01*
G04 #@! TO.N,Net-(C4-Pad1)*
X148500000Y-117812500D02*
X148500000Y-115437500D01*
X148500000Y-116025000D02*
X149475000Y-117000000D01*
X148500000Y-115437500D02*
X148500000Y-116025000D01*
X152950000Y-115550000D02*
X152950000Y-115500000D01*
X151500000Y-117000000D02*
X152950000Y-115550000D01*
X149475000Y-117000000D02*
X151500000Y-117000000D01*
X154261411Y-95375001D02*
X156475001Y-97588591D01*
X145250000Y-95775000D02*
X145649999Y-95375001D01*
X145649999Y-95375001D02*
X154261411Y-95375001D01*
X156475001Y-100348001D02*
X153073002Y-103750000D01*
X156475001Y-97588591D02*
X156475001Y-100348001D01*
X153073002Y-103750000D02*
X152750000Y-103750000D01*
X153073002Y-103750000D02*
X152000000Y-103750000D01*
X152000000Y-103750000D02*
X150500000Y-105250000D01*
X150500000Y-105250000D02*
X150500000Y-109750000D01*
X149000000Y-111250000D02*
X145500000Y-111250000D01*
X150500000Y-109750000D02*
X149000000Y-111250000D01*
X144500000Y-116565685D02*
X144750000Y-116815685D01*
X144500000Y-116000000D02*
X144500000Y-116565685D01*
X147503185Y-116815685D02*
X148500000Y-117812500D01*
X144750000Y-116815685D02*
X147503185Y-116815685D01*
G04 #@! TO.N,Net-(C6-Pad1)*
X147562500Y-107812500D02*
X146250000Y-106500000D01*
X148500000Y-107812500D02*
X147562500Y-107812500D01*
X142475000Y-106475000D02*
X140950000Y-106475000D01*
X143000000Y-107000000D02*
X142475000Y-106475000D01*
G04 #@! TO.N,Net-(C7-Pad2)*
X143812500Y-108750000D02*
X144750000Y-109687500D01*
X139750000Y-108750000D02*
X143812500Y-108750000D01*
X140950000Y-105825000D02*
X139950000Y-105825000D01*
X139950000Y-105825000D02*
X139500000Y-106275000D01*
X139500000Y-106275000D02*
X139500000Y-108500000D01*
X139500000Y-108500000D02*
X139750000Y-108750000D01*
G04 #@! TO.N,Net-(C7-Pad1)*
X141950000Y-105175000D02*
X142775000Y-106000000D01*
X140950000Y-105175000D02*
X141950000Y-105175000D01*
X142775000Y-106000000D02*
X144250000Y-106000000D01*
X144750000Y-106500000D02*
X144750000Y-107812500D01*
X144250000Y-106000000D02*
X144750000Y-106500000D01*
G04 #@! TO.N,Net-(C8-Pad1)*
X147687490Y-104125010D02*
X147943763Y-103868737D01*
X142200010Y-104125010D02*
X147687490Y-104125010D01*
X141950000Y-103875000D02*
X142200010Y-104125010D01*
X147943763Y-103868737D02*
X148500000Y-103312500D01*
X140950000Y-103875000D02*
X141950000Y-103875000D01*
G04 #@! TO.N,Net-(C9-Pad2)*
X123750000Y-113362500D02*
X123750000Y-114562500D01*
X121387500Y-111000000D02*
X123750000Y-113362500D01*
X128500000Y-114437500D02*
X132000000Y-114437500D01*
X132340000Y-115365000D02*
X136025000Y-115365000D01*
X136025000Y-115365000D02*
X137050000Y-115365000D01*
X132000000Y-115025000D02*
X132340000Y-115365000D01*
X132000000Y-114437500D02*
X132000000Y-115025000D01*
X128375000Y-114562500D02*
X128500000Y-114437500D01*
X123750000Y-114562500D02*
X128375000Y-114562500D01*
G04 #@! TO.N,Net-(C10-Pad1)*
X123750000Y-116437500D02*
X123750000Y-117750000D01*
X123637500Y-117750000D02*
X121637500Y-119750000D01*
X123750000Y-117750000D02*
X123637500Y-117750000D01*
X128500000Y-117312500D02*
X132000000Y-117312500D01*
X132677500Y-116635000D02*
X137050000Y-116635000D01*
X132000000Y-117312500D02*
X132677500Y-116635000D01*
X124625000Y-117312500D02*
X123750000Y-116437500D01*
X128500000Y-117312500D02*
X124625000Y-117312500D01*
G04 #@! TO.N,/powerSupply/Gnd_In*
X81290000Y-124750000D02*
X81290000Y-122540000D01*
X81290000Y-122540000D02*
X83830000Y-120000000D01*
X83830000Y-120000000D02*
X89500000Y-120000000D01*
X89500000Y-120000000D02*
X92000000Y-120000000D01*
X92000000Y-120000000D02*
X95000000Y-120000000D01*
X95000000Y-120000000D02*
X95500000Y-120000000D01*
X102750000Y-112750000D02*
X102750000Y-102750000D01*
X95500000Y-120000000D02*
X102750000Y-112750000D01*
X105000000Y-100500000D02*
X116250000Y-100500000D01*
X102750000Y-102750000D02*
X105000000Y-100500000D01*
X105000000Y-100500000D02*
X105000000Y-93900000D01*
X107300000Y-85334315D02*
X106565685Y-84600000D01*
X107300000Y-85900000D02*
X107300000Y-85334315D01*
X106565685Y-84600000D02*
X91900000Y-84600000D01*
X91100000Y-85400000D02*
X91100000Y-86200000D01*
X91900000Y-84600000D02*
X91100000Y-85400000D01*
G04 #@! TO.N,/rPi/UART_RX*
X164750000Y-101437500D02*
X164750000Y-104065000D01*
X163200000Y-105615000D02*
X161625000Y-105615000D01*
X164750000Y-104065000D02*
X163200000Y-105615000D01*
X163865000Y-105615000D02*
X164250000Y-106000000D01*
X161625000Y-105615000D02*
X163865000Y-105615000D01*
X164595000Y-108155000D02*
X161625000Y-108155000D01*
X165250000Y-107500000D02*
X164595000Y-108155000D01*
X128620000Y-85250000D02*
X126910000Y-86960000D01*
X165750000Y-85250000D02*
X128620000Y-85250000D01*
X165775010Y-100412490D02*
X165775010Y-97408140D01*
X169500000Y-95250000D02*
X169500000Y-93250000D01*
X164750000Y-101437500D02*
X165775010Y-100412490D01*
X165775010Y-97408140D02*
X167683150Y-95500000D01*
X169250000Y-95500000D02*
X169500000Y-95250000D01*
X169500000Y-93250000D02*
X166250000Y-90000000D01*
X166250000Y-90000000D02*
X166250000Y-85750000D01*
X167683150Y-95500000D02*
X169250000Y-95500000D01*
X166250000Y-85750000D02*
X165750000Y-85250000D01*
G04 #@! TO.N,Net-(D_RX1-Pad2)*
X164750000Y-98975000D02*
X164750000Y-96437500D01*
X164750000Y-99562500D02*
X164750000Y-98975000D01*
G04 #@! TO.N,Net-(D_TX1-Pad2)*
X168250000Y-97025000D02*
X168250000Y-99562500D01*
X168250000Y-96437500D02*
X168250000Y-97025000D01*
G04 #@! TO.N,/rPi/UART_TX*
X168250000Y-101437500D02*
X168250000Y-103250000D01*
X164615000Y-106885000D02*
X161625000Y-106885000D01*
X168250000Y-103250000D02*
X164615000Y-106885000D01*
X160050000Y-104345000D02*
X159000000Y-105395000D01*
X161625000Y-104345000D02*
X160050000Y-104345000D01*
X159000000Y-105395000D02*
X159000000Y-106250000D01*
X159635000Y-106885000D02*
X161625000Y-106885000D01*
X159000000Y-106250000D02*
X159635000Y-106885000D01*
X170200010Y-93049990D02*
X170200010Y-99487490D01*
X124370000Y-86960000D02*
X127030010Y-84299990D01*
X173250000Y-90000000D02*
X170200010Y-93049990D01*
X127030010Y-84299990D02*
X171799990Y-84299990D01*
X170200010Y-99487490D02*
X168250000Y-101437500D01*
X171799990Y-84299990D02*
X173250000Y-85750000D01*
X173250000Y-85750000D02*
X173250000Y-90000000D01*
G04 #@! TO.N,/powerSupply/V_adapter_out*
X78750000Y-123400000D02*
X82900000Y-119250000D01*
X78750000Y-124750000D02*
X78750000Y-123400000D01*
X82900000Y-119250000D02*
X94500000Y-119250000D01*
X102000000Y-111750000D02*
X102000000Y-95500000D01*
X94500000Y-119250000D02*
X102000000Y-111750000D01*
G04 #@! TO.N,/serial/RS485_B-*
X113790000Y-114322500D02*
X113790000Y-124750000D01*
X117112500Y-111000000D02*
X113790000Y-114322500D01*
G04 #@! TO.N,/serial/RS485_A+*
X111250000Y-126100000D02*
X111250000Y-124750000D01*
X111564999Y-126414999D02*
X111250000Y-126100000D01*
X117335001Y-126414999D02*
X111564999Y-126414999D01*
X118250000Y-125500000D02*
X117335001Y-126414999D01*
X117362500Y-119750000D02*
X116729290Y-120383210D01*
X116729290Y-120383210D02*
X116729290Y-121979290D01*
X116729290Y-121979290D02*
X118250000Y-123500000D01*
X118250000Y-123500000D02*
X118250000Y-125500000D01*
G04 #@! TO.N,/analogSensing/R_Sense*
X119500000Y-123750000D02*
X120500000Y-124750000D01*
X119500000Y-120000000D02*
X119500000Y-123750000D01*
X121743046Y-122808731D02*
X129533425Y-122808731D01*
X119500000Y-120565685D02*
X121743046Y-122808731D01*
X119500000Y-120000000D02*
X119500000Y-120565685D01*
X135000000Y-119725000D02*
X135000000Y-118250000D01*
X119000000Y-119000000D02*
X119500000Y-119500000D01*
X119500000Y-119500000D02*
X119500000Y-120000000D01*
G04 #@! TO.N,/analogSensing/420+*
X135250000Y-112000000D02*
X133725000Y-112000000D01*
G04 #@! TO.N,/analogSensing/420-*
X134797905Y-109500000D02*
X140000000Y-114702095D01*
X133250000Y-109500000D02*
X134797905Y-109500000D01*
X140000000Y-114702095D02*
X140000000Y-125750000D01*
X140000000Y-125750000D02*
X137750000Y-128000000D01*
X132790000Y-128000000D02*
X129540000Y-124750000D01*
X137750000Y-128000000D02*
X132790000Y-128000000D01*
G04 #@! TO.N,Net-(J9-Pad6)*
X83100000Y-88850000D02*
X83250000Y-88850000D01*
X82250000Y-88000000D02*
X83100000Y-88850000D01*
X82250000Y-86150000D02*
X82250000Y-88000000D01*
X89250000Y-87175000D02*
X89250000Y-86150000D01*
X88400000Y-88850000D02*
X89250000Y-88000000D01*
X89250000Y-88000000D02*
X89250000Y-87175000D01*
X88250000Y-88850000D02*
X88400000Y-88850000D01*
X84125000Y-88850000D02*
X88250000Y-88850000D01*
X83250000Y-88850000D02*
X84125000Y-88850000D01*
G04 #@! TO.N,Net-(J11-Pad6)*
X99350000Y-88850000D02*
X99500000Y-88850000D01*
X98500000Y-88000000D02*
X99350000Y-88850000D01*
X98500000Y-86150000D02*
X98500000Y-88000000D01*
X104650000Y-88850000D02*
X104500000Y-88850000D01*
X105500000Y-88000000D02*
X104650000Y-88850000D01*
X105500000Y-86150000D02*
X105500000Y-88000000D01*
X99500000Y-88850000D02*
X104500000Y-88850000D01*
G04 #@! TO.N,Net-(J11-Pad1)*
X94500000Y-91000000D02*
X91000000Y-91000000D01*
G04 #@! TO.N,/rPi/5V_In*
X112500000Y-94500000D02*
X112750000Y-94250000D01*
X112500000Y-96500000D02*
X112500000Y-94500000D01*
X120949999Y-85500000D02*
X122500000Y-83949999D01*
X120750000Y-85500000D02*
X120949999Y-85500000D01*
G04 #@! TO.N,/analogSensing/SDA*
X133250000Y-125500000D02*
X128500000Y-120750000D01*
X134500000Y-125500000D02*
X133250000Y-125500000D01*
X124750000Y-120750000D02*
X123250000Y-119250000D01*
X128500000Y-120750000D02*
X124750000Y-120750000D01*
X119290000Y-92485306D02*
X112262653Y-99512653D01*
X119290000Y-89500000D02*
X119290000Y-92485306D01*
X118750000Y-117250000D02*
X118887653Y-117387653D01*
X118750000Y-111000000D02*
X118750000Y-117250000D01*
G04 #@! TO.N,/analogSensing/SCL*
X126450010Y-109549990D02*
X123750000Y-112250000D01*
X126450010Y-94120010D02*
X126450010Y-109549990D01*
X121830000Y-89500000D02*
X126450010Y-94120010D01*
X132625000Y-120025000D02*
X134500000Y-121900000D01*
X126000000Y-120025000D02*
X132625000Y-120025000D01*
X134500000Y-121900000D02*
X134500000Y-123000000D01*
X133337347Y-120737347D02*
X134500000Y-121900000D01*
X129512653Y-120737347D02*
X133337347Y-120737347D01*
G04 #@! TO.N,/D_INPUT_C*
X135750000Y-94000000D02*
X134250000Y-95500000D01*
X134250000Y-97000000D02*
X134500000Y-97250000D01*
X134250000Y-95500000D02*
X134250000Y-97000000D01*
G04 #@! TO.N,/D_INPUT_D*
X141750000Y-93750000D02*
X141750000Y-99250000D01*
X141750000Y-99250000D02*
X142750000Y-100250000D01*
X142750000Y-100250000D02*
X144750000Y-100250000D01*
X144750000Y-100250000D02*
X145000000Y-100000000D01*
X145250000Y-99750000D02*
X145250000Y-99000000D01*
X145000000Y-100000000D02*
X145250000Y-99750000D01*
G04 #@! TO.N,/serial/RS232_TX*
X124112500Y-104000000D02*
X122250000Y-102137500D01*
X122250000Y-102137500D02*
X111112500Y-102137500D01*
X107290000Y-105960000D02*
X107290000Y-124750000D01*
X111112500Y-102137500D02*
X107290000Y-105960000D01*
G04 #@! TO.N,/serial/RS232_RX*
X103424999Y-107825001D02*
X103424999Y-122074999D01*
X109750000Y-101500000D02*
X103424999Y-107825001D01*
X104750000Y-123400000D02*
X104750000Y-124750000D01*
X125000000Y-101500000D02*
X109750000Y-101500000D01*
X103424999Y-122074999D02*
X104750000Y-123400000D01*
X126000000Y-102500000D02*
X125000000Y-101500000D01*
X124112500Y-108750000D02*
X124775000Y-108750000D01*
X126000000Y-107525000D02*
X126000000Y-102500000D01*
X124775000Y-108750000D02*
X126000000Y-107525000D01*
G04 #@! TO.N,Net-(K1-Pad2)*
X76700000Y-101682234D02*
X79382234Y-99000000D01*
X76700000Y-103450000D02*
X76700000Y-101682234D01*
X79382234Y-99000000D02*
X93250000Y-99000000D01*
X95899999Y-96350001D02*
X95899999Y-95600001D01*
X95500000Y-96750000D02*
X95899999Y-96350001D01*
X95899999Y-95600001D02*
X98750000Y-92750000D01*
X98750000Y-92750000D02*
X111000000Y-92750000D01*
X113750000Y-91000000D02*
X115500000Y-91000000D01*
X132000000Y-92000000D02*
X159000000Y-92000000D01*
X159000000Y-92000000D02*
X167000000Y-92000000D01*
G04 #@! TO.N,Net-(K2-Pad5)*
X111115007Y-128450009D02*
X170049991Y-128450009D01*
X109000000Y-126335002D02*
X111115007Y-128450009D01*
X109000000Y-122500000D02*
X109000000Y-126335002D01*
X172049991Y-128450009D02*
X173075001Y-127424999D01*
X173075001Y-127424999D02*
X173075001Y-107575001D01*
X170049991Y-128450009D02*
X172049991Y-128450009D01*
X169750000Y-104250000D02*
X169750000Y-103250000D01*
X173075001Y-107575001D02*
X169750000Y-104250000D01*
G04 #@! TO.N,Net-(R13-Pad1)*
X143750000Y-101000000D02*
X149000000Y-101000000D01*
G04 #@! TO.N,Net-(R14-Pad1)*
X149073002Y-102000000D02*
X148848001Y-102225001D01*
X148848001Y-102225001D02*
X144975001Y-102225001D01*
X152000000Y-102000000D02*
X149073002Y-102000000D01*
X144500000Y-101750000D02*
X142250000Y-101750000D01*
X144975001Y-102225001D02*
X144500000Y-101750000D01*
G04 #@! TO.N,Net-(R15-Pad1)*
X155750000Y-100000000D02*
X155750000Y-99434315D01*
X155750000Y-99434315D02*
X155750000Y-97500000D01*
X155750000Y-97500000D02*
X155000000Y-96750000D01*
X155000000Y-96750000D02*
X145500000Y-96750000D01*
X145500000Y-96750000D02*
X145000000Y-97250000D01*
G04 #@! TO.N,Net-(SW2-Pad7)*
X155430000Y-105615000D02*
X155315000Y-105500000D01*
X156375000Y-105615000D02*
X155430000Y-105615000D01*
X155315000Y-105500000D02*
X154250000Y-105500000D01*
X154250000Y-105500000D02*
X153250000Y-106500000D01*
X153250000Y-106500000D02*
X153250000Y-111500000D01*
X153250000Y-111500000D02*
X152750000Y-112000000D01*
X152750000Y-112000000D02*
X140000000Y-112000000D01*
X140000000Y-112000000D02*
X138750000Y-110750000D01*
X138750000Y-110750000D02*
X138750000Y-106500000D01*
X138075000Y-105825000D02*
X135050000Y-105825000D01*
X138750000Y-106500000D02*
X138075000Y-105825000D01*
G04 #@! TO.N,Net-(SW2-Pad8)*
X137225000Y-106475000D02*
X137750000Y-107000000D01*
X135050000Y-106475000D02*
X137225000Y-106475000D01*
X153405000Y-104345000D02*
X156375000Y-104345000D01*
X151750000Y-106000000D02*
X153405000Y-104345000D01*
G04 #@! TO.N,Net-(U1-Pad10)*
X140500000Y-100130073D02*
X136396332Y-104233741D01*
X140500000Y-95750000D02*
X140500000Y-100130073D01*
X141425000Y-115365000D02*
X142450000Y-115365000D01*
X141299315Y-115365000D02*
X141425000Y-115365000D01*
X139000000Y-113065685D02*
X141299315Y-115365000D01*
X139000000Y-112500000D02*
X139000000Y-113065685D01*
X142450000Y-115365000D02*
X142450000Y-116635000D01*
G04 #@! TO.N,Net-(D3-Pad1)*
X157320000Y-106885000D02*
X157435000Y-107000000D01*
X156375000Y-106885000D02*
X157320000Y-106885000D01*
X157435000Y-107000000D02*
X158250000Y-107000000D01*
X158250000Y-107000000D02*
X158750000Y-107500000D01*
X158750000Y-116750000D02*
X154250000Y-121250000D01*
X154250000Y-121250000D02*
X144500000Y-121250000D01*
X142450000Y-119200000D02*
X142450000Y-117905000D01*
X144500000Y-121250000D02*
X142450000Y-119200000D01*
X148562500Y-113500000D02*
X148500000Y-113562500D01*
X152000000Y-113500000D02*
X148562500Y-113500000D01*
X152650000Y-113500000D02*
X152000000Y-113500000D01*
X156375000Y-109775000D02*
X152650000Y-113500000D01*
X157975000Y-109775000D02*
X158750000Y-109000000D01*
X156375000Y-109775000D02*
X157975000Y-109775000D01*
X158750000Y-109000000D02*
X158750000Y-116750000D01*
X158750000Y-107500000D02*
X158750000Y-109000000D01*
G04 #@! TO.N,/3V3_Net+*
X116750000Y-94000000D02*
X111250000Y-99500000D01*
X116750000Y-89500000D02*
X116750000Y-94000000D01*
G04 #@! TO.N,Net-(J18-Pad2)*
X92750000Y-94500000D02*
X93250000Y-95000000D01*
X93250000Y-95000000D02*
X95500000Y-95000000D01*
X98500000Y-92000000D02*
X115500000Y-92000000D01*
X95500000Y-95000000D02*
X98500000Y-92000000D01*
G04 #@! TO.N,Net-(F4-Pad2)*
X128912500Y-104525000D02*
X128387500Y-104000000D01*
X135050000Y-104525000D02*
X128912500Y-104525000D01*
G04 #@! TO.N,Net-(F5-Pad2)*
X131962500Y-105175000D02*
X128387500Y-108750000D01*
X135050000Y-105175000D02*
X131962500Y-105175000D01*
G04 #@! TO.N,Net-(J14-Pad1)*
X78500000Y-95250000D02*
X81250000Y-98000000D01*
X81250000Y-98000000D02*
X92185002Y-98000000D01*
X77250000Y-95250000D02*
X78500000Y-95250000D01*
X92185002Y-98000000D02*
X100250000Y-98000000D01*
X112500000Y-93000000D02*
X115500000Y-93000000D01*
X109250000Y-96250000D02*
X112500000Y-93000000D01*
X130000000Y-93000000D02*
X156000000Y-93000000D01*
X166000000Y-93000000D02*
X166500000Y-93500000D01*
X156000000Y-93000000D02*
X166000000Y-93000000D01*
G04 #@! TO.N,Net-(SW2-Pad5)*
X156375000Y-108785000D02*
X156375000Y-108155000D01*
X145119990Y-112450010D02*
X152936401Y-112450009D01*
X152936401Y-112450009D02*
X156375000Y-109011410D01*
X143475000Y-114095000D02*
X145119990Y-112450010D01*
X156375000Y-109011410D02*
X156375000Y-108785000D01*
X142450000Y-114095000D02*
X143475000Y-114095000D01*
G04 #@! TD*
D31*
G04 #@! TO.N,/DGND*
G36*
X134122569Y-117663720D02*
X133965000Y-118044126D01*
X133965000Y-118455874D01*
X134122569Y-118836280D01*
X134240001Y-118953712D01*
X134240000Y-119021289D01*
X134122569Y-119138720D01*
X133965000Y-119519126D01*
X133965000Y-119930874D01*
X134122569Y-120311280D01*
X134413720Y-120602431D01*
X134463378Y-120623000D01*
X134297802Y-120623000D01*
X133927676Y-120252875D01*
X133885276Y-120189418D01*
X133821819Y-120147017D01*
X133335000Y-119660199D01*
X133335000Y-119473250D01*
X133176250Y-119314500D01*
X132929625Y-119314500D01*
X132921537Y-119309096D01*
X132699852Y-119265000D01*
X132699847Y-119265000D01*
X132625000Y-119250112D01*
X132550153Y-119265000D01*
X126703711Y-119265000D01*
X126586280Y-119147569D01*
X126205874Y-118990000D01*
X125794126Y-118990000D01*
X125706077Y-119026471D01*
X125627000Y-118947394D01*
X125627000Y-118072500D01*
X127337467Y-118072500D01*
X127413584Y-118186416D01*
X127414767Y-118187207D01*
X127261673Y-118340302D01*
X127165000Y-118573691D01*
X127165000Y-118901750D01*
X127323750Y-119060500D01*
X128373000Y-119060500D01*
X128373000Y-119040500D01*
X128627000Y-119040500D01*
X128627000Y-119060500D01*
X129676250Y-119060500D01*
X129835000Y-118901750D01*
X129835000Y-118573691D01*
X129738327Y-118340302D01*
X129585233Y-118187207D01*
X129586416Y-118186416D01*
X129662533Y-118072500D01*
X130837467Y-118072500D01*
X130913584Y-118186416D01*
X130914767Y-118187207D01*
X130761673Y-118340302D01*
X130665000Y-118573691D01*
X130665000Y-118901750D01*
X130823750Y-119060500D01*
X131873000Y-119060500D01*
X131873000Y-119040500D01*
X132127000Y-119040500D01*
X132127000Y-119060500D01*
X133176250Y-119060500D01*
X133335000Y-118901750D01*
X133335000Y-118573691D01*
X133238327Y-118340302D01*
X133085233Y-118187207D01*
X133086416Y-118186416D01*
X133279602Y-117897294D01*
X133347440Y-117556250D01*
X133347440Y-117395000D01*
X134391289Y-117395000D01*
X134122569Y-117663720D01*
X134122569Y-117663720D01*
G37*
X134122569Y-117663720D02*
X133965000Y-118044126D01*
X133965000Y-118455874D01*
X134122569Y-118836280D01*
X134240001Y-118953712D01*
X134240000Y-119021289D01*
X134122569Y-119138720D01*
X133965000Y-119519126D01*
X133965000Y-119930874D01*
X134122569Y-120311280D01*
X134413720Y-120602431D01*
X134463378Y-120623000D01*
X134297802Y-120623000D01*
X133927676Y-120252875D01*
X133885276Y-120189418D01*
X133821819Y-120147017D01*
X133335000Y-119660199D01*
X133335000Y-119473250D01*
X133176250Y-119314500D01*
X132929625Y-119314500D01*
X132921537Y-119309096D01*
X132699852Y-119265000D01*
X132699847Y-119265000D01*
X132625000Y-119250112D01*
X132550153Y-119265000D01*
X126703711Y-119265000D01*
X126586280Y-119147569D01*
X126205874Y-118990000D01*
X125794126Y-118990000D01*
X125706077Y-119026471D01*
X125627000Y-118947394D01*
X125627000Y-118072500D01*
X127337467Y-118072500D01*
X127413584Y-118186416D01*
X127414767Y-118187207D01*
X127261673Y-118340302D01*
X127165000Y-118573691D01*
X127165000Y-118901750D01*
X127323750Y-119060500D01*
X128373000Y-119060500D01*
X128373000Y-119040500D01*
X128627000Y-119040500D01*
X128627000Y-119060500D01*
X129676250Y-119060500D01*
X129835000Y-118901750D01*
X129835000Y-118573691D01*
X129738327Y-118340302D01*
X129585233Y-118187207D01*
X129586416Y-118186416D01*
X129662533Y-118072500D01*
X130837467Y-118072500D01*
X130913584Y-118186416D01*
X130914767Y-118187207D01*
X130761673Y-118340302D01*
X130665000Y-118573691D01*
X130665000Y-118901750D01*
X130823750Y-119060500D01*
X131873000Y-119060500D01*
X131873000Y-119040500D01*
X132127000Y-119040500D01*
X132127000Y-119060500D01*
X133176250Y-119060500D01*
X133335000Y-118901750D01*
X133335000Y-118573691D01*
X133238327Y-118340302D01*
X133085233Y-118187207D01*
X133086416Y-118186416D01*
X133279602Y-117897294D01*
X133347440Y-117556250D01*
X133347440Y-117395000D01*
X134391289Y-117395000D01*
X134122569Y-117663720D01*
G36*
X139240000Y-115016898D02*
X139240001Y-120623000D01*
X135536622Y-120623000D01*
X135586280Y-120602431D01*
X135877431Y-120311280D01*
X136035000Y-119930874D01*
X136035000Y-119519126D01*
X135877431Y-119138720D01*
X135760000Y-119021289D01*
X135760000Y-118953711D01*
X135877431Y-118836280D01*
X135915841Y-118743550D01*
X136148691Y-118840000D01*
X136764250Y-118840000D01*
X136923000Y-118681250D01*
X136923000Y-118032000D01*
X137177000Y-118032000D01*
X137177000Y-118681250D01*
X137335750Y-118840000D01*
X137951309Y-118840000D01*
X138184698Y-118743327D01*
X138363327Y-118564699D01*
X138460000Y-118331310D01*
X138460000Y-118190750D01*
X138301250Y-118032000D01*
X137177000Y-118032000D01*
X136923000Y-118032000D01*
X136903000Y-118032000D01*
X136903000Y-117778000D01*
X136923000Y-117778000D01*
X136923000Y-117758000D01*
X137177000Y-117758000D01*
X137177000Y-117778000D01*
X138301250Y-117778000D01*
X138460000Y-117619250D01*
X138460000Y-117478690D01*
X138370232Y-117261972D01*
X138423157Y-117182765D01*
X138472440Y-116935000D01*
X138472440Y-116335000D01*
X138423157Y-116087235D01*
X138364868Y-116000000D01*
X138423157Y-115912765D01*
X138472440Y-115665000D01*
X138472440Y-115065000D01*
X138423157Y-114817235D01*
X138364868Y-114730000D01*
X138423157Y-114642765D01*
X138472440Y-114395000D01*
X138472440Y-114249338D01*
X139240000Y-115016898D01*
X139240000Y-115016898D01*
G37*
X139240000Y-115016898D02*
X139240001Y-120623000D01*
X135536622Y-120623000D01*
X135586280Y-120602431D01*
X135877431Y-120311280D01*
X136035000Y-119930874D01*
X136035000Y-119519126D01*
X135877431Y-119138720D01*
X135760000Y-119021289D01*
X135760000Y-118953711D01*
X135877431Y-118836280D01*
X135915841Y-118743550D01*
X136148691Y-118840000D01*
X136764250Y-118840000D01*
X136923000Y-118681250D01*
X136923000Y-118032000D01*
X137177000Y-118032000D01*
X137177000Y-118681250D01*
X137335750Y-118840000D01*
X137951309Y-118840000D01*
X138184698Y-118743327D01*
X138363327Y-118564699D01*
X138460000Y-118331310D01*
X138460000Y-118190750D01*
X138301250Y-118032000D01*
X137177000Y-118032000D01*
X136923000Y-118032000D01*
X136903000Y-118032000D01*
X136903000Y-117778000D01*
X136923000Y-117778000D01*
X136923000Y-117758000D01*
X137177000Y-117758000D01*
X137177000Y-117778000D01*
X138301250Y-117778000D01*
X138460000Y-117619250D01*
X138460000Y-117478690D01*
X138370232Y-117261972D01*
X138423157Y-117182765D01*
X138472440Y-116935000D01*
X138472440Y-116335000D01*
X138423157Y-116087235D01*
X138364868Y-116000000D01*
X138423157Y-115912765D01*
X138472440Y-115665000D01*
X138472440Y-115065000D01*
X138423157Y-114817235D01*
X138364868Y-114730000D01*
X138423157Y-114642765D01*
X138472440Y-114395000D01*
X138472440Y-114249338D01*
X139240000Y-115016898D01*
G36*
X157975000Y-110549888D02*
X157990000Y-110546904D01*
X157990001Y-116435197D01*
X153935199Y-120490000D01*
X149756842Y-120490000D01*
X149835000Y-120301309D01*
X149835000Y-119973250D01*
X149676250Y-119814500D01*
X148627000Y-119814500D01*
X148627000Y-119834500D01*
X148373000Y-119834500D01*
X148373000Y-119814500D01*
X147323750Y-119814500D01*
X147165000Y-119973250D01*
X147165000Y-120301309D01*
X147243158Y-120490000D01*
X144814802Y-120490000D01*
X143210000Y-118885199D01*
X143210000Y-118852440D01*
X143225000Y-118852440D01*
X143472765Y-118803157D01*
X143682809Y-118662809D01*
X143823157Y-118452765D01*
X143872440Y-118205000D01*
X143872440Y-117605000D01*
X143823157Y-117357235D01*
X143764868Y-117270000D01*
X143823157Y-117182765D01*
X143863329Y-116980802D01*
X143952072Y-117113614D01*
X144015527Y-117156013D01*
X144159670Y-117300157D01*
X144202071Y-117363614D01*
X144453463Y-117531589D01*
X144675148Y-117575685D01*
X144675152Y-117575685D01*
X144749999Y-117590573D01*
X144824846Y-117575685D01*
X147152560Y-117575685D01*
X147152560Y-118056250D01*
X147220398Y-118397294D01*
X147413584Y-118686416D01*
X147414767Y-118687207D01*
X147261673Y-118840302D01*
X147165000Y-119073691D01*
X147165000Y-119401750D01*
X147323750Y-119560500D01*
X148373000Y-119560500D01*
X148373000Y-119540500D01*
X148627000Y-119540500D01*
X148627000Y-119560500D01*
X149676250Y-119560500D01*
X149835000Y-119401750D01*
X149835000Y-119073691D01*
X149738327Y-118840302D01*
X149585233Y-118687207D01*
X149586416Y-118686416D01*
X149779602Y-118397294D01*
X149847440Y-118056250D01*
X149847440Y-117760000D01*
X151425153Y-117760000D01*
X151500000Y-117774888D01*
X151574847Y-117760000D01*
X151574852Y-117760000D01*
X151796537Y-117715904D01*
X152047929Y-117547929D01*
X152090331Y-117484470D01*
X152977362Y-116597440D01*
X153350000Y-116597440D01*
X153597765Y-116548157D01*
X153807809Y-116407809D01*
X153948157Y-116197765D01*
X153997440Y-115950000D01*
X153997440Y-115050000D01*
X153948157Y-114802235D01*
X153807809Y-114592191D01*
X153597765Y-114451843D01*
X153350000Y-114402560D01*
X152861316Y-114402560D01*
X152998157Y-114197765D01*
X153001908Y-114178906D01*
X153197929Y-114047929D01*
X153240331Y-113984470D01*
X156689802Y-110535000D01*
X157900153Y-110535000D01*
X157975000Y-110549888D01*
X157975000Y-110549888D01*
G37*
X157975000Y-110549888D02*
X157990000Y-110546904D01*
X157990001Y-116435197D01*
X153935199Y-120490000D01*
X149756842Y-120490000D01*
X149835000Y-120301309D01*
X149835000Y-119973250D01*
X149676250Y-119814500D01*
X148627000Y-119814500D01*
X148627000Y-119834500D01*
X148373000Y-119834500D01*
X148373000Y-119814500D01*
X147323750Y-119814500D01*
X147165000Y-119973250D01*
X147165000Y-120301309D01*
X147243158Y-120490000D01*
X144814802Y-120490000D01*
X143210000Y-118885199D01*
X143210000Y-118852440D01*
X143225000Y-118852440D01*
X143472765Y-118803157D01*
X143682809Y-118662809D01*
X143823157Y-118452765D01*
X143872440Y-118205000D01*
X143872440Y-117605000D01*
X143823157Y-117357235D01*
X143764868Y-117270000D01*
X143823157Y-117182765D01*
X143863329Y-116980802D01*
X143952072Y-117113614D01*
X144015527Y-117156013D01*
X144159670Y-117300157D01*
X144202071Y-117363614D01*
X144453463Y-117531589D01*
X144675148Y-117575685D01*
X144675152Y-117575685D01*
X144749999Y-117590573D01*
X144824846Y-117575685D01*
X147152560Y-117575685D01*
X147152560Y-118056250D01*
X147220398Y-118397294D01*
X147413584Y-118686416D01*
X147414767Y-118687207D01*
X147261673Y-118840302D01*
X147165000Y-119073691D01*
X147165000Y-119401750D01*
X147323750Y-119560500D01*
X148373000Y-119560500D01*
X148373000Y-119540500D01*
X148627000Y-119540500D01*
X148627000Y-119560500D01*
X149676250Y-119560500D01*
X149835000Y-119401750D01*
X149835000Y-119073691D01*
X149738327Y-118840302D01*
X149585233Y-118687207D01*
X149586416Y-118686416D01*
X149779602Y-118397294D01*
X149847440Y-118056250D01*
X149847440Y-117760000D01*
X151425153Y-117760000D01*
X151500000Y-117774888D01*
X151574847Y-117760000D01*
X151574852Y-117760000D01*
X151796537Y-117715904D01*
X152047929Y-117547929D01*
X152090331Y-117484470D01*
X152977362Y-116597440D01*
X153350000Y-116597440D01*
X153597765Y-116548157D01*
X153807809Y-116407809D01*
X153948157Y-116197765D01*
X153997440Y-115950000D01*
X153997440Y-115050000D01*
X153948157Y-114802235D01*
X153807809Y-114592191D01*
X153597765Y-114451843D01*
X153350000Y-114402560D01*
X152861316Y-114402560D01*
X152998157Y-114197765D01*
X153001908Y-114178906D01*
X153197929Y-114047929D01*
X153240331Y-113984470D01*
X156689802Y-110535000D01*
X157900153Y-110535000D01*
X157975000Y-110549888D01*
G36*
X135655348Y-117441637D02*
X135608711Y-117395000D01*
X135674666Y-117395000D01*
X135655348Y-117441637D01*
X135655348Y-117441637D01*
G37*
X135655348Y-117441637D02*
X135608711Y-117395000D01*
X135674666Y-117395000D01*
X135655348Y-117441637D01*
G36*
X146972173Y-108296976D02*
X147014571Y-108360429D01*
X147078024Y-108402827D01*
X147078026Y-108402829D01*
X147160310Y-108457809D01*
X147265963Y-108528404D01*
X147314447Y-108538048D01*
X147413584Y-108686416D01*
X147414767Y-108687207D01*
X147261673Y-108840302D01*
X147165000Y-109073691D01*
X147165000Y-109401750D01*
X147323750Y-109560500D01*
X148373000Y-109560500D01*
X148373000Y-109540500D01*
X148627000Y-109540500D01*
X148627000Y-109560500D01*
X148647000Y-109560500D01*
X148647000Y-109814500D01*
X148627000Y-109814500D01*
X148627000Y-109834500D01*
X148373000Y-109834500D01*
X148373000Y-109814500D01*
X147323750Y-109814500D01*
X147165000Y-109973250D01*
X147165000Y-110301309D01*
X147243158Y-110490000D01*
X146203711Y-110490000D01*
X146086280Y-110372569D01*
X145989411Y-110332444D01*
X146029602Y-110272294D01*
X146097440Y-109931250D01*
X146097440Y-109443750D01*
X146029602Y-109102706D01*
X145836416Y-108813584D01*
X145741256Y-108750000D01*
X145836416Y-108686416D01*
X146029602Y-108397294D01*
X146097440Y-108056250D01*
X146097440Y-107568750D01*
X146090727Y-107535000D01*
X146210198Y-107535000D01*
X146972173Y-108296976D01*
X146972173Y-108296976D01*
G37*
X146972173Y-108296976D02*
X147014571Y-108360429D01*
X147078024Y-108402827D01*
X147078026Y-108402829D01*
X147160310Y-108457809D01*
X147265963Y-108528404D01*
X147314447Y-108538048D01*
X147413584Y-108686416D01*
X147414767Y-108687207D01*
X147261673Y-108840302D01*
X147165000Y-109073691D01*
X147165000Y-109401750D01*
X147323750Y-109560500D01*
X148373000Y-109560500D01*
X148373000Y-109540500D01*
X148627000Y-109540500D01*
X148627000Y-109560500D01*
X148647000Y-109560500D01*
X148647000Y-109814500D01*
X148627000Y-109814500D01*
X148627000Y-109834500D01*
X148373000Y-109834500D01*
X148373000Y-109814500D01*
X147323750Y-109814500D01*
X147165000Y-109973250D01*
X147165000Y-110301309D01*
X147243158Y-110490000D01*
X146203711Y-110490000D01*
X146086280Y-110372569D01*
X145989411Y-110332444D01*
X146029602Y-110272294D01*
X146097440Y-109931250D01*
X146097440Y-109443750D01*
X146029602Y-109102706D01*
X145836416Y-108813584D01*
X145741256Y-108750000D01*
X145836416Y-108686416D01*
X146029602Y-108397294D01*
X146097440Y-108056250D01*
X146097440Y-107568750D01*
X146090727Y-107535000D01*
X146210198Y-107535000D01*
X146972173Y-108296976D01*
G36*
X147165000Y-104901750D02*
X147323750Y-105060500D01*
X148373000Y-105060500D01*
X148373000Y-105040500D01*
X148627000Y-105040500D01*
X148627000Y-105060500D01*
X148647000Y-105060500D01*
X148647000Y-105314500D01*
X148627000Y-105314500D01*
X148627000Y-106151250D01*
X148785750Y-106310000D01*
X149326310Y-106310000D01*
X149559699Y-106213327D01*
X149738327Y-106034698D01*
X149740000Y-106030659D01*
X149740000Y-107168438D01*
X149586416Y-106938584D01*
X149297294Y-106745398D01*
X148956250Y-106677560D01*
X148043750Y-106677560D01*
X147702706Y-106745398D01*
X147623275Y-106798472D01*
X147285000Y-106460198D01*
X147285000Y-106294126D01*
X147127431Y-105913720D01*
X146836280Y-105622569D01*
X146475792Y-105473250D01*
X147165000Y-105473250D01*
X147165000Y-105801309D01*
X147261673Y-106034698D01*
X147440301Y-106213327D01*
X147673690Y-106310000D01*
X148214250Y-106310000D01*
X148373000Y-106151250D01*
X148373000Y-105314500D01*
X147323750Y-105314500D01*
X147165000Y-105473250D01*
X146475792Y-105473250D01*
X146455874Y-105465000D01*
X146090727Y-105465000D01*
X146097440Y-105431250D01*
X146097440Y-104943750D01*
X146085756Y-104885010D01*
X147165000Y-104885010D01*
X147165000Y-104901750D01*
X147165000Y-104901750D01*
G37*
X147165000Y-104901750D02*
X147323750Y-105060500D01*
X148373000Y-105060500D01*
X148373000Y-105040500D01*
X148627000Y-105040500D01*
X148627000Y-105060500D01*
X148647000Y-105060500D01*
X148647000Y-105314500D01*
X148627000Y-105314500D01*
X148627000Y-106151250D01*
X148785750Y-106310000D01*
X149326310Y-106310000D01*
X149559699Y-106213327D01*
X149738327Y-106034698D01*
X149740000Y-106030659D01*
X149740000Y-107168438D01*
X149586416Y-106938584D01*
X149297294Y-106745398D01*
X148956250Y-106677560D01*
X148043750Y-106677560D01*
X147702706Y-106745398D01*
X147623275Y-106798472D01*
X147285000Y-106460198D01*
X147285000Y-106294126D01*
X147127431Y-105913720D01*
X146836280Y-105622569D01*
X146475792Y-105473250D01*
X147165000Y-105473250D01*
X147165000Y-105801309D01*
X147261673Y-106034698D01*
X147440301Y-106213327D01*
X147673690Y-106310000D01*
X148214250Y-106310000D01*
X148373000Y-106151250D01*
X148373000Y-105314500D01*
X147323750Y-105314500D01*
X147165000Y-105473250D01*
X146475792Y-105473250D01*
X146455874Y-105465000D01*
X146090727Y-105465000D01*
X146097440Y-105431250D01*
X146097440Y-104943750D01*
X146085756Y-104885010D01*
X147165000Y-104885010D01*
X147165000Y-104901750D01*
G36*
X133913720Y-98127431D02*
X134294126Y-98285000D01*
X134413251Y-98285000D01*
X134334096Y-98403463D01*
X134290000Y-98625148D01*
X134290000Y-98625153D01*
X134275112Y-98700000D01*
X134290000Y-98774847D01*
X134290000Y-99124851D01*
X134290001Y-99124856D01*
X134290000Y-100915199D01*
X134202831Y-100828030D01*
X134160429Y-100764571D01*
X133909037Y-100596596D01*
X133687352Y-100552500D01*
X133687347Y-100552500D01*
X133612500Y-100537612D01*
X133537653Y-100552500D01*
X132412533Y-100552500D01*
X132336416Y-100438584D01*
X132047294Y-100245398D01*
X131706250Y-100177560D01*
X130793750Y-100177560D01*
X130452706Y-100245398D01*
X130163584Y-100438584D01*
X129970398Y-100727706D01*
X129902560Y-101068750D01*
X129902560Y-101556250D01*
X129970398Y-101897294D01*
X130163584Y-102186416D01*
X130164767Y-102187207D01*
X130011673Y-102340302D01*
X129915000Y-102573691D01*
X129915000Y-102901750D01*
X130073750Y-103060500D01*
X131123000Y-103060500D01*
X131123000Y-103040500D01*
X131377000Y-103040500D01*
X131377000Y-103060500D01*
X131397000Y-103060500D01*
X131397000Y-103314500D01*
X131377000Y-103314500D01*
X131377000Y-103334500D01*
X131123000Y-103334500D01*
X131123000Y-103314500D01*
X130073750Y-103314500D01*
X129915000Y-103473250D01*
X129915000Y-103765000D01*
X129627000Y-103765000D01*
X129627000Y-99802606D01*
X131552606Y-97877000D01*
X133663289Y-97877000D01*
X133913720Y-98127431D01*
X133913720Y-98127431D01*
G37*
X133913720Y-98127431D02*
X134294126Y-98285000D01*
X134413251Y-98285000D01*
X134334096Y-98403463D01*
X134290000Y-98625148D01*
X134290000Y-98625153D01*
X134275112Y-98700000D01*
X134290000Y-98774847D01*
X134290000Y-99124851D01*
X134290001Y-99124856D01*
X134290000Y-100915199D01*
X134202831Y-100828030D01*
X134160429Y-100764571D01*
X133909037Y-100596596D01*
X133687352Y-100552500D01*
X133687347Y-100552500D01*
X133612500Y-100537612D01*
X133537653Y-100552500D01*
X132412533Y-100552500D01*
X132336416Y-100438584D01*
X132047294Y-100245398D01*
X131706250Y-100177560D01*
X130793750Y-100177560D01*
X130452706Y-100245398D01*
X130163584Y-100438584D01*
X129970398Y-100727706D01*
X129902560Y-101068750D01*
X129902560Y-101556250D01*
X129970398Y-101897294D01*
X130163584Y-102186416D01*
X130164767Y-102187207D01*
X130011673Y-102340302D01*
X129915000Y-102573691D01*
X129915000Y-102901750D01*
X130073750Y-103060500D01*
X131123000Y-103060500D01*
X131123000Y-103040500D01*
X131377000Y-103040500D01*
X131377000Y-103060500D01*
X131397000Y-103060500D01*
X131397000Y-103314500D01*
X131377000Y-103314500D01*
X131377000Y-103334500D01*
X131123000Y-103334500D01*
X131123000Y-103314500D01*
X130073750Y-103314500D01*
X129915000Y-103473250D01*
X129915000Y-103765000D01*
X129627000Y-103765000D01*
X129627000Y-99802606D01*
X131552606Y-97877000D01*
X133663289Y-97877000D01*
X133913720Y-98127431D01*
G36*
X139740001Y-99815270D02*
X136447440Y-103107832D01*
X136447440Y-103000000D01*
X136398157Y-102752235D01*
X136257809Y-102542191D01*
X136047765Y-102401843D01*
X135810000Y-102354549D01*
X135810000Y-99014801D01*
X136947802Y-97877000D01*
X139740001Y-97877000D01*
X139740001Y-99815270D01*
X139740001Y-99815270D01*
G37*
X139740001Y-99815270D02*
X136447440Y-103107832D01*
X136447440Y-103000000D01*
X136398157Y-102752235D01*
X136257809Y-102542191D01*
X136047765Y-102401843D01*
X135810000Y-102354549D01*
X135810000Y-99014801D01*
X136947802Y-97877000D01*
X139740001Y-97877000D01*
X139740001Y-99815270D01*
G04 #@! TD*
M02*
