G04 #@! TF.GenerationSoftware,KiCad,Pcbnew,5.0.2-bee76a0~70~ubuntu16.04.1*
G04 #@! TF.CreationDate,2018-12-12T21:45:09+05:30*
G04 #@! TF.ProjectId,sanjaya,73616e6a-6179-4612-9e6b-696361645f70,rev?*
G04 #@! TF.SameCoordinates,Original*
G04 #@! TF.FileFunction,Soldermask,Bot*
G04 #@! TF.FilePolarity,Negative*
%FSLAX46Y46*%
G04 Gerber Fmt 4.6, Leading zero omitted, Abs format (unit mm)*
G04 Created by KiCad (PCBNEW 5.0.2-bee76a0~70~ubuntu16.04.1) date Wed Dec 12 21:45:09 2018*
%MOMM*%
%LPD*%
G01*
G04 APERTURE LIST*
%ADD10C,0.100000*%
G04 APERTURE END LIST*
D10*
G36*
X78896318Y-126554411D02*
X78968767Y-126568822D01*
X79025303Y-126592240D01*
X79105257Y-126625358D01*
X79228100Y-126707439D01*
X79332561Y-126811900D01*
X79414642Y-126934743D01*
X79471178Y-127071234D01*
X79500000Y-127216130D01*
X79500000Y-127363870D01*
X79471178Y-127508766D01*
X79414642Y-127645257D01*
X79332561Y-127768100D01*
X79228100Y-127872561D01*
X79105257Y-127954642D01*
X79025303Y-127987760D01*
X78968767Y-128011178D01*
X78896318Y-128025589D01*
X78823870Y-128040000D01*
X78676130Y-128040000D01*
X78603682Y-128025589D01*
X78531233Y-128011178D01*
X78474697Y-127987760D01*
X78394743Y-127954642D01*
X78271900Y-127872561D01*
X78167439Y-127768100D01*
X78085358Y-127645257D01*
X78028822Y-127508766D01*
X78000000Y-127363870D01*
X78000000Y-127216130D01*
X78028822Y-127071234D01*
X78085358Y-126934743D01*
X78167439Y-126811900D01*
X78271900Y-126707439D01*
X78394743Y-126625358D01*
X78474697Y-126592240D01*
X78531233Y-126568822D01*
X78603682Y-126554411D01*
X78676130Y-126540000D01*
X78823870Y-126540000D01*
X78896318Y-126554411D01*
X78896318Y-126554411D01*
G37*
G36*
X113936318Y-126554411D02*
X114008767Y-126568822D01*
X114065303Y-126592240D01*
X114145257Y-126625358D01*
X114268100Y-126707439D01*
X114372561Y-126811900D01*
X114454642Y-126934743D01*
X114511178Y-127071234D01*
X114540000Y-127216130D01*
X114540000Y-127363870D01*
X114511178Y-127508766D01*
X114454642Y-127645257D01*
X114372561Y-127768100D01*
X114268100Y-127872561D01*
X114145257Y-127954642D01*
X114065303Y-127987760D01*
X114008767Y-128011178D01*
X113936318Y-128025589D01*
X113863870Y-128040000D01*
X113716130Y-128040000D01*
X113643682Y-128025589D01*
X113571233Y-128011178D01*
X113514697Y-127987760D01*
X113434743Y-127954642D01*
X113311900Y-127872561D01*
X113207439Y-127768100D01*
X113125358Y-127645257D01*
X113068822Y-127508766D01*
X113040000Y-127363870D01*
X113040000Y-127216130D01*
X113068822Y-127071234D01*
X113125358Y-126934743D01*
X113207439Y-126811900D01*
X113311900Y-126707439D01*
X113434743Y-126625358D01*
X113514697Y-126592240D01*
X113571233Y-126568822D01*
X113643682Y-126554411D01*
X113716130Y-126540000D01*
X113863870Y-126540000D01*
X113936318Y-126554411D01*
X113936318Y-126554411D01*
G37*
G36*
X95646318Y-126554411D02*
X95718767Y-126568822D01*
X95775303Y-126592240D01*
X95855257Y-126625358D01*
X95978100Y-126707439D01*
X96082561Y-126811900D01*
X96164642Y-126934743D01*
X96221178Y-127071234D01*
X96250000Y-127216130D01*
X96250000Y-127363870D01*
X96221178Y-127508766D01*
X96164642Y-127645257D01*
X96082561Y-127768100D01*
X95978100Y-127872561D01*
X95855257Y-127954642D01*
X95775303Y-127987760D01*
X95718767Y-128011178D01*
X95646318Y-128025589D01*
X95573870Y-128040000D01*
X95426130Y-128040000D01*
X95353682Y-128025589D01*
X95281233Y-128011178D01*
X95224697Y-127987760D01*
X95144743Y-127954642D01*
X95021900Y-127872561D01*
X94917439Y-127768100D01*
X94835358Y-127645257D01*
X94778822Y-127508766D01*
X94750000Y-127363870D01*
X94750000Y-127216130D01*
X94778822Y-127071234D01*
X94835358Y-126934743D01*
X94917439Y-126811900D01*
X95021900Y-126707439D01*
X95144743Y-126625358D01*
X95224697Y-126592240D01*
X95281233Y-126568822D01*
X95353682Y-126554411D01*
X95426130Y-126540000D01*
X95573870Y-126540000D01*
X95646318Y-126554411D01*
X95646318Y-126554411D01*
G37*
G36*
X123186318Y-126554411D02*
X123258767Y-126568822D01*
X123315303Y-126592240D01*
X123395257Y-126625358D01*
X123518100Y-126707439D01*
X123622561Y-126811900D01*
X123704642Y-126934743D01*
X123761178Y-127071234D01*
X123790000Y-127216130D01*
X123790000Y-127363870D01*
X123761178Y-127508766D01*
X123704642Y-127645257D01*
X123622561Y-127768100D01*
X123518100Y-127872561D01*
X123395257Y-127954642D01*
X123315303Y-127987760D01*
X123258767Y-128011178D01*
X123186318Y-128025589D01*
X123113870Y-128040000D01*
X122966130Y-128040000D01*
X122893682Y-128025589D01*
X122821233Y-128011178D01*
X122764697Y-127987760D01*
X122684743Y-127954642D01*
X122561900Y-127872561D01*
X122457439Y-127768100D01*
X122375358Y-127645257D01*
X122318822Y-127508766D01*
X122290000Y-127363870D01*
X122290000Y-127216130D01*
X122318822Y-127071234D01*
X122375358Y-126934743D01*
X122457439Y-126811900D01*
X122561900Y-126707439D01*
X122684743Y-126625358D01*
X122764697Y-126592240D01*
X122821233Y-126568822D01*
X122893682Y-126554411D01*
X122966130Y-126540000D01*
X123113870Y-126540000D01*
X123186318Y-126554411D01*
X123186318Y-126554411D01*
G37*
G36*
X120646318Y-126554411D02*
X120718767Y-126568822D01*
X120775303Y-126592240D01*
X120855257Y-126625358D01*
X120978100Y-126707439D01*
X121082561Y-126811900D01*
X121164642Y-126934743D01*
X121221178Y-127071234D01*
X121250000Y-127216130D01*
X121250000Y-127363870D01*
X121221178Y-127508766D01*
X121164642Y-127645257D01*
X121082561Y-127768100D01*
X120978100Y-127872561D01*
X120855257Y-127954642D01*
X120775303Y-127987760D01*
X120718767Y-128011178D01*
X120646318Y-128025589D01*
X120573870Y-128040000D01*
X120426130Y-128040000D01*
X120353682Y-128025589D01*
X120281233Y-128011178D01*
X120224697Y-127987760D01*
X120144743Y-127954642D01*
X120021900Y-127872561D01*
X119917439Y-127768100D01*
X119835358Y-127645257D01*
X119778822Y-127508766D01*
X119750000Y-127363870D01*
X119750000Y-127216130D01*
X119778822Y-127071234D01*
X119835358Y-126934743D01*
X119917439Y-126811900D01*
X120021900Y-126707439D01*
X120144743Y-126625358D01*
X120224697Y-126592240D01*
X120281233Y-126568822D01*
X120353682Y-126554411D01*
X120426130Y-126540000D01*
X120573870Y-126540000D01*
X120646318Y-126554411D01*
X120646318Y-126554411D01*
G37*
G36*
X107436318Y-126554411D02*
X107508767Y-126568822D01*
X107565303Y-126592240D01*
X107645257Y-126625358D01*
X107768100Y-126707439D01*
X107872561Y-126811900D01*
X107954642Y-126934743D01*
X108011178Y-127071234D01*
X108040000Y-127216130D01*
X108040000Y-127363870D01*
X108011178Y-127508766D01*
X107954642Y-127645257D01*
X107872561Y-127768100D01*
X107768100Y-127872561D01*
X107645257Y-127954642D01*
X107565303Y-127987760D01*
X107508767Y-128011178D01*
X107436318Y-128025589D01*
X107363870Y-128040000D01*
X107216130Y-128040000D01*
X107143682Y-128025589D01*
X107071233Y-128011178D01*
X107014697Y-127987760D01*
X106934743Y-127954642D01*
X106811900Y-127872561D01*
X106707439Y-127768100D01*
X106625358Y-127645257D01*
X106568822Y-127508766D01*
X106540000Y-127363870D01*
X106540000Y-127216130D01*
X106568822Y-127071234D01*
X106625358Y-126934743D01*
X106707439Y-126811900D01*
X106811900Y-126707439D01*
X106934743Y-126625358D01*
X107014697Y-126592240D01*
X107071233Y-126568822D01*
X107143682Y-126554411D01*
X107216130Y-126540000D01*
X107363870Y-126540000D01*
X107436318Y-126554411D01*
X107436318Y-126554411D01*
G37*
G36*
X104896318Y-126554411D02*
X104968767Y-126568822D01*
X105025303Y-126592240D01*
X105105257Y-126625358D01*
X105228100Y-126707439D01*
X105332561Y-126811900D01*
X105414642Y-126934743D01*
X105471178Y-127071234D01*
X105500000Y-127216130D01*
X105500000Y-127363870D01*
X105471178Y-127508766D01*
X105414642Y-127645257D01*
X105332561Y-127768100D01*
X105228100Y-127872561D01*
X105105257Y-127954642D01*
X105025303Y-127987760D01*
X104968767Y-128011178D01*
X104896318Y-128025589D01*
X104823870Y-128040000D01*
X104676130Y-128040000D01*
X104603682Y-128025589D01*
X104531233Y-128011178D01*
X104474697Y-127987760D01*
X104394743Y-127954642D01*
X104271900Y-127872561D01*
X104167439Y-127768100D01*
X104085358Y-127645257D01*
X104028822Y-127508766D01*
X104000000Y-127363870D01*
X104000000Y-127216130D01*
X104028822Y-127071234D01*
X104085358Y-126934743D01*
X104167439Y-126811900D01*
X104271900Y-126707439D01*
X104394743Y-126625358D01*
X104474697Y-126592240D01*
X104531233Y-126568822D01*
X104603682Y-126554411D01*
X104676130Y-126540000D01*
X104823870Y-126540000D01*
X104896318Y-126554411D01*
X104896318Y-126554411D01*
G37*
G36*
X111396318Y-126554411D02*
X111468767Y-126568822D01*
X111525303Y-126592240D01*
X111605257Y-126625358D01*
X111728100Y-126707439D01*
X111832561Y-126811900D01*
X111914642Y-126934743D01*
X111971178Y-127071234D01*
X112000000Y-127216130D01*
X112000000Y-127363870D01*
X111971178Y-127508766D01*
X111914642Y-127645257D01*
X111832561Y-127768100D01*
X111728100Y-127872561D01*
X111605257Y-127954642D01*
X111525303Y-127987760D01*
X111468767Y-128011178D01*
X111396318Y-128025589D01*
X111323870Y-128040000D01*
X111176130Y-128040000D01*
X111103682Y-128025589D01*
X111031233Y-128011178D01*
X110974697Y-127987760D01*
X110894743Y-127954642D01*
X110771900Y-127872561D01*
X110667439Y-127768100D01*
X110585358Y-127645257D01*
X110528822Y-127508766D01*
X110500000Y-127363870D01*
X110500000Y-127216130D01*
X110528822Y-127071234D01*
X110585358Y-126934743D01*
X110667439Y-126811900D01*
X110771900Y-126707439D01*
X110894743Y-126625358D01*
X110974697Y-126592240D01*
X111031233Y-126568822D01*
X111103682Y-126554411D01*
X111176130Y-126540000D01*
X111323870Y-126540000D01*
X111396318Y-126554411D01*
X111396318Y-126554411D01*
G37*
G36*
X127146318Y-126554411D02*
X127218767Y-126568822D01*
X127275303Y-126592240D01*
X127355257Y-126625358D01*
X127478100Y-126707439D01*
X127582561Y-126811900D01*
X127664642Y-126934743D01*
X127721178Y-127071234D01*
X127750000Y-127216130D01*
X127750000Y-127363870D01*
X127721178Y-127508766D01*
X127664642Y-127645257D01*
X127582561Y-127768100D01*
X127478100Y-127872561D01*
X127355257Y-127954642D01*
X127275303Y-127987760D01*
X127218767Y-128011178D01*
X127146318Y-128025589D01*
X127073870Y-128040000D01*
X126926130Y-128040000D01*
X126853682Y-128025589D01*
X126781233Y-128011178D01*
X126724697Y-127987760D01*
X126644743Y-127954642D01*
X126521900Y-127872561D01*
X126417439Y-127768100D01*
X126335358Y-127645257D01*
X126278822Y-127508766D01*
X126250000Y-127363870D01*
X126250000Y-127216130D01*
X126278822Y-127071234D01*
X126335358Y-126934743D01*
X126417439Y-126811900D01*
X126521900Y-126707439D01*
X126644743Y-126625358D01*
X126724697Y-126592240D01*
X126781233Y-126568822D01*
X126853682Y-126554411D01*
X126926130Y-126540000D01*
X127073870Y-126540000D01*
X127146318Y-126554411D01*
X127146318Y-126554411D01*
G37*
G36*
X129686318Y-126554411D02*
X129758767Y-126568822D01*
X129815303Y-126592240D01*
X129895257Y-126625358D01*
X130018100Y-126707439D01*
X130122561Y-126811900D01*
X130204642Y-126934743D01*
X130261178Y-127071234D01*
X130290000Y-127216130D01*
X130290000Y-127363870D01*
X130261178Y-127508766D01*
X130204642Y-127645257D01*
X130122561Y-127768100D01*
X130018100Y-127872561D01*
X129895257Y-127954642D01*
X129815303Y-127987760D01*
X129758767Y-128011178D01*
X129686318Y-128025589D01*
X129613870Y-128040000D01*
X129466130Y-128040000D01*
X129393682Y-128025589D01*
X129321233Y-128011178D01*
X129264697Y-127987760D01*
X129184743Y-127954642D01*
X129061900Y-127872561D01*
X128957439Y-127768100D01*
X128875358Y-127645257D01*
X128818822Y-127508766D01*
X128790000Y-127363870D01*
X128790000Y-127216130D01*
X128818822Y-127071234D01*
X128875358Y-126934743D01*
X128957439Y-126811900D01*
X129061900Y-126707439D01*
X129184743Y-126625358D01*
X129264697Y-126592240D01*
X129321233Y-126568822D01*
X129393682Y-126554411D01*
X129466130Y-126540000D01*
X129613870Y-126540000D01*
X129686318Y-126554411D01*
X129686318Y-126554411D01*
G37*
G36*
X116476318Y-126554411D02*
X116548767Y-126568822D01*
X116605303Y-126592240D01*
X116685257Y-126625358D01*
X116808100Y-126707439D01*
X116912561Y-126811900D01*
X116994642Y-126934743D01*
X117051178Y-127071234D01*
X117080000Y-127216130D01*
X117080000Y-127363870D01*
X117051178Y-127508766D01*
X116994642Y-127645257D01*
X116912561Y-127768100D01*
X116808100Y-127872561D01*
X116685257Y-127954642D01*
X116605303Y-127987760D01*
X116548767Y-128011178D01*
X116476318Y-128025589D01*
X116403870Y-128040000D01*
X116256130Y-128040000D01*
X116183682Y-128025589D01*
X116111233Y-128011178D01*
X116054697Y-127987760D01*
X115974743Y-127954642D01*
X115851900Y-127872561D01*
X115747439Y-127768100D01*
X115665358Y-127645257D01*
X115608822Y-127508766D01*
X115580000Y-127363870D01*
X115580000Y-127216130D01*
X115608822Y-127071234D01*
X115665358Y-126934743D01*
X115747439Y-126811900D01*
X115851900Y-126707439D01*
X115974743Y-126625358D01*
X116054697Y-126592240D01*
X116111233Y-126568822D01*
X116183682Y-126554411D01*
X116256130Y-126540000D01*
X116403870Y-126540000D01*
X116476318Y-126554411D01*
X116476318Y-126554411D01*
G37*
G36*
X81436318Y-126554411D02*
X81508767Y-126568822D01*
X81565303Y-126592240D01*
X81645257Y-126625358D01*
X81768100Y-126707439D01*
X81872561Y-126811900D01*
X81954642Y-126934743D01*
X82011178Y-127071234D01*
X82040000Y-127216130D01*
X82040000Y-127363870D01*
X82011178Y-127508766D01*
X81954642Y-127645257D01*
X81872561Y-127768100D01*
X81768100Y-127872561D01*
X81645257Y-127954642D01*
X81565303Y-127987760D01*
X81508767Y-128011178D01*
X81436318Y-128025589D01*
X81363870Y-128040000D01*
X81216130Y-128040000D01*
X81143682Y-128025589D01*
X81071233Y-128011178D01*
X81014697Y-127987760D01*
X80934743Y-127954642D01*
X80811900Y-127872561D01*
X80707439Y-127768100D01*
X80625358Y-127645257D01*
X80568822Y-127508766D01*
X80540000Y-127363870D01*
X80540000Y-127216130D01*
X80568822Y-127071234D01*
X80625358Y-126934743D01*
X80707439Y-126811900D01*
X80811900Y-126707439D01*
X80934743Y-126625358D01*
X81014697Y-126592240D01*
X81071233Y-126568822D01*
X81143682Y-126554411D01*
X81216130Y-126540000D01*
X81363870Y-126540000D01*
X81436318Y-126554411D01*
X81436318Y-126554411D01*
G37*
G36*
X86396318Y-126554411D02*
X86468767Y-126568822D01*
X86525303Y-126592240D01*
X86605257Y-126625358D01*
X86728100Y-126707439D01*
X86832561Y-126811900D01*
X86914642Y-126934743D01*
X86971178Y-127071234D01*
X87000000Y-127216130D01*
X87000000Y-127363870D01*
X86971178Y-127508766D01*
X86914642Y-127645257D01*
X86832561Y-127768100D01*
X86728100Y-127872561D01*
X86605257Y-127954642D01*
X86525303Y-127987760D01*
X86468767Y-128011178D01*
X86396318Y-128025589D01*
X86323870Y-128040000D01*
X86176130Y-128040000D01*
X86103682Y-128025589D01*
X86031233Y-128011178D01*
X85974697Y-127987760D01*
X85894743Y-127954642D01*
X85771900Y-127872561D01*
X85667439Y-127768100D01*
X85585358Y-127645257D01*
X85528822Y-127508766D01*
X85500000Y-127363870D01*
X85500000Y-127216130D01*
X85528822Y-127071234D01*
X85585358Y-126934743D01*
X85667439Y-126811900D01*
X85771900Y-126707439D01*
X85894743Y-126625358D01*
X85974697Y-126592240D01*
X86031233Y-126568822D01*
X86103682Y-126554411D01*
X86176130Y-126540000D01*
X86323870Y-126540000D01*
X86396318Y-126554411D01*
X86396318Y-126554411D01*
G37*
G36*
X88936318Y-126554411D02*
X89008767Y-126568822D01*
X89065303Y-126592240D01*
X89145257Y-126625358D01*
X89268100Y-126707439D01*
X89372561Y-126811900D01*
X89454642Y-126934743D01*
X89511178Y-127071234D01*
X89540000Y-127216130D01*
X89540000Y-127363870D01*
X89511178Y-127508766D01*
X89454642Y-127645257D01*
X89372561Y-127768100D01*
X89268100Y-127872561D01*
X89145257Y-127954642D01*
X89065303Y-127987760D01*
X89008767Y-128011178D01*
X88936318Y-128025589D01*
X88863870Y-128040000D01*
X88716130Y-128040000D01*
X88643682Y-128025589D01*
X88571233Y-128011178D01*
X88514697Y-127987760D01*
X88434743Y-127954642D01*
X88311900Y-127872561D01*
X88207439Y-127768100D01*
X88125358Y-127645257D01*
X88068822Y-127508766D01*
X88040000Y-127363870D01*
X88040000Y-127216130D01*
X88068822Y-127071234D01*
X88125358Y-126934743D01*
X88207439Y-126811900D01*
X88311900Y-126707439D01*
X88434743Y-126625358D01*
X88514697Y-126592240D01*
X88571233Y-126568822D01*
X88643682Y-126554411D01*
X88716130Y-126540000D01*
X88863870Y-126540000D01*
X88936318Y-126554411D01*
X88936318Y-126554411D01*
G37*
G36*
X91476318Y-126554411D02*
X91548767Y-126568822D01*
X91605303Y-126592240D01*
X91685257Y-126625358D01*
X91808100Y-126707439D01*
X91912561Y-126811900D01*
X91994642Y-126934743D01*
X92051178Y-127071234D01*
X92080000Y-127216130D01*
X92080000Y-127363870D01*
X92051178Y-127508766D01*
X91994642Y-127645257D01*
X91912561Y-127768100D01*
X91808100Y-127872561D01*
X91685257Y-127954642D01*
X91605303Y-127987760D01*
X91548767Y-128011178D01*
X91476318Y-128025589D01*
X91403870Y-128040000D01*
X91256130Y-128040000D01*
X91183682Y-128025589D01*
X91111233Y-128011178D01*
X91054697Y-127987760D01*
X90974743Y-127954642D01*
X90851900Y-127872561D01*
X90747439Y-127768100D01*
X90665358Y-127645257D01*
X90608822Y-127508766D01*
X90580000Y-127363870D01*
X90580000Y-127216130D01*
X90608822Y-127071234D01*
X90665358Y-126934743D01*
X90747439Y-126811900D01*
X90851900Y-126707439D01*
X90974743Y-126625358D01*
X91054697Y-126592240D01*
X91111233Y-126568822D01*
X91183682Y-126554411D01*
X91256130Y-126540000D01*
X91403870Y-126540000D01*
X91476318Y-126554411D01*
X91476318Y-126554411D01*
G37*
G36*
X100726318Y-126554411D02*
X100798767Y-126568822D01*
X100855303Y-126592240D01*
X100935257Y-126625358D01*
X101058100Y-126707439D01*
X101162561Y-126811900D01*
X101244642Y-126934743D01*
X101301178Y-127071234D01*
X101330000Y-127216130D01*
X101330000Y-127363870D01*
X101301178Y-127508766D01*
X101244642Y-127645257D01*
X101162561Y-127768100D01*
X101058100Y-127872561D01*
X100935257Y-127954642D01*
X100855303Y-127987760D01*
X100798767Y-128011178D01*
X100726318Y-128025589D01*
X100653870Y-128040000D01*
X100506130Y-128040000D01*
X100433682Y-128025589D01*
X100361233Y-128011178D01*
X100304697Y-127987760D01*
X100224743Y-127954642D01*
X100101900Y-127872561D01*
X99997439Y-127768100D01*
X99915358Y-127645257D01*
X99858822Y-127508766D01*
X99830000Y-127363870D01*
X99830000Y-127216130D01*
X99858822Y-127071234D01*
X99915358Y-126934743D01*
X99997439Y-126811900D01*
X100101900Y-126707439D01*
X100224743Y-126625358D01*
X100304697Y-126592240D01*
X100361233Y-126568822D01*
X100433682Y-126554411D01*
X100506130Y-126540000D01*
X100653870Y-126540000D01*
X100726318Y-126554411D01*
X100726318Y-126554411D01*
G37*
G36*
X98186318Y-126554411D02*
X98258767Y-126568822D01*
X98315303Y-126592240D01*
X98395257Y-126625358D01*
X98518100Y-126707439D01*
X98622561Y-126811900D01*
X98704642Y-126934743D01*
X98761178Y-127071234D01*
X98790000Y-127216130D01*
X98790000Y-127363870D01*
X98761178Y-127508766D01*
X98704642Y-127645257D01*
X98622561Y-127768100D01*
X98518100Y-127872561D01*
X98395257Y-127954642D01*
X98315303Y-127987760D01*
X98258767Y-128011178D01*
X98186318Y-128025589D01*
X98113870Y-128040000D01*
X97966130Y-128040000D01*
X97893682Y-128025589D01*
X97821233Y-128011178D01*
X97764697Y-127987760D01*
X97684743Y-127954642D01*
X97561900Y-127872561D01*
X97457439Y-127768100D01*
X97375358Y-127645257D01*
X97318822Y-127508766D01*
X97290000Y-127363870D01*
X97290000Y-127216130D01*
X97318822Y-127071234D01*
X97375358Y-126934743D01*
X97457439Y-126811900D01*
X97561900Y-126707439D01*
X97684743Y-126625358D01*
X97764697Y-126592240D01*
X97821233Y-126568822D01*
X97893682Y-126554411D01*
X97966130Y-126540000D01*
X98113870Y-126540000D01*
X98186318Y-126554411D01*
X98186318Y-126554411D01*
G37*
G36*
X168396318Y-126304411D02*
X168468767Y-126318822D01*
X168525303Y-126342240D01*
X168605257Y-126375358D01*
X168728100Y-126457439D01*
X168832561Y-126561900D01*
X168914642Y-126684743D01*
X168971178Y-126821234D01*
X169000000Y-126966130D01*
X169000000Y-127113870D01*
X168971178Y-127258766D01*
X168914642Y-127395257D01*
X168832561Y-127518100D01*
X168728100Y-127622561D01*
X168605257Y-127704642D01*
X168525303Y-127737760D01*
X168468767Y-127761178D01*
X168396318Y-127775589D01*
X168323870Y-127790000D01*
X168176130Y-127790000D01*
X168103682Y-127775589D01*
X168031233Y-127761178D01*
X167974697Y-127737760D01*
X167894743Y-127704642D01*
X167771900Y-127622561D01*
X167667439Y-127518100D01*
X167585358Y-127395257D01*
X167528822Y-127258766D01*
X167500000Y-127113870D01*
X167500000Y-126966130D01*
X167528822Y-126821234D01*
X167585358Y-126684743D01*
X167667439Y-126561900D01*
X167771900Y-126457439D01*
X167894743Y-126375358D01*
X167974697Y-126342240D01*
X168031233Y-126318822D01*
X168103682Y-126304411D01*
X168176130Y-126290000D01*
X168323870Y-126290000D01*
X168396318Y-126304411D01*
X168396318Y-126304411D01*
G37*
G36*
X170936318Y-126304411D02*
X171008767Y-126318822D01*
X171065303Y-126342240D01*
X171145257Y-126375358D01*
X171268100Y-126457439D01*
X171372561Y-126561900D01*
X171454642Y-126684743D01*
X171511178Y-126821234D01*
X171540000Y-126966130D01*
X171540000Y-127113870D01*
X171511178Y-127258766D01*
X171454642Y-127395257D01*
X171372561Y-127518100D01*
X171268100Y-127622561D01*
X171145257Y-127704642D01*
X171065303Y-127737760D01*
X171008767Y-127761178D01*
X170936318Y-127775589D01*
X170863870Y-127790000D01*
X170716130Y-127790000D01*
X170643682Y-127775589D01*
X170571233Y-127761178D01*
X170514697Y-127737760D01*
X170434743Y-127704642D01*
X170311900Y-127622561D01*
X170207439Y-127518100D01*
X170125358Y-127395257D01*
X170068822Y-127258766D01*
X170040000Y-127113870D01*
X170040000Y-126966130D01*
X170068822Y-126821234D01*
X170125358Y-126684743D01*
X170207439Y-126561900D01*
X170311900Y-126457439D01*
X170434743Y-126375358D01*
X170514697Y-126342240D01*
X170571233Y-126318822D01*
X170643682Y-126304411D01*
X170716130Y-126290000D01*
X170863870Y-126290000D01*
X170936318Y-126304411D01*
X170936318Y-126304411D01*
G37*
G36*
X135700000Y-126550000D02*
X133300000Y-126550000D01*
X133300000Y-124450000D01*
X135700000Y-124450000D01*
X135700000Y-126550000D01*
X135700000Y-126550000D01*
G37*
G36*
X121800000Y-123853782D02*
X121802402Y-123878168D01*
X121809515Y-123901617D01*
X121821066Y-123923228D01*
X121836612Y-123942170D01*
X121855554Y-123957716D01*
X121877165Y-123969267D01*
X121900614Y-123976380D01*
X121925000Y-123978782D01*
X121949386Y-123976380D01*
X121972835Y-123969267D01*
X121994446Y-123957716D01*
X122013388Y-123942170D01*
X122028933Y-123923230D01*
X122030226Y-123921295D01*
X122211295Y-123740226D01*
X122424220Y-123597954D01*
X122660804Y-123499958D01*
X122911960Y-123450000D01*
X123168040Y-123450000D01*
X123419196Y-123499958D01*
X123655780Y-123597954D01*
X123868705Y-123740226D01*
X124049774Y-123921295D01*
X124192046Y-124134220D01*
X124290042Y-124370804D01*
X124340000Y-124621960D01*
X124340000Y-124878040D01*
X124290042Y-125129196D01*
X124192046Y-125365780D01*
X124049774Y-125578705D01*
X123868705Y-125759774D01*
X123655780Y-125902046D01*
X123419196Y-126000042D01*
X123168040Y-126050000D01*
X122911960Y-126050000D01*
X122660804Y-126000042D01*
X122424220Y-125902046D01*
X122211295Y-125759774D01*
X122030226Y-125578705D01*
X122028933Y-125576770D01*
X122013387Y-125557828D01*
X121994445Y-125542283D01*
X121972834Y-125530732D01*
X121949384Y-125523619D01*
X121924998Y-125521218D01*
X121900612Y-125523620D01*
X121877163Y-125530734D01*
X121855552Y-125542285D01*
X121836610Y-125557831D01*
X121821065Y-125576773D01*
X121809514Y-125598384D01*
X121802401Y-125621834D01*
X121800000Y-125646218D01*
X121800000Y-126050000D01*
X119200000Y-126050000D01*
X119200000Y-123450000D01*
X121800000Y-123450000D01*
X121800000Y-123853782D01*
X121800000Y-123853782D01*
G37*
G36*
X96800000Y-123853782D02*
X96802402Y-123878168D01*
X96809515Y-123901617D01*
X96821066Y-123923228D01*
X96836612Y-123942170D01*
X96855554Y-123957716D01*
X96877165Y-123969267D01*
X96900614Y-123976380D01*
X96925000Y-123978782D01*
X96949386Y-123976380D01*
X96972835Y-123969267D01*
X96994446Y-123957716D01*
X97013388Y-123942170D01*
X97028933Y-123923230D01*
X97030226Y-123921295D01*
X97211295Y-123740226D01*
X97424220Y-123597954D01*
X97660804Y-123499958D01*
X97911960Y-123450000D01*
X98168040Y-123450000D01*
X98419196Y-123499958D01*
X98655780Y-123597954D01*
X98868705Y-123740226D01*
X99049774Y-123921295D01*
X99192047Y-124134221D01*
X99194515Y-124140180D01*
X99206066Y-124161791D01*
X99221611Y-124180733D01*
X99240553Y-124196279D01*
X99262163Y-124207830D01*
X99285612Y-124214944D01*
X99309999Y-124217346D01*
X99334385Y-124214944D01*
X99357834Y-124207831D01*
X99379445Y-124196280D01*
X99398387Y-124180735D01*
X99413933Y-124161793D01*
X99425485Y-124140180D01*
X99427953Y-124134221D01*
X99570226Y-123921295D01*
X99751295Y-123740226D01*
X99964220Y-123597954D01*
X100200804Y-123499958D01*
X100451960Y-123450000D01*
X100708040Y-123450000D01*
X100959196Y-123499958D01*
X101195780Y-123597954D01*
X101408705Y-123740226D01*
X101589774Y-123921295D01*
X101732046Y-124134220D01*
X101830042Y-124370804D01*
X101880000Y-124621960D01*
X101880000Y-124878040D01*
X101830042Y-125129196D01*
X101732046Y-125365780D01*
X101589774Y-125578705D01*
X101408705Y-125759774D01*
X101195780Y-125902046D01*
X100959196Y-126000042D01*
X100708040Y-126050000D01*
X100451960Y-126050000D01*
X100200804Y-126000042D01*
X99964220Y-125902046D01*
X99751295Y-125759774D01*
X99570226Y-125578705D01*
X99427953Y-125365779D01*
X99425485Y-125359820D01*
X99413934Y-125338209D01*
X99398389Y-125319267D01*
X99379447Y-125303721D01*
X99357837Y-125292170D01*
X99334388Y-125285056D01*
X99310001Y-125282654D01*
X99285615Y-125285056D01*
X99262166Y-125292169D01*
X99240555Y-125303720D01*
X99221613Y-125319265D01*
X99206067Y-125338207D01*
X99194515Y-125359820D01*
X99192047Y-125365779D01*
X99049774Y-125578705D01*
X98868705Y-125759774D01*
X98655780Y-125902046D01*
X98419196Y-126000042D01*
X98168040Y-126050000D01*
X97911960Y-126050000D01*
X97660804Y-126000042D01*
X97424220Y-125902046D01*
X97211295Y-125759774D01*
X97030226Y-125578705D01*
X97028933Y-125576770D01*
X97013387Y-125557828D01*
X96994445Y-125542283D01*
X96972834Y-125530732D01*
X96949384Y-125523619D01*
X96924998Y-125521218D01*
X96900612Y-125523620D01*
X96877163Y-125530734D01*
X96855552Y-125542285D01*
X96836610Y-125557831D01*
X96821065Y-125576773D01*
X96809514Y-125598384D01*
X96802401Y-125621834D01*
X96800000Y-125646218D01*
X96800000Y-126050000D01*
X94200000Y-126050000D01*
X94200000Y-123450000D01*
X96800000Y-123450000D01*
X96800000Y-123853782D01*
X96800000Y-123853782D01*
G37*
G36*
X112550000Y-123853782D02*
X112552402Y-123878168D01*
X112559515Y-123901617D01*
X112571066Y-123923228D01*
X112586612Y-123942170D01*
X112605554Y-123957716D01*
X112627165Y-123969267D01*
X112650614Y-123976380D01*
X112675000Y-123978782D01*
X112699386Y-123976380D01*
X112722835Y-123969267D01*
X112744446Y-123957716D01*
X112763388Y-123942170D01*
X112778933Y-123923230D01*
X112780226Y-123921295D01*
X112961295Y-123740226D01*
X113174220Y-123597954D01*
X113410804Y-123499958D01*
X113661960Y-123450000D01*
X113918040Y-123450000D01*
X114169196Y-123499958D01*
X114405780Y-123597954D01*
X114618705Y-123740226D01*
X114799774Y-123921295D01*
X114942047Y-124134221D01*
X114944515Y-124140180D01*
X114956066Y-124161791D01*
X114971611Y-124180733D01*
X114990553Y-124196279D01*
X115012163Y-124207830D01*
X115035612Y-124214944D01*
X115059999Y-124217346D01*
X115084385Y-124214944D01*
X115107834Y-124207831D01*
X115129445Y-124196280D01*
X115148387Y-124180735D01*
X115163933Y-124161793D01*
X115175485Y-124140180D01*
X115177953Y-124134221D01*
X115320226Y-123921295D01*
X115501295Y-123740226D01*
X115714220Y-123597954D01*
X115950804Y-123499958D01*
X116201960Y-123450000D01*
X116458040Y-123450000D01*
X116709196Y-123499958D01*
X116945780Y-123597954D01*
X117158705Y-123740226D01*
X117339774Y-123921295D01*
X117482046Y-124134220D01*
X117580042Y-124370804D01*
X117630000Y-124621960D01*
X117630000Y-124878040D01*
X117580042Y-125129196D01*
X117482046Y-125365780D01*
X117339774Y-125578705D01*
X117158705Y-125759774D01*
X116945780Y-125902046D01*
X116709196Y-126000042D01*
X116458040Y-126050000D01*
X116201960Y-126050000D01*
X115950804Y-126000042D01*
X115714220Y-125902046D01*
X115501295Y-125759774D01*
X115320226Y-125578705D01*
X115177953Y-125365779D01*
X115175485Y-125359820D01*
X115163934Y-125338209D01*
X115148389Y-125319267D01*
X115129447Y-125303721D01*
X115107837Y-125292170D01*
X115084388Y-125285056D01*
X115060001Y-125282654D01*
X115035615Y-125285056D01*
X115012166Y-125292169D01*
X114990555Y-125303720D01*
X114971613Y-125319265D01*
X114956067Y-125338207D01*
X114944515Y-125359820D01*
X114942047Y-125365779D01*
X114799774Y-125578705D01*
X114618705Y-125759774D01*
X114405780Y-125902046D01*
X114169196Y-126000042D01*
X113918040Y-126050000D01*
X113661960Y-126050000D01*
X113410804Y-126000042D01*
X113174220Y-125902046D01*
X112961295Y-125759774D01*
X112780226Y-125578705D01*
X112778933Y-125576770D01*
X112763387Y-125557828D01*
X112744445Y-125542283D01*
X112722834Y-125530732D01*
X112699384Y-125523619D01*
X112674998Y-125521218D01*
X112650612Y-125523620D01*
X112627163Y-125530734D01*
X112605552Y-125542285D01*
X112586610Y-125557831D01*
X112571065Y-125576773D01*
X112559514Y-125598384D01*
X112552401Y-125621834D01*
X112550000Y-125646218D01*
X112550000Y-126050000D01*
X109950000Y-126050000D01*
X109950000Y-123450000D01*
X112550000Y-123450000D01*
X112550000Y-123853782D01*
X112550000Y-123853782D01*
G37*
G36*
X80050000Y-123853782D02*
X80052402Y-123878168D01*
X80059515Y-123901617D01*
X80071066Y-123923228D01*
X80086612Y-123942170D01*
X80105554Y-123957716D01*
X80127165Y-123969267D01*
X80150614Y-123976380D01*
X80175000Y-123978782D01*
X80199386Y-123976380D01*
X80222835Y-123969267D01*
X80244446Y-123957716D01*
X80263388Y-123942170D01*
X80278933Y-123923230D01*
X80280226Y-123921295D01*
X80461295Y-123740226D01*
X80674220Y-123597954D01*
X80910804Y-123499958D01*
X81161960Y-123450000D01*
X81418040Y-123450000D01*
X81669196Y-123499958D01*
X81905780Y-123597954D01*
X82118705Y-123740226D01*
X82299774Y-123921295D01*
X82442046Y-124134220D01*
X82540042Y-124370804D01*
X82590000Y-124621960D01*
X82590000Y-124878040D01*
X82540042Y-125129196D01*
X82442046Y-125365780D01*
X82299774Y-125578705D01*
X82118705Y-125759774D01*
X81905780Y-125902046D01*
X81669196Y-126000042D01*
X81418040Y-126050000D01*
X81161960Y-126050000D01*
X80910804Y-126000042D01*
X80674220Y-125902046D01*
X80461295Y-125759774D01*
X80280226Y-125578705D01*
X80278933Y-125576770D01*
X80263387Y-125557828D01*
X80244445Y-125542283D01*
X80222834Y-125530732D01*
X80199384Y-125523619D01*
X80174998Y-125521218D01*
X80150612Y-125523620D01*
X80127163Y-125530734D01*
X80105552Y-125542285D01*
X80086610Y-125557831D01*
X80071065Y-125576773D01*
X80059514Y-125598384D01*
X80052401Y-125621834D01*
X80050000Y-125646218D01*
X80050000Y-126050000D01*
X77450000Y-126050000D01*
X77450000Y-123450000D01*
X80050000Y-123450000D01*
X80050000Y-123853782D01*
X80050000Y-123853782D01*
G37*
G36*
X128300000Y-123853782D02*
X128302402Y-123878168D01*
X128309515Y-123901617D01*
X128321066Y-123923228D01*
X128336612Y-123942170D01*
X128355554Y-123957716D01*
X128377165Y-123969267D01*
X128400614Y-123976380D01*
X128425000Y-123978782D01*
X128449386Y-123976380D01*
X128472835Y-123969267D01*
X128494446Y-123957716D01*
X128513388Y-123942170D01*
X128528933Y-123923230D01*
X128530226Y-123921295D01*
X128711295Y-123740226D01*
X128924220Y-123597954D01*
X129160804Y-123499958D01*
X129411960Y-123450000D01*
X129668040Y-123450000D01*
X129919196Y-123499958D01*
X130155780Y-123597954D01*
X130368705Y-123740226D01*
X130549774Y-123921295D01*
X130692046Y-124134220D01*
X130790042Y-124370804D01*
X130840000Y-124621960D01*
X130840000Y-124878040D01*
X130790042Y-125129196D01*
X130692046Y-125365780D01*
X130549774Y-125578705D01*
X130368705Y-125759774D01*
X130155780Y-125902046D01*
X129919196Y-126000042D01*
X129668040Y-126050000D01*
X129411960Y-126050000D01*
X129160804Y-126000042D01*
X128924220Y-125902046D01*
X128711295Y-125759774D01*
X128530226Y-125578705D01*
X128528933Y-125576770D01*
X128513387Y-125557828D01*
X128494445Y-125542283D01*
X128472834Y-125530732D01*
X128449384Y-125523619D01*
X128424998Y-125521218D01*
X128400612Y-125523620D01*
X128377163Y-125530734D01*
X128355552Y-125542285D01*
X128336610Y-125557831D01*
X128321065Y-125576773D01*
X128309514Y-125598384D01*
X128302401Y-125621834D01*
X128300000Y-125646218D01*
X128300000Y-126050000D01*
X125700000Y-126050000D01*
X125700000Y-123450000D01*
X128300000Y-123450000D01*
X128300000Y-123853782D01*
X128300000Y-123853782D01*
G37*
G36*
X106050000Y-123853782D02*
X106052402Y-123878168D01*
X106059515Y-123901617D01*
X106071066Y-123923228D01*
X106086612Y-123942170D01*
X106105554Y-123957716D01*
X106127165Y-123969267D01*
X106150614Y-123976380D01*
X106175000Y-123978782D01*
X106199386Y-123976380D01*
X106222835Y-123969267D01*
X106244446Y-123957716D01*
X106263388Y-123942170D01*
X106278933Y-123923230D01*
X106280226Y-123921295D01*
X106461295Y-123740226D01*
X106674220Y-123597954D01*
X106910804Y-123499958D01*
X107161960Y-123450000D01*
X107418040Y-123450000D01*
X107669196Y-123499958D01*
X107905780Y-123597954D01*
X108118705Y-123740226D01*
X108299774Y-123921295D01*
X108442046Y-124134220D01*
X108540042Y-124370804D01*
X108590000Y-124621960D01*
X108590000Y-124878040D01*
X108540042Y-125129196D01*
X108442046Y-125365780D01*
X108299774Y-125578705D01*
X108118705Y-125759774D01*
X107905780Y-125902046D01*
X107669196Y-126000042D01*
X107418040Y-126050000D01*
X107161960Y-126050000D01*
X106910804Y-126000042D01*
X106674220Y-125902046D01*
X106461295Y-125759774D01*
X106280226Y-125578705D01*
X106278933Y-125576770D01*
X106263387Y-125557828D01*
X106244445Y-125542283D01*
X106222834Y-125530732D01*
X106199384Y-125523619D01*
X106174998Y-125521218D01*
X106150612Y-125523620D01*
X106127163Y-125530734D01*
X106105552Y-125542285D01*
X106086610Y-125557831D01*
X106071065Y-125576773D01*
X106059514Y-125598384D01*
X106052401Y-125621834D01*
X106050000Y-125646218D01*
X106050000Y-126050000D01*
X103450000Y-126050000D01*
X103450000Y-123450000D01*
X106050000Y-123450000D01*
X106050000Y-123853782D01*
X106050000Y-123853782D01*
G37*
G36*
X87550000Y-123853782D02*
X87552402Y-123878168D01*
X87559515Y-123901617D01*
X87571066Y-123923228D01*
X87586612Y-123942170D01*
X87605554Y-123957716D01*
X87627165Y-123969267D01*
X87650614Y-123976380D01*
X87675000Y-123978782D01*
X87699386Y-123976380D01*
X87722835Y-123969267D01*
X87744446Y-123957716D01*
X87763388Y-123942170D01*
X87778933Y-123923230D01*
X87780226Y-123921295D01*
X87961295Y-123740226D01*
X88174220Y-123597954D01*
X88410804Y-123499958D01*
X88661960Y-123450000D01*
X88918040Y-123450000D01*
X89169196Y-123499958D01*
X89405780Y-123597954D01*
X89618705Y-123740226D01*
X89799774Y-123921295D01*
X89942047Y-124134221D01*
X89944515Y-124140180D01*
X89956066Y-124161791D01*
X89971611Y-124180733D01*
X89990553Y-124196279D01*
X90012163Y-124207830D01*
X90035612Y-124214944D01*
X90059999Y-124217346D01*
X90084385Y-124214944D01*
X90107834Y-124207831D01*
X90129445Y-124196280D01*
X90148387Y-124180735D01*
X90163933Y-124161793D01*
X90175485Y-124140180D01*
X90177953Y-124134221D01*
X90320226Y-123921295D01*
X90501295Y-123740226D01*
X90714220Y-123597954D01*
X90950804Y-123499958D01*
X91201960Y-123450000D01*
X91458040Y-123450000D01*
X91709196Y-123499958D01*
X91945780Y-123597954D01*
X92158705Y-123740226D01*
X92339774Y-123921295D01*
X92482046Y-124134220D01*
X92580042Y-124370804D01*
X92630000Y-124621960D01*
X92630000Y-124878040D01*
X92580042Y-125129196D01*
X92482046Y-125365780D01*
X92339774Y-125578705D01*
X92158705Y-125759774D01*
X91945780Y-125902046D01*
X91709196Y-126000042D01*
X91458040Y-126050000D01*
X91201960Y-126050000D01*
X90950804Y-126000042D01*
X90714220Y-125902046D01*
X90501295Y-125759774D01*
X90320226Y-125578705D01*
X90177953Y-125365779D01*
X90175485Y-125359820D01*
X90163934Y-125338209D01*
X90148389Y-125319267D01*
X90129447Y-125303721D01*
X90107837Y-125292170D01*
X90084388Y-125285056D01*
X90060001Y-125282654D01*
X90035615Y-125285056D01*
X90012166Y-125292169D01*
X89990555Y-125303720D01*
X89971613Y-125319265D01*
X89956067Y-125338207D01*
X89944515Y-125359820D01*
X89942047Y-125365779D01*
X89799774Y-125578705D01*
X89618705Y-125759774D01*
X89405780Y-125902046D01*
X89169196Y-126000042D01*
X88918040Y-126050000D01*
X88661960Y-126050000D01*
X88410804Y-126000042D01*
X88174220Y-125902046D01*
X87961295Y-125759774D01*
X87780226Y-125578705D01*
X87778933Y-125576770D01*
X87763387Y-125557828D01*
X87744445Y-125542283D01*
X87722834Y-125530732D01*
X87699384Y-125523619D01*
X87674998Y-125521218D01*
X87650612Y-125523620D01*
X87627163Y-125530734D01*
X87605552Y-125542285D01*
X87586610Y-125557831D01*
X87571065Y-125576773D01*
X87559514Y-125598384D01*
X87552401Y-125621834D01*
X87550000Y-125646218D01*
X87550000Y-126050000D01*
X84950000Y-126050000D01*
X84950000Y-123450000D01*
X87550000Y-123450000D01*
X87550000Y-123853782D01*
X87550000Y-123853782D01*
G37*
G36*
X149300000Y-123603782D02*
X149302402Y-123628168D01*
X149309515Y-123651617D01*
X149321066Y-123673228D01*
X149336612Y-123692170D01*
X149355554Y-123707716D01*
X149377165Y-123719267D01*
X149400614Y-123726380D01*
X149425000Y-123728782D01*
X149449386Y-123726380D01*
X149472835Y-123719267D01*
X149494446Y-123707716D01*
X149513388Y-123692170D01*
X149528933Y-123673230D01*
X149530226Y-123671295D01*
X149711295Y-123490226D01*
X149924220Y-123347954D01*
X150160804Y-123249958D01*
X150411960Y-123200000D01*
X150668040Y-123200000D01*
X150919196Y-123249958D01*
X151155780Y-123347954D01*
X151368705Y-123490226D01*
X151549774Y-123671295D01*
X151692047Y-123884221D01*
X151694515Y-123890180D01*
X151706066Y-123911791D01*
X151721611Y-123930733D01*
X151740553Y-123946279D01*
X151762163Y-123957830D01*
X151785612Y-123964944D01*
X151809999Y-123967346D01*
X151834385Y-123964944D01*
X151857834Y-123957831D01*
X151879445Y-123946280D01*
X151898387Y-123930735D01*
X151913933Y-123911793D01*
X151925485Y-123890180D01*
X151927953Y-123884221D01*
X152070226Y-123671295D01*
X152251295Y-123490226D01*
X152464220Y-123347954D01*
X152700804Y-123249958D01*
X152951960Y-123200000D01*
X153208040Y-123200000D01*
X153459196Y-123249958D01*
X153695780Y-123347954D01*
X153908705Y-123490226D01*
X154089774Y-123671295D01*
X154232047Y-123884221D01*
X154234515Y-123890180D01*
X154246066Y-123911791D01*
X154261611Y-123930733D01*
X154280553Y-123946279D01*
X154302163Y-123957830D01*
X154325612Y-123964944D01*
X154349999Y-123967346D01*
X154374385Y-123964944D01*
X154397834Y-123957831D01*
X154419445Y-123946280D01*
X154438387Y-123930735D01*
X154453933Y-123911793D01*
X154465485Y-123890180D01*
X154467953Y-123884221D01*
X154610226Y-123671295D01*
X154791295Y-123490226D01*
X155004220Y-123347954D01*
X155240804Y-123249958D01*
X155491960Y-123200000D01*
X155748040Y-123200000D01*
X155999196Y-123249958D01*
X156235780Y-123347954D01*
X156448705Y-123490226D01*
X156629774Y-123671295D01*
X156772046Y-123884220D01*
X156870042Y-124120804D01*
X156920000Y-124371960D01*
X156920000Y-124628040D01*
X156870042Y-124879196D01*
X156772046Y-125115780D01*
X156629774Y-125328705D01*
X156448705Y-125509774D01*
X156235780Y-125652046D01*
X155999196Y-125750042D01*
X155748040Y-125800000D01*
X155491960Y-125800000D01*
X155240804Y-125750042D01*
X155004220Y-125652046D01*
X154791295Y-125509774D01*
X154610226Y-125328705D01*
X154467953Y-125115779D01*
X154465485Y-125109820D01*
X154453934Y-125088209D01*
X154438389Y-125069267D01*
X154419447Y-125053721D01*
X154397837Y-125042170D01*
X154374388Y-125035056D01*
X154350001Y-125032654D01*
X154325615Y-125035056D01*
X154302166Y-125042169D01*
X154280555Y-125053720D01*
X154261613Y-125069265D01*
X154246067Y-125088207D01*
X154234515Y-125109820D01*
X154232047Y-125115779D01*
X154089774Y-125328705D01*
X153908705Y-125509774D01*
X153695780Y-125652046D01*
X153459196Y-125750042D01*
X153208040Y-125800000D01*
X152951960Y-125800000D01*
X152700804Y-125750042D01*
X152464220Y-125652046D01*
X152251295Y-125509774D01*
X152070226Y-125328705D01*
X151927953Y-125115779D01*
X151925485Y-125109820D01*
X151913934Y-125088209D01*
X151898389Y-125069267D01*
X151879447Y-125053721D01*
X151857837Y-125042170D01*
X151834388Y-125035056D01*
X151810001Y-125032654D01*
X151785615Y-125035056D01*
X151762166Y-125042169D01*
X151740555Y-125053720D01*
X151721613Y-125069265D01*
X151706067Y-125088207D01*
X151694515Y-125109820D01*
X151692047Y-125115779D01*
X151549774Y-125328705D01*
X151368705Y-125509774D01*
X151155780Y-125652046D01*
X150919196Y-125750042D01*
X150668040Y-125800000D01*
X150411960Y-125800000D01*
X150160804Y-125750042D01*
X149924220Y-125652046D01*
X149711295Y-125509774D01*
X149530226Y-125328705D01*
X149528933Y-125326770D01*
X149513387Y-125307828D01*
X149494445Y-125292283D01*
X149472834Y-125280732D01*
X149449384Y-125273619D01*
X149424998Y-125271218D01*
X149400612Y-125273620D01*
X149377163Y-125280734D01*
X149355552Y-125292285D01*
X149336610Y-125307831D01*
X149321065Y-125326773D01*
X149309514Y-125348384D01*
X149302401Y-125371834D01*
X149300000Y-125396218D01*
X149300000Y-125800000D01*
X146700000Y-125800000D01*
X146700000Y-123200000D01*
X149300000Y-123200000D01*
X149300000Y-123603782D01*
X149300000Y-123603782D01*
G37*
G36*
X169550000Y-123603782D02*
X169552402Y-123628168D01*
X169559515Y-123651617D01*
X169571066Y-123673228D01*
X169586612Y-123692170D01*
X169605554Y-123707716D01*
X169627165Y-123719267D01*
X169650614Y-123726380D01*
X169675000Y-123728782D01*
X169699386Y-123726380D01*
X169722835Y-123719267D01*
X169744446Y-123707716D01*
X169763388Y-123692170D01*
X169778933Y-123673230D01*
X169780226Y-123671295D01*
X169961295Y-123490226D01*
X170174220Y-123347954D01*
X170410804Y-123249958D01*
X170661960Y-123200000D01*
X170918040Y-123200000D01*
X171169196Y-123249958D01*
X171405780Y-123347954D01*
X171618705Y-123490226D01*
X171799774Y-123671295D01*
X171942046Y-123884220D01*
X172040042Y-124120804D01*
X172090000Y-124371960D01*
X172090000Y-124628040D01*
X172040042Y-124879196D01*
X171942046Y-125115780D01*
X171799774Y-125328705D01*
X171618705Y-125509774D01*
X171405780Y-125652046D01*
X171169196Y-125750042D01*
X170918040Y-125800000D01*
X170661960Y-125800000D01*
X170410804Y-125750042D01*
X170174220Y-125652046D01*
X169961295Y-125509774D01*
X169780226Y-125328705D01*
X169778933Y-125326770D01*
X169763387Y-125307828D01*
X169744445Y-125292283D01*
X169722834Y-125280732D01*
X169699384Y-125273619D01*
X169674998Y-125271218D01*
X169650612Y-125273620D01*
X169627163Y-125280734D01*
X169605552Y-125292285D01*
X169586610Y-125307831D01*
X169571065Y-125326773D01*
X169559514Y-125348384D01*
X169552401Y-125371834D01*
X169550000Y-125396218D01*
X169550000Y-125800000D01*
X166950000Y-125800000D01*
X166950000Y-123200000D01*
X169550000Y-123200000D01*
X169550000Y-123603782D01*
X169550000Y-123603782D01*
G37*
G36*
X134778707Y-121957597D02*
X134855836Y-121965193D01*
X134987787Y-122005220D01*
X135053763Y-122025233D01*
X135236172Y-122122733D01*
X135396054Y-122253946D01*
X135527267Y-122413828D01*
X135624767Y-122596237D01*
X135624767Y-122596238D01*
X135684807Y-122794164D01*
X135705080Y-123000000D01*
X135684807Y-123205836D01*
X135644780Y-123337787D01*
X135624767Y-123403763D01*
X135527267Y-123586172D01*
X135396054Y-123746054D01*
X135236172Y-123877267D01*
X135053763Y-123974767D01*
X134987787Y-123994780D01*
X134855836Y-124034807D01*
X134778707Y-124042403D01*
X134701580Y-124050000D01*
X134298420Y-124050000D01*
X134221293Y-124042403D01*
X134144164Y-124034807D01*
X134012213Y-123994780D01*
X133946237Y-123974767D01*
X133763828Y-123877267D01*
X133603946Y-123746054D01*
X133472733Y-123586172D01*
X133375233Y-123403763D01*
X133355220Y-123337787D01*
X133315193Y-123205836D01*
X133294920Y-123000000D01*
X133315193Y-122794164D01*
X133375233Y-122596238D01*
X133375233Y-122596237D01*
X133472733Y-122413828D01*
X133603946Y-122253946D01*
X133763828Y-122122733D01*
X133946237Y-122025233D01*
X134012213Y-122005220D01*
X134144164Y-121965193D01*
X134221293Y-121957597D01*
X134298420Y-121950000D01*
X134701580Y-121950000D01*
X134778707Y-121957597D01*
X134778707Y-121957597D01*
G37*
G36*
X117908002Y-117855770D02*
X117958437Y-117871069D01*
X118004913Y-117895912D01*
X118045654Y-117929346D01*
X118079088Y-117970087D01*
X118103931Y-118016563D01*
X118119230Y-118066998D01*
X118125000Y-118125584D01*
X118125000Y-121374416D01*
X118119230Y-121433002D01*
X118103931Y-121483437D01*
X118079088Y-121529913D01*
X118045654Y-121570654D01*
X118004913Y-121604088D01*
X117958437Y-121628931D01*
X117908002Y-121644230D01*
X117849416Y-121650000D01*
X116875584Y-121650000D01*
X116816998Y-121644230D01*
X116766563Y-121628931D01*
X116720087Y-121604088D01*
X116679346Y-121570654D01*
X116645912Y-121529913D01*
X116621069Y-121483437D01*
X116605770Y-121433002D01*
X116600000Y-121374416D01*
X116600000Y-118125584D01*
X116605770Y-118066998D01*
X116621069Y-118016563D01*
X116645912Y-117970087D01*
X116679346Y-117929346D01*
X116720087Y-117895912D01*
X116766563Y-117871069D01*
X116816998Y-117855770D01*
X116875584Y-117850000D01*
X117849416Y-117850000D01*
X117908002Y-117855770D01*
X117908002Y-117855770D01*
G37*
G36*
X122183002Y-117855770D02*
X122233437Y-117871069D01*
X122279913Y-117895912D01*
X122320654Y-117929346D01*
X122354088Y-117970087D01*
X122378931Y-118016563D01*
X122394230Y-118066998D01*
X122400000Y-118125584D01*
X122400000Y-121374416D01*
X122394230Y-121433002D01*
X122378931Y-121483437D01*
X122354088Y-121529913D01*
X122320654Y-121570654D01*
X122279913Y-121604088D01*
X122233437Y-121628931D01*
X122183002Y-121644230D01*
X122124416Y-121650000D01*
X121150584Y-121650000D01*
X121091998Y-121644230D01*
X121041563Y-121628931D01*
X120995087Y-121604088D01*
X120954346Y-121570654D01*
X120920912Y-121529913D01*
X120896069Y-121483437D01*
X120880770Y-121433002D01*
X120875000Y-121374416D01*
X120875000Y-118125584D01*
X120880770Y-118066998D01*
X120896069Y-118016563D01*
X120920912Y-117970087D01*
X120954346Y-117929346D01*
X120995087Y-117895912D01*
X121041563Y-117871069D01*
X121091998Y-117855770D01*
X121150584Y-117850000D01*
X122124416Y-117850000D01*
X122183002Y-117855770D01*
X122183002Y-117855770D01*
G37*
G36*
X149173497Y-119005997D02*
X149226153Y-119021970D01*
X149274665Y-119047900D01*
X149317196Y-119082804D01*
X149352100Y-119125335D01*
X149378030Y-119173847D01*
X149394003Y-119226503D01*
X149400000Y-119287390D01*
X149400000Y-120087610D01*
X149394003Y-120148497D01*
X149378030Y-120201153D01*
X149352100Y-120249665D01*
X149317196Y-120292196D01*
X149274665Y-120327100D01*
X149226153Y-120353030D01*
X149173497Y-120369003D01*
X149112610Y-120375000D01*
X147887390Y-120375000D01*
X147826503Y-120369003D01*
X147773847Y-120353030D01*
X147725335Y-120327100D01*
X147682804Y-120292196D01*
X147647900Y-120249665D01*
X147621970Y-120201153D01*
X147605997Y-120148497D01*
X147600000Y-120087610D01*
X147600000Y-119287390D01*
X147605997Y-119226503D01*
X147621970Y-119173847D01*
X147647900Y-119125335D01*
X147682804Y-119082804D01*
X147725335Y-119047900D01*
X147773847Y-119021970D01*
X147826503Y-119005997D01*
X147887390Y-119000000D01*
X149112610Y-119000000D01*
X149173497Y-119005997D01*
X149173497Y-119005997D01*
G37*
G36*
X129173497Y-118505997D02*
X129226153Y-118521970D01*
X129274665Y-118547900D01*
X129317196Y-118582804D01*
X129352100Y-118625335D01*
X129378030Y-118673847D01*
X129394003Y-118726503D01*
X129400000Y-118787390D01*
X129400000Y-119587610D01*
X129394003Y-119648497D01*
X129378030Y-119701153D01*
X129352100Y-119749665D01*
X129317196Y-119792196D01*
X129274665Y-119827100D01*
X129226153Y-119853030D01*
X129173497Y-119869003D01*
X129112610Y-119875000D01*
X127887390Y-119875000D01*
X127826503Y-119869003D01*
X127773847Y-119853030D01*
X127725335Y-119827100D01*
X127682804Y-119792196D01*
X127647900Y-119749665D01*
X127621970Y-119701153D01*
X127605997Y-119648497D01*
X127600000Y-119587610D01*
X127600000Y-118787390D01*
X127605997Y-118726503D01*
X127621970Y-118673847D01*
X127647900Y-118625335D01*
X127682804Y-118582804D01*
X127725335Y-118547900D01*
X127773847Y-118521970D01*
X127826503Y-118505997D01*
X127887390Y-118500000D01*
X129112610Y-118500000D01*
X129173497Y-118505997D01*
X129173497Y-118505997D01*
G37*
G36*
X132673497Y-118505997D02*
X132726153Y-118521970D01*
X132774665Y-118547900D01*
X132817196Y-118582804D01*
X132852100Y-118625335D01*
X132878030Y-118673847D01*
X132894003Y-118726503D01*
X132900000Y-118787390D01*
X132900000Y-119587610D01*
X132894003Y-119648497D01*
X132878030Y-119701153D01*
X132852100Y-119749665D01*
X132817196Y-119792196D01*
X132774665Y-119827100D01*
X132726153Y-119853030D01*
X132673497Y-119869003D01*
X132612610Y-119875000D01*
X131387390Y-119875000D01*
X131326503Y-119869003D01*
X131273847Y-119853030D01*
X131225335Y-119827100D01*
X131182804Y-119792196D01*
X131147900Y-119749665D01*
X131121970Y-119701153D01*
X131105997Y-119648497D01*
X131100000Y-119587610D01*
X131100000Y-118787390D01*
X131105997Y-118726503D01*
X131121970Y-118673847D01*
X131147900Y-118625335D01*
X131182804Y-118582804D01*
X131225335Y-118547900D01*
X131273847Y-118521970D01*
X131326503Y-118505997D01*
X131387390Y-118500000D01*
X132612610Y-118500000D01*
X132673497Y-118505997D01*
X132673497Y-118505997D01*
G37*
G36*
X149173497Y-117130997D02*
X149226153Y-117146970D01*
X149274665Y-117172900D01*
X149317196Y-117207804D01*
X149352100Y-117250335D01*
X149378030Y-117298847D01*
X149394003Y-117351503D01*
X149400000Y-117412390D01*
X149400000Y-118212610D01*
X149394003Y-118273497D01*
X149378030Y-118326153D01*
X149352100Y-118374665D01*
X149317196Y-118417196D01*
X149274665Y-118452100D01*
X149226153Y-118478030D01*
X149173497Y-118494003D01*
X149112610Y-118500000D01*
X147887390Y-118500000D01*
X147826503Y-118494003D01*
X147773847Y-118478030D01*
X147725335Y-118452100D01*
X147682804Y-118417196D01*
X147647900Y-118374665D01*
X147621970Y-118326153D01*
X147605997Y-118273497D01*
X147600000Y-118212610D01*
X147600000Y-117412390D01*
X147605997Y-117351503D01*
X147621970Y-117298847D01*
X147647900Y-117250335D01*
X147682804Y-117207804D01*
X147725335Y-117172900D01*
X147773847Y-117146970D01*
X147826503Y-117130997D01*
X147887390Y-117125000D01*
X149112610Y-117125000D01*
X149173497Y-117130997D01*
X149173497Y-117130997D01*
G37*
G36*
X143425000Y-118405000D02*
X141475000Y-118405000D01*
X141475000Y-117405000D01*
X143425000Y-117405000D01*
X143425000Y-118405000D01*
X143425000Y-118405000D01*
G37*
G36*
X138025000Y-118405000D02*
X136075000Y-118405000D01*
X136075000Y-117405000D01*
X138025000Y-117405000D01*
X138025000Y-118405000D01*
X138025000Y-118405000D01*
G37*
G36*
X132673497Y-116630997D02*
X132726153Y-116646970D01*
X132774665Y-116672900D01*
X132817196Y-116707804D01*
X132852100Y-116750335D01*
X132878030Y-116798847D01*
X132894003Y-116851503D01*
X132900000Y-116912390D01*
X132900000Y-117712610D01*
X132894003Y-117773497D01*
X132878030Y-117826153D01*
X132852100Y-117874665D01*
X132817196Y-117917196D01*
X132774665Y-117952100D01*
X132726153Y-117978030D01*
X132673497Y-117994003D01*
X132612610Y-118000000D01*
X131387390Y-118000000D01*
X131326503Y-117994003D01*
X131273847Y-117978030D01*
X131225335Y-117952100D01*
X131182804Y-117917196D01*
X131147900Y-117874665D01*
X131121970Y-117826153D01*
X131105997Y-117773497D01*
X131100000Y-117712610D01*
X131100000Y-116912390D01*
X131105997Y-116851503D01*
X131121970Y-116798847D01*
X131147900Y-116750335D01*
X131182804Y-116707804D01*
X131225335Y-116672900D01*
X131273847Y-116646970D01*
X131326503Y-116630997D01*
X131387390Y-116625000D01*
X132612610Y-116625000D01*
X132673497Y-116630997D01*
X132673497Y-116630997D01*
G37*
G36*
X129173497Y-116630997D02*
X129226153Y-116646970D01*
X129274665Y-116672900D01*
X129317196Y-116707804D01*
X129352100Y-116750335D01*
X129378030Y-116798847D01*
X129394003Y-116851503D01*
X129400000Y-116912390D01*
X129400000Y-117712610D01*
X129394003Y-117773497D01*
X129378030Y-117826153D01*
X129352100Y-117874665D01*
X129317196Y-117917196D01*
X129274665Y-117952100D01*
X129226153Y-117978030D01*
X129173497Y-117994003D01*
X129112610Y-118000000D01*
X127887390Y-118000000D01*
X127826503Y-117994003D01*
X127773847Y-117978030D01*
X127725335Y-117952100D01*
X127682804Y-117917196D01*
X127647900Y-117874665D01*
X127621970Y-117826153D01*
X127605997Y-117773497D01*
X127600000Y-117712610D01*
X127600000Y-116912390D01*
X127605997Y-116851503D01*
X127621970Y-116798847D01*
X127647900Y-116750335D01*
X127682804Y-116707804D01*
X127725335Y-116672900D01*
X127773847Y-116646970D01*
X127826503Y-116630997D01*
X127887390Y-116625000D01*
X129112610Y-116625000D01*
X129173497Y-116630997D01*
X129173497Y-116630997D01*
G37*
G36*
X89057060Y-114027773D02*
X89245872Y-114065330D01*
X89555252Y-114193479D01*
X89833687Y-114379523D01*
X90070477Y-114616313D01*
X90256521Y-114894748D01*
X90384670Y-115204128D01*
X90393794Y-115250000D01*
X90450000Y-115532563D01*
X90450000Y-115867437D01*
X90442971Y-115902773D01*
X90384670Y-116195872D01*
X90256521Y-116505252D01*
X90070477Y-116783687D01*
X89833687Y-117020477D01*
X89555252Y-117206521D01*
X89245872Y-117334670D01*
X89136393Y-117356447D01*
X88917437Y-117400000D01*
X88582563Y-117400000D01*
X88363607Y-117356447D01*
X88254128Y-117334670D01*
X87944748Y-117206521D01*
X87666313Y-117020477D01*
X87429523Y-116783687D01*
X87243479Y-116505252D01*
X87115330Y-116195872D01*
X87057029Y-115902773D01*
X87050000Y-115867437D01*
X87050000Y-115532563D01*
X87106206Y-115250000D01*
X87115330Y-115204128D01*
X87243479Y-114894748D01*
X87429523Y-114616313D01*
X87666313Y-114379523D01*
X87944748Y-114193479D01*
X88254128Y-114065330D01*
X88442940Y-114027773D01*
X88582563Y-114000000D01*
X88917437Y-114000000D01*
X89057060Y-114027773D01*
X89057060Y-114027773D01*
G37*
G36*
X105557060Y-114027773D02*
X105745872Y-114065330D01*
X106055252Y-114193479D01*
X106333687Y-114379523D01*
X106570477Y-114616313D01*
X106756521Y-114894748D01*
X106884670Y-115204128D01*
X106893794Y-115250000D01*
X106950000Y-115532563D01*
X106950000Y-115867437D01*
X106942971Y-115902773D01*
X106884670Y-116195872D01*
X106756521Y-116505252D01*
X106570477Y-116783687D01*
X106333687Y-117020477D01*
X106055252Y-117206521D01*
X105745872Y-117334670D01*
X105636393Y-117356447D01*
X105417437Y-117400000D01*
X105082563Y-117400000D01*
X104863607Y-117356447D01*
X104754128Y-117334670D01*
X104444748Y-117206521D01*
X104166313Y-117020477D01*
X103929523Y-116783687D01*
X103743479Y-116505252D01*
X103615330Y-116195872D01*
X103557029Y-115902773D01*
X103550000Y-115867437D01*
X103550000Y-115532563D01*
X103606206Y-115250000D01*
X103615330Y-115204128D01*
X103743479Y-114894748D01*
X103929523Y-114616313D01*
X104166313Y-114379523D01*
X104444748Y-114193479D01*
X104754128Y-114065330D01*
X104942940Y-114027773D01*
X105082563Y-114000000D01*
X105417437Y-114000000D01*
X105557060Y-114027773D01*
X105557060Y-114027773D01*
G37*
G36*
X77086393Y-113993553D02*
X77195872Y-114015330D01*
X77505252Y-114143479D01*
X77783687Y-114329523D01*
X78020477Y-114566313D01*
X78206521Y-114844748D01*
X78334670Y-115154128D01*
X78344616Y-115204129D01*
X78400000Y-115482563D01*
X78400000Y-115817437D01*
X78363752Y-115999665D01*
X78334670Y-116145872D01*
X78206521Y-116455252D01*
X78020477Y-116733687D01*
X77783687Y-116970477D01*
X77505252Y-117156521D01*
X77195872Y-117284670D01*
X77124599Y-117298847D01*
X76867437Y-117350000D01*
X76532563Y-117350000D01*
X76275401Y-117298847D01*
X76204128Y-117284670D01*
X75894748Y-117156521D01*
X75616313Y-116970477D01*
X75379523Y-116733687D01*
X75193479Y-116455252D01*
X75065330Y-116145872D01*
X75036248Y-115999665D01*
X75000000Y-115817437D01*
X75000000Y-115482563D01*
X75055384Y-115204129D01*
X75065330Y-115154128D01*
X75193479Y-114844748D01*
X75379523Y-114566313D01*
X75616313Y-114329523D01*
X75894748Y-114143479D01*
X76204128Y-114015330D01*
X76313607Y-113993553D01*
X76532563Y-113950000D01*
X76867437Y-113950000D01*
X77086393Y-113993553D01*
X77086393Y-113993553D01*
G37*
G36*
X93586393Y-113993553D02*
X93695872Y-114015330D01*
X94005252Y-114143479D01*
X94283687Y-114329523D01*
X94520477Y-114566313D01*
X94706521Y-114844748D01*
X94834670Y-115154128D01*
X94844616Y-115204129D01*
X94900000Y-115482563D01*
X94900000Y-115817437D01*
X94863752Y-115999665D01*
X94834670Y-116145872D01*
X94706521Y-116455252D01*
X94520477Y-116733687D01*
X94283687Y-116970477D01*
X94005252Y-117156521D01*
X93695872Y-117284670D01*
X93624599Y-117298847D01*
X93367437Y-117350000D01*
X93032563Y-117350000D01*
X92775401Y-117298847D01*
X92704128Y-117284670D01*
X92394748Y-117156521D01*
X92116313Y-116970477D01*
X91879523Y-116733687D01*
X91693479Y-116455252D01*
X91565330Y-116145872D01*
X91536248Y-115999665D01*
X91500000Y-115817437D01*
X91500000Y-115482563D01*
X91555384Y-115204129D01*
X91565330Y-115154128D01*
X91693479Y-114844748D01*
X91879523Y-114566313D01*
X92116313Y-114329523D01*
X92394748Y-114143479D01*
X92704128Y-114015330D01*
X92813607Y-113993553D01*
X93032563Y-113950000D01*
X93367437Y-113950000D01*
X93586393Y-113993553D01*
X93586393Y-113993553D01*
G37*
G36*
X138025000Y-117135000D02*
X136075000Y-117135000D01*
X136075000Y-116135000D01*
X138025000Y-116135000D01*
X138025000Y-117135000D01*
X138025000Y-117135000D01*
G37*
G36*
X143425000Y-117135000D02*
X141475000Y-117135000D01*
X141475000Y-116135000D01*
X143425000Y-116135000D01*
X143425000Y-117135000D01*
X143425000Y-117135000D01*
G37*
G36*
X124423497Y-115755997D02*
X124476153Y-115771970D01*
X124524665Y-115797900D01*
X124567196Y-115832804D01*
X124602100Y-115875335D01*
X124628030Y-115923847D01*
X124644003Y-115976503D01*
X124650000Y-116037390D01*
X124650000Y-116837610D01*
X124644003Y-116898497D01*
X124628030Y-116951153D01*
X124602100Y-116999665D01*
X124567196Y-117042196D01*
X124524665Y-117077100D01*
X124476153Y-117103030D01*
X124423497Y-117119003D01*
X124362610Y-117125000D01*
X123137390Y-117125000D01*
X123076503Y-117119003D01*
X123023847Y-117103030D01*
X122975335Y-117077100D01*
X122932804Y-117042196D01*
X122897900Y-116999665D01*
X122871970Y-116951153D01*
X122855997Y-116898497D01*
X122850000Y-116837610D01*
X122850000Y-116037390D01*
X122855997Y-115976503D01*
X122871970Y-115923847D01*
X122897900Y-115875335D01*
X122932804Y-115832804D01*
X122975335Y-115797900D01*
X123023847Y-115771970D01*
X123076503Y-115755997D01*
X123137390Y-115750000D01*
X124362610Y-115750000D01*
X124423497Y-115755997D01*
X124423497Y-115755997D01*
G37*
G36*
X153550000Y-116150000D02*
X152350000Y-116150000D01*
X152350000Y-114850000D01*
X153550000Y-114850000D01*
X153550000Y-116150000D01*
X153550000Y-116150000D01*
G37*
G36*
X151650000Y-116150000D02*
X150450000Y-116150000D01*
X150450000Y-114850000D01*
X151650000Y-114850000D01*
X151650000Y-116150000D01*
X151650000Y-116150000D01*
G37*
G36*
X149173497Y-114755997D02*
X149226153Y-114771970D01*
X149274665Y-114797900D01*
X149317196Y-114832804D01*
X149352100Y-114875335D01*
X149378030Y-114923847D01*
X149394003Y-114976503D01*
X149400000Y-115037390D01*
X149400000Y-115837610D01*
X149394003Y-115898497D01*
X149378030Y-115951153D01*
X149352100Y-115999665D01*
X149317196Y-116042196D01*
X149274665Y-116077100D01*
X149226153Y-116103030D01*
X149173497Y-116119003D01*
X149112610Y-116125000D01*
X147887390Y-116125000D01*
X147826503Y-116119003D01*
X147773847Y-116103030D01*
X147725335Y-116077100D01*
X147682804Y-116042196D01*
X147647900Y-115999665D01*
X147621970Y-115951153D01*
X147605997Y-115898497D01*
X147600000Y-115837610D01*
X147600000Y-115037390D01*
X147605997Y-114976503D01*
X147621970Y-114923847D01*
X147647900Y-114875335D01*
X147682804Y-114832804D01*
X147725335Y-114797900D01*
X147773847Y-114771970D01*
X147826503Y-114755997D01*
X147887390Y-114750000D01*
X149112610Y-114750000D01*
X149173497Y-114755997D01*
X149173497Y-114755997D01*
G37*
G36*
X138025000Y-115865000D02*
X136075000Y-115865000D01*
X136075000Y-114865000D01*
X138025000Y-114865000D01*
X138025000Y-115865000D01*
X138025000Y-115865000D01*
G37*
G36*
X143425000Y-115865000D02*
X141475000Y-115865000D01*
X141475000Y-114865000D01*
X143425000Y-114865000D01*
X143425000Y-115865000D01*
X143425000Y-115865000D01*
G37*
G36*
X124423497Y-113880997D02*
X124476153Y-113896970D01*
X124524665Y-113922900D01*
X124567196Y-113957804D01*
X124602100Y-114000335D01*
X124628030Y-114048847D01*
X124644003Y-114101503D01*
X124650000Y-114162390D01*
X124650000Y-114962610D01*
X124644003Y-115023497D01*
X124628030Y-115076153D01*
X124602100Y-115124665D01*
X124567196Y-115167196D01*
X124524665Y-115202100D01*
X124476153Y-115228030D01*
X124423497Y-115244003D01*
X124362610Y-115250000D01*
X123137390Y-115250000D01*
X123076503Y-115244003D01*
X123023847Y-115228030D01*
X122975335Y-115202100D01*
X122932804Y-115167196D01*
X122897900Y-115124665D01*
X122871970Y-115076153D01*
X122855997Y-115023497D01*
X122850000Y-114962610D01*
X122850000Y-114162390D01*
X122855997Y-114101503D01*
X122871970Y-114048847D01*
X122897900Y-114000335D01*
X122932804Y-113957804D01*
X122975335Y-113922900D01*
X123023847Y-113896970D01*
X123076503Y-113880997D01*
X123137390Y-113875000D01*
X124362610Y-113875000D01*
X124423497Y-113880997D01*
X124423497Y-113880997D01*
G37*
G36*
X132673497Y-113755997D02*
X132726153Y-113771970D01*
X132774665Y-113797900D01*
X132817196Y-113832804D01*
X132852100Y-113875335D01*
X132878030Y-113923847D01*
X132894003Y-113976503D01*
X132900000Y-114037390D01*
X132900000Y-114837610D01*
X132894003Y-114898497D01*
X132878030Y-114951153D01*
X132852100Y-114999665D01*
X132817196Y-115042196D01*
X132774665Y-115077100D01*
X132726153Y-115103030D01*
X132673497Y-115119003D01*
X132612610Y-115125000D01*
X131387390Y-115125000D01*
X131326503Y-115119003D01*
X131273847Y-115103030D01*
X131225335Y-115077100D01*
X131182804Y-115042196D01*
X131147900Y-114999665D01*
X131121970Y-114951153D01*
X131105997Y-114898497D01*
X131100000Y-114837610D01*
X131100000Y-114037390D01*
X131105997Y-113976503D01*
X131121970Y-113923847D01*
X131147900Y-113875335D01*
X131182804Y-113832804D01*
X131225335Y-113797900D01*
X131273847Y-113771970D01*
X131326503Y-113755997D01*
X131387390Y-113750000D01*
X132612610Y-113750000D01*
X132673497Y-113755997D01*
X132673497Y-113755997D01*
G37*
G36*
X129173497Y-113755997D02*
X129226153Y-113771970D01*
X129274665Y-113797900D01*
X129317196Y-113832804D01*
X129352100Y-113875335D01*
X129378030Y-113923847D01*
X129394003Y-113976503D01*
X129400000Y-114037390D01*
X129400000Y-114837610D01*
X129394003Y-114898497D01*
X129378030Y-114951153D01*
X129352100Y-114999665D01*
X129317196Y-115042196D01*
X129274665Y-115077100D01*
X129226153Y-115103030D01*
X129173497Y-115119003D01*
X129112610Y-115125000D01*
X127887390Y-115125000D01*
X127826503Y-115119003D01*
X127773847Y-115103030D01*
X127725335Y-115077100D01*
X127682804Y-115042196D01*
X127647900Y-114999665D01*
X127621970Y-114951153D01*
X127605997Y-114898497D01*
X127600000Y-114837610D01*
X127600000Y-114037390D01*
X127605997Y-113976503D01*
X127621970Y-113923847D01*
X127647900Y-113875335D01*
X127682804Y-113832804D01*
X127725335Y-113797900D01*
X127773847Y-113771970D01*
X127826503Y-113755997D01*
X127887390Y-113750000D01*
X129112610Y-113750000D01*
X129173497Y-113755997D01*
X129173497Y-113755997D01*
G37*
G36*
X143425000Y-114595000D02*
X141475000Y-114595000D01*
X141475000Y-113595000D01*
X143425000Y-113595000D01*
X143425000Y-114595000D01*
X143425000Y-114595000D01*
G37*
G36*
X138025000Y-114595000D02*
X136075000Y-114595000D01*
X136075000Y-113595000D01*
X138025000Y-113595000D01*
X138025000Y-114595000D01*
X138025000Y-114595000D01*
G37*
G36*
X149173497Y-112880997D02*
X149226153Y-112896970D01*
X149274665Y-112922900D01*
X149317196Y-112957804D01*
X149352100Y-113000335D01*
X149378030Y-113048847D01*
X149394003Y-113101503D01*
X149400000Y-113162390D01*
X149400000Y-113962610D01*
X149394003Y-114023497D01*
X149378030Y-114076153D01*
X149352100Y-114124665D01*
X149317196Y-114167196D01*
X149274665Y-114202100D01*
X149226153Y-114228030D01*
X149173497Y-114244003D01*
X149112610Y-114250000D01*
X147887390Y-114250000D01*
X147826503Y-114244003D01*
X147773847Y-114228030D01*
X147725335Y-114202100D01*
X147682804Y-114167196D01*
X147647900Y-114124665D01*
X147621970Y-114076153D01*
X147605997Y-114023497D01*
X147600000Y-113962610D01*
X147600000Y-113162390D01*
X147605997Y-113101503D01*
X147621970Y-113048847D01*
X147647900Y-113000335D01*
X147682804Y-112957804D01*
X147725335Y-112922900D01*
X147773847Y-112896970D01*
X147826503Y-112880997D01*
X147887390Y-112875000D01*
X149112610Y-112875000D01*
X149173497Y-112880997D01*
X149173497Y-112880997D01*
G37*
G36*
X152600000Y-114150000D02*
X151400000Y-114150000D01*
X151400000Y-112850000D01*
X152600000Y-112850000D01*
X152600000Y-114150000D01*
X152600000Y-114150000D01*
G37*
G36*
X129173497Y-111880997D02*
X129226153Y-111896970D01*
X129274665Y-111922900D01*
X129317196Y-111957804D01*
X129352100Y-112000335D01*
X129378030Y-112048847D01*
X129394003Y-112101503D01*
X129400000Y-112162390D01*
X129400000Y-112962610D01*
X129394003Y-113023497D01*
X129378030Y-113076153D01*
X129352100Y-113124665D01*
X129317196Y-113167196D01*
X129274665Y-113202100D01*
X129226153Y-113228030D01*
X129173497Y-113244003D01*
X129112610Y-113250000D01*
X127887390Y-113250000D01*
X127826503Y-113244003D01*
X127773847Y-113228030D01*
X127725335Y-113202100D01*
X127682804Y-113167196D01*
X127647900Y-113124665D01*
X127621970Y-113076153D01*
X127605997Y-113023497D01*
X127600000Y-112962610D01*
X127600000Y-112162390D01*
X127605997Y-112101503D01*
X127621970Y-112048847D01*
X127647900Y-112000335D01*
X127682804Y-111957804D01*
X127725335Y-111922900D01*
X127773847Y-111896970D01*
X127826503Y-111880997D01*
X127887390Y-111875000D01*
X129112610Y-111875000D01*
X129173497Y-111880997D01*
X129173497Y-111880997D01*
G37*
G36*
X132673497Y-111880997D02*
X132726153Y-111896970D01*
X132774665Y-111922900D01*
X132817196Y-111957804D01*
X132852100Y-112000335D01*
X132878030Y-112048847D01*
X132894003Y-112101503D01*
X132900000Y-112162390D01*
X132900000Y-112962610D01*
X132894003Y-113023497D01*
X132878030Y-113076153D01*
X132852100Y-113124665D01*
X132817196Y-113167196D01*
X132774665Y-113202100D01*
X132726153Y-113228030D01*
X132673497Y-113244003D01*
X132612610Y-113250000D01*
X131387390Y-113250000D01*
X131326503Y-113244003D01*
X131273847Y-113228030D01*
X131225335Y-113202100D01*
X131182804Y-113167196D01*
X131147900Y-113124665D01*
X131121970Y-113076153D01*
X131105997Y-113023497D01*
X131100000Y-112962610D01*
X131100000Y-112162390D01*
X131105997Y-112101503D01*
X131121970Y-112048847D01*
X131147900Y-112000335D01*
X131182804Y-111957804D01*
X131225335Y-111922900D01*
X131273847Y-111896970D01*
X131326503Y-111880997D01*
X131387390Y-111875000D01*
X132612610Y-111875000D01*
X132673497Y-111880997D01*
X132673497Y-111880997D01*
G37*
G36*
X121933002Y-109105770D02*
X121983437Y-109121069D01*
X122029913Y-109145912D01*
X122070654Y-109179346D01*
X122104088Y-109220087D01*
X122128931Y-109266563D01*
X122144230Y-109316998D01*
X122150000Y-109375584D01*
X122150000Y-112624416D01*
X122144230Y-112683002D01*
X122128931Y-112733437D01*
X122104088Y-112779913D01*
X122070654Y-112820654D01*
X122029913Y-112854088D01*
X121983437Y-112878931D01*
X121933002Y-112894230D01*
X121874416Y-112900000D01*
X120900584Y-112900000D01*
X120841998Y-112894230D01*
X120791563Y-112878931D01*
X120745087Y-112854088D01*
X120704346Y-112820654D01*
X120670912Y-112779913D01*
X120646069Y-112733437D01*
X120630770Y-112683002D01*
X120625000Y-112624416D01*
X120625000Y-109375584D01*
X120630770Y-109316998D01*
X120646069Y-109266563D01*
X120670912Y-109220087D01*
X120704346Y-109179346D01*
X120745087Y-109145912D01*
X120791563Y-109121069D01*
X120841998Y-109105770D01*
X120900584Y-109100000D01*
X121874416Y-109100000D01*
X121933002Y-109105770D01*
X121933002Y-109105770D01*
G37*
G36*
X117658002Y-109105770D02*
X117708437Y-109121069D01*
X117754913Y-109145912D01*
X117795654Y-109179346D01*
X117829088Y-109220087D01*
X117853931Y-109266563D01*
X117869230Y-109316998D01*
X117875000Y-109375584D01*
X117875000Y-112624416D01*
X117869230Y-112683002D01*
X117853931Y-112733437D01*
X117829088Y-112779913D01*
X117795654Y-112820654D01*
X117754913Y-112854088D01*
X117708437Y-112878931D01*
X117658002Y-112894230D01*
X117599416Y-112900000D01*
X116625584Y-112900000D01*
X116566998Y-112894230D01*
X116516563Y-112878931D01*
X116470087Y-112854088D01*
X116429346Y-112820654D01*
X116395912Y-112779913D01*
X116371069Y-112733437D01*
X116355770Y-112683002D01*
X116350000Y-112624416D01*
X116350000Y-109375584D01*
X116355770Y-109316998D01*
X116371069Y-109266563D01*
X116395912Y-109220087D01*
X116429346Y-109179346D01*
X116470087Y-109145912D01*
X116516563Y-109121069D01*
X116566998Y-109105770D01*
X116625584Y-109100000D01*
X117599416Y-109100000D01*
X117658002Y-109105770D01*
X117658002Y-109105770D01*
G37*
G36*
X170159122Y-109246115D02*
X170275041Y-109269173D01*
X170602620Y-109404861D01*
X170653545Y-109438888D01*
X170897436Y-109601851D01*
X171148149Y-109852564D01*
X171148151Y-109852567D01*
X171345139Y-110147380D01*
X171463448Y-110433002D01*
X171480827Y-110474960D01*
X171514350Y-110643488D01*
X171550000Y-110822716D01*
X171550000Y-111177284D01*
X171480827Y-111525041D01*
X171345139Y-111852620D01*
X171298179Y-111922900D01*
X171148149Y-112147436D01*
X170897436Y-112398149D01*
X170897433Y-112398151D01*
X170602620Y-112595139D01*
X170275041Y-112730827D01*
X170181728Y-112749388D01*
X169927286Y-112800000D01*
X169572714Y-112800000D01*
X169318272Y-112749388D01*
X169224959Y-112730827D01*
X168897380Y-112595139D01*
X168602567Y-112398151D01*
X168602564Y-112398149D01*
X168351851Y-112147436D01*
X168201821Y-111922900D01*
X168154861Y-111852620D01*
X168019173Y-111525041D01*
X167950000Y-111177284D01*
X167950000Y-110822716D01*
X167985651Y-110643488D01*
X168019173Y-110474960D01*
X168036553Y-110433002D01*
X168154861Y-110147380D01*
X168351849Y-109852567D01*
X168351851Y-109852564D01*
X168602564Y-109601851D01*
X168846455Y-109438888D01*
X168897380Y-109404861D01*
X169224959Y-109269173D01*
X169340878Y-109246115D01*
X169572714Y-109200000D01*
X169927286Y-109200000D01*
X170159122Y-109246115D01*
X170159122Y-109246115D01*
G37*
G36*
X112159122Y-109246115D02*
X112275041Y-109269173D01*
X112602620Y-109404861D01*
X112653545Y-109438888D01*
X112897436Y-109601851D01*
X113148149Y-109852564D01*
X113148151Y-109852567D01*
X113345139Y-110147380D01*
X113463448Y-110433002D01*
X113480827Y-110474960D01*
X113514350Y-110643488D01*
X113550000Y-110822716D01*
X113550000Y-111177284D01*
X113480827Y-111525041D01*
X113345139Y-111852620D01*
X113298179Y-111922900D01*
X113148149Y-112147436D01*
X112897436Y-112398149D01*
X112897433Y-112398151D01*
X112602620Y-112595139D01*
X112275041Y-112730827D01*
X112181728Y-112749388D01*
X111927286Y-112800000D01*
X111572714Y-112800000D01*
X111318272Y-112749388D01*
X111224959Y-112730827D01*
X110897380Y-112595139D01*
X110602567Y-112398151D01*
X110602564Y-112398149D01*
X110351851Y-112147436D01*
X110201821Y-111922900D01*
X110154861Y-111852620D01*
X110019173Y-111525041D01*
X109950000Y-111177284D01*
X109950000Y-110822716D01*
X109985651Y-110643488D01*
X110019173Y-110474960D01*
X110036553Y-110433002D01*
X110154861Y-110147380D01*
X110351849Y-109852567D01*
X110351851Y-109852564D01*
X110602564Y-109601851D01*
X110846455Y-109438888D01*
X110897380Y-109404861D01*
X111224959Y-109269173D01*
X111340878Y-109246115D01*
X111572714Y-109200000D01*
X111927286Y-109200000D01*
X112159122Y-109246115D01*
X112159122Y-109246115D01*
G37*
G36*
X124658002Y-106855770D02*
X124708437Y-106871069D01*
X124754913Y-106895912D01*
X124795654Y-106929346D01*
X124829088Y-106970087D01*
X124853931Y-107016563D01*
X124869230Y-107066998D01*
X124875000Y-107125584D01*
X124875000Y-110374416D01*
X124869230Y-110433002D01*
X124853931Y-110483437D01*
X124829088Y-110529913D01*
X124795654Y-110570654D01*
X124754913Y-110604088D01*
X124708437Y-110628931D01*
X124658002Y-110644230D01*
X124599416Y-110650000D01*
X123625584Y-110650000D01*
X123566998Y-110644230D01*
X123516563Y-110628931D01*
X123470087Y-110604088D01*
X123429346Y-110570654D01*
X123395912Y-110529913D01*
X123371069Y-110483437D01*
X123355770Y-110433002D01*
X123350000Y-110374416D01*
X123350000Y-107125584D01*
X123355770Y-107066998D01*
X123371069Y-107016563D01*
X123395912Y-106970087D01*
X123429346Y-106929346D01*
X123470087Y-106895912D01*
X123516563Y-106871069D01*
X123566998Y-106855770D01*
X123625584Y-106850000D01*
X124599416Y-106850000D01*
X124658002Y-106855770D01*
X124658002Y-106855770D01*
G37*
G36*
X128933002Y-106855770D02*
X128983437Y-106871069D01*
X129029913Y-106895912D01*
X129070654Y-106929346D01*
X129104088Y-106970087D01*
X129128931Y-107016563D01*
X129144230Y-107066998D01*
X129150000Y-107125584D01*
X129150000Y-110374416D01*
X129144230Y-110433002D01*
X129128931Y-110483437D01*
X129104088Y-110529913D01*
X129070654Y-110570654D01*
X129029913Y-110604088D01*
X128983437Y-110628931D01*
X128933002Y-110644230D01*
X128874416Y-110650000D01*
X127900584Y-110650000D01*
X127841998Y-110644230D01*
X127791563Y-110628931D01*
X127745087Y-110604088D01*
X127704346Y-110570654D01*
X127670912Y-110529913D01*
X127646069Y-110483437D01*
X127630770Y-110433002D01*
X127625000Y-110374416D01*
X127625000Y-107125584D01*
X127630770Y-107066998D01*
X127646069Y-107016563D01*
X127670912Y-106970087D01*
X127704346Y-106929346D01*
X127745087Y-106895912D01*
X127791563Y-106871069D01*
X127841998Y-106855770D01*
X127900584Y-106850000D01*
X128874416Y-106850000D01*
X128933002Y-106855770D01*
X128933002Y-106855770D01*
G37*
G36*
X149173497Y-109005997D02*
X149226153Y-109021970D01*
X149274665Y-109047900D01*
X149317196Y-109082804D01*
X149352100Y-109125335D01*
X149378030Y-109173847D01*
X149394003Y-109226503D01*
X149400000Y-109287390D01*
X149400000Y-110087610D01*
X149394003Y-110148497D01*
X149378030Y-110201153D01*
X149352100Y-110249665D01*
X149317196Y-110292196D01*
X149274665Y-110327100D01*
X149226153Y-110353030D01*
X149173497Y-110369003D01*
X149112610Y-110375000D01*
X147887390Y-110375000D01*
X147826503Y-110369003D01*
X147773847Y-110353030D01*
X147725335Y-110327100D01*
X147682804Y-110292196D01*
X147647900Y-110249665D01*
X147621970Y-110201153D01*
X147605997Y-110148497D01*
X147600000Y-110087610D01*
X147600000Y-109287390D01*
X147605997Y-109226503D01*
X147621970Y-109173847D01*
X147647900Y-109125335D01*
X147682804Y-109082804D01*
X147725335Y-109047900D01*
X147773847Y-109021970D01*
X147826503Y-109005997D01*
X147887390Y-109000000D01*
X149112610Y-109000000D01*
X149173497Y-109005997D01*
X149173497Y-109005997D01*
G37*
G36*
X145423497Y-109005997D02*
X145476153Y-109021970D01*
X145524665Y-109047900D01*
X145567196Y-109082804D01*
X145602100Y-109125335D01*
X145628030Y-109173847D01*
X145644003Y-109226503D01*
X145650000Y-109287390D01*
X145650000Y-110087610D01*
X145644003Y-110148497D01*
X145628030Y-110201153D01*
X145602100Y-110249665D01*
X145567196Y-110292196D01*
X145524665Y-110327100D01*
X145476153Y-110353030D01*
X145423497Y-110369003D01*
X145362610Y-110375000D01*
X144137390Y-110375000D01*
X144076503Y-110369003D01*
X144023847Y-110353030D01*
X143975335Y-110327100D01*
X143932804Y-110292196D01*
X143897900Y-110249665D01*
X143871970Y-110201153D01*
X143855997Y-110148497D01*
X143850000Y-110087610D01*
X143850000Y-109287390D01*
X143855997Y-109226503D01*
X143871970Y-109173847D01*
X143897900Y-109125335D01*
X143932804Y-109082804D01*
X143975335Y-109047900D01*
X144023847Y-109021970D01*
X144076503Y-109005997D01*
X144137390Y-109000000D01*
X145362610Y-109000000D01*
X145423497Y-109005997D01*
X145423497Y-109005997D01*
G37*
G36*
X163150000Y-108735000D02*
X160100000Y-108735000D01*
X160100000Y-103765000D01*
X163150000Y-103765000D01*
X163150000Y-108735000D01*
X163150000Y-108735000D01*
G37*
G36*
X157900000Y-108735000D02*
X154850000Y-108735000D01*
X154850000Y-103765000D01*
X157900000Y-103765000D01*
X157900000Y-108735000D01*
X157900000Y-108735000D01*
G37*
G36*
X145423497Y-107130997D02*
X145476153Y-107146970D01*
X145524665Y-107172900D01*
X145567196Y-107207804D01*
X145602100Y-107250335D01*
X145628030Y-107298847D01*
X145644003Y-107351503D01*
X145650000Y-107412390D01*
X145650000Y-108212610D01*
X145644003Y-108273497D01*
X145628030Y-108326153D01*
X145602100Y-108374665D01*
X145567196Y-108417196D01*
X145524665Y-108452100D01*
X145476153Y-108478030D01*
X145423497Y-108494003D01*
X145362610Y-108500000D01*
X144137390Y-108500000D01*
X144076503Y-108494003D01*
X144023847Y-108478030D01*
X143975335Y-108452100D01*
X143932804Y-108417196D01*
X143897900Y-108374665D01*
X143871970Y-108326153D01*
X143855997Y-108273497D01*
X143850000Y-108212610D01*
X143850000Y-107412390D01*
X143855997Y-107351503D01*
X143871970Y-107298847D01*
X143897900Y-107250335D01*
X143932804Y-107207804D01*
X143975335Y-107172900D01*
X144023847Y-107146970D01*
X144076503Y-107130997D01*
X144137390Y-107125000D01*
X145362610Y-107125000D01*
X145423497Y-107130997D01*
X145423497Y-107130997D01*
G37*
G36*
X149173497Y-107130997D02*
X149226153Y-107146970D01*
X149274665Y-107172900D01*
X149317196Y-107207804D01*
X149352100Y-107250335D01*
X149378030Y-107298847D01*
X149394003Y-107351503D01*
X149400000Y-107412390D01*
X149400000Y-108212610D01*
X149394003Y-108273497D01*
X149378030Y-108326153D01*
X149352100Y-108374665D01*
X149317196Y-108417196D01*
X149274665Y-108452100D01*
X149226153Y-108478030D01*
X149173497Y-108494003D01*
X149112610Y-108500000D01*
X147887390Y-108500000D01*
X147826503Y-108494003D01*
X147773847Y-108478030D01*
X147725335Y-108452100D01*
X147682804Y-108417196D01*
X147647900Y-108374665D01*
X147621970Y-108326153D01*
X147605997Y-108273497D01*
X147600000Y-108212610D01*
X147600000Y-107412390D01*
X147605997Y-107351503D01*
X147621970Y-107298847D01*
X147647900Y-107250335D01*
X147682804Y-107207804D01*
X147725335Y-107172900D01*
X147773847Y-107146970D01*
X147826503Y-107130997D01*
X147887390Y-107125000D01*
X149112610Y-107125000D01*
X149173497Y-107130997D01*
X149173497Y-107130997D01*
G37*
G36*
X136000000Y-108200000D02*
X134100000Y-108200000D01*
X134100000Y-102800000D01*
X136000000Y-102800000D01*
X136000000Y-108200000D01*
X136000000Y-108200000D01*
G37*
G36*
X141900000Y-108200000D02*
X140000000Y-108200000D01*
X140000000Y-102800000D01*
X141900000Y-102800000D01*
X141900000Y-108200000D01*
X141900000Y-108200000D01*
G37*
G36*
X128933002Y-102105770D02*
X128983437Y-102121069D01*
X129029913Y-102145912D01*
X129070654Y-102179346D01*
X129104088Y-102220087D01*
X129128931Y-102266563D01*
X129144230Y-102316998D01*
X129150000Y-102375584D01*
X129150000Y-105624416D01*
X129144230Y-105683002D01*
X129128931Y-105733437D01*
X129104088Y-105779913D01*
X129070654Y-105820654D01*
X129029913Y-105854088D01*
X128983437Y-105878931D01*
X128933002Y-105894230D01*
X128874416Y-105900000D01*
X127900584Y-105900000D01*
X127841998Y-105894230D01*
X127791563Y-105878931D01*
X127745087Y-105854088D01*
X127704346Y-105820654D01*
X127670912Y-105779913D01*
X127646069Y-105733437D01*
X127630770Y-105683002D01*
X127625000Y-105624416D01*
X127625000Y-102375584D01*
X127630770Y-102316998D01*
X127646069Y-102266563D01*
X127670912Y-102220087D01*
X127704346Y-102179346D01*
X127745087Y-102145912D01*
X127791563Y-102121069D01*
X127841998Y-102105770D01*
X127900584Y-102100000D01*
X128874416Y-102100000D01*
X128933002Y-102105770D01*
X128933002Y-102105770D01*
G37*
G36*
X124658002Y-102105770D02*
X124708437Y-102121069D01*
X124754913Y-102145912D01*
X124795654Y-102179346D01*
X124829088Y-102220087D01*
X124853931Y-102266563D01*
X124869230Y-102316998D01*
X124875000Y-102375584D01*
X124875000Y-105624416D01*
X124869230Y-105683002D01*
X124853931Y-105733437D01*
X124829088Y-105779913D01*
X124795654Y-105820654D01*
X124754913Y-105854088D01*
X124708437Y-105878931D01*
X124658002Y-105894230D01*
X124599416Y-105900000D01*
X123625584Y-105900000D01*
X123566998Y-105894230D01*
X123516563Y-105878931D01*
X123470087Y-105854088D01*
X123429346Y-105820654D01*
X123395912Y-105779913D01*
X123371069Y-105733437D01*
X123355770Y-105683002D01*
X123350000Y-105624416D01*
X123350000Y-102375584D01*
X123355770Y-102316998D01*
X123371069Y-102266563D01*
X123395912Y-102220087D01*
X123429346Y-102179346D01*
X123470087Y-102145912D01*
X123516563Y-102121069D01*
X123566998Y-102105770D01*
X123625584Y-102100000D01*
X124599416Y-102100000D01*
X124658002Y-102105770D01*
X124658002Y-102105770D01*
G37*
G36*
X149173497Y-104505997D02*
X149226153Y-104521970D01*
X149274665Y-104547900D01*
X149317196Y-104582804D01*
X149352100Y-104625335D01*
X149378030Y-104673847D01*
X149394003Y-104726503D01*
X149400000Y-104787390D01*
X149400000Y-105587610D01*
X149394003Y-105648497D01*
X149378030Y-105701153D01*
X149352100Y-105749665D01*
X149317196Y-105792196D01*
X149274665Y-105827100D01*
X149226153Y-105853030D01*
X149173497Y-105869003D01*
X149112610Y-105875000D01*
X147887390Y-105875000D01*
X147826503Y-105869003D01*
X147773847Y-105853030D01*
X147725335Y-105827100D01*
X147682804Y-105792196D01*
X147647900Y-105749665D01*
X147621970Y-105701153D01*
X147605997Y-105648497D01*
X147600000Y-105587610D01*
X147600000Y-104787390D01*
X147605997Y-104726503D01*
X147621970Y-104673847D01*
X147647900Y-104625335D01*
X147682804Y-104582804D01*
X147725335Y-104547900D01*
X147773847Y-104521970D01*
X147826503Y-104505997D01*
X147887390Y-104500000D01*
X149112610Y-104500000D01*
X149173497Y-104505997D01*
X149173497Y-104505997D01*
G37*
G36*
X145423497Y-104505997D02*
X145476153Y-104521970D01*
X145524665Y-104547900D01*
X145567196Y-104582804D01*
X145602100Y-104625335D01*
X145628030Y-104673847D01*
X145644003Y-104726503D01*
X145650000Y-104787390D01*
X145650000Y-105587610D01*
X145644003Y-105648497D01*
X145628030Y-105701153D01*
X145602100Y-105749665D01*
X145567196Y-105792196D01*
X145524665Y-105827100D01*
X145476153Y-105853030D01*
X145423497Y-105869003D01*
X145362610Y-105875000D01*
X144137390Y-105875000D01*
X144076503Y-105869003D01*
X144023847Y-105853030D01*
X143975335Y-105827100D01*
X143932804Y-105792196D01*
X143897900Y-105749665D01*
X143871970Y-105701153D01*
X143855997Y-105648497D01*
X143850000Y-105587610D01*
X143850000Y-104787390D01*
X143855997Y-104726503D01*
X143871970Y-104673847D01*
X143897900Y-104625335D01*
X143932804Y-104582804D01*
X143975335Y-104547900D01*
X144023847Y-104521970D01*
X144076503Y-104505997D01*
X144137390Y-104500000D01*
X145362610Y-104500000D01*
X145423497Y-104505997D01*
X145423497Y-104505997D01*
G37*
G36*
X89122947Y-102055722D02*
X89386833Y-102165027D01*
X89624324Y-102323713D01*
X89826287Y-102525676D01*
X89984973Y-102763167D01*
X90094278Y-103027053D01*
X90150000Y-103307186D01*
X90150000Y-103592814D01*
X90094278Y-103872947D01*
X89984973Y-104136833D01*
X89826287Y-104374324D01*
X89624324Y-104576287D01*
X89386833Y-104734973D01*
X89122947Y-104844278D01*
X88842814Y-104900000D01*
X88557186Y-104900000D01*
X88277053Y-104844278D01*
X88013167Y-104734973D01*
X87775676Y-104576287D01*
X87573713Y-104374324D01*
X87415027Y-104136833D01*
X87305722Y-103872947D01*
X87250000Y-103592814D01*
X87250000Y-103307186D01*
X87305722Y-103027053D01*
X87415027Y-102763167D01*
X87573713Y-102525676D01*
X87775676Y-102323713D01*
X88013167Y-102165027D01*
X88277053Y-102055722D01*
X88557186Y-102000000D01*
X88842814Y-102000000D01*
X89122947Y-102055722D01*
X89122947Y-102055722D01*
G37*
G36*
X77122947Y-102055722D02*
X77386833Y-102165027D01*
X77624324Y-102323713D01*
X77826287Y-102525676D01*
X77984973Y-102763167D01*
X78094278Y-103027053D01*
X78150000Y-103307186D01*
X78150000Y-103592814D01*
X78094278Y-103872947D01*
X77984973Y-104136833D01*
X77826287Y-104374324D01*
X77624324Y-104576287D01*
X77386833Y-104734973D01*
X77122947Y-104844278D01*
X76842814Y-104900000D01*
X76557186Y-104900000D01*
X76277053Y-104844278D01*
X76013167Y-104734973D01*
X75775676Y-104576287D01*
X75573713Y-104374324D01*
X75415027Y-104136833D01*
X75305722Y-103872947D01*
X75250000Y-103592814D01*
X75250000Y-103307186D01*
X75305722Y-103027053D01*
X75415027Y-102763167D01*
X75573713Y-102525676D01*
X75775676Y-102323713D01*
X76013167Y-102165027D01*
X76277053Y-102055722D01*
X76557186Y-102000000D01*
X76842814Y-102000000D01*
X77122947Y-102055722D01*
X77122947Y-102055722D01*
G37*
G36*
X93622947Y-102055722D02*
X93886833Y-102165027D01*
X94124324Y-102323713D01*
X94326287Y-102525676D01*
X94484973Y-102763167D01*
X94594278Y-103027053D01*
X94650000Y-103307186D01*
X94650000Y-103592814D01*
X94594278Y-103872947D01*
X94484973Y-104136833D01*
X94326287Y-104374324D01*
X94124324Y-104576287D01*
X93886833Y-104734973D01*
X93622947Y-104844278D01*
X93342814Y-104900000D01*
X93057186Y-104900000D01*
X92777053Y-104844278D01*
X92513167Y-104734973D01*
X92275676Y-104576287D01*
X92073713Y-104374324D01*
X91915027Y-104136833D01*
X91805722Y-103872947D01*
X91750000Y-103592814D01*
X91750000Y-103307186D01*
X91805722Y-103027053D01*
X91915027Y-102763167D01*
X92073713Y-102525676D01*
X92275676Y-102323713D01*
X92513167Y-102165027D01*
X92777053Y-102055722D01*
X93057186Y-102000000D01*
X93342814Y-102000000D01*
X93622947Y-102055722D01*
X93622947Y-102055722D01*
G37*
G36*
X105622947Y-102055722D02*
X105886833Y-102165027D01*
X106124324Y-102323713D01*
X106326287Y-102525676D01*
X106484973Y-102763167D01*
X106594278Y-103027053D01*
X106650000Y-103307186D01*
X106650000Y-103592814D01*
X106594278Y-103872947D01*
X106484973Y-104136833D01*
X106326287Y-104374324D01*
X106124324Y-104576287D01*
X105886833Y-104734973D01*
X105622947Y-104844278D01*
X105342814Y-104900000D01*
X105057186Y-104900000D01*
X104777053Y-104844278D01*
X104513167Y-104734973D01*
X104275676Y-104576287D01*
X104073713Y-104374324D01*
X103915027Y-104136833D01*
X103805722Y-103872947D01*
X103750000Y-103592814D01*
X103750000Y-103307186D01*
X103805722Y-103027053D01*
X103915027Y-102763167D01*
X104073713Y-102525676D01*
X104275676Y-102323713D01*
X104513167Y-102165027D01*
X104777053Y-102055722D01*
X105057186Y-102000000D01*
X105342814Y-102000000D01*
X105622947Y-102055722D01*
X105622947Y-102055722D01*
G37*
G36*
X145423497Y-102630997D02*
X145476153Y-102646970D01*
X145524665Y-102672900D01*
X145567196Y-102707804D01*
X145602100Y-102750335D01*
X145628030Y-102798847D01*
X145644003Y-102851503D01*
X145650000Y-102912390D01*
X145650000Y-103712610D01*
X145644003Y-103773497D01*
X145628030Y-103826153D01*
X145602100Y-103874665D01*
X145567196Y-103917196D01*
X145524665Y-103952100D01*
X145476153Y-103978030D01*
X145423497Y-103994003D01*
X145362610Y-104000000D01*
X144137390Y-104000000D01*
X144076503Y-103994003D01*
X144023847Y-103978030D01*
X143975335Y-103952100D01*
X143932804Y-103917196D01*
X143897900Y-103874665D01*
X143871970Y-103826153D01*
X143855997Y-103773497D01*
X143850000Y-103712610D01*
X143850000Y-102912390D01*
X143855997Y-102851503D01*
X143871970Y-102798847D01*
X143897900Y-102750335D01*
X143932804Y-102707804D01*
X143975335Y-102672900D01*
X144023847Y-102646970D01*
X144076503Y-102630997D01*
X144137390Y-102625000D01*
X145362610Y-102625000D01*
X145423497Y-102630997D01*
X145423497Y-102630997D01*
G37*
G36*
X149173497Y-102630997D02*
X149226153Y-102646970D01*
X149274665Y-102672900D01*
X149317196Y-102707804D01*
X149352100Y-102750335D01*
X149378030Y-102798847D01*
X149394003Y-102851503D01*
X149400000Y-102912390D01*
X149400000Y-103712610D01*
X149394003Y-103773497D01*
X149378030Y-103826153D01*
X149352100Y-103874665D01*
X149317196Y-103917196D01*
X149274665Y-103952100D01*
X149226153Y-103978030D01*
X149173497Y-103994003D01*
X149112610Y-104000000D01*
X147887390Y-104000000D01*
X147826503Y-103994003D01*
X147773847Y-103978030D01*
X147725335Y-103952100D01*
X147682804Y-103917196D01*
X147647900Y-103874665D01*
X147621970Y-103826153D01*
X147605997Y-103773497D01*
X147600000Y-103712610D01*
X147600000Y-102912390D01*
X147605997Y-102851503D01*
X147621970Y-102798847D01*
X147647900Y-102750335D01*
X147682804Y-102707804D01*
X147725335Y-102672900D01*
X147773847Y-102646970D01*
X147826503Y-102630997D01*
X147887390Y-102625000D01*
X149112610Y-102625000D01*
X149173497Y-102630997D01*
X149173497Y-102630997D01*
G37*
G36*
X131923497Y-102505997D02*
X131976153Y-102521970D01*
X132024665Y-102547900D01*
X132067196Y-102582804D01*
X132102100Y-102625335D01*
X132128030Y-102673847D01*
X132144003Y-102726503D01*
X132150000Y-102787390D01*
X132150000Y-103587610D01*
X132144003Y-103648497D01*
X132128030Y-103701153D01*
X132102100Y-103749665D01*
X132067196Y-103792196D01*
X132024665Y-103827100D01*
X131976153Y-103853030D01*
X131923497Y-103869003D01*
X131862610Y-103875000D01*
X130637390Y-103875000D01*
X130576503Y-103869003D01*
X130523847Y-103853030D01*
X130475335Y-103827100D01*
X130432804Y-103792196D01*
X130397900Y-103749665D01*
X130371970Y-103701153D01*
X130355997Y-103648497D01*
X130350000Y-103587610D01*
X130350000Y-102787390D01*
X130355997Y-102726503D01*
X130371970Y-102673847D01*
X130397900Y-102625335D01*
X130432804Y-102582804D01*
X130475335Y-102547900D01*
X130523847Y-102521970D01*
X130576503Y-102505997D01*
X130637390Y-102500000D01*
X131862610Y-102500000D01*
X131923497Y-102505997D01*
X131923497Y-102505997D01*
G37*
G36*
X99636393Y-99843553D02*
X99745872Y-99865330D01*
X100055252Y-99993479D01*
X100333687Y-100179523D01*
X100570477Y-100416313D01*
X100756521Y-100694748D01*
X100867304Y-100962203D01*
X100884670Y-101004129D01*
X100950000Y-101332563D01*
X100950000Y-101667437D01*
X100928903Y-101773497D01*
X100884670Y-101995872D01*
X100756521Y-102305252D01*
X100570477Y-102583687D01*
X100333687Y-102820477D01*
X100055252Y-103006521D01*
X99745872Y-103134670D01*
X99636393Y-103156447D01*
X99417437Y-103200000D01*
X99082563Y-103200000D01*
X98863607Y-103156447D01*
X98754128Y-103134670D01*
X98444748Y-103006521D01*
X98166313Y-102820477D01*
X97929523Y-102583687D01*
X97743479Y-102305252D01*
X97615330Y-101995872D01*
X97571097Y-101773497D01*
X97550000Y-101667437D01*
X97550000Y-101332563D01*
X97615330Y-101004129D01*
X97632696Y-100962203D01*
X97743479Y-100694748D01*
X97929523Y-100416313D01*
X98166313Y-100179523D01*
X98444748Y-99993479D01*
X98754128Y-99865330D01*
X98863607Y-99843553D01*
X99082563Y-99800000D01*
X99417437Y-99800000D01*
X99636393Y-99843553D01*
X99636393Y-99843553D01*
G37*
G36*
X83136393Y-99843553D02*
X83245872Y-99865330D01*
X83555252Y-99993479D01*
X83833687Y-100179523D01*
X84070477Y-100416313D01*
X84256521Y-100694748D01*
X84367304Y-100962203D01*
X84384670Y-101004129D01*
X84450000Y-101332563D01*
X84450000Y-101667437D01*
X84428903Y-101773497D01*
X84384670Y-101995872D01*
X84256521Y-102305252D01*
X84070477Y-102583687D01*
X83833687Y-102820477D01*
X83555252Y-103006521D01*
X83245872Y-103134670D01*
X83136393Y-103156447D01*
X82917437Y-103200000D01*
X82582563Y-103200000D01*
X82363607Y-103156447D01*
X82254128Y-103134670D01*
X81944748Y-103006521D01*
X81666313Y-102820477D01*
X81429523Y-102583687D01*
X81243479Y-102305252D01*
X81115330Y-101995872D01*
X81071097Y-101773497D01*
X81050000Y-101667437D01*
X81050000Y-101332563D01*
X81115330Y-101004129D01*
X81132696Y-100962203D01*
X81243479Y-100694748D01*
X81429523Y-100416313D01*
X81666313Y-100179523D01*
X81944748Y-99993479D01*
X82254128Y-99865330D01*
X82363607Y-99843553D01*
X82582563Y-99800000D01*
X82917437Y-99800000D01*
X83136393Y-99843553D01*
X83136393Y-99843553D01*
G37*
G36*
X165423497Y-100755997D02*
X165476153Y-100771970D01*
X165524665Y-100797900D01*
X165567196Y-100832804D01*
X165602100Y-100875335D01*
X165628030Y-100923847D01*
X165644003Y-100976503D01*
X165650000Y-101037390D01*
X165650000Y-101837610D01*
X165644003Y-101898497D01*
X165628030Y-101951153D01*
X165602100Y-101999665D01*
X165567196Y-102042196D01*
X165524665Y-102077100D01*
X165476153Y-102103030D01*
X165423497Y-102119003D01*
X165362610Y-102125000D01*
X164137390Y-102125000D01*
X164076503Y-102119003D01*
X164023847Y-102103030D01*
X163975335Y-102077100D01*
X163932804Y-102042196D01*
X163897900Y-101999665D01*
X163871970Y-101951153D01*
X163855997Y-101898497D01*
X163850000Y-101837610D01*
X163850000Y-101037390D01*
X163855997Y-100976503D01*
X163871970Y-100923847D01*
X163897900Y-100875335D01*
X163932804Y-100832804D01*
X163975335Y-100797900D01*
X164023847Y-100771970D01*
X164076503Y-100755997D01*
X164137390Y-100750000D01*
X165362610Y-100750000D01*
X165423497Y-100755997D01*
X165423497Y-100755997D01*
G37*
G36*
X168923497Y-100755997D02*
X168976153Y-100771970D01*
X169024665Y-100797900D01*
X169067196Y-100832804D01*
X169102100Y-100875335D01*
X169128030Y-100923847D01*
X169144003Y-100976503D01*
X169150000Y-101037390D01*
X169150000Y-101837610D01*
X169144003Y-101898497D01*
X169128030Y-101951153D01*
X169102100Y-101999665D01*
X169067196Y-102042196D01*
X169024665Y-102077100D01*
X168976153Y-102103030D01*
X168923497Y-102119003D01*
X168862610Y-102125000D01*
X167637390Y-102125000D01*
X167576503Y-102119003D01*
X167523847Y-102103030D01*
X167475335Y-102077100D01*
X167432804Y-102042196D01*
X167397900Y-101999665D01*
X167371970Y-101951153D01*
X167355997Y-101898497D01*
X167350000Y-101837610D01*
X167350000Y-101037390D01*
X167355997Y-100976503D01*
X167371970Y-100923847D01*
X167397900Y-100875335D01*
X167432804Y-100832804D01*
X167475335Y-100797900D01*
X167523847Y-100771970D01*
X167576503Y-100755997D01*
X167637390Y-100750000D01*
X168862610Y-100750000D01*
X168923497Y-100755997D01*
X168923497Y-100755997D01*
G37*
G36*
X131923497Y-100630997D02*
X131976153Y-100646970D01*
X132024665Y-100672900D01*
X132067196Y-100707804D01*
X132102100Y-100750335D01*
X132128030Y-100798847D01*
X132144003Y-100851503D01*
X132150000Y-100912390D01*
X132150000Y-101712610D01*
X132144003Y-101773497D01*
X132128030Y-101826153D01*
X132102100Y-101874665D01*
X132067196Y-101917196D01*
X132024665Y-101952100D01*
X131976153Y-101978030D01*
X131923497Y-101994003D01*
X131862610Y-102000000D01*
X130637390Y-102000000D01*
X130576503Y-101994003D01*
X130523847Y-101978030D01*
X130475335Y-101952100D01*
X130432804Y-101917196D01*
X130397900Y-101874665D01*
X130371970Y-101826153D01*
X130355997Y-101773497D01*
X130350000Y-101712610D01*
X130350000Y-100912390D01*
X130355997Y-100851503D01*
X130371970Y-100798847D01*
X130397900Y-100750335D01*
X130432804Y-100707804D01*
X130475335Y-100672900D01*
X130523847Y-100646970D01*
X130576503Y-100630997D01*
X130637390Y-100625000D01*
X131862610Y-100625000D01*
X131923497Y-100630997D01*
X131923497Y-100630997D01*
G37*
G36*
X168923497Y-98880997D02*
X168976153Y-98896970D01*
X169024665Y-98922900D01*
X169067196Y-98957804D01*
X169102100Y-99000335D01*
X169128030Y-99048847D01*
X169144003Y-99101503D01*
X169150000Y-99162390D01*
X169150000Y-99962610D01*
X169144003Y-100023497D01*
X169128030Y-100076153D01*
X169102100Y-100124665D01*
X169067196Y-100167196D01*
X169024665Y-100202100D01*
X168976153Y-100228030D01*
X168923497Y-100244003D01*
X168862610Y-100250000D01*
X167637390Y-100250000D01*
X167576503Y-100244003D01*
X167523847Y-100228030D01*
X167475335Y-100202100D01*
X167432804Y-100167196D01*
X167397900Y-100124665D01*
X167371970Y-100076153D01*
X167355997Y-100023497D01*
X167350000Y-99962610D01*
X167350000Y-99162390D01*
X167355997Y-99101503D01*
X167371970Y-99048847D01*
X167397900Y-99000335D01*
X167432804Y-98957804D01*
X167475335Y-98922900D01*
X167523847Y-98896970D01*
X167576503Y-98880997D01*
X167637390Y-98875000D01*
X168862610Y-98875000D01*
X168923497Y-98880997D01*
X168923497Y-98880997D01*
G37*
G36*
X165423497Y-98880997D02*
X165476153Y-98896970D01*
X165524665Y-98922900D01*
X165567196Y-98957804D01*
X165602100Y-99000335D01*
X165628030Y-99048847D01*
X165644003Y-99101503D01*
X165650000Y-99162390D01*
X165650000Y-99962610D01*
X165644003Y-100023497D01*
X165628030Y-100076153D01*
X165602100Y-100124665D01*
X165567196Y-100167196D01*
X165524665Y-100202100D01*
X165476153Y-100228030D01*
X165423497Y-100244003D01*
X165362610Y-100250000D01*
X164137390Y-100250000D01*
X164076503Y-100244003D01*
X164023847Y-100228030D01*
X163975335Y-100202100D01*
X163932804Y-100167196D01*
X163897900Y-100124665D01*
X163871970Y-100076153D01*
X163855997Y-100023497D01*
X163850000Y-99962610D01*
X163850000Y-99162390D01*
X163855997Y-99101503D01*
X163871970Y-99048847D01*
X163897900Y-99000335D01*
X163932804Y-98957804D01*
X163975335Y-98922900D01*
X164023847Y-98896970D01*
X164076503Y-98880997D01*
X164137390Y-98875000D01*
X165362610Y-98875000D01*
X165423497Y-98880997D01*
X165423497Y-98880997D01*
G37*
G36*
X85705836Y-95065193D02*
X85811438Y-95097227D01*
X85903763Y-95125233D01*
X86086172Y-95222733D01*
X86246054Y-95353946D01*
X86377267Y-95513829D01*
X86440805Y-95632700D01*
X86474767Y-95696238D01*
X86476387Y-95701578D01*
X86534807Y-95894165D01*
X86534807Y-95894167D01*
X86548914Y-96037390D01*
X86550000Y-96048423D01*
X86550000Y-96451578D01*
X86534807Y-96605836D01*
X86529064Y-96624767D01*
X86474767Y-96803763D01*
X86377267Y-96986172D01*
X86284807Y-97098834D01*
X86246054Y-97146054D01*
X86086171Y-97277267D01*
X85967300Y-97340805D01*
X85903762Y-97374767D01*
X85837786Y-97394780D01*
X85705835Y-97434807D01*
X85500000Y-97455080D01*
X85294164Y-97434807D01*
X85162213Y-97394780D01*
X85096237Y-97374767D01*
X84913828Y-97277267D01*
X84753946Y-97146054D01*
X84622733Y-96986171D01*
X84549046Y-96848312D01*
X84525233Y-96803762D01*
X84470936Y-96624767D01*
X84465193Y-96605835D01*
X84450000Y-96451577D01*
X84450000Y-96048422D01*
X84451087Y-96037390D01*
X84458492Y-95962203D01*
X84465193Y-95894164D01*
X84507105Y-95755997D01*
X84525233Y-95696237D01*
X84622734Y-95513828D01*
X84753947Y-95353946D01*
X84913829Y-95222733D01*
X85096238Y-95125233D01*
X85188563Y-95097227D01*
X85294165Y-95065193D01*
X85500000Y-95044920D01*
X85705836Y-95065193D01*
X85705836Y-95065193D01*
G37*
G36*
X89050000Y-97450000D02*
X86950000Y-97450000D01*
X86950000Y-95050000D01*
X89050000Y-95050000D01*
X89050000Y-97450000D01*
X89050000Y-97450000D01*
G37*
G36*
X165423497Y-95755997D02*
X165476153Y-95771970D01*
X165524665Y-95797900D01*
X165567196Y-95832804D01*
X165602100Y-95875335D01*
X165628030Y-95923847D01*
X165644003Y-95976503D01*
X165650000Y-96037390D01*
X165650000Y-96837610D01*
X165644003Y-96898497D01*
X165628030Y-96951153D01*
X165602100Y-96999665D01*
X165567196Y-97042196D01*
X165524665Y-97077100D01*
X165476153Y-97103030D01*
X165423497Y-97119003D01*
X165362610Y-97125000D01*
X164137390Y-97125000D01*
X164076503Y-97119003D01*
X164023847Y-97103030D01*
X163975335Y-97077100D01*
X163932804Y-97042196D01*
X163897900Y-96999665D01*
X163871970Y-96951153D01*
X163855997Y-96898497D01*
X163850000Y-96837610D01*
X163850000Y-96037390D01*
X163855997Y-95976503D01*
X163871970Y-95923847D01*
X163897900Y-95875335D01*
X163932804Y-95832804D01*
X163975335Y-95797900D01*
X164023847Y-95771970D01*
X164076503Y-95755997D01*
X164137390Y-95750000D01*
X165362610Y-95750000D01*
X165423497Y-95755997D01*
X165423497Y-95755997D01*
G37*
G36*
X168923497Y-95755997D02*
X168976153Y-95771970D01*
X169024665Y-95797900D01*
X169067196Y-95832804D01*
X169102100Y-95875335D01*
X169128030Y-95923847D01*
X169144003Y-95976503D01*
X169150000Y-96037390D01*
X169150000Y-96837610D01*
X169144003Y-96898497D01*
X169128030Y-96951153D01*
X169102100Y-96999665D01*
X169067196Y-97042196D01*
X169024665Y-97077100D01*
X168976153Y-97103030D01*
X168923497Y-97119003D01*
X168862610Y-97125000D01*
X167637390Y-97125000D01*
X167576503Y-97119003D01*
X167523847Y-97103030D01*
X167475335Y-97077100D01*
X167432804Y-97042196D01*
X167397900Y-96999665D01*
X167371970Y-96951153D01*
X167355997Y-96898497D01*
X167350000Y-96837610D01*
X167350000Y-96037390D01*
X167355997Y-95976503D01*
X167371970Y-95923847D01*
X167397900Y-95875335D01*
X167432804Y-95832804D01*
X167475335Y-95797900D01*
X167523847Y-95771970D01*
X167576503Y-95755997D01*
X167637390Y-95750000D01*
X168862610Y-95750000D01*
X168923497Y-95755997D01*
X168923497Y-95755997D01*
G37*
G36*
X102205835Y-94315193D02*
X102337786Y-94355220D01*
X102403762Y-94375233D01*
X102467300Y-94409195D01*
X102586171Y-94472733D01*
X102746054Y-94603946D01*
X102877267Y-94763828D01*
X102974767Y-94946237D01*
X102982980Y-94973312D01*
X103034807Y-95144164D01*
X103050000Y-95298422D01*
X103050000Y-95701577D01*
X103034807Y-95855835D01*
X103014176Y-95923847D01*
X102974767Y-96053762D01*
X102940805Y-96117300D01*
X102877267Y-96236171D01*
X102746054Y-96396054D01*
X102586172Y-96527267D01*
X102403763Y-96624767D01*
X102337787Y-96644780D01*
X102205836Y-96684807D01*
X102000000Y-96705080D01*
X101794165Y-96684807D01*
X101662214Y-96644780D01*
X101596238Y-96624767D01*
X101413829Y-96527267D01*
X101253947Y-96396054D01*
X101122734Y-96236172D01*
X101025233Y-96053763D01*
X100985824Y-95923847D01*
X100965193Y-95855836D01*
X100950000Y-95701578D01*
X100950000Y-95298423D01*
X100965193Y-95144165D01*
X101005220Y-95012214D01*
X101025233Y-94946238D01*
X101059195Y-94882700D01*
X101122733Y-94763829D01*
X101253946Y-94603946D01*
X101413828Y-94472733D01*
X101596237Y-94375233D01*
X101662213Y-94355220D01*
X101794164Y-94315193D01*
X102000000Y-94294920D01*
X102205835Y-94315193D01*
X102205835Y-94315193D01*
G37*
G36*
X100550000Y-96700000D02*
X98450000Y-96700000D01*
X98450000Y-94300000D01*
X100550000Y-94300000D01*
X100550000Y-96700000D01*
X100550000Y-96700000D01*
G37*
G36*
X78450000Y-96300000D02*
X76050000Y-96300000D01*
X76050000Y-94200000D01*
X78450000Y-94200000D01*
X78450000Y-96300000D01*
X78450000Y-96300000D01*
G37*
G36*
X165423497Y-93880997D02*
X165476153Y-93896970D01*
X165524665Y-93922900D01*
X165567196Y-93957804D01*
X165602100Y-94000335D01*
X165628030Y-94048847D01*
X165644003Y-94101503D01*
X165650000Y-94162390D01*
X165650000Y-94962610D01*
X165644003Y-95023497D01*
X165628030Y-95076153D01*
X165602100Y-95124665D01*
X165567196Y-95167196D01*
X165524665Y-95202100D01*
X165476153Y-95228030D01*
X165423497Y-95244003D01*
X165362610Y-95250000D01*
X164137390Y-95250000D01*
X164076503Y-95244003D01*
X164023847Y-95228030D01*
X163975335Y-95202100D01*
X163932804Y-95167196D01*
X163897900Y-95124665D01*
X163871970Y-95076153D01*
X163855997Y-95023497D01*
X163850000Y-94962610D01*
X163850000Y-94162390D01*
X163855997Y-94101503D01*
X163871970Y-94048847D01*
X163897900Y-94000335D01*
X163932804Y-93957804D01*
X163975335Y-93922900D01*
X164023847Y-93896970D01*
X164076503Y-93880997D01*
X164137390Y-93875000D01*
X165362610Y-93875000D01*
X165423497Y-93880997D01*
X165423497Y-93880997D01*
G37*
G36*
X168923497Y-93880997D02*
X168976153Y-93896970D01*
X169024665Y-93922900D01*
X169067196Y-93957804D01*
X169102100Y-94000335D01*
X169128030Y-94048847D01*
X169144003Y-94101503D01*
X169150000Y-94162390D01*
X169150000Y-94962610D01*
X169144003Y-95023497D01*
X169128030Y-95076153D01*
X169102100Y-95124665D01*
X169067196Y-95167196D01*
X169024665Y-95202100D01*
X168976153Y-95228030D01*
X168923497Y-95244003D01*
X168862610Y-95250000D01*
X167637390Y-95250000D01*
X167576503Y-95244003D01*
X167523847Y-95228030D01*
X167475335Y-95202100D01*
X167432804Y-95167196D01*
X167397900Y-95124665D01*
X167371970Y-95076153D01*
X167355997Y-95023497D01*
X167350000Y-94962610D01*
X167350000Y-94162390D01*
X167355997Y-94101503D01*
X167371970Y-94048847D01*
X167397900Y-94000335D01*
X167432804Y-93957804D01*
X167475335Y-93922900D01*
X167523847Y-93896970D01*
X167576503Y-93880997D01*
X167637390Y-93875000D01*
X168862610Y-93875000D01*
X168923497Y-93880997D01*
X168923497Y-93880997D01*
G37*
G36*
X77528707Y-91707597D02*
X77605836Y-91715193D01*
X77737787Y-91755220D01*
X77803763Y-91775233D01*
X77986172Y-91872733D01*
X78146054Y-92003946D01*
X78277267Y-92163828D01*
X78374767Y-92346237D01*
X78374767Y-92346238D01*
X78434807Y-92544164D01*
X78455080Y-92750000D01*
X78434807Y-92955836D01*
X78394780Y-93087787D01*
X78374767Y-93153763D01*
X78277267Y-93336172D01*
X78146054Y-93496054D01*
X77986172Y-93627267D01*
X77803763Y-93724767D01*
X77737787Y-93744780D01*
X77605836Y-93784807D01*
X77528707Y-93792404D01*
X77451580Y-93800000D01*
X77048420Y-93800000D01*
X76971293Y-93792404D01*
X76894164Y-93784807D01*
X76762213Y-93744780D01*
X76696237Y-93724767D01*
X76513828Y-93627267D01*
X76353946Y-93496054D01*
X76222733Y-93336172D01*
X76125233Y-93153763D01*
X76105220Y-93087787D01*
X76065193Y-92955836D01*
X76044920Y-92750000D01*
X76065193Y-92544164D01*
X76125233Y-92346238D01*
X76125233Y-92346237D01*
X76222733Y-92163828D01*
X76353946Y-92003946D01*
X76513828Y-91872733D01*
X76696237Y-91775233D01*
X76762213Y-91755220D01*
X76894164Y-91715193D01*
X76971293Y-91707597D01*
X77048420Y-91700000D01*
X77451580Y-91700000D01*
X77528707Y-91707597D01*
X77528707Y-91707597D01*
G37*
G36*
X117813600Y-90563600D02*
X115686400Y-90563600D01*
X115686400Y-88436400D01*
X117813600Y-88436400D01*
X117813600Y-90563600D01*
X117813600Y-90563600D01*
G37*
G36*
X122038503Y-88451789D02*
X122238991Y-88512607D01*
X122423764Y-88611369D01*
X122585718Y-88744282D01*
X122718631Y-88906236D01*
X122817393Y-89091009D01*
X122878211Y-89291497D01*
X122898746Y-89500000D01*
X122878211Y-89708503D01*
X122817393Y-89908991D01*
X122718631Y-90093764D01*
X122585718Y-90255718D01*
X122423764Y-90388631D01*
X122238991Y-90487393D01*
X122038503Y-90548211D01*
X121882251Y-90563600D01*
X121777749Y-90563600D01*
X121621497Y-90548211D01*
X121421009Y-90487393D01*
X121236236Y-90388631D01*
X121074282Y-90255718D01*
X120941369Y-90093764D01*
X120842607Y-89908991D01*
X120781789Y-89708503D01*
X120761254Y-89500000D01*
X120781789Y-89291497D01*
X120842607Y-89091009D01*
X120941369Y-88906236D01*
X121074282Y-88744282D01*
X121236236Y-88611369D01*
X121421009Y-88512607D01*
X121621497Y-88451789D01*
X121777749Y-88436400D01*
X121882251Y-88436400D01*
X122038503Y-88451789D01*
X122038503Y-88451789D01*
G37*
G36*
X124578503Y-88451789D02*
X124778991Y-88512607D01*
X124963764Y-88611369D01*
X125125718Y-88744282D01*
X125258631Y-88906236D01*
X125357393Y-89091009D01*
X125418211Y-89291497D01*
X125438746Y-89500000D01*
X125418211Y-89708503D01*
X125357393Y-89908991D01*
X125258631Y-90093764D01*
X125125718Y-90255718D01*
X124963764Y-90388631D01*
X124778991Y-90487393D01*
X124578503Y-90548211D01*
X124422251Y-90563600D01*
X124317749Y-90563600D01*
X124161497Y-90548211D01*
X123961009Y-90487393D01*
X123776236Y-90388631D01*
X123614282Y-90255718D01*
X123481369Y-90093764D01*
X123382607Y-89908991D01*
X123321789Y-89708503D01*
X123301254Y-89500000D01*
X123321789Y-89291497D01*
X123382607Y-89091009D01*
X123481369Y-88906236D01*
X123614282Y-88744282D01*
X123776236Y-88611369D01*
X123961009Y-88512607D01*
X124161497Y-88451789D01*
X124317749Y-88436400D01*
X124422251Y-88436400D01*
X124578503Y-88451789D01*
X124578503Y-88451789D01*
G37*
G36*
X129658503Y-88451789D02*
X129858991Y-88512607D01*
X130043764Y-88611369D01*
X130205718Y-88744282D01*
X130338631Y-88906236D01*
X130437393Y-89091009D01*
X130498211Y-89291497D01*
X130518746Y-89500000D01*
X130498211Y-89708503D01*
X130437393Y-89908991D01*
X130338631Y-90093764D01*
X130205718Y-90255718D01*
X130043764Y-90388631D01*
X129858991Y-90487393D01*
X129658503Y-90548211D01*
X129502251Y-90563600D01*
X129397749Y-90563600D01*
X129241497Y-90548211D01*
X129041009Y-90487393D01*
X128856236Y-90388631D01*
X128694282Y-90255718D01*
X128561369Y-90093764D01*
X128462607Y-89908991D01*
X128401789Y-89708503D01*
X128381254Y-89500000D01*
X128401789Y-89291497D01*
X128462607Y-89091009D01*
X128561369Y-88906236D01*
X128694282Y-88744282D01*
X128856236Y-88611369D01*
X129041009Y-88512607D01*
X129241497Y-88451789D01*
X129397749Y-88436400D01*
X129502251Y-88436400D01*
X129658503Y-88451789D01*
X129658503Y-88451789D01*
G37*
G36*
X139818503Y-88451789D02*
X140018991Y-88512607D01*
X140203764Y-88611369D01*
X140365718Y-88744282D01*
X140498631Y-88906236D01*
X140597393Y-89091009D01*
X140658211Y-89291497D01*
X140678746Y-89500000D01*
X140658211Y-89708503D01*
X140597393Y-89908991D01*
X140498631Y-90093764D01*
X140365718Y-90255718D01*
X140203764Y-90388631D01*
X140018991Y-90487393D01*
X139818503Y-90548211D01*
X139662251Y-90563600D01*
X139557749Y-90563600D01*
X139401497Y-90548211D01*
X139201009Y-90487393D01*
X139016236Y-90388631D01*
X138854282Y-90255718D01*
X138721369Y-90093764D01*
X138622607Y-89908991D01*
X138561789Y-89708503D01*
X138541254Y-89500000D01*
X138561789Y-89291497D01*
X138622607Y-89091009D01*
X138721369Y-88906236D01*
X138854282Y-88744282D01*
X139016236Y-88611369D01*
X139201009Y-88512607D01*
X139401497Y-88451789D01*
X139557749Y-88436400D01*
X139662251Y-88436400D01*
X139818503Y-88451789D01*
X139818503Y-88451789D01*
G37*
G36*
X127118503Y-88451789D02*
X127318991Y-88512607D01*
X127503764Y-88611369D01*
X127665718Y-88744282D01*
X127798631Y-88906236D01*
X127897393Y-89091009D01*
X127958211Y-89291497D01*
X127978746Y-89500000D01*
X127958211Y-89708503D01*
X127897393Y-89908991D01*
X127798631Y-90093764D01*
X127665718Y-90255718D01*
X127503764Y-90388631D01*
X127318991Y-90487393D01*
X127118503Y-90548211D01*
X126962251Y-90563600D01*
X126857749Y-90563600D01*
X126701497Y-90548211D01*
X126501009Y-90487393D01*
X126316236Y-90388631D01*
X126154282Y-90255718D01*
X126021369Y-90093764D01*
X125922607Y-89908991D01*
X125861789Y-89708503D01*
X125841254Y-89500000D01*
X125861789Y-89291497D01*
X125922607Y-89091009D01*
X126021369Y-88906236D01*
X126154282Y-88744282D01*
X126316236Y-88611369D01*
X126501009Y-88512607D01*
X126701497Y-88451789D01*
X126857749Y-88436400D01*
X126962251Y-88436400D01*
X127118503Y-88451789D01*
X127118503Y-88451789D01*
G37*
G36*
X165218503Y-88451789D02*
X165418991Y-88512607D01*
X165603764Y-88611369D01*
X165765718Y-88744282D01*
X165898631Y-88906236D01*
X165997393Y-89091009D01*
X166058211Y-89291497D01*
X166078746Y-89500000D01*
X166058211Y-89708503D01*
X165997393Y-89908991D01*
X165898631Y-90093764D01*
X165765718Y-90255718D01*
X165603764Y-90388631D01*
X165418991Y-90487393D01*
X165218503Y-90548211D01*
X165062251Y-90563600D01*
X164957749Y-90563600D01*
X164801497Y-90548211D01*
X164601009Y-90487393D01*
X164416236Y-90388631D01*
X164254282Y-90255718D01*
X164121369Y-90093764D01*
X164022607Y-89908991D01*
X163961789Y-89708503D01*
X163941254Y-89500000D01*
X163961789Y-89291497D01*
X164022607Y-89091009D01*
X164121369Y-88906236D01*
X164254282Y-88744282D01*
X164416236Y-88611369D01*
X164601009Y-88512607D01*
X164801497Y-88451789D01*
X164957749Y-88436400D01*
X165062251Y-88436400D01*
X165218503Y-88451789D01*
X165218503Y-88451789D01*
G37*
G36*
X162678503Y-88451789D02*
X162878991Y-88512607D01*
X163063764Y-88611369D01*
X163225718Y-88744282D01*
X163358631Y-88906236D01*
X163457393Y-89091009D01*
X163518211Y-89291497D01*
X163538746Y-89500000D01*
X163518211Y-89708503D01*
X163457393Y-89908991D01*
X163358631Y-90093764D01*
X163225718Y-90255718D01*
X163063764Y-90388631D01*
X162878991Y-90487393D01*
X162678503Y-90548211D01*
X162522251Y-90563600D01*
X162417749Y-90563600D01*
X162261497Y-90548211D01*
X162061009Y-90487393D01*
X161876236Y-90388631D01*
X161714282Y-90255718D01*
X161581369Y-90093764D01*
X161482607Y-89908991D01*
X161421789Y-89708503D01*
X161401254Y-89500000D01*
X161421789Y-89291497D01*
X161482607Y-89091009D01*
X161581369Y-88906236D01*
X161714282Y-88744282D01*
X161876236Y-88611369D01*
X162061009Y-88512607D01*
X162261497Y-88451789D01*
X162417749Y-88436400D01*
X162522251Y-88436400D01*
X162678503Y-88451789D01*
X162678503Y-88451789D01*
G37*
G36*
X160138503Y-88451789D02*
X160338991Y-88512607D01*
X160523764Y-88611369D01*
X160685718Y-88744282D01*
X160818631Y-88906236D01*
X160917393Y-89091009D01*
X160978211Y-89291497D01*
X160998746Y-89500000D01*
X160978211Y-89708503D01*
X160917393Y-89908991D01*
X160818631Y-90093764D01*
X160685718Y-90255718D01*
X160523764Y-90388631D01*
X160338991Y-90487393D01*
X160138503Y-90548211D01*
X159982251Y-90563600D01*
X159877749Y-90563600D01*
X159721497Y-90548211D01*
X159521009Y-90487393D01*
X159336236Y-90388631D01*
X159174282Y-90255718D01*
X159041369Y-90093764D01*
X158942607Y-89908991D01*
X158881789Y-89708503D01*
X158861254Y-89500000D01*
X158881789Y-89291497D01*
X158942607Y-89091009D01*
X159041369Y-88906236D01*
X159174282Y-88744282D01*
X159336236Y-88611369D01*
X159521009Y-88512607D01*
X159721497Y-88451789D01*
X159877749Y-88436400D01*
X159982251Y-88436400D01*
X160138503Y-88451789D01*
X160138503Y-88451789D01*
G37*
G36*
X157598503Y-88451789D02*
X157798991Y-88512607D01*
X157983764Y-88611369D01*
X158145718Y-88744282D01*
X158278631Y-88906236D01*
X158377393Y-89091009D01*
X158438211Y-89291497D01*
X158458746Y-89500000D01*
X158438211Y-89708503D01*
X158377393Y-89908991D01*
X158278631Y-90093764D01*
X158145718Y-90255718D01*
X157983764Y-90388631D01*
X157798991Y-90487393D01*
X157598503Y-90548211D01*
X157442251Y-90563600D01*
X157337749Y-90563600D01*
X157181497Y-90548211D01*
X156981009Y-90487393D01*
X156796236Y-90388631D01*
X156634282Y-90255718D01*
X156501369Y-90093764D01*
X156402607Y-89908991D01*
X156341789Y-89708503D01*
X156321254Y-89500000D01*
X156341789Y-89291497D01*
X156402607Y-89091009D01*
X156501369Y-88906236D01*
X156634282Y-88744282D01*
X156796236Y-88611369D01*
X156981009Y-88512607D01*
X157181497Y-88451789D01*
X157337749Y-88436400D01*
X157442251Y-88436400D01*
X157598503Y-88451789D01*
X157598503Y-88451789D01*
G37*
G36*
X152518503Y-88451789D02*
X152718991Y-88512607D01*
X152903764Y-88611369D01*
X153065718Y-88744282D01*
X153198631Y-88906236D01*
X153297393Y-89091009D01*
X153358211Y-89291497D01*
X153378746Y-89500000D01*
X153358211Y-89708503D01*
X153297393Y-89908991D01*
X153198631Y-90093764D01*
X153065718Y-90255718D01*
X152903764Y-90388631D01*
X152718991Y-90487393D01*
X152518503Y-90548211D01*
X152362251Y-90563600D01*
X152257749Y-90563600D01*
X152101497Y-90548211D01*
X151901009Y-90487393D01*
X151716236Y-90388631D01*
X151554282Y-90255718D01*
X151421369Y-90093764D01*
X151322607Y-89908991D01*
X151261789Y-89708503D01*
X151241254Y-89500000D01*
X151261789Y-89291497D01*
X151322607Y-89091009D01*
X151421369Y-88906236D01*
X151554282Y-88744282D01*
X151716236Y-88611369D01*
X151901009Y-88512607D01*
X152101497Y-88451789D01*
X152257749Y-88436400D01*
X152362251Y-88436400D01*
X152518503Y-88451789D01*
X152518503Y-88451789D01*
G37*
G36*
X149978503Y-88451789D02*
X150178991Y-88512607D01*
X150363764Y-88611369D01*
X150525718Y-88744282D01*
X150658631Y-88906236D01*
X150757393Y-89091009D01*
X150818211Y-89291497D01*
X150838746Y-89500000D01*
X150818211Y-89708503D01*
X150757393Y-89908991D01*
X150658631Y-90093764D01*
X150525718Y-90255718D01*
X150363764Y-90388631D01*
X150178991Y-90487393D01*
X149978503Y-90548211D01*
X149822251Y-90563600D01*
X149717749Y-90563600D01*
X149561497Y-90548211D01*
X149361009Y-90487393D01*
X149176236Y-90388631D01*
X149014282Y-90255718D01*
X148881369Y-90093764D01*
X148782607Y-89908991D01*
X148721789Y-89708503D01*
X148701254Y-89500000D01*
X148721789Y-89291497D01*
X148782607Y-89091009D01*
X148881369Y-88906236D01*
X149014282Y-88744282D01*
X149176236Y-88611369D01*
X149361009Y-88512607D01*
X149561497Y-88451789D01*
X149717749Y-88436400D01*
X149822251Y-88436400D01*
X149978503Y-88451789D01*
X149978503Y-88451789D01*
G37*
G36*
X147438503Y-88451789D02*
X147638991Y-88512607D01*
X147823764Y-88611369D01*
X147985718Y-88744282D01*
X148118631Y-88906236D01*
X148217393Y-89091009D01*
X148278211Y-89291497D01*
X148298746Y-89500000D01*
X148278211Y-89708503D01*
X148217393Y-89908991D01*
X148118631Y-90093764D01*
X147985718Y-90255718D01*
X147823764Y-90388631D01*
X147638991Y-90487393D01*
X147438503Y-90548211D01*
X147282251Y-90563600D01*
X147177749Y-90563600D01*
X147021497Y-90548211D01*
X146821009Y-90487393D01*
X146636236Y-90388631D01*
X146474282Y-90255718D01*
X146341369Y-90093764D01*
X146242607Y-89908991D01*
X146181789Y-89708503D01*
X146161254Y-89500000D01*
X146181789Y-89291497D01*
X146242607Y-89091009D01*
X146341369Y-88906236D01*
X146474282Y-88744282D01*
X146636236Y-88611369D01*
X146821009Y-88512607D01*
X147021497Y-88451789D01*
X147177749Y-88436400D01*
X147282251Y-88436400D01*
X147438503Y-88451789D01*
X147438503Y-88451789D01*
G37*
G36*
X144898503Y-88451789D02*
X145098991Y-88512607D01*
X145283764Y-88611369D01*
X145445718Y-88744282D01*
X145578631Y-88906236D01*
X145677393Y-89091009D01*
X145738211Y-89291497D01*
X145758746Y-89500000D01*
X145738211Y-89708503D01*
X145677393Y-89908991D01*
X145578631Y-90093764D01*
X145445718Y-90255718D01*
X145283764Y-90388631D01*
X145098991Y-90487393D01*
X144898503Y-90548211D01*
X144742251Y-90563600D01*
X144637749Y-90563600D01*
X144481497Y-90548211D01*
X144281009Y-90487393D01*
X144096236Y-90388631D01*
X143934282Y-90255718D01*
X143801369Y-90093764D01*
X143702607Y-89908991D01*
X143641789Y-89708503D01*
X143621254Y-89500000D01*
X143641789Y-89291497D01*
X143702607Y-89091009D01*
X143801369Y-88906236D01*
X143934282Y-88744282D01*
X144096236Y-88611369D01*
X144281009Y-88512607D01*
X144481497Y-88451789D01*
X144637749Y-88436400D01*
X144742251Y-88436400D01*
X144898503Y-88451789D01*
X144898503Y-88451789D01*
G37*
G36*
X142358503Y-88451789D02*
X142558991Y-88512607D01*
X142743764Y-88611369D01*
X142905718Y-88744282D01*
X143038631Y-88906236D01*
X143137393Y-89091009D01*
X143198211Y-89291497D01*
X143218746Y-89500000D01*
X143198211Y-89708503D01*
X143137393Y-89908991D01*
X143038631Y-90093764D01*
X142905718Y-90255718D01*
X142743764Y-90388631D01*
X142558991Y-90487393D01*
X142358503Y-90548211D01*
X142202251Y-90563600D01*
X142097749Y-90563600D01*
X141941497Y-90548211D01*
X141741009Y-90487393D01*
X141556236Y-90388631D01*
X141394282Y-90255718D01*
X141261369Y-90093764D01*
X141162607Y-89908991D01*
X141101789Y-89708503D01*
X141081254Y-89500000D01*
X141101789Y-89291497D01*
X141162607Y-89091009D01*
X141261369Y-88906236D01*
X141394282Y-88744282D01*
X141556236Y-88611369D01*
X141741009Y-88512607D01*
X141941497Y-88451789D01*
X142097749Y-88436400D01*
X142202251Y-88436400D01*
X142358503Y-88451789D01*
X142358503Y-88451789D01*
G37*
G36*
X137278503Y-88451789D02*
X137478991Y-88512607D01*
X137663764Y-88611369D01*
X137825718Y-88744282D01*
X137958631Y-88906236D01*
X138057393Y-89091009D01*
X138118211Y-89291497D01*
X138138746Y-89500000D01*
X138118211Y-89708503D01*
X138057393Y-89908991D01*
X137958631Y-90093764D01*
X137825718Y-90255718D01*
X137663764Y-90388631D01*
X137478991Y-90487393D01*
X137278503Y-90548211D01*
X137122251Y-90563600D01*
X137017749Y-90563600D01*
X136861497Y-90548211D01*
X136661009Y-90487393D01*
X136476236Y-90388631D01*
X136314282Y-90255718D01*
X136181369Y-90093764D01*
X136082607Y-89908991D01*
X136021789Y-89708503D01*
X136001254Y-89500000D01*
X136021789Y-89291497D01*
X136082607Y-89091009D01*
X136181369Y-88906236D01*
X136314282Y-88744282D01*
X136476236Y-88611369D01*
X136661009Y-88512607D01*
X136861497Y-88451789D01*
X137017749Y-88436400D01*
X137122251Y-88436400D01*
X137278503Y-88451789D01*
X137278503Y-88451789D01*
G37*
G36*
X134738503Y-88451789D02*
X134938991Y-88512607D01*
X135123764Y-88611369D01*
X135285718Y-88744282D01*
X135418631Y-88906236D01*
X135517393Y-89091009D01*
X135578211Y-89291497D01*
X135598746Y-89500000D01*
X135578211Y-89708503D01*
X135517393Y-89908991D01*
X135418631Y-90093764D01*
X135285718Y-90255718D01*
X135123764Y-90388631D01*
X134938991Y-90487393D01*
X134738503Y-90548211D01*
X134582251Y-90563600D01*
X134477749Y-90563600D01*
X134321497Y-90548211D01*
X134121009Y-90487393D01*
X133936236Y-90388631D01*
X133774282Y-90255718D01*
X133641369Y-90093764D01*
X133542607Y-89908991D01*
X133481789Y-89708503D01*
X133461254Y-89500000D01*
X133481789Y-89291497D01*
X133542607Y-89091009D01*
X133641369Y-88906236D01*
X133774282Y-88744282D01*
X133936236Y-88611369D01*
X134121009Y-88512607D01*
X134321497Y-88451789D01*
X134477749Y-88436400D01*
X134582251Y-88436400D01*
X134738503Y-88451789D01*
X134738503Y-88451789D01*
G37*
G36*
X132198503Y-88451789D02*
X132398991Y-88512607D01*
X132583764Y-88611369D01*
X132745718Y-88744282D01*
X132878631Y-88906236D01*
X132977393Y-89091009D01*
X133038211Y-89291497D01*
X133058746Y-89500000D01*
X133038211Y-89708503D01*
X132977393Y-89908991D01*
X132878631Y-90093764D01*
X132745718Y-90255718D01*
X132583764Y-90388631D01*
X132398991Y-90487393D01*
X132198503Y-90548211D01*
X132042251Y-90563600D01*
X131937749Y-90563600D01*
X131781497Y-90548211D01*
X131581009Y-90487393D01*
X131396236Y-90388631D01*
X131234282Y-90255718D01*
X131101369Y-90093764D01*
X131002607Y-89908991D01*
X130941789Y-89708503D01*
X130921254Y-89500000D01*
X130941789Y-89291497D01*
X131002607Y-89091009D01*
X131101369Y-88906236D01*
X131234282Y-88744282D01*
X131396236Y-88611369D01*
X131581009Y-88512607D01*
X131781497Y-88451789D01*
X131937749Y-88436400D01*
X132042251Y-88436400D01*
X132198503Y-88451789D01*
X132198503Y-88451789D01*
G37*
G36*
X119498503Y-88451789D02*
X119698991Y-88512607D01*
X119883764Y-88611369D01*
X120045718Y-88744282D01*
X120178631Y-88906236D01*
X120277393Y-89091009D01*
X120338211Y-89291497D01*
X120358746Y-89500000D01*
X120338211Y-89708503D01*
X120277393Y-89908991D01*
X120178631Y-90093764D01*
X120045718Y-90255718D01*
X119883764Y-90388631D01*
X119698991Y-90487393D01*
X119498503Y-90548211D01*
X119342251Y-90563600D01*
X119237749Y-90563600D01*
X119081497Y-90548211D01*
X118881009Y-90487393D01*
X118696236Y-90388631D01*
X118534282Y-90255718D01*
X118401369Y-90093764D01*
X118302607Y-89908991D01*
X118241789Y-89708503D01*
X118221254Y-89500000D01*
X118241789Y-89291497D01*
X118302607Y-89091009D01*
X118401369Y-88906236D01*
X118534282Y-88744282D01*
X118696236Y-88611369D01*
X118881009Y-88512607D01*
X119081497Y-88451789D01*
X119237749Y-88436400D01*
X119342251Y-88436400D01*
X119498503Y-88451789D01*
X119498503Y-88451789D01*
G37*
G36*
X155058503Y-88451789D02*
X155258991Y-88512607D01*
X155443764Y-88611369D01*
X155605718Y-88744282D01*
X155738631Y-88906236D01*
X155837393Y-89091009D01*
X155898211Y-89291497D01*
X155918746Y-89500000D01*
X155898211Y-89708503D01*
X155837393Y-89908991D01*
X155738631Y-90093764D01*
X155605718Y-90255718D01*
X155443764Y-90388631D01*
X155258991Y-90487393D01*
X155058503Y-90548211D01*
X154902251Y-90563600D01*
X154797749Y-90563600D01*
X154641497Y-90548211D01*
X154441009Y-90487393D01*
X154256236Y-90388631D01*
X154094282Y-90255718D01*
X153961369Y-90093764D01*
X153862607Y-89908991D01*
X153801789Y-89708503D01*
X153781254Y-89500000D01*
X153801789Y-89291497D01*
X153862607Y-89091009D01*
X153961369Y-88906236D01*
X154094282Y-88744282D01*
X154256236Y-88611369D01*
X154441009Y-88512607D01*
X154641497Y-88451789D01*
X154797749Y-88436400D01*
X154902251Y-88436400D01*
X155058503Y-88451789D01*
X155058503Y-88451789D01*
G37*
G36*
X170159122Y-86246115D02*
X170275041Y-86269173D01*
X170602620Y-86404861D01*
X170838130Y-86562224D01*
X170897436Y-86601851D01*
X171148149Y-86852564D01*
X171148151Y-86852567D01*
X171332448Y-87128386D01*
X171345140Y-87147382D01*
X171384881Y-87243326D01*
X171480827Y-87474959D01*
X171550000Y-87822716D01*
X171550000Y-88177284D01*
X171480827Y-88525041D01*
X171445068Y-88611370D01*
X171345140Y-88852618D01*
X171148149Y-89147436D01*
X170897436Y-89398149D01*
X170897433Y-89398151D01*
X170602620Y-89595139D01*
X170275041Y-89730827D01*
X170159122Y-89753885D01*
X169927286Y-89800000D01*
X169572714Y-89800000D01*
X169340878Y-89753885D01*
X169224959Y-89730827D01*
X168897380Y-89595139D01*
X168602567Y-89398151D01*
X168602564Y-89398149D01*
X168351851Y-89147436D01*
X168154860Y-88852618D01*
X168054932Y-88611370D01*
X168019173Y-88525041D01*
X167950000Y-88177284D01*
X167950000Y-87822716D01*
X168019173Y-87474959D01*
X168115119Y-87243326D01*
X168154860Y-87147382D01*
X168167553Y-87128386D01*
X168351849Y-86852567D01*
X168351851Y-86852564D01*
X168602564Y-86601851D01*
X168661870Y-86562224D01*
X168897380Y-86404861D01*
X169224959Y-86269173D01*
X169340878Y-86246115D01*
X169572714Y-86200000D01*
X169927286Y-86200000D01*
X170159122Y-86246115D01*
X170159122Y-86246115D01*
G37*
G36*
X112159122Y-86246115D02*
X112275041Y-86269173D01*
X112602620Y-86404861D01*
X112838130Y-86562224D01*
X112897436Y-86601851D01*
X113148149Y-86852564D01*
X113148151Y-86852567D01*
X113332448Y-87128386D01*
X113345140Y-87147382D01*
X113384881Y-87243326D01*
X113480827Y-87474959D01*
X113550000Y-87822716D01*
X113550000Y-88177284D01*
X113480827Y-88525041D01*
X113445068Y-88611370D01*
X113345140Y-88852618D01*
X113148149Y-89147436D01*
X112897436Y-89398149D01*
X112897433Y-89398151D01*
X112602620Y-89595139D01*
X112275041Y-89730827D01*
X112159122Y-89753885D01*
X111927286Y-89800000D01*
X111572714Y-89800000D01*
X111340878Y-89753885D01*
X111224959Y-89730827D01*
X110897380Y-89595139D01*
X110602567Y-89398151D01*
X110602564Y-89398149D01*
X110351851Y-89147436D01*
X110154860Y-88852618D01*
X110054932Y-88611370D01*
X110019173Y-88525041D01*
X109950000Y-88177284D01*
X109950000Y-87822716D01*
X110019173Y-87474959D01*
X110115119Y-87243326D01*
X110154860Y-87147382D01*
X110167553Y-87128386D01*
X110351849Y-86852567D01*
X110351851Y-86852564D01*
X110602564Y-86601851D01*
X110661870Y-86562224D01*
X110897380Y-86404861D01*
X111224959Y-86269173D01*
X111340878Y-86246115D01*
X111572714Y-86200000D01*
X111927286Y-86200000D01*
X112159122Y-86246115D01*
X112159122Y-86246115D01*
G37*
G36*
X99782323Y-88184767D02*
X99909561Y-88223364D01*
X100026824Y-88286042D01*
X100129606Y-88370394D01*
X100213958Y-88473176D01*
X100276636Y-88590439D01*
X100315233Y-88717677D01*
X100328266Y-88850000D01*
X100315233Y-88982323D01*
X100276636Y-89109561D01*
X100213958Y-89226824D01*
X100129606Y-89329606D01*
X100026824Y-89413958D01*
X99909561Y-89476636D01*
X99782323Y-89515233D01*
X99683159Y-89525000D01*
X99316841Y-89525000D01*
X99217677Y-89515233D01*
X99090439Y-89476636D01*
X98973176Y-89413958D01*
X98870394Y-89329606D01*
X98786042Y-89226824D01*
X98723364Y-89109561D01*
X98684767Y-88982323D01*
X98671734Y-88850000D01*
X98684767Y-88717677D01*
X98723364Y-88590439D01*
X98786042Y-88473176D01*
X98870394Y-88370394D01*
X98973176Y-88286042D01*
X99090439Y-88223364D01*
X99217677Y-88184767D01*
X99316841Y-88175000D01*
X99683159Y-88175000D01*
X99782323Y-88184767D01*
X99782323Y-88184767D01*
G37*
G36*
X88532323Y-88184767D02*
X88659561Y-88223364D01*
X88776824Y-88286042D01*
X88879606Y-88370394D01*
X88963958Y-88473176D01*
X89026636Y-88590439D01*
X89065233Y-88717677D01*
X89078266Y-88850000D01*
X89065233Y-88982323D01*
X89026636Y-89109561D01*
X88963958Y-89226824D01*
X88879606Y-89329606D01*
X88776824Y-89413958D01*
X88659561Y-89476636D01*
X88532323Y-89515233D01*
X88433159Y-89525000D01*
X88066841Y-89525000D01*
X87967677Y-89515233D01*
X87840439Y-89476636D01*
X87723176Y-89413958D01*
X87620394Y-89329606D01*
X87536042Y-89226824D01*
X87473364Y-89109561D01*
X87434767Y-88982323D01*
X87421734Y-88850000D01*
X87434767Y-88717677D01*
X87473364Y-88590439D01*
X87536042Y-88473176D01*
X87620394Y-88370394D01*
X87723176Y-88286042D01*
X87840439Y-88223364D01*
X87967677Y-88184767D01*
X88066841Y-88175000D01*
X88433159Y-88175000D01*
X88532323Y-88184767D01*
X88532323Y-88184767D01*
G37*
G36*
X104782323Y-88184767D02*
X104909561Y-88223364D01*
X105026824Y-88286042D01*
X105129606Y-88370394D01*
X105213958Y-88473176D01*
X105276636Y-88590439D01*
X105315233Y-88717677D01*
X105328266Y-88850000D01*
X105315233Y-88982323D01*
X105276636Y-89109561D01*
X105213958Y-89226824D01*
X105129606Y-89329606D01*
X105026824Y-89413958D01*
X104909561Y-89476636D01*
X104782323Y-89515233D01*
X104683159Y-89525000D01*
X104316841Y-89525000D01*
X104217677Y-89515233D01*
X104090439Y-89476636D01*
X103973176Y-89413958D01*
X103870394Y-89329606D01*
X103786042Y-89226824D01*
X103723364Y-89109561D01*
X103684767Y-88982323D01*
X103671734Y-88850000D01*
X103684767Y-88717677D01*
X103723364Y-88590439D01*
X103786042Y-88473176D01*
X103870394Y-88370394D01*
X103973176Y-88286042D01*
X104090439Y-88223364D01*
X104217677Y-88184767D01*
X104316841Y-88175000D01*
X104683159Y-88175000D01*
X104782323Y-88184767D01*
X104782323Y-88184767D01*
G37*
G36*
X83532323Y-88184767D02*
X83659561Y-88223364D01*
X83776824Y-88286042D01*
X83879606Y-88370394D01*
X83963958Y-88473176D01*
X84026636Y-88590439D01*
X84065233Y-88717677D01*
X84078266Y-88850000D01*
X84065233Y-88982323D01*
X84026636Y-89109561D01*
X83963958Y-89226824D01*
X83879606Y-89329606D01*
X83776824Y-89413958D01*
X83659561Y-89476636D01*
X83532323Y-89515233D01*
X83433159Y-89525000D01*
X83066841Y-89525000D01*
X82967677Y-89515233D01*
X82840439Y-89476636D01*
X82723176Y-89413958D01*
X82620394Y-89329606D01*
X82536042Y-89226824D01*
X82473364Y-89109561D01*
X82434767Y-88982323D01*
X82421734Y-88850000D01*
X82434767Y-88717677D01*
X82473364Y-88590439D01*
X82536042Y-88473176D01*
X82620394Y-88370394D01*
X82723176Y-88286042D01*
X82840439Y-88223364D01*
X82967677Y-88184767D01*
X83066841Y-88175000D01*
X83433159Y-88175000D01*
X83532323Y-88184767D01*
X83532323Y-88184767D01*
G37*
G36*
X152518503Y-85911789D02*
X152718991Y-85972607D01*
X152903764Y-86071369D01*
X153065718Y-86204282D01*
X153198631Y-86366236D01*
X153297393Y-86551009D01*
X153358211Y-86751497D01*
X153378746Y-86960000D01*
X153358211Y-87168503D01*
X153297393Y-87368991D01*
X153198631Y-87553764D01*
X153065718Y-87715718D01*
X152903764Y-87848631D01*
X152718991Y-87947393D01*
X152518503Y-88008211D01*
X152362251Y-88023600D01*
X152257749Y-88023600D01*
X152101497Y-88008211D01*
X151901009Y-87947393D01*
X151716236Y-87848631D01*
X151554282Y-87715718D01*
X151421369Y-87553764D01*
X151322607Y-87368991D01*
X151261789Y-87168503D01*
X151241254Y-86960000D01*
X151261789Y-86751497D01*
X151322607Y-86551009D01*
X151421369Y-86366236D01*
X151554282Y-86204282D01*
X151716236Y-86071369D01*
X151901009Y-85972607D01*
X152101497Y-85911789D01*
X152257749Y-85896400D01*
X152362251Y-85896400D01*
X152518503Y-85911789D01*
X152518503Y-85911789D01*
G37*
G36*
X162678503Y-85911789D02*
X162878991Y-85972607D01*
X163063764Y-86071369D01*
X163225718Y-86204282D01*
X163358631Y-86366236D01*
X163457393Y-86551009D01*
X163518211Y-86751497D01*
X163538746Y-86960000D01*
X163518211Y-87168503D01*
X163457393Y-87368991D01*
X163358631Y-87553764D01*
X163225718Y-87715718D01*
X163063764Y-87848631D01*
X162878991Y-87947393D01*
X162678503Y-88008211D01*
X162522251Y-88023600D01*
X162417749Y-88023600D01*
X162261497Y-88008211D01*
X162061009Y-87947393D01*
X161876236Y-87848631D01*
X161714282Y-87715718D01*
X161581369Y-87553764D01*
X161482607Y-87368991D01*
X161421789Y-87168503D01*
X161401254Y-86960000D01*
X161421789Y-86751497D01*
X161482607Y-86551009D01*
X161581369Y-86366236D01*
X161714282Y-86204282D01*
X161876236Y-86071369D01*
X162061009Y-85972607D01*
X162261497Y-85911789D01*
X162417749Y-85896400D01*
X162522251Y-85896400D01*
X162678503Y-85911789D01*
X162678503Y-85911789D01*
G37*
G36*
X132198503Y-85911789D02*
X132398991Y-85972607D01*
X132583764Y-86071369D01*
X132745718Y-86204282D01*
X132878631Y-86366236D01*
X132977393Y-86551009D01*
X133038211Y-86751497D01*
X133058746Y-86960000D01*
X133038211Y-87168503D01*
X132977393Y-87368991D01*
X132878631Y-87553764D01*
X132745718Y-87715718D01*
X132583764Y-87848631D01*
X132398991Y-87947393D01*
X132198503Y-88008211D01*
X132042251Y-88023600D01*
X131937749Y-88023600D01*
X131781497Y-88008211D01*
X131581009Y-87947393D01*
X131396236Y-87848631D01*
X131234282Y-87715718D01*
X131101369Y-87553764D01*
X131002607Y-87368991D01*
X130941789Y-87168503D01*
X130921254Y-86960000D01*
X130941789Y-86751497D01*
X131002607Y-86551009D01*
X131101369Y-86366236D01*
X131234282Y-86204282D01*
X131396236Y-86071369D01*
X131581009Y-85972607D01*
X131781497Y-85911789D01*
X131937749Y-85896400D01*
X132042251Y-85896400D01*
X132198503Y-85911789D01*
X132198503Y-85911789D01*
G37*
G36*
X165218503Y-85911789D02*
X165418991Y-85972607D01*
X165603764Y-86071369D01*
X165765718Y-86204282D01*
X165898631Y-86366236D01*
X165997393Y-86551009D01*
X166058211Y-86751497D01*
X166078746Y-86960000D01*
X166058211Y-87168503D01*
X165997393Y-87368991D01*
X165898631Y-87553764D01*
X165765718Y-87715718D01*
X165603764Y-87848631D01*
X165418991Y-87947393D01*
X165218503Y-88008211D01*
X165062251Y-88023600D01*
X164957749Y-88023600D01*
X164801497Y-88008211D01*
X164601009Y-87947393D01*
X164416236Y-87848631D01*
X164254282Y-87715718D01*
X164121369Y-87553764D01*
X164022607Y-87368991D01*
X163961789Y-87168503D01*
X163941254Y-86960000D01*
X163961789Y-86751497D01*
X164022607Y-86551009D01*
X164121369Y-86366236D01*
X164254282Y-86204282D01*
X164416236Y-86071369D01*
X164601009Y-85972607D01*
X164801497Y-85911789D01*
X164957749Y-85896400D01*
X165062251Y-85896400D01*
X165218503Y-85911789D01*
X165218503Y-85911789D01*
G37*
G36*
X124578503Y-85911789D02*
X124778991Y-85972607D01*
X124963764Y-86071369D01*
X125125718Y-86204282D01*
X125258631Y-86366236D01*
X125357393Y-86551009D01*
X125418211Y-86751497D01*
X125438746Y-86960000D01*
X125418211Y-87168503D01*
X125357393Y-87368991D01*
X125258631Y-87553764D01*
X125125718Y-87715718D01*
X124963764Y-87848631D01*
X124778991Y-87947393D01*
X124578503Y-88008211D01*
X124422251Y-88023600D01*
X124317749Y-88023600D01*
X124161497Y-88008211D01*
X123961009Y-87947393D01*
X123776236Y-87848631D01*
X123614282Y-87715718D01*
X123481369Y-87553764D01*
X123382607Y-87368991D01*
X123321789Y-87168503D01*
X123301254Y-86960000D01*
X123321789Y-86751497D01*
X123382607Y-86551009D01*
X123481369Y-86366236D01*
X123614282Y-86204282D01*
X123776236Y-86071369D01*
X123961009Y-85972607D01*
X124161497Y-85911789D01*
X124317749Y-85896400D01*
X124422251Y-85896400D01*
X124578503Y-85911789D01*
X124578503Y-85911789D01*
G37*
G36*
X122038503Y-85911789D02*
X122238991Y-85972607D01*
X122423764Y-86071369D01*
X122585718Y-86204282D01*
X122718631Y-86366236D01*
X122817393Y-86551009D01*
X122878211Y-86751497D01*
X122898746Y-86960000D01*
X122878211Y-87168503D01*
X122817393Y-87368991D01*
X122718631Y-87553764D01*
X122585718Y-87715718D01*
X122423764Y-87848631D01*
X122238991Y-87947393D01*
X122038503Y-88008211D01*
X121882251Y-88023600D01*
X121777749Y-88023600D01*
X121621497Y-88008211D01*
X121421009Y-87947393D01*
X121236236Y-87848631D01*
X121074282Y-87715718D01*
X120941369Y-87553764D01*
X120842607Y-87368991D01*
X120781789Y-87168503D01*
X120761254Y-86960000D01*
X120781789Y-86751497D01*
X120842607Y-86551009D01*
X120941369Y-86366236D01*
X121074282Y-86204282D01*
X121236236Y-86071369D01*
X121421009Y-85972607D01*
X121621497Y-85911789D01*
X121777749Y-85896400D01*
X121882251Y-85896400D01*
X122038503Y-85911789D01*
X122038503Y-85911789D01*
G37*
G36*
X119498503Y-85911789D02*
X119698991Y-85972607D01*
X119883764Y-86071369D01*
X120045718Y-86204282D01*
X120178631Y-86366236D01*
X120277393Y-86551009D01*
X120338211Y-86751497D01*
X120358746Y-86960000D01*
X120338211Y-87168503D01*
X120277393Y-87368991D01*
X120178631Y-87553764D01*
X120045718Y-87715718D01*
X119883764Y-87848631D01*
X119698991Y-87947393D01*
X119498503Y-88008211D01*
X119342251Y-88023600D01*
X119237749Y-88023600D01*
X119081497Y-88008211D01*
X118881009Y-87947393D01*
X118696236Y-87848631D01*
X118534282Y-87715718D01*
X118401369Y-87553764D01*
X118302607Y-87368991D01*
X118241789Y-87168503D01*
X118221254Y-86960000D01*
X118241789Y-86751497D01*
X118302607Y-86551009D01*
X118401369Y-86366236D01*
X118534282Y-86204282D01*
X118696236Y-86071369D01*
X118881009Y-85972607D01*
X119081497Y-85911789D01*
X119237749Y-85896400D01*
X119342251Y-85896400D01*
X119498503Y-85911789D01*
X119498503Y-85911789D01*
G37*
G36*
X116958503Y-85911789D02*
X117158991Y-85972607D01*
X117343764Y-86071369D01*
X117505718Y-86204282D01*
X117638631Y-86366236D01*
X117737393Y-86551009D01*
X117798211Y-86751497D01*
X117818746Y-86960000D01*
X117798211Y-87168503D01*
X117737393Y-87368991D01*
X117638631Y-87553764D01*
X117505718Y-87715718D01*
X117343764Y-87848631D01*
X117158991Y-87947393D01*
X116958503Y-88008211D01*
X116802251Y-88023600D01*
X116697749Y-88023600D01*
X116541497Y-88008211D01*
X116341009Y-87947393D01*
X116156236Y-87848631D01*
X115994282Y-87715718D01*
X115861369Y-87553764D01*
X115762607Y-87368991D01*
X115701789Y-87168503D01*
X115681254Y-86960000D01*
X115701789Y-86751497D01*
X115762607Y-86551009D01*
X115861369Y-86366236D01*
X115994282Y-86204282D01*
X116156236Y-86071369D01*
X116341009Y-85972607D01*
X116541497Y-85911789D01*
X116697749Y-85896400D01*
X116802251Y-85896400D01*
X116958503Y-85911789D01*
X116958503Y-85911789D01*
G37*
G36*
X127118503Y-85911789D02*
X127318991Y-85972607D01*
X127503764Y-86071369D01*
X127665718Y-86204282D01*
X127798631Y-86366236D01*
X127897393Y-86551009D01*
X127958211Y-86751497D01*
X127978746Y-86960000D01*
X127958211Y-87168503D01*
X127897393Y-87368991D01*
X127798631Y-87553764D01*
X127665718Y-87715718D01*
X127503764Y-87848631D01*
X127318991Y-87947393D01*
X127118503Y-88008211D01*
X126962251Y-88023600D01*
X126857749Y-88023600D01*
X126701497Y-88008211D01*
X126501009Y-87947393D01*
X126316236Y-87848631D01*
X126154282Y-87715718D01*
X126021369Y-87553764D01*
X125922607Y-87368991D01*
X125861789Y-87168503D01*
X125841254Y-86960000D01*
X125861789Y-86751497D01*
X125922607Y-86551009D01*
X126021369Y-86366236D01*
X126154282Y-86204282D01*
X126316236Y-86071369D01*
X126501009Y-85972607D01*
X126701497Y-85911789D01*
X126857749Y-85896400D01*
X126962251Y-85896400D01*
X127118503Y-85911789D01*
X127118503Y-85911789D01*
G37*
G36*
X134738503Y-85911789D02*
X134938991Y-85972607D01*
X135123764Y-86071369D01*
X135285718Y-86204282D01*
X135418631Y-86366236D01*
X135517393Y-86551009D01*
X135578211Y-86751497D01*
X135598746Y-86960000D01*
X135578211Y-87168503D01*
X135517393Y-87368991D01*
X135418631Y-87553764D01*
X135285718Y-87715718D01*
X135123764Y-87848631D01*
X134938991Y-87947393D01*
X134738503Y-88008211D01*
X134582251Y-88023600D01*
X134477749Y-88023600D01*
X134321497Y-88008211D01*
X134121009Y-87947393D01*
X133936236Y-87848631D01*
X133774282Y-87715718D01*
X133641369Y-87553764D01*
X133542607Y-87368991D01*
X133481789Y-87168503D01*
X133461254Y-86960000D01*
X133481789Y-86751497D01*
X133542607Y-86551009D01*
X133641369Y-86366236D01*
X133774282Y-86204282D01*
X133936236Y-86071369D01*
X134121009Y-85972607D01*
X134321497Y-85911789D01*
X134477749Y-85896400D01*
X134582251Y-85896400D01*
X134738503Y-85911789D01*
X134738503Y-85911789D01*
G37*
G36*
X137278503Y-85911789D02*
X137478991Y-85972607D01*
X137663764Y-86071369D01*
X137825718Y-86204282D01*
X137958631Y-86366236D01*
X138057393Y-86551009D01*
X138118211Y-86751497D01*
X138138746Y-86960000D01*
X138118211Y-87168503D01*
X138057393Y-87368991D01*
X137958631Y-87553764D01*
X137825718Y-87715718D01*
X137663764Y-87848631D01*
X137478991Y-87947393D01*
X137278503Y-88008211D01*
X137122251Y-88023600D01*
X137017749Y-88023600D01*
X136861497Y-88008211D01*
X136661009Y-87947393D01*
X136476236Y-87848631D01*
X136314282Y-87715718D01*
X136181369Y-87553764D01*
X136082607Y-87368991D01*
X136021789Y-87168503D01*
X136001254Y-86960000D01*
X136021789Y-86751497D01*
X136082607Y-86551009D01*
X136181369Y-86366236D01*
X136314282Y-86204282D01*
X136476236Y-86071369D01*
X136661009Y-85972607D01*
X136861497Y-85911789D01*
X137017749Y-85896400D01*
X137122251Y-85896400D01*
X137278503Y-85911789D01*
X137278503Y-85911789D01*
G37*
G36*
X139818503Y-85911789D02*
X140018991Y-85972607D01*
X140203764Y-86071369D01*
X140365718Y-86204282D01*
X140498631Y-86366236D01*
X140597393Y-86551009D01*
X140658211Y-86751497D01*
X140678746Y-86960000D01*
X140658211Y-87168503D01*
X140597393Y-87368991D01*
X140498631Y-87553764D01*
X140365718Y-87715718D01*
X140203764Y-87848631D01*
X140018991Y-87947393D01*
X139818503Y-88008211D01*
X139662251Y-88023600D01*
X139557749Y-88023600D01*
X139401497Y-88008211D01*
X139201009Y-87947393D01*
X139016236Y-87848631D01*
X138854282Y-87715718D01*
X138721369Y-87553764D01*
X138622607Y-87368991D01*
X138561789Y-87168503D01*
X138541254Y-86960000D01*
X138561789Y-86751497D01*
X138622607Y-86551009D01*
X138721369Y-86366236D01*
X138854282Y-86204282D01*
X139016236Y-86071369D01*
X139201009Y-85972607D01*
X139401497Y-85911789D01*
X139557749Y-85896400D01*
X139662251Y-85896400D01*
X139818503Y-85911789D01*
X139818503Y-85911789D01*
G37*
G36*
X142358503Y-85911789D02*
X142558991Y-85972607D01*
X142743764Y-86071369D01*
X142905718Y-86204282D01*
X143038631Y-86366236D01*
X143137393Y-86551009D01*
X143198211Y-86751497D01*
X143218746Y-86960000D01*
X143198211Y-87168503D01*
X143137393Y-87368991D01*
X143038631Y-87553764D01*
X142905718Y-87715718D01*
X142743764Y-87848631D01*
X142558991Y-87947393D01*
X142358503Y-88008211D01*
X142202251Y-88023600D01*
X142097749Y-88023600D01*
X141941497Y-88008211D01*
X141741009Y-87947393D01*
X141556236Y-87848631D01*
X141394282Y-87715718D01*
X141261369Y-87553764D01*
X141162607Y-87368991D01*
X141101789Y-87168503D01*
X141081254Y-86960000D01*
X141101789Y-86751497D01*
X141162607Y-86551009D01*
X141261369Y-86366236D01*
X141394282Y-86204282D01*
X141556236Y-86071369D01*
X141741009Y-85972607D01*
X141941497Y-85911789D01*
X142097749Y-85896400D01*
X142202251Y-85896400D01*
X142358503Y-85911789D01*
X142358503Y-85911789D01*
G37*
G36*
X144898503Y-85911789D02*
X145098991Y-85972607D01*
X145283764Y-86071369D01*
X145445718Y-86204282D01*
X145578631Y-86366236D01*
X145677393Y-86551009D01*
X145738211Y-86751497D01*
X145758746Y-86960000D01*
X145738211Y-87168503D01*
X145677393Y-87368991D01*
X145578631Y-87553764D01*
X145445718Y-87715718D01*
X145283764Y-87848631D01*
X145098991Y-87947393D01*
X144898503Y-88008211D01*
X144742251Y-88023600D01*
X144637749Y-88023600D01*
X144481497Y-88008211D01*
X144281009Y-87947393D01*
X144096236Y-87848631D01*
X143934282Y-87715718D01*
X143801369Y-87553764D01*
X143702607Y-87368991D01*
X143641789Y-87168503D01*
X143621254Y-86960000D01*
X143641789Y-86751497D01*
X143702607Y-86551009D01*
X143801369Y-86366236D01*
X143934282Y-86204282D01*
X144096236Y-86071369D01*
X144281009Y-85972607D01*
X144481497Y-85911789D01*
X144637749Y-85896400D01*
X144742251Y-85896400D01*
X144898503Y-85911789D01*
X144898503Y-85911789D01*
G37*
G36*
X129658503Y-85911789D02*
X129858991Y-85972607D01*
X130043764Y-86071369D01*
X130205718Y-86204282D01*
X130338631Y-86366236D01*
X130437393Y-86551009D01*
X130498211Y-86751497D01*
X130518746Y-86960000D01*
X130498211Y-87168503D01*
X130437393Y-87368991D01*
X130338631Y-87553764D01*
X130205718Y-87715718D01*
X130043764Y-87848631D01*
X129858991Y-87947393D01*
X129658503Y-88008211D01*
X129502251Y-88023600D01*
X129397749Y-88023600D01*
X129241497Y-88008211D01*
X129041009Y-87947393D01*
X128856236Y-87848631D01*
X128694282Y-87715718D01*
X128561369Y-87553764D01*
X128462607Y-87368991D01*
X128401789Y-87168503D01*
X128381254Y-86960000D01*
X128401789Y-86751497D01*
X128462607Y-86551009D01*
X128561369Y-86366236D01*
X128694282Y-86204282D01*
X128856236Y-86071369D01*
X129041009Y-85972607D01*
X129241497Y-85911789D01*
X129397749Y-85896400D01*
X129502251Y-85896400D01*
X129658503Y-85911789D01*
X129658503Y-85911789D01*
G37*
G36*
X155058503Y-85911789D02*
X155258991Y-85972607D01*
X155443764Y-86071369D01*
X155605718Y-86204282D01*
X155738631Y-86366236D01*
X155837393Y-86551009D01*
X155898211Y-86751497D01*
X155918746Y-86960000D01*
X155898211Y-87168503D01*
X155837393Y-87368991D01*
X155738631Y-87553764D01*
X155605718Y-87715718D01*
X155443764Y-87848631D01*
X155258991Y-87947393D01*
X155058503Y-88008211D01*
X154902251Y-88023600D01*
X154797749Y-88023600D01*
X154641497Y-88008211D01*
X154441009Y-87947393D01*
X154256236Y-87848631D01*
X154094282Y-87715718D01*
X153961369Y-87553764D01*
X153862607Y-87368991D01*
X153801789Y-87168503D01*
X153781254Y-86960000D01*
X153801789Y-86751497D01*
X153862607Y-86551009D01*
X153961369Y-86366236D01*
X154094282Y-86204282D01*
X154256236Y-86071369D01*
X154441009Y-85972607D01*
X154641497Y-85911789D01*
X154797749Y-85896400D01*
X154902251Y-85896400D01*
X155058503Y-85911789D01*
X155058503Y-85911789D01*
G37*
G36*
X149978503Y-85911789D02*
X150178991Y-85972607D01*
X150363764Y-86071369D01*
X150525718Y-86204282D01*
X150658631Y-86366236D01*
X150757393Y-86551009D01*
X150818211Y-86751497D01*
X150838746Y-86960000D01*
X150818211Y-87168503D01*
X150757393Y-87368991D01*
X150658631Y-87553764D01*
X150525718Y-87715718D01*
X150363764Y-87848631D01*
X150178991Y-87947393D01*
X149978503Y-88008211D01*
X149822251Y-88023600D01*
X149717749Y-88023600D01*
X149561497Y-88008211D01*
X149361009Y-87947393D01*
X149176236Y-87848631D01*
X149014282Y-87715718D01*
X148881369Y-87553764D01*
X148782607Y-87368991D01*
X148721789Y-87168503D01*
X148701254Y-86960000D01*
X148721789Y-86751497D01*
X148782607Y-86551009D01*
X148881369Y-86366236D01*
X149014282Y-86204282D01*
X149176236Y-86071369D01*
X149361009Y-85972607D01*
X149561497Y-85911789D01*
X149717749Y-85896400D01*
X149822251Y-85896400D01*
X149978503Y-85911789D01*
X149978503Y-85911789D01*
G37*
G36*
X147438503Y-85911789D02*
X147638991Y-85972607D01*
X147823764Y-86071369D01*
X147985718Y-86204282D01*
X148118631Y-86366236D01*
X148217393Y-86551009D01*
X148278211Y-86751497D01*
X148298746Y-86960000D01*
X148278211Y-87168503D01*
X148217393Y-87368991D01*
X148118631Y-87553764D01*
X147985718Y-87715718D01*
X147823764Y-87848631D01*
X147638991Y-87947393D01*
X147438503Y-88008211D01*
X147282251Y-88023600D01*
X147177749Y-88023600D01*
X147021497Y-88008211D01*
X146821009Y-87947393D01*
X146636236Y-87848631D01*
X146474282Y-87715718D01*
X146341369Y-87553764D01*
X146242607Y-87368991D01*
X146181789Y-87168503D01*
X146161254Y-86960000D01*
X146181789Y-86751497D01*
X146242607Y-86551009D01*
X146341369Y-86366236D01*
X146474282Y-86204282D01*
X146636236Y-86071369D01*
X146821009Y-85972607D01*
X147021497Y-85911789D01*
X147177749Y-85896400D01*
X147282251Y-85896400D01*
X147438503Y-85911789D01*
X147438503Y-85911789D01*
G37*
G36*
X157598503Y-85911789D02*
X157798991Y-85972607D01*
X157983764Y-86071369D01*
X158145718Y-86204282D01*
X158278631Y-86366236D01*
X158377393Y-86551009D01*
X158438211Y-86751497D01*
X158458746Y-86960000D01*
X158438211Y-87168503D01*
X158377393Y-87368991D01*
X158278631Y-87553764D01*
X158145718Y-87715718D01*
X157983764Y-87848631D01*
X157798991Y-87947393D01*
X157598503Y-88008211D01*
X157442251Y-88023600D01*
X157337749Y-88023600D01*
X157181497Y-88008211D01*
X156981009Y-87947393D01*
X156796236Y-87848631D01*
X156634282Y-87715718D01*
X156501369Y-87553764D01*
X156402607Y-87368991D01*
X156341789Y-87168503D01*
X156321254Y-86960000D01*
X156341789Y-86751497D01*
X156402607Y-86551009D01*
X156501369Y-86366236D01*
X156634282Y-86204282D01*
X156796236Y-86071369D01*
X156981009Y-85972607D01*
X157181497Y-85911789D01*
X157337749Y-85896400D01*
X157442251Y-85896400D01*
X157598503Y-85911789D01*
X157598503Y-85911789D01*
G37*
G36*
X160138503Y-85911789D02*
X160338991Y-85972607D01*
X160523764Y-86071369D01*
X160685718Y-86204282D01*
X160818631Y-86366236D01*
X160917393Y-86551009D01*
X160978211Y-86751497D01*
X160998746Y-86960000D01*
X160978211Y-87168503D01*
X160917393Y-87368991D01*
X160818631Y-87553764D01*
X160685718Y-87715718D01*
X160523764Y-87848631D01*
X160338991Y-87947393D01*
X160138503Y-88008211D01*
X159982251Y-88023600D01*
X159877749Y-88023600D01*
X159721497Y-88008211D01*
X159521009Y-87947393D01*
X159336236Y-87848631D01*
X159174282Y-87715718D01*
X159041369Y-87553764D01*
X158942607Y-87368991D01*
X158881789Y-87168503D01*
X158861254Y-86960000D01*
X158881789Y-86751497D01*
X158942607Y-86551009D01*
X159041369Y-86366236D01*
X159174282Y-86204282D01*
X159336236Y-86071369D01*
X159521009Y-85972607D01*
X159721497Y-85911789D01*
X159877749Y-85896400D01*
X159982251Y-85896400D01*
X160138503Y-85911789D01*
X160138503Y-85911789D01*
G37*
G36*
X89387224Y-85185128D02*
X89519175Y-85225155D01*
X89640781Y-85290155D01*
X89747370Y-85377630D01*
X89834845Y-85484219D01*
X89899845Y-85605825D01*
X89939872Y-85737776D01*
X89950000Y-85840610D01*
X89950000Y-86459390D01*
X89939872Y-86562224D01*
X89899845Y-86694175D01*
X89834845Y-86815781D01*
X89747369Y-86922370D01*
X89640780Y-87009845D01*
X89519174Y-87074845D01*
X89387223Y-87114872D01*
X89250000Y-87128387D01*
X89112776Y-87114872D01*
X88980825Y-87074845D01*
X88859219Y-87009845D01*
X88752630Y-86922369D01*
X88665155Y-86815780D01*
X88600155Y-86694174D01*
X88560128Y-86562223D01*
X88550000Y-86459389D01*
X88550000Y-85840610D01*
X88560128Y-85737776D01*
X88600155Y-85605825D01*
X88665155Y-85484219D01*
X88752631Y-85377630D01*
X88859220Y-85290155D01*
X88980826Y-85225155D01*
X89112777Y-85185128D01*
X89250000Y-85171613D01*
X89387224Y-85185128D01*
X89387224Y-85185128D01*
G37*
G36*
X82387224Y-85185128D02*
X82519175Y-85225155D01*
X82640781Y-85290155D01*
X82747370Y-85377630D01*
X82834845Y-85484219D01*
X82899845Y-85605825D01*
X82939872Y-85737776D01*
X82950000Y-85840610D01*
X82950000Y-86459390D01*
X82939872Y-86562224D01*
X82899845Y-86694175D01*
X82834845Y-86815781D01*
X82747369Y-86922370D01*
X82640780Y-87009845D01*
X82519174Y-87074845D01*
X82387223Y-87114872D01*
X82250000Y-87128387D01*
X82112776Y-87114872D01*
X81980825Y-87074845D01*
X81859219Y-87009845D01*
X81752630Y-86922369D01*
X81665155Y-86815780D01*
X81600155Y-86694174D01*
X81560128Y-86562223D01*
X81550000Y-86459389D01*
X81550000Y-85840610D01*
X81560128Y-85737776D01*
X81600155Y-85605825D01*
X81665155Y-85484219D01*
X81752631Y-85377630D01*
X81859220Y-85290155D01*
X81980826Y-85225155D01*
X82112777Y-85185128D01*
X82250000Y-85171613D01*
X82387224Y-85185128D01*
X82387224Y-85185128D01*
G37*
G36*
X98637224Y-85185128D02*
X98769175Y-85225155D01*
X98890781Y-85290155D01*
X98997370Y-85377630D01*
X99084845Y-85484219D01*
X99149845Y-85605825D01*
X99189872Y-85737776D01*
X99200000Y-85840610D01*
X99200000Y-86459390D01*
X99189872Y-86562224D01*
X99149845Y-86694175D01*
X99084845Y-86815781D01*
X98997369Y-86922370D01*
X98890780Y-87009845D01*
X98769174Y-87074845D01*
X98637223Y-87114872D01*
X98500000Y-87128387D01*
X98362776Y-87114872D01*
X98230825Y-87074845D01*
X98109219Y-87009845D01*
X98002630Y-86922369D01*
X97915155Y-86815780D01*
X97850155Y-86694174D01*
X97810128Y-86562223D01*
X97800000Y-86459389D01*
X97800000Y-85840610D01*
X97810128Y-85737776D01*
X97850155Y-85605825D01*
X97915155Y-85484219D01*
X98002631Y-85377630D01*
X98109220Y-85290155D01*
X98230826Y-85225155D01*
X98362777Y-85185128D01*
X98500000Y-85171613D01*
X98637224Y-85185128D01*
X98637224Y-85185128D01*
G37*
G36*
X105637224Y-85185128D02*
X105769175Y-85225155D01*
X105890781Y-85290155D01*
X105997370Y-85377630D01*
X106084845Y-85484219D01*
X106149845Y-85605825D01*
X106189872Y-85737776D01*
X106200000Y-85840610D01*
X106200000Y-86459390D01*
X106189872Y-86562224D01*
X106149845Y-86694175D01*
X106084845Y-86815781D01*
X105997369Y-86922370D01*
X105890780Y-87009845D01*
X105769174Y-87074845D01*
X105637223Y-87114872D01*
X105500000Y-87128387D01*
X105362776Y-87114872D01*
X105230825Y-87074845D01*
X105109219Y-87009845D01*
X105002630Y-86922369D01*
X104915155Y-86815780D01*
X104850155Y-86694174D01*
X104810128Y-86562223D01*
X104800000Y-86459389D01*
X104800000Y-85840610D01*
X104810128Y-85737776D01*
X104850155Y-85605825D01*
X104915155Y-85484219D01*
X105002631Y-85377630D01*
X105109220Y-85290155D01*
X105230826Y-85225155D01*
X105362777Y-85185128D01*
X105500000Y-85171613D01*
X105637224Y-85185128D01*
X105637224Y-85185128D01*
G37*
M02*
