G04 #@! TF.GenerationSoftware,KiCad,Pcbnew,5.0.2-bee76a0~70~ubuntu16.04.1*
G04 #@! TF.CreationDate,2018-12-12T21:45:08+05:30*
G04 #@! TF.ProjectId,sanjaya,73616e6a-6179-4612-9e6b-696361645f70,rev?*
G04 #@! TF.SameCoordinates,Original*
G04 #@! TF.FileFunction,Soldermask,Top*
G04 #@! TF.FilePolarity,Negative*
%FSLAX46Y46*%
G04 Gerber Fmt 4.6, Leading zero omitted, Abs format (unit mm)*
G04 Created by KiCad (PCBNEW 5.0.2-bee76a0~70~ubuntu16.04.1) date Wed Dec 12 21:45:08 2018*
%MOMM*%
%LPD*%
G01*
G04 APERTURE LIST*
%ADD10C,0.100000*%
G04 APERTURE END LIST*
D10*
G36*
X78896318Y-126554411D02*
X78968767Y-126568822D01*
X78991740Y-126578338D01*
X79105257Y-126625358D01*
X79228100Y-126707439D01*
X79332561Y-126811900D01*
X79414642Y-126934743D01*
X79471178Y-127071234D01*
X79500000Y-127216130D01*
X79500000Y-127363870D01*
X79471178Y-127508766D01*
X79414642Y-127645257D01*
X79332561Y-127768100D01*
X79228100Y-127872561D01*
X79105257Y-127954642D01*
X79025303Y-127987760D01*
X78968767Y-128011178D01*
X78896318Y-128025589D01*
X78823870Y-128040000D01*
X78676130Y-128040000D01*
X78603682Y-128025589D01*
X78531233Y-128011178D01*
X78474697Y-127987760D01*
X78394743Y-127954642D01*
X78271900Y-127872561D01*
X78167439Y-127768100D01*
X78085358Y-127645257D01*
X78028822Y-127508766D01*
X78000000Y-127363870D01*
X78000000Y-127216130D01*
X78028822Y-127071234D01*
X78085358Y-126934743D01*
X78167439Y-126811900D01*
X78271900Y-126707439D01*
X78394743Y-126625358D01*
X78508260Y-126578338D01*
X78531233Y-126568822D01*
X78603682Y-126554411D01*
X78676130Y-126540000D01*
X78823870Y-126540000D01*
X78896318Y-126554411D01*
X78896318Y-126554411D01*
G37*
G36*
X107436318Y-126554411D02*
X107508767Y-126568822D01*
X107531740Y-126578338D01*
X107645257Y-126625358D01*
X107768100Y-126707439D01*
X107872561Y-126811900D01*
X107954642Y-126934743D01*
X108011178Y-127071234D01*
X108040000Y-127216130D01*
X108040000Y-127363870D01*
X108011178Y-127508766D01*
X107954642Y-127645257D01*
X107872561Y-127768100D01*
X107768100Y-127872561D01*
X107645257Y-127954642D01*
X107565303Y-127987760D01*
X107508767Y-128011178D01*
X107436318Y-128025589D01*
X107363870Y-128040000D01*
X107216130Y-128040000D01*
X107143682Y-128025589D01*
X107071233Y-128011178D01*
X107014697Y-127987760D01*
X106934743Y-127954642D01*
X106811900Y-127872561D01*
X106707439Y-127768100D01*
X106625358Y-127645257D01*
X106568822Y-127508766D01*
X106540000Y-127363870D01*
X106540000Y-127216130D01*
X106568822Y-127071234D01*
X106625358Y-126934743D01*
X106707439Y-126811900D01*
X106811900Y-126707439D01*
X106934743Y-126625358D01*
X107048260Y-126578338D01*
X107071233Y-126568822D01*
X107143682Y-126554411D01*
X107216130Y-126540000D01*
X107363870Y-126540000D01*
X107436318Y-126554411D01*
X107436318Y-126554411D01*
G37*
G36*
X91476318Y-126554411D02*
X91548767Y-126568822D01*
X91571740Y-126578338D01*
X91685257Y-126625358D01*
X91808100Y-126707439D01*
X91912561Y-126811900D01*
X91994642Y-126934743D01*
X92051178Y-127071234D01*
X92080000Y-127216130D01*
X92080000Y-127363870D01*
X92051178Y-127508766D01*
X91994642Y-127645257D01*
X91912561Y-127768100D01*
X91808100Y-127872561D01*
X91685257Y-127954642D01*
X91605303Y-127987760D01*
X91548767Y-128011178D01*
X91476318Y-128025589D01*
X91403870Y-128040000D01*
X91256130Y-128040000D01*
X91183682Y-128025589D01*
X91111233Y-128011178D01*
X91054697Y-127987760D01*
X90974743Y-127954642D01*
X90851900Y-127872561D01*
X90747439Y-127768100D01*
X90665358Y-127645257D01*
X90608822Y-127508766D01*
X90580000Y-127363870D01*
X90580000Y-127216130D01*
X90608822Y-127071234D01*
X90665358Y-126934743D01*
X90747439Y-126811900D01*
X90851900Y-126707439D01*
X90974743Y-126625358D01*
X91088260Y-126578338D01*
X91111233Y-126568822D01*
X91183682Y-126554411D01*
X91256130Y-126540000D01*
X91403870Y-126540000D01*
X91476318Y-126554411D01*
X91476318Y-126554411D01*
G37*
G36*
X100726318Y-126554411D02*
X100798767Y-126568822D01*
X100821740Y-126578338D01*
X100935257Y-126625358D01*
X101058100Y-126707439D01*
X101162561Y-126811900D01*
X101244642Y-126934743D01*
X101301178Y-127071234D01*
X101330000Y-127216130D01*
X101330000Y-127363870D01*
X101301178Y-127508766D01*
X101244642Y-127645257D01*
X101162561Y-127768100D01*
X101058100Y-127872561D01*
X100935257Y-127954642D01*
X100855303Y-127987760D01*
X100798767Y-128011178D01*
X100726318Y-128025589D01*
X100653870Y-128040000D01*
X100506130Y-128040000D01*
X100433682Y-128025589D01*
X100361233Y-128011178D01*
X100304697Y-127987760D01*
X100224743Y-127954642D01*
X100101900Y-127872561D01*
X99997439Y-127768100D01*
X99915358Y-127645257D01*
X99858822Y-127508766D01*
X99830000Y-127363870D01*
X99830000Y-127216130D01*
X99858822Y-127071234D01*
X99915358Y-126934743D01*
X99997439Y-126811900D01*
X100101900Y-126707439D01*
X100224743Y-126625358D01*
X100338260Y-126578338D01*
X100361233Y-126568822D01*
X100433682Y-126554411D01*
X100506130Y-126540000D01*
X100653870Y-126540000D01*
X100726318Y-126554411D01*
X100726318Y-126554411D01*
G37*
G36*
X98186318Y-126554411D02*
X98258767Y-126568822D01*
X98281740Y-126578338D01*
X98395257Y-126625358D01*
X98518100Y-126707439D01*
X98622561Y-126811900D01*
X98704642Y-126934743D01*
X98761178Y-127071234D01*
X98790000Y-127216130D01*
X98790000Y-127363870D01*
X98761178Y-127508766D01*
X98704642Y-127645257D01*
X98622561Y-127768100D01*
X98518100Y-127872561D01*
X98395257Y-127954642D01*
X98315303Y-127987760D01*
X98258767Y-128011178D01*
X98186318Y-128025589D01*
X98113870Y-128040000D01*
X97966130Y-128040000D01*
X97893682Y-128025589D01*
X97821233Y-128011178D01*
X97764697Y-127987760D01*
X97684743Y-127954642D01*
X97561900Y-127872561D01*
X97457439Y-127768100D01*
X97375358Y-127645257D01*
X97318822Y-127508766D01*
X97290000Y-127363870D01*
X97290000Y-127216130D01*
X97318822Y-127071234D01*
X97375358Y-126934743D01*
X97457439Y-126811900D01*
X97561900Y-126707439D01*
X97684743Y-126625358D01*
X97798260Y-126578338D01*
X97821233Y-126568822D01*
X97893682Y-126554411D01*
X97966130Y-126540000D01*
X98113870Y-126540000D01*
X98186318Y-126554411D01*
X98186318Y-126554411D01*
G37*
G36*
X95646318Y-126554411D02*
X95718767Y-126568822D01*
X95741740Y-126578338D01*
X95855257Y-126625358D01*
X95978100Y-126707439D01*
X96082561Y-126811900D01*
X96164642Y-126934743D01*
X96221178Y-127071234D01*
X96250000Y-127216130D01*
X96250000Y-127363870D01*
X96221178Y-127508766D01*
X96164642Y-127645257D01*
X96082561Y-127768100D01*
X95978100Y-127872561D01*
X95855257Y-127954642D01*
X95775303Y-127987760D01*
X95718767Y-128011178D01*
X95646318Y-128025589D01*
X95573870Y-128040000D01*
X95426130Y-128040000D01*
X95353682Y-128025589D01*
X95281233Y-128011178D01*
X95224697Y-127987760D01*
X95144743Y-127954642D01*
X95021900Y-127872561D01*
X94917439Y-127768100D01*
X94835358Y-127645257D01*
X94778822Y-127508766D01*
X94750000Y-127363870D01*
X94750000Y-127216130D01*
X94778822Y-127071234D01*
X94835358Y-126934743D01*
X94917439Y-126811900D01*
X95021900Y-126707439D01*
X95144743Y-126625358D01*
X95258260Y-126578338D01*
X95281233Y-126568822D01*
X95353682Y-126554411D01*
X95426130Y-126540000D01*
X95573870Y-126540000D01*
X95646318Y-126554411D01*
X95646318Y-126554411D01*
G37*
G36*
X123186318Y-126554411D02*
X123258767Y-126568822D01*
X123281740Y-126578338D01*
X123395257Y-126625358D01*
X123518100Y-126707439D01*
X123622561Y-126811900D01*
X123704642Y-126934743D01*
X123761178Y-127071234D01*
X123790000Y-127216130D01*
X123790000Y-127363870D01*
X123761178Y-127508766D01*
X123704642Y-127645257D01*
X123622561Y-127768100D01*
X123518100Y-127872561D01*
X123395257Y-127954642D01*
X123315303Y-127987760D01*
X123258767Y-128011178D01*
X123186318Y-128025589D01*
X123113870Y-128040000D01*
X122966130Y-128040000D01*
X122893682Y-128025589D01*
X122821233Y-128011178D01*
X122764697Y-127987760D01*
X122684743Y-127954642D01*
X122561900Y-127872561D01*
X122457439Y-127768100D01*
X122375358Y-127645257D01*
X122318822Y-127508766D01*
X122290000Y-127363870D01*
X122290000Y-127216130D01*
X122318822Y-127071234D01*
X122375358Y-126934743D01*
X122457439Y-126811900D01*
X122561900Y-126707439D01*
X122684743Y-126625358D01*
X122798260Y-126578338D01*
X122821233Y-126568822D01*
X122893682Y-126554411D01*
X122966130Y-126540000D01*
X123113870Y-126540000D01*
X123186318Y-126554411D01*
X123186318Y-126554411D01*
G37*
G36*
X120646318Y-126554411D02*
X120718767Y-126568822D01*
X120741740Y-126578338D01*
X120855257Y-126625358D01*
X120978100Y-126707439D01*
X121082561Y-126811900D01*
X121164642Y-126934743D01*
X121221178Y-127071234D01*
X121250000Y-127216130D01*
X121250000Y-127363870D01*
X121221178Y-127508766D01*
X121164642Y-127645257D01*
X121082561Y-127768100D01*
X120978100Y-127872561D01*
X120855257Y-127954642D01*
X120775303Y-127987760D01*
X120718767Y-128011178D01*
X120646318Y-128025589D01*
X120573870Y-128040000D01*
X120426130Y-128040000D01*
X120353682Y-128025589D01*
X120281233Y-128011178D01*
X120224697Y-127987760D01*
X120144743Y-127954642D01*
X120021900Y-127872561D01*
X119917439Y-127768100D01*
X119835358Y-127645257D01*
X119778822Y-127508766D01*
X119750000Y-127363870D01*
X119750000Y-127216130D01*
X119778822Y-127071234D01*
X119835358Y-126934743D01*
X119917439Y-126811900D01*
X120021900Y-126707439D01*
X120144743Y-126625358D01*
X120258260Y-126578338D01*
X120281233Y-126568822D01*
X120353682Y-126554411D01*
X120426130Y-126540000D01*
X120573870Y-126540000D01*
X120646318Y-126554411D01*
X120646318Y-126554411D01*
G37*
G36*
X127146318Y-126554411D02*
X127218767Y-126568822D01*
X127241740Y-126578338D01*
X127355257Y-126625358D01*
X127478100Y-126707439D01*
X127582561Y-126811900D01*
X127664642Y-126934743D01*
X127721178Y-127071234D01*
X127750000Y-127216130D01*
X127750000Y-127363870D01*
X127721178Y-127508766D01*
X127664642Y-127645257D01*
X127582561Y-127768100D01*
X127478100Y-127872561D01*
X127355257Y-127954642D01*
X127275303Y-127987760D01*
X127218767Y-128011178D01*
X127146318Y-128025589D01*
X127073870Y-128040000D01*
X126926130Y-128040000D01*
X126853682Y-128025589D01*
X126781233Y-128011178D01*
X126724697Y-127987760D01*
X126644743Y-127954642D01*
X126521900Y-127872561D01*
X126417439Y-127768100D01*
X126335358Y-127645257D01*
X126278822Y-127508766D01*
X126250000Y-127363870D01*
X126250000Y-127216130D01*
X126278822Y-127071234D01*
X126335358Y-126934743D01*
X126417439Y-126811900D01*
X126521900Y-126707439D01*
X126644743Y-126625358D01*
X126758260Y-126578338D01*
X126781233Y-126568822D01*
X126853682Y-126554411D01*
X126926130Y-126540000D01*
X127073870Y-126540000D01*
X127146318Y-126554411D01*
X127146318Y-126554411D01*
G37*
G36*
X111396318Y-126554411D02*
X111468767Y-126568822D01*
X111491740Y-126578338D01*
X111605257Y-126625358D01*
X111728100Y-126707439D01*
X111832561Y-126811900D01*
X111914642Y-126934743D01*
X111971178Y-127071234D01*
X112000000Y-127216130D01*
X112000000Y-127363870D01*
X111971178Y-127508766D01*
X111914642Y-127645257D01*
X111832561Y-127768100D01*
X111728100Y-127872561D01*
X111605257Y-127954642D01*
X111525303Y-127987760D01*
X111468767Y-128011178D01*
X111396318Y-128025589D01*
X111323870Y-128040000D01*
X111176130Y-128040000D01*
X111103682Y-128025589D01*
X111031233Y-128011178D01*
X110974697Y-127987760D01*
X110894743Y-127954642D01*
X110771900Y-127872561D01*
X110667439Y-127768100D01*
X110585358Y-127645257D01*
X110528822Y-127508766D01*
X110500000Y-127363870D01*
X110500000Y-127216130D01*
X110528822Y-127071234D01*
X110585358Y-126934743D01*
X110667439Y-126811900D01*
X110771900Y-126707439D01*
X110894743Y-126625358D01*
X111008260Y-126578338D01*
X111031233Y-126568822D01*
X111103682Y-126554411D01*
X111176130Y-126540000D01*
X111323870Y-126540000D01*
X111396318Y-126554411D01*
X111396318Y-126554411D01*
G37*
G36*
X113936318Y-126554411D02*
X114008767Y-126568822D01*
X114031740Y-126578338D01*
X114145257Y-126625358D01*
X114268100Y-126707439D01*
X114372561Y-126811900D01*
X114454642Y-126934743D01*
X114511178Y-127071234D01*
X114540000Y-127216130D01*
X114540000Y-127363870D01*
X114511178Y-127508766D01*
X114454642Y-127645257D01*
X114372561Y-127768100D01*
X114268100Y-127872561D01*
X114145257Y-127954642D01*
X114065303Y-127987760D01*
X114008767Y-128011178D01*
X113936318Y-128025589D01*
X113863870Y-128040000D01*
X113716130Y-128040000D01*
X113643682Y-128025589D01*
X113571233Y-128011178D01*
X113514697Y-127987760D01*
X113434743Y-127954642D01*
X113311900Y-127872561D01*
X113207439Y-127768100D01*
X113125358Y-127645257D01*
X113068822Y-127508766D01*
X113040000Y-127363870D01*
X113040000Y-127216130D01*
X113068822Y-127071234D01*
X113125358Y-126934743D01*
X113207439Y-126811900D01*
X113311900Y-126707439D01*
X113434743Y-126625358D01*
X113548260Y-126578338D01*
X113571233Y-126568822D01*
X113643682Y-126554411D01*
X113716130Y-126540000D01*
X113863870Y-126540000D01*
X113936318Y-126554411D01*
X113936318Y-126554411D01*
G37*
G36*
X116476318Y-126554411D02*
X116548767Y-126568822D01*
X116571740Y-126578338D01*
X116685257Y-126625358D01*
X116808100Y-126707439D01*
X116912561Y-126811900D01*
X116994642Y-126934743D01*
X117051178Y-127071234D01*
X117080000Y-127216130D01*
X117080000Y-127363870D01*
X117051178Y-127508766D01*
X116994642Y-127645257D01*
X116912561Y-127768100D01*
X116808100Y-127872561D01*
X116685257Y-127954642D01*
X116605303Y-127987760D01*
X116548767Y-128011178D01*
X116476318Y-128025589D01*
X116403870Y-128040000D01*
X116256130Y-128040000D01*
X116183682Y-128025589D01*
X116111233Y-128011178D01*
X116054697Y-127987760D01*
X115974743Y-127954642D01*
X115851900Y-127872561D01*
X115747439Y-127768100D01*
X115665358Y-127645257D01*
X115608822Y-127508766D01*
X115580000Y-127363870D01*
X115580000Y-127216130D01*
X115608822Y-127071234D01*
X115665358Y-126934743D01*
X115747439Y-126811900D01*
X115851900Y-126707439D01*
X115974743Y-126625358D01*
X116088260Y-126578338D01*
X116111233Y-126568822D01*
X116183682Y-126554411D01*
X116256130Y-126540000D01*
X116403870Y-126540000D01*
X116476318Y-126554411D01*
X116476318Y-126554411D01*
G37*
G36*
X88936318Y-126554411D02*
X89008767Y-126568822D01*
X89031740Y-126578338D01*
X89145257Y-126625358D01*
X89268100Y-126707439D01*
X89372561Y-126811900D01*
X89454642Y-126934743D01*
X89511178Y-127071234D01*
X89540000Y-127216130D01*
X89540000Y-127363870D01*
X89511178Y-127508766D01*
X89454642Y-127645257D01*
X89372561Y-127768100D01*
X89268100Y-127872561D01*
X89145257Y-127954642D01*
X89065303Y-127987760D01*
X89008767Y-128011178D01*
X88936318Y-128025589D01*
X88863870Y-128040000D01*
X88716130Y-128040000D01*
X88643682Y-128025589D01*
X88571233Y-128011178D01*
X88514697Y-127987760D01*
X88434743Y-127954642D01*
X88311900Y-127872561D01*
X88207439Y-127768100D01*
X88125358Y-127645257D01*
X88068822Y-127508766D01*
X88040000Y-127363870D01*
X88040000Y-127216130D01*
X88068822Y-127071234D01*
X88125358Y-126934743D01*
X88207439Y-126811900D01*
X88311900Y-126707439D01*
X88434743Y-126625358D01*
X88548260Y-126578338D01*
X88571233Y-126568822D01*
X88643682Y-126554411D01*
X88716130Y-126540000D01*
X88863870Y-126540000D01*
X88936318Y-126554411D01*
X88936318Y-126554411D01*
G37*
G36*
X86396318Y-126554411D02*
X86468767Y-126568822D01*
X86491740Y-126578338D01*
X86605257Y-126625358D01*
X86728100Y-126707439D01*
X86832561Y-126811900D01*
X86914642Y-126934743D01*
X86971178Y-127071234D01*
X87000000Y-127216130D01*
X87000000Y-127363870D01*
X86971178Y-127508766D01*
X86914642Y-127645257D01*
X86832561Y-127768100D01*
X86728100Y-127872561D01*
X86605257Y-127954642D01*
X86525303Y-127987760D01*
X86468767Y-128011178D01*
X86396318Y-128025589D01*
X86323870Y-128040000D01*
X86176130Y-128040000D01*
X86103682Y-128025589D01*
X86031233Y-128011178D01*
X85974697Y-127987760D01*
X85894743Y-127954642D01*
X85771900Y-127872561D01*
X85667439Y-127768100D01*
X85585358Y-127645257D01*
X85528822Y-127508766D01*
X85500000Y-127363870D01*
X85500000Y-127216130D01*
X85528822Y-127071234D01*
X85585358Y-126934743D01*
X85667439Y-126811900D01*
X85771900Y-126707439D01*
X85894743Y-126625358D01*
X86008260Y-126578338D01*
X86031233Y-126568822D01*
X86103682Y-126554411D01*
X86176130Y-126540000D01*
X86323870Y-126540000D01*
X86396318Y-126554411D01*
X86396318Y-126554411D01*
G37*
G36*
X129686318Y-126554411D02*
X129758767Y-126568822D01*
X129781740Y-126578338D01*
X129895257Y-126625358D01*
X130018100Y-126707439D01*
X130122561Y-126811900D01*
X130204642Y-126934743D01*
X130261178Y-127071234D01*
X130290000Y-127216130D01*
X130290000Y-127363870D01*
X130261178Y-127508766D01*
X130204642Y-127645257D01*
X130122561Y-127768100D01*
X130018100Y-127872561D01*
X129895257Y-127954642D01*
X129815303Y-127987760D01*
X129758767Y-128011178D01*
X129686318Y-128025589D01*
X129613870Y-128040000D01*
X129466130Y-128040000D01*
X129393682Y-128025589D01*
X129321233Y-128011178D01*
X129264697Y-127987760D01*
X129184743Y-127954642D01*
X129061900Y-127872561D01*
X128957439Y-127768100D01*
X128875358Y-127645257D01*
X128818822Y-127508766D01*
X128790000Y-127363870D01*
X128790000Y-127216130D01*
X128818822Y-127071234D01*
X128875358Y-126934743D01*
X128957439Y-126811900D01*
X129061900Y-126707439D01*
X129184743Y-126625358D01*
X129298260Y-126578338D01*
X129321233Y-126568822D01*
X129393682Y-126554411D01*
X129466130Y-126540000D01*
X129613870Y-126540000D01*
X129686318Y-126554411D01*
X129686318Y-126554411D01*
G37*
G36*
X81436318Y-126554411D02*
X81508767Y-126568822D01*
X81531740Y-126578338D01*
X81645257Y-126625358D01*
X81768100Y-126707439D01*
X81872561Y-126811900D01*
X81954642Y-126934743D01*
X82011178Y-127071234D01*
X82040000Y-127216130D01*
X82040000Y-127363870D01*
X82011178Y-127508766D01*
X81954642Y-127645257D01*
X81872561Y-127768100D01*
X81768100Y-127872561D01*
X81645257Y-127954642D01*
X81565303Y-127987760D01*
X81508767Y-128011178D01*
X81436318Y-128025589D01*
X81363870Y-128040000D01*
X81216130Y-128040000D01*
X81143682Y-128025589D01*
X81071233Y-128011178D01*
X81014697Y-127987760D01*
X80934743Y-127954642D01*
X80811900Y-127872561D01*
X80707439Y-127768100D01*
X80625358Y-127645257D01*
X80568822Y-127508766D01*
X80540000Y-127363870D01*
X80540000Y-127216130D01*
X80568822Y-127071234D01*
X80625358Y-126934743D01*
X80707439Y-126811900D01*
X80811900Y-126707439D01*
X80934743Y-126625358D01*
X81048260Y-126578338D01*
X81071233Y-126568822D01*
X81143682Y-126554411D01*
X81216130Y-126540000D01*
X81363870Y-126540000D01*
X81436318Y-126554411D01*
X81436318Y-126554411D01*
G37*
G36*
X104896318Y-126554411D02*
X104968767Y-126568822D01*
X104991740Y-126578338D01*
X105105257Y-126625358D01*
X105228100Y-126707439D01*
X105332561Y-126811900D01*
X105414642Y-126934743D01*
X105471178Y-127071234D01*
X105500000Y-127216130D01*
X105500000Y-127363870D01*
X105471178Y-127508766D01*
X105414642Y-127645257D01*
X105332561Y-127768100D01*
X105228100Y-127872561D01*
X105105257Y-127954642D01*
X105025303Y-127987760D01*
X104968767Y-128011178D01*
X104896318Y-128025589D01*
X104823870Y-128040000D01*
X104676130Y-128040000D01*
X104603682Y-128025589D01*
X104531233Y-128011178D01*
X104474697Y-127987760D01*
X104394743Y-127954642D01*
X104271900Y-127872561D01*
X104167439Y-127768100D01*
X104085358Y-127645257D01*
X104028822Y-127508766D01*
X104000000Y-127363870D01*
X104000000Y-127216130D01*
X104028822Y-127071234D01*
X104085358Y-126934743D01*
X104167439Y-126811900D01*
X104271900Y-126707439D01*
X104394743Y-126625358D01*
X104508260Y-126578338D01*
X104531233Y-126568822D01*
X104603682Y-126554411D01*
X104676130Y-126540000D01*
X104823870Y-126540000D01*
X104896318Y-126554411D01*
X104896318Y-126554411D01*
G37*
G36*
X170936318Y-126304411D02*
X171008767Y-126318822D01*
X171065303Y-126342240D01*
X171145257Y-126375358D01*
X171268100Y-126457439D01*
X171372561Y-126561900D01*
X171454642Y-126684743D01*
X171511178Y-126821234D01*
X171540000Y-126966130D01*
X171540000Y-127113870D01*
X171511178Y-127258766D01*
X171454642Y-127395257D01*
X171372561Y-127518100D01*
X171268100Y-127622561D01*
X171145257Y-127704642D01*
X171065303Y-127737760D01*
X171008767Y-127761178D01*
X170936318Y-127775589D01*
X170863870Y-127790000D01*
X170716130Y-127790000D01*
X170643682Y-127775589D01*
X170571233Y-127761178D01*
X170514697Y-127737760D01*
X170434743Y-127704642D01*
X170311900Y-127622561D01*
X170207439Y-127518100D01*
X170125358Y-127395257D01*
X170068822Y-127258766D01*
X170040000Y-127113870D01*
X170040000Y-126966130D01*
X170068822Y-126821234D01*
X170125358Y-126684743D01*
X170207439Y-126561900D01*
X170311900Y-126457439D01*
X170434743Y-126375358D01*
X170514697Y-126342240D01*
X170571233Y-126318822D01*
X170643682Y-126304411D01*
X170716130Y-126290000D01*
X170863870Y-126290000D01*
X170936318Y-126304411D01*
X170936318Y-126304411D01*
G37*
G36*
X168396318Y-126304411D02*
X168468767Y-126318822D01*
X168525303Y-126342240D01*
X168605257Y-126375358D01*
X168728100Y-126457439D01*
X168832561Y-126561900D01*
X168914642Y-126684743D01*
X168971178Y-126821234D01*
X169000000Y-126966130D01*
X169000000Y-127113870D01*
X168971178Y-127258766D01*
X168914642Y-127395257D01*
X168832561Y-127518100D01*
X168728100Y-127622561D01*
X168605257Y-127704642D01*
X168525303Y-127737760D01*
X168468767Y-127761178D01*
X168396318Y-127775589D01*
X168323870Y-127790000D01*
X168176130Y-127790000D01*
X168103682Y-127775589D01*
X168031233Y-127761178D01*
X167974697Y-127737760D01*
X167894743Y-127704642D01*
X167771900Y-127622561D01*
X167667439Y-127518100D01*
X167585358Y-127395257D01*
X167528822Y-127258766D01*
X167500000Y-127113870D01*
X167500000Y-126966130D01*
X167528822Y-126821234D01*
X167585358Y-126684743D01*
X167667439Y-126561900D01*
X167771900Y-126457439D01*
X167894743Y-126375358D01*
X167974697Y-126342240D01*
X168031233Y-126318822D01*
X168103682Y-126304411D01*
X168176130Y-126290000D01*
X168323870Y-126290000D01*
X168396318Y-126304411D01*
X168396318Y-126304411D01*
G37*
G36*
X140819628Y-125080493D02*
X140867354Y-125094970D01*
X140911336Y-125118479D01*
X140949885Y-125150115D01*
X140981521Y-125188664D01*
X141005030Y-125232646D01*
X141019507Y-125280372D01*
X141025000Y-125336141D01*
X141025000Y-126463859D01*
X141019507Y-126519628D01*
X141005030Y-126567354D01*
X140981521Y-126611336D01*
X140949885Y-126649885D01*
X140911336Y-126681521D01*
X140867354Y-126705030D01*
X140819628Y-126719507D01*
X140763859Y-126725000D01*
X138236141Y-126725000D01*
X138180372Y-126719507D01*
X138132646Y-126705030D01*
X138088664Y-126681521D01*
X138050115Y-126649885D01*
X138018479Y-126611336D01*
X137994970Y-126567354D01*
X137980493Y-126519628D01*
X137975000Y-126463859D01*
X137975000Y-125336141D01*
X137980493Y-125280372D01*
X137994970Y-125232646D01*
X138018479Y-125188664D01*
X138050115Y-125150115D01*
X138088664Y-125118479D01*
X138132646Y-125094970D01*
X138180372Y-125080493D01*
X138236141Y-125075000D01*
X140763859Y-125075000D01*
X140819628Y-125080493D01*
X140819628Y-125080493D01*
G37*
G36*
X165319628Y-125080493D02*
X165367354Y-125094970D01*
X165411336Y-125118479D01*
X165449885Y-125150115D01*
X165481521Y-125188664D01*
X165505030Y-125232646D01*
X165519507Y-125280372D01*
X165525000Y-125336141D01*
X165525000Y-126463859D01*
X165519507Y-126519628D01*
X165505030Y-126567354D01*
X165481521Y-126611336D01*
X165449885Y-126649885D01*
X165411336Y-126681521D01*
X165367354Y-126705030D01*
X165319628Y-126719507D01*
X165263859Y-126725000D01*
X162736141Y-126725000D01*
X162680372Y-126719507D01*
X162632646Y-126705030D01*
X162588664Y-126681521D01*
X162550115Y-126649885D01*
X162518479Y-126611336D01*
X162494970Y-126567354D01*
X162480493Y-126519628D01*
X162475000Y-126463859D01*
X162475000Y-125336141D01*
X162480493Y-125280372D01*
X162494970Y-125232646D01*
X162518479Y-125188664D01*
X162550115Y-125150115D01*
X162588664Y-125118479D01*
X162632646Y-125094970D01*
X162680372Y-125080493D01*
X162736141Y-125075000D01*
X165263859Y-125075000D01*
X165319628Y-125080493D01*
X165319628Y-125080493D01*
G37*
G36*
X145069628Y-125080493D02*
X145117354Y-125094970D01*
X145161336Y-125118479D01*
X145199885Y-125150115D01*
X145231521Y-125188664D01*
X145255030Y-125232646D01*
X145269507Y-125280372D01*
X145275000Y-125336141D01*
X145275000Y-126463859D01*
X145269507Y-126519628D01*
X145255030Y-126567354D01*
X145231521Y-126611336D01*
X145199885Y-126649885D01*
X145161336Y-126681521D01*
X145117354Y-126705030D01*
X145069628Y-126719507D01*
X145013859Y-126725000D01*
X142486141Y-126725000D01*
X142430372Y-126719507D01*
X142382646Y-126705030D01*
X142338664Y-126681521D01*
X142300115Y-126649885D01*
X142268479Y-126611336D01*
X142244970Y-126567354D01*
X142230493Y-126519628D01*
X142225000Y-126463859D01*
X142225000Y-125336141D01*
X142230493Y-125280372D01*
X142244970Y-125232646D01*
X142268479Y-125188664D01*
X142300115Y-125150115D01*
X142338664Y-125118479D01*
X142382646Y-125094970D01*
X142430372Y-125080493D01*
X142486141Y-125075000D01*
X145013859Y-125075000D01*
X145069628Y-125080493D01*
X145069628Y-125080493D01*
G37*
G36*
X161069628Y-125080493D02*
X161117354Y-125094970D01*
X161161336Y-125118479D01*
X161199885Y-125150115D01*
X161231521Y-125188664D01*
X161255030Y-125232646D01*
X161269507Y-125280372D01*
X161275000Y-125336141D01*
X161275000Y-126463859D01*
X161269507Y-126519628D01*
X161255030Y-126567354D01*
X161231521Y-126611336D01*
X161199885Y-126649885D01*
X161161336Y-126681521D01*
X161117354Y-126705030D01*
X161069628Y-126719507D01*
X161013859Y-126725000D01*
X158486141Y-126725000D01*
X158430372Y-126719507D01*
X158382646Y-126705030D01*
X158338664Y-126681521D01*
X158300115Y-126649885D01*
X158268479Y-126611336D01*
X158244970Y-126567354D01*
X158230493Y-126519628D01*
X158225000Y-126463859D01*
X158225000Y-125336141D01*
X158230493Y-125280372D01*
X158244970Y-125232646D01*
X158268479Y-125188664D01*
X158300115Y-125150115D01*
X158338664Y-125118479D01*
X158382646Y-125094970D01*
X158430372Y-125080493D01*
X158486141Y-125075000D01*
X161013859Y-125075000D01*
X161069628Y-125080493D01*
X161069628Y-125080493D01*
G37*
G36*
X135700000Y-126550000D02*
X133300000Y-126550000D01*
X133300000Y-124450000D01*
X135700000Y-124450000D01*
X135700000Y-126550000D01*
X135700000Y-126550000D01*
G37*
G36*
X112550000Y-123853782D02*
X112552402Y-123878168D01*
X112559515Y-123901617D01*
X112571066Y-123923228D01*
X112586612Y-123942170D01*
X112605554Y-123957716D01*
X112627165Y-123969267D01*
X112650614Y-123976380D01*
X112675000Y-123978782D01*
X112699386Y-123976380D01*
X112722835Y-123969267D01*
X112744446Y-123957716D01*
X112763388Y-123942170D01*
X112778933Y-123923230D01*
X112780226Y-123921295D01*
X112961295Y-123740226D01*
X113174220Y-123597954D01*
X113410804Y-123499958D01*
X113661960Y-123450000D01*
X113918040Y-123450000D01*
X114169196Y-123499958D01*
X114405780Y-123597954D01*
X114618705Y-123740226D01*
X114799774Y-123921295D01*
X114942047Y-124134221D01*
X114944515Y-124140180D01*
X114956066Y-124161791D01*
X114971611Y-124180733D01*
X114990553Y-124196279D01*
X115012163Y-124207830D01*
X115035612Y-124214944D01*
X115059999Y-124217346D01*
X115084385Y-124214944D01*
X115107834Y-124207831D01*
X115129445Y-124196280D01*
X115148387Y-124180735D01*
X115163933Y-124161793D01*
X115175485Y-124140180D01*
X115177953Y-124134221D01*
X115320226Y-123921295D01*
X115501295Y-123740226D01*
X115714220Y-123597954D01*
X115950804Y-123499958D01*
X116201960Y-123450000D01*
X116458040Y-123450000D01*
X116709196Y-123499958D01*
X116945780Y-123597954D01*
X117158705Y-123740226D01*
X117339774Y-123921295D01*
X117482046Y-124134220D01*
X117580042Y-124370804D01*
X117630000Y-124621960D01*
X117630000Y-124878040D01*
X117580042Y-125129196D01*
X117482046Y-125365780D01*
X117339774Y-125578705D01*
X117158705Y-125759774D01*
X116945780Y-125902046D01*
X116709196Y-126000042D01*
X116458040Y-126050000D01*
X116201960Y-126050000D01*
X115950804Y-126000042D01*
X115714220Y-125902046D01*
X115501295Y-125759774D01*
X115320226Y-125578705D01*
X115177953Y-125365779D01*
X115175485Y-125359820D01*
X115163934Y-125338209D01*
X115148389Y-125319267D01*
X115129447Y-125303721D01*
X115107837Y-125292170D01*
X115084388Y-125285056D01*
X115060001Y-125282654D01*
X115035615Y-125285056D01*
X115012166Y-125292169D01*
X114990555Y-125303720D01*
X114971613Y-125319265D01*
X114956067Y-125338207D01*
X114944515Y-125359820D01*
X114942047Y-125365779D01*
X114799774Y-125578705D01*
X114618705Y-125759774D01*
X114405780Y-125902046D01*
X114169196Y-126000042D01*
X113918040Y-126050000D01*
X113661960Y-126050000D01*
X113410804Y-126000042D01*
X113174220Y-125902046D01*
X112961295Y-125759774D01*
X112780226Y-125578705D01*
X112778933Y-125576770D01*
X112763387Y-125557828D01*
X112744445Y-125542283D01*
X112722834Y-125530732D01*
X112699384Y-125523619D01*
X112674998Y-125521218D01*
X112650612Y-125523620D01*
X112627163Y-125530734D01*
X112605552Y-125542285D01*
X112586610Y-125557831D01*
X112571065Y-125576773D01*
X112559514Y-125598384D01*
X112552401Y-125621834D01*
X112550000Y-125646218D01*
X112550000Y-126050000D01*
X109950000Y-126050000D01*
X109950000Y-123450000D01*
X112550000Y-123450000D01*
X112550000Y-123853782D01*
X112550000Y-123853782D01*
G37*
G36*
X80050000Y-123853782D02*
X80052402Y-123878168D01*
X80059515Y-123901617D01*
X80071066Y-123923228D01*
X80086612Y-123942170D01*
X80105554Y-123957716D01*
X80127165Y-123969267D01*
X80150614Y-123976380D01*
X80175000Y-123978782D01*
X80199386Y-123976380D01*
X80222835Y-123969267D01*
X80244446Y-123957716D01*
X80263388Y-123942170D01*
X80278933Y-123923230D01*
X80280226Y-123921295D01*
X80461295Y-123740226D01*
X80674220Y-123597954D01*
X80910804Y-123499958D01*
X81161960Y-123450000D01*
X81418040Y-123450000D01*
X81669196Y-123499958D01*
X81905780Y-123597954D01*
X82118705Y-123740226D01*
X82299774Y-123921295D01*
X82442046Y-124134220D01*
X82540042Y-124370804D01*
X82590000Y-124621960D01*
X82590000Y-124878040D01*
X82540042Y-125129196D01*
X82442046Y-125365780D01*
X82299774Y-125578705D01*
X82118705Y-125759774D01*
X81905780Y-125902046D01*
X81669196Y-126000042D01*
X81418040Y-126050000D01*
X81161960Y-126050000D01*
X80910804Y-126000042D01*
X80674220Y-125902046D01*
X80461295Y-125759774D01*
X80280226Y-125578705D01*
X80278933Y-125576770D01*
X80263387Y-125557828D01*
X80244445Y-125542283D01*
X80222834Y-125530732D01*
X80199384Y-125523619D01*
X80174998Y-125521218D01*
X80150612Y-125523620D01*
X80127163Y-125530734D01*
X80105552Y-125542285D01*
X80086610Y-125557831D01*
X80071065Y-125576773D01*
X80059514Y-125598384D01*
X80052401Y-125621834D01*
X80050000Y-125646218D01*
X80050000Y-126050000D01*
X77450000Y-126050000D01*
X77450000Y-123450000D01*
X80050000Y-123450000D01*
X80050000Y-123853782D01*
X80050000Y-123853782D01*
G37*
G36*
X96800000Y-123853782D02*
X96802402Y-123878168D01*
X96809515Y-123901617D01*
X96821066Y-123923228D01*
X96836612Y-123942170D01*
X96855554Y-123957716D01*
X96877165Y-123969267D01*
X96900614Y-123976380D01*
X96925000Y-123978782D01*
X96949386Y-123976380D01*
X96972835Y-123969267D01*
X96994446Y-123957716D01*
X97013388Y-123942170D01*
X97028933Y-123923230D01*
X97030226Y-123921295D01*
X97211295Y-123740226D01*
X97424220Y-123597954D01*
X97660804Y-123499958D01*
X97911960Y-123450000D01*
X98168040Y-123450000D01*
X98419196Y-123499958D01*
X98655780Y-123597954D01*
X98868705Y-123740226D01*
X99049774Y-123921295D01*
X99192047Y-124134221D01*
X99194515Y-124140180D01*
X99206066Y-124161791D01*
X99221611Y-124180733D01*
X99240553Y-124196279D01*
X99262163Y-124207830D01*
X99285612Y-124214944D01*
X99309999Y-124217346D01*
X99334385Y-124214944D01*
X99357834Y-124207831D01*
X99379445Y-124196280D01*
X99398387Y-124180735D01*
X99413933Y-124161793D01*
X99425485Y-124140180D01*
X99427953Y-124134221D01*
X99570226Y-123921295D01*
X99751295Y-123740226D01*
X99964220Y-123597954D01*
X100200804Y-123499958D01*
X100451960Y-123450000D01*
X100708040Y-123450000D01*
X100959196Y-123499958D01*
X101195780Y-123597954D01*
X101408705Y-123740226D01*
X101589774Y-123921295D01*
X101732046Y-124134220D01*
X101830042Y-124370804D01*
X101880000Y-124621960D01*
X101880000Y-124878040D01*
X101830042Y-125129196D01*
X101732046Y-125365780D01*
X101589774Y-125578705D01*
X101408705Y-125759774D01*
X101195780Y-125902046D01*
X100959196Y-126000042D01*
X100708040Y-126050000D01*
X100451960Y-126050000D01*
X100200804Y-126000042D01*
X99964220Y-125902046D01*
X99751295Y-125759774D01*
X99570226Y-125578705D01*
X99427953Y-125365779D01*
X99425485Y-125359820D01*
X99413934Y-125338209D01*
X99398389Y-125319267D01*
X99379447Y-125303721D01*
X99357837Y-125292170D01*
X99334388Y-125285056D01*
X99310001Y-125282654D01*
X99285615Y-125285056D01*
X99262166Y-125292169D01*
X99240555Y-125303720D01*
X99221613Y-125319265D01*
X99206067Y-125338207D01*
X99194515Y-125359820D01*
X99192047Y-125365779D01*
X99049774Y-125578705D01*
X98868705Y-125759774D01*
X98655780Y-125902046D01*
X98419196Y-126000042D01*
X98168040Y-126050000D01*
X97911960Y-126050000D01*
X97660804Y-126000042D01*
X97424220Y-125902046D01*
X97211295Y-125759774D01*
X97030226Y-125578705D01*
X97028933Y-125576770D01*
X97013387Y-125557828D01*
X96994445Y-125542283D01*
X96972834Y-125530732D01*
X96949384Y-125523619D01*
X96924998Y-125521218D01*
X96900612Y-125523620D01*
X96877163Y-125530734D01*
X96855552Y-125542285D01*
X96836610Y-125557831D01*
X96821065Y-125576773D01*
X96809514Y-125598384D01*
X96802401Y-125621834D01*
X96800000Y-125646218D01*
X96800000Y-126050000D01*
X94200000Y-126050000D01*
X94200000Y-123450000D01*
X96800000Y-123450000D01*
X96800000Y-123853782D01*
X96800000Y-123853782D01*
G37*
G36*
X128300000Y-123853782D02*
X128302402Y-123878168D01*
X128309515Y-123901617D01*
X128321066Y-123923228D01*
X128336612Y-123942170D01*
X128355554Y-123957716D01*
X128377165Y-123969267D01*
X128400614Y-123976380D01*
X128425000Y-123978782D01*
X128449386Y-123976380D01*
X128472835Y-123969267D01*
X128494446Y-123957716D01*
X128513388Y-123942170D01*
X128528933Y-123923230D01*
X128530226Y-123921295D01*
X128711295Y-123740226D01*
X128924220Y-123597954D01*
X129160804Y-123499958D01*
X129411960Y-123450000D01*
X129668040Y-123450000D01*
X129919196Y-123499958D01*
X130155780Y-123597954D01*
X130368705Y-123740226D01*
X130549774Y-123921295D01*
X130692046Y-124134220D01*
X130790042Y-124370804D01*
X130840000Y-124621960D01*
X130840000Y-124878040D01*
X130790042Y-125129196D01*
X130692046Y-125365780D01*
X130549774Y-125578705D01*
X130368705Y-125759774D01*
X130155780Y-125902046D01*
X129919196Y-126000042D01*
X129668040Y-126050000D01*
X129411960Y-126050000D01*
X129160804Y-126000042D01*
X128924220Y-125902046D01*
X128711295Y-125759774D01*
X128530226Y-125578705D01*
X128528933Y-125576770D01*
X128513387Y-125557828D01*
X128494445Y-125542283D01*
X128472834Y-125530732D01*
X128449384Y-125523619D01*
X128424998Y-125521218D01*
X128400612Y-125523620D01*
X128377163Y-125530734D01*
X128355552Y-125542285D01*
X128336610Y-125557831D01*
X128321065Y-125576773D01*
X128309514Y-125598384D01*
X128302401Y-125621834D01*
X128300000Y-125646218D01*
X128300000Y-126050000D01*
X125700000Y-126050000D01*
X125700000Y-123450000D01*
X128300000Y-123450000D01*
X128300000Y-123853782D01*
X128300000Y-123853782D01*
G37*
G36*
X121800000Y-123853782D02*
X121802402Y-123878168D01*
X121809515Y-123901617D01*
X121821066Y-123923228D01*
X121836612Y-123942170D01*
X121855554Y-123957716D01*
X121877165Y-123969267D01*
X121900614Y-123976380D01*
X121925000Y-123978782D01*
X121949386Y-123976380D01*
X121972835Y-123969267D01*
X121994446Y-123957716D01*
X122013388Y-123942170D01*
X122028933Y-123923230D01*
X122030226Y-123921295D01*
X122211295Y-123740226D01*
X122424220Y-123597954D01*
X122660804Y-123499958D01*
X122911960Y-123450000D01*
X123168040Y-123450000D01*
X123419196Y-123499958D01*
X123655780Y-123597954D01*
X123868705Y-123740226D01*
X124049774Y-123921295D01*
X124192046Y-124134220D01*
X124290042Y-124370804D01*
X124340000Y-124621960D01*
X124340000Y-124878040D01*
X124290042Y-125129196D01*
X124192046Y-125365780D01*
X124049774Y-125578705D01*
X123868705Y-125759774D01*
X123655780Y-125902046D01*
X123419196Y-126000042D01*
X123168040Y-126050000D01*
X122911960Y-126050000D01*
X122660804Y-126000042D01*
X122424220Y-125902046D01*
X122211295Y-125759774D01*
X122030226Y-125578705D01*
X122028933Y-125576770D01*
X122013387Y-125557828D01*
X121994445Y-125542283D01*
X121972834Y-125530732D01*
X121949384Y-125523619D01*
X121924998Y-125521218D01*
X121900612Y-125523620D01*
X121877163Y-125530734D01*
X121855552Y-125542285D01*
X121836610Y-125557831D01*
X121821065Y-125576773D01*
X121809514Y-125598384D01*
X121802401Y-125621834D01*
X121800000Y-125646218D01*
X121800000Y-126050000D01*
X119200000Y-126050000D01*
X119200000Y-123450000D01*
X121800000Y-123450000D01*
X121800000Y-123853782D01*
X121800000Y-123853782D01*
G37*
G36*
X87550000Y-123853782D02*
X87552402Y-123878168D01*
X87559515Y-123901617D01*
X87571066Y-123923228D01*
X87586612Y-123942170D01*
X87605554Y-123957716D01*
X87627165Y-123969267D01*
X87650614Y-123976380D01*
X87675000Y-123978782D01*
X87699386Y-123976380D01*
X87722835Y-123969267D01*
X87744446Y-123957716D01*
X87763388Y-123942170D01*
X87778933Y-123923230D01*
X87780226Y-123921295D01*
X87961295Y-123740226D01*
X88174220Y-123597954D01*
X88410804Y-123499958D01*
X88661960Y-123450000D01*
X88918040Y-123450000D01*
X89169196Y-123499958D01*
X89405780Y-123597954D01*
X89618705Y-123740226D01*
X89799774Y-123921295D01*
X89942047Y-124134221D01*
X89944515Y-124140180D01*
X89956066Y-124161791D01*
X89971611Y-124180733D01*
X89990553Y-124196279D01*
X90012163Y-124207830D01*
X90035612Y-124214944D01*
X90059999Y-124217346D01*
X90084385Y-124214944D01*
X90107834Y-124207831D01*
X90129445Y-124196280D01*
X90148387Y-124180735D01*
X90163933Y-124161793D01*
X90175485Y-124140180D01*
X90177953Y-124134221D01*
X90320226Y-123921295D01*
X90501295Y-123740226D01*
X90714220Y-123597954D01*
X90950804Y-123499958D01*
X91201960Y-123450000D01*
X91458040Y-123450000D01*
X91709196Y-123499958D01*
X91945780Y-123597954D01*
X92158705Y-123740226D01*
X92339774Y-123921295D01*
X92482046Y-124134220D01*
X92580042Y-124370804D01*
X92630000Y-124621960D01*
X92630000Y-124878040D01*
X92580042Y-125129196D01*
X92482046Y-125365780D01*
X92339774Y-125578705D01*
X92158705Y-125759774D01*
X91945780Y-125902046D01*
X91709196Y-126000042D01*
X91458040Y-126050000D01*
X91201960Y-126050000D01*
X90950804Y-126000042D01*
X90714220Y-125902046D01*
X90501295Y-125759774D01*
X90320226Y-125578705D01*
X90177953Y-125365779D01*
X90175485Y-125359820D01*
X90163934Y-125338209D01*
X90148389Y-125319267D01*
X90129447Y-125303721D01*
X90107837Y-125292170D01*
X90084388Y-125285056D01*
X90060001Y-125282654D01*
X90035615Y-125285056D01*
X90012166Y-125292169D01*
X89990555Y-125303720D01*
X89971613Y-125319265D01*
X89956067Y-125338207D01*
X89944515Y-125359820D01*
X89942047Y-125365779D01*
X89799774Y-125578705D01*
X89618705Y-125759774D01*
X89405780Y-125902046D01*
X89169196Y-126000042D01*
X88918040Y-126050000D01*
X88661960Y-126050000D01*
X88410804Y-126000042D01*
X88174220Y-125902046D01*
X87961295Y-125759774D01*
X87780226Y-125578705D01*
X87778933Y-125576770D01*
X87763387Y-125557828D01*
X87744445Y-125542283D01*
X87722834Y-125530732D01*
X87699384Y-125523619D01*
X87674998Y-125521218D01*
X87650612Y-125523620D01*
X87627163Y-125530734D01*
X87605552Y-125542285D01*
X87586610Y-125557831D01*
X87571065Y-125576773D01*
X87559514Y-125598384D01*
X87552401Y-125621834D01*
X87550000Y-125646218D01*
X87550000Y-126050000D01*
X84950000Y-126050000D01*
X84950000Y-123450000D01*
X87550000Y-123450000D01*
X87550000Y-123853782D01*
X87550000Y-123853782D01*
G37*
G36*
X106050000Y-123853782D02*
X106052402Y-123878168D01*
X106059515Y-123901617D01*
X106071066Y-123923228D01*
X106086612Y-123942170D01*
X106105554Y-123957716D01*
X106127165Y-123969267D01*
X106150614Y-123976380D01*
X106175000Y-123978782D01*
X106199386Y-123976380D01*
X106222835Y-123969267D01*
X106244446Y-123957716D01*
X106263388Y-123942170D01*
X106278933Y-123923230D01*
X106280226Y-123921295D01*
X106461295Y-123740226D01*
X106674220Y-123597954D01*
X106910804Y-123499958D01*
X107161960Y-123450000D01*
X107418040Y-123450000D01*
X107669196Y-123499958D01*
X107905780Y-123597954D01*
X108118705Y-123740226D01*
X108299774Y-123921295D01*
X108442046Y-124134220D01*
X108540042Y-124370804D01*
X108590000Y-124621960D01*
X108590000Y-124878040D01*
X108540042Y-125129196D01*
X108442046Y-125365780D01*
X108299774Y-125578705D01*
X108118705Y-125759774D01*
X107905780Y-125902046D01*
X107669196Y-126000042D01*
X107418040Y-126050000D01*
X107161960Y-126050000D01*
X106910804Y-126000042D01*
X106674220Y-125902046D01*
X106461295Y-125759774D01*
X106280226Y-125578705D01*
X106278933Y-125576770D01*
X106263387Y-125557828D01*
X106244445Y-125542283D01*
X106222834Y-125530732D01*
X106199384Y-125523619D01*
X106174998Y-125521218D01*
X106150612Y-125523620D01*
X106127163Y-125530734D01*
X106105552Y-125542285D01*
X106086610Y-125557831D01*
X106071065Y-125576773D01*
X106059514Y-125598384D01*
X106052401Y-125621834D01*
X106050000Y-125646218D01*
X106050000Y-126050000D01*
X103450000Y-126050000D01*
X103450000Y-123450000D01*
X106050000Y-123450000D01*
X106050000Y-123853782D01*
X106050000Y-123853782D01*
G37*
G36*
X149300000Y-123603782D02*
X149302402Y-123628168D01*
X149309515Y-123651617D01*
X149321066Y-123673228D01*
X149336612Y-123692170D01*
X149355554Y-123707716D01*
X149377165Y-123719267D01*
X149400614Y-123726380D01*
X149425000Y-123728782D01*
X149449386Y-123726380D01*
X149472835Y-123719267D01*
X149494446Y-123707716D01*
X149513388Y-123692170D01*
X149528933Y-123673230D01*
X149530226Y-123671295D01*
X149711295Y-123490226D01*
X149924220Y-123347954D01*
X150160804Y-123249958D01*
X150411960Y-123200000D01*
X150668040Y-123200000D01*
X150919196Y-123249958D01*
X151155780Y-123347954D01*
X151368705Y-123490226D01*
X151549774Y-123671295D01*
X151692047Y-123884221D01*
X151694515Y-123890180D01*
X151706066Y-123911791D01*
X151721611Y-123930733D01*
X151740553Y-123946279D01*
X151762163Y-123957830D01*
X151785612Y-123964944D01*
X151809999Y-123967346D01*
X151834385Y-123964944D01*
X151857834Y-123957831D01*
X151879445Y-123946280D01*
X151898387Y-123930735D01*
X151913933Y-123911793D01*
X151925485Y-123890180D01*
X151927953Y-123884221D01*
X152070226Y-123671295D01*
X152251295Y-123490226D01*
X152464220Y-123347954D01*
X152700804Y-123249958D01*
X152951960Y-123200000D01*
X153208040Y-123200000D01*
X153459196Y-123249958D01*
X153695780Y-123347954D01*
X153908705Y-123490226D01*
X154089774Y-123671295D01*
X154232047Y-123884221D01*
X154234515Y-123890180D01*
X154246066Y-123911791D01*
X154261611Y-123930733D01*
X154280553Y-123946279D01*
X154302163Y-123957830D01*
X154325612Y-123964944D01*
X154349999Y-123967346D01*
X154374385Y-123964944D01*
X154397834Y-123957831D01*
X154419445Y-123946280D01*
X154438387Y-123930735D01*
X154453933Y-123911793D01*
X154465485Y-123890180D01*
X154467953Y-123884221D01*
X154610226Y-123671295D01*
X154791295Y-123490226D01*
X155004220Y-123347954D01*
X155240804Y-123249958D01*
X155491960Y-123200000D01*
X155748040Y-123200000D01*
X155999196Y-123249958D01*
X156235780Y-123347954D01*
X156448705Y-123490226D01*
X156629774Y-123671295D01*
X156772046Y-123884220D01*
X156870042Y-124120804D01*
X156920000Y-124371960D01*
X156920000Y-124628040D01*
X156870042Y-124879196D01*
X156772046Y-125115780D01*
X156629774Y-125328705D01*
X156448705Y-125509774D01*
X156235780Y-125652046D01*
X155999196Y-125750042D01*
X155748040Y-125800000D01*
X155491960Y-125800000D01*
X155240804Y-125750042D01*
X155004220Y-125652046D01*
X154791295Y-125509774D01*
X154610226Y-125328705D01*
X154467953Y-125115779D01*
X154465485Y-125109820D01*
X154453934Y-125088209D01*
X154438389Y-125069267D01*
X154419447Y-125053721D01*
X154397837Y-125042170D01*
X154374388Y-125035056D01*
X154350001Y-125032654D01*
X154325615Y-125035056D01*
X154302166Y-125042169D01*
X154280555Y-125053720D01*
X154261613Y-125069265D01*
X154246067Y-125088207D01*
X154234515Y-125109820D01*
X154232047Y-125115779D01*
X154089774Y-125328705D01*
X153908705Y-125509774D01*
X153695780Y-125652046D01*
X153459196Y-125750042D01*
X153208040Y-125800000D01*
X152951960Y-125800000D01*
X152700804Y-125750042D01*
X152464220Y-125652046D01*
X152251295Y-125509774D01*
X152070226Y-125328705D01*
X151927953Y-125115779D01*
X151925485Y-125109820D01*
X151913934Y-125088209D01*
X151898389Y-125069267D01*
X151879447Y-125053721D01*
X151857837Y-125042170D01*
X151834388Y-125035056D01*
X151810001Y-125032654D01*
X151785615Y-125035056D01*
X151762166Y-125042169D01*
X151740555Y-125053720D01*
X151721613Y-125069265D01*
X151706067Y-125088207D01*
X151694515Y-125109820D01*
X151692047Y-125115779D01*
X151549774Y-125328705D01*
X151368705Y-125509774D01*
X151155780Y-125652046D01*
X150919196Y-125750042D01*
X150668040Y-125800000D01*
X150411960Y-125800000D01*
X150160804Y-125750042D01*
X149924220Y-125652046D01*
X149711295Y-125509774D01*
X149530226Y-125328705D01*
X149528933Y-125326770D01*
X149513387Y-125307828D01*
X149494445Y-125292283D01*
X149472834Y-125280732D01*
X149449384Y-125273619D01*
X149424998Y-125271218D01*
X149400612Y-125273620D01*
X149377163Y-125280734D01*
X149355552Y-125292285D01*
X149336610Y-125307831D01*
X149321065Y-125326773D01*
X149309514Y-125348384D01*
X149302401Y-125371834D01*
X149300000Y-125396218D01*
X149300000Y-125800000D01*
X146700000Y-125800000D01*
X146700000Y-123200000D01*
X149300000Y-123200000D01*
X149300000Y-123603782D01*
X149300000Y-123603782D01*
G37*
G36*
X169550000Y-123603782D02*
X169552402Y-123628168D01*
X169559515Y-123651617D01*
X169571066Y-123673228D01*
X169586612Y-123692170D01*
X169605554Y-123707716D01*
X169627165Y-123719267D01*
X169650614Y-123726380D01*
X169675000Y-123728782D01*
X169699386Y-123726380D01*
X169722835Y-123719267D01*
X169744446Y-123707716D01*
X169763388Y-123692170D01*
X169778933Y-123673230D01*
X169780226Y-123671295D01*
X169961295Y-123490226D01*
X170174220Y-123347954D01*
X170410804Y-123249958D01*
X170661960Y-123200000D01*
X170918040Y-123200000D01*
X171169196Y-123249958D01*
X171405780Y-123347954D01*
X171618705Y-123490226D01*
X171799774Y-123671295D01*
X171942046Y-123884220D01*
X172040042Y-124120804D01*
X172090000Y-124371960D01*
X172090000Y-124628040D01*
X172040042Y-124879196D01*
X171942046Y-125115780D01*
X171799774Y-125328705D01*
X171618705Y-125509774D01*
X171405780Y-125652046D01*
X171169196Y-125750042D01*
X170918040Y-125800000D01*
X170661960Y-125800000D01*
X170410804Y-125750042D01*
X170174220Y-125652046D01*
X169961295Y-125509774D01*
X169780226Y-125328705D01*
X169778933Y-125326770D01*
X169763387Y-125307828D01*
X169744445Y-125292283D01*
X169722834Y-125280732D01*
X169699384Y-125273619D01*
X169674998Y-125271218D01*
X169650612Y-125273620D01*
X169627163Y-125280734D01*
X169605552Y-125292285D01*
X169586610Y-125307831D01*
X169571065Y-125326773D01*
X169559514Y-125348384D01*
X169552401Y-125371834D01*
X169550000Y-125396218D01*
X169550000Y-125800000D01*
X166950000Y-125800000D01*
X166950000Y-123200000D01*
X169550000Y-123200000D01*
X169550000Y-123603782D01*
X169550000Y-123603782D01*
G37*
G36*
X134778707Y-121957597D02*
X134855836Y-121965193D01*
X134987787Y-122005220D01*
X135053763Y-122025233D01*
X135236172Y-122122733D01*
X135396054Y-122253946D01*
X135527267Y-122413828D01*
X135624767Y-122596237D01*
X135624767Y-122596238D01*
X135684807Y-122794164D01*
X135705080Y-123000000D01*
X135684807Y-123205836D01*
X135644780Y-123337787D01*
X135624767Y-123403763D01*
X135527267Y-123586172D01*
X135396054Y-123746054D01*
X135236172Y-123877267D01*
X135053763Y-123974767D01*
X134987787Y-123994780D01*
X134855836Y-124034807D01*
X134778707Y-124042403D01*
X134701580Y-124050000D01*
X134298420Y-124050000D01*
X134221293Y-124042403D01*
X134144164Y-124034807D01*
X134012213Y-123994780D01*
X133946237Y-123974767D01*
X133763828Y-123877267D01*
X133603946Y-123746054D01*
X133472733Y-123586172D01*
X133375233Y-123403763D01*
X133355220Y-123337787D01*
X133315193Y-123205836D01*
X133294920Y-123000000D01*
X133315193Y-122794164D01*
X133375233Y-122596238D01*
X133375233Y-122596237D01*
X133472733Y-122413828D01*
X133603946Y-122253946D01*
X133763828Y-122122733D01*
X133946237Y-122025233D01*
X134012213Y-122005220D01*
X134144164Y-121965193D01*
X134221293Y-121957597D01*
X134298420Y-121950000D01*
X134701580Y-121950000D01*
X134778707Y-121957597D01*
X134778707Y-121957597D01*
G37*
G36*
X161069628Y-122280493D02*
X161117354Y-122294970D01*
X161161336Y-122318479D01*
X161199885Y-122350115D01*
X161231521Y-122388664D01*
X161255030Y-122432646D01*
X161269507Y-122480372D01*
X161275000Y-122536141D01*
X161275000Y-123663859D01*
X161269507Y-123719628D01*
X161255030Y-123767354D01*
X161231521Y-123811336D01*
X161199885Y-123849885D01*
X161161336Y-123881521D01*
X161117354Y-123905030D01*
X161069628Y-123919507D01*
X161013859Y-123925000D01*
X158486141Y-123925000D01*
X158430372Y-123919507D01*
X158382646Y-123905030D01*
X158338664Y-123881521D01*
X158300115Y-123849885D01*
X158268479Y-123811336D01*
X158244970Y-123767354D01*
X158230493Y-123719628D01*
X158225000Y-123663859D01*
X158225000Y-122536141D01*
X158230493Y-122480372D01*
X158244970Y-122432646D01*
X158268479Y-122388664D01*
X158300115Y-122350115D01*
X158338664Y-122318479D01*
X158382646Y-122294970D01*
X158430372Y-122280493D01*
X158486141Y-122275000D01*
X161013859Y-122275000D01*
X161069628Y-122280493D01*
X161069628Y-122280493D01*
G37*
G36*
X140819628Y-122280493D02*
X140867354Y-122294970D01*
X140911336Y-122318479D01*
X140949885Y-122350115D01*
X140981521Y-122388664D01*
X141005030Y-122432646D01*
X141019507Y-122480372D01*
X141025000Y-122536141D01*
X141025000Y-123663859D01*
X141019507Y-123719628D01*
X141005030Y-123767354D01*
X140981521Y-123811336D01*
X140949885Y-123849885D01*
X140911336Y-123881521D01*
X140867354Y-123905030D01*
X140819628Y-123919507D01*
X140763859Y-123925000D01*
X138236141Y-123925000D01*
X138180372Y-123919507D01*
X138132646Y-123905030D01*
X138088664Y-123881521D01*
X138050115Y-123849885D01*
X138018479Y-123811336D01*
X137994970Y-123767354D01*
X137980493Y-123719628D01*
X137975000Y-123663859D01*
X137975000Y-122536141D01*
X137980493Y-122480372D01*
X137994970Y-122432646D01*
X138018479Y-122388664D01*
X138050115Y-122350115D01*
X138088664Y-122318479D01*
X138132646Y-122294970D01*
X138180372Y-122280493D01*
X138236141Y-122275000D01*
X140763859Y-122275000D01*
X140819628Y-122280493D01*
X140819628Y-122280493D01*
G37*
G36*
X145069628Y-122280493D02*
X145117354Y-122294970D01*
X145161336Y-122318479D01*
X145199885Y-122350115D01*
X145231521Y-122388664D01*
X145255030Y-122432646D01*
X145269507Y-122480372D01*
X145275000Y-122536141D01*
X145275000Y-123663859D01*
X145269507Y-123719628D01*
X145255030Y-123767354D01*
X145231521Y-123811336D01*
X145199885Y-123849885D01*
X145161336Y-123881521D01*
X145117354Y-123905030D01*
X145069628Y-123919507D01*
X145013859Y-123925000D01*
X142486141Y-123925000D01*
X142430372Y-123919507D01*
X142382646Y-123905030D01*
X142338664Y-123881521D01*
X142300115Y-123849885D01*
X142268479Y-123811336D01*
X142244970Y-123767354D01*
X142230493Y-123719628D01*
X142225000Y-123663859D01*
X142225000Y-122536141D01*
X142230493Y-122480372D01*
X142244970Y-122432646D01*
X142268479Y-122388664D01*
X142300115Y-122350115D01*
X142338664Y-122318479D01*
X142382646Y-122294970D01*
X142430372Y-122280493D01*
X142486141Y-122275000D01*
X145013859Y-122275000D01*
X145069628Y-122280493D01*
X145069628Y-122280493D01*
G37*
G36*
X165319628Y-122280493D02*
X165367354Y-122294970D01*
X165411336Y-122318479D01*
X165449885Y-122350115D01*
X165481521Y-122388664D01*
X165505030Y-122432646D01*
X165519507Y-122480372D01*
X165525000Y-122536141D01*
X165525000Y-123663859D01*
X165519507Y-123719628D01*
X165505030Y-123767354D01*
X165481521Y-123811336D01*
X165449885Y-123849885D01*
X165411336Y-123881521D01*
X165367354Y-123905030D01*
X165319628Y-123919507D01*
X165263859Y-123925000D01*
X162736141Y-123925000D01*
X162680372Y-123919507D01*
X162632646Y-123905030D01*
X162588664Y-123881521D01*
X162550115Y-123849885D01*
X162518479Y-123811336D01*
X162494970Y-123767354D01*
X162480493Y-123719628D01*
X162475000Y-123663859D01*
X162475000Y-122536141D01*
X162480493Y-122480372D01*
X162494970Y-122432646D01*
X162518479Y-122388664D01*
X162550115Y-122350115D01*
X162588664Y-122318479D01*
X162632646Y-122294970D01*
X162680372Y-122280493D01*
X162736141Y-122275000D01*
X165263859Y-122275000D01*
X165319628Y-122280493D01*
X165319628Y-122280493D01*
G37*
G36*
X112523497Y-117605997D02*
X112576153Y-117621970D01*
X112624665Y-117647900D01*
X112667196Y-117682804D01*
X112702100Y-117725335D01*
X112728030Y-117773847D01*
X112744003Y-117826503D01*
X112750000Y-117887390D01*
X112750000Y-119112610D01*
X112744003Y-119173497D01*
X112728030Y-119226153D01*
X112702100Y-119274665D01*
X112667196Y-119317196D01*
X112624665Y-119352100D01*
X112576153Y-119378030D01*
X112523497Y-119394003D01*
X112462610Y-119400000D01*
X111662390Y-119400000D01*
X111601503Y-119394003D01*
X111548847Y-119378030D01*
X111500335Y-119352100D01*
X111457804Y-119317196D01*
X111422900Y-119274665D01*
X111396970Y-119226153D01*
X111380997Y-119173497D01*
X111375000Y-119112610D01*
X111375000Y-117887390D01*
X111380997Y-117826503D01*
X111396970Y-117773847D01*
X111422900Y-117725335D01*
X111457804Y-117682804D01*
X111500335Y-117647900D01*
X111548847Y-117621970D01*
X111601503Y-117605997D01*
X111662390Y-117600000D01*
X112462610Y-117600000D01*
X112523497Y-117605997D01*
X112523497Y-117605997D01*
G37*
G36*
X114398497Y-117605997D02*
X114451153Y-117621970D01*
X114499665Y-117647900D01*
X114542196Y-117682804D01*
X114577100Y-117725335D01*
X114603030Y-117773847D01*
X114619003Y-117826503D01*
X114625000Y-117887390D01*
X114625000Y-119112610D01*
X114619003Y-119173497D01*
X114603030Y-119226153D01*
X114577100Y-119274665D01*
X114542196Y-119317196D01*
X114499665Y-119352100D01*
X114451153Y-119378030D01*
X114398497Y-119394003D01*
X114337610Y-119400000D01*
X113537390Y-119400000D01*
X113476503Y-119394003D01*
X113423847Y-119378030D01*
X113375335Y-119352100D01*
X113332804Y-119317196D01*
X113297900Y-119274665D01*
X113271970Y-119226153D01*
X113255997Y-119173497D01*
X113250000Y-119112610D01*
X113250000Y-117887390D01*
X113255997Y-117826503D01*
X113271970Y-117773847D01*
X113297900Y-117725335D01*
X113332804Y-117682804D01*
X113375335Y-117647900D01*
X113423847Y-117621970D01*
X113476503Y-117605997D01*
X113537390Y-117600000D01*
X114337610Y-117600000D01*
X114398497Y-117605997D01*
X114398497Y-117605997D01*
G37*
G36*
X126650000Y-117560000D02*
X124750000Y-117560000D01*
X124750000Y-116560000D01*
X126650000Y-116560000D01*
X126650000Y-117560000D01*
X126650000Y-117560000D01*
G37*
G36*
X121250000Y-117560000D02*
X119350000Y-117560000D01*
X119350000Y-116560000D01*
X121250000Y-116560000D01*
X121250000Y-117560000D01*
X121250000Y-117560000D01*
G37*
G36*
X135648497Y-115605997D02*
X135701153Y-115621970D01*
X135749665Y-115647900D01*
X135792196Y-115682804D01*
X135827100Y-115725335D01*
X135853030Y-115773847D01*
X135869003Y-115826503D01*
X135875000Y-115887390D01*
X135875000Y-117112610D01*
X135869003Y-117173497D01*
X135853030Y-117226153D01*
X135827100Y-117274665D01*
X135792196Y-117317196D01*
X135749665Y-117352100D01*
X135701153Y-117378030D01*
X135648497Y-117394003D01*
X135587610Y-117400000D01*
X134787390Y-117400000D01*
X134726503Y-117394003D01*
X134673847Y-117378030D01*
X134625335Y-117352100D01*
X134582804Y-117317196D01*
X134547900Y-117274665D01*
X134521970Y-117226153D01*
X134505997Y-117173497D01*
X134500000Y-117112610D01*
X134500000Y-115887390D01*
X134505997Y-115826503D01*
X134521970Y-115773847D01*
X134547900Y-115725335D01*
X134582804Y-115682804D01*
X134625335Y-115647900D01*
X134673847Y-115621970D01*
X134726503Y-115605997D01*
X134787390Y-115600000D01*
X135587610Y-115600000D01*
X135648497Y-115605997D01*
X135648497Y-115605997D01*
G37*
G36*
X89136393Y-114043553D02*
X89245872Y-114065330D01*
X89555252Y-114193479D01*
X89833687Y-114379523D01*
X90070477Y-114616313D01*
X90256521Y-114894748D01*
X90384670Y-115204128D01*
X90384670Y-115204129D01*
X90450000Y-115532563D01*
X90450000Y-115867437D01*
X90446031Y-115887390D01*
X90384670Y-116195872D01*
X90256521Y-116505252D01*
X90070477Y-116783687D01*
X89833687Y-117020477D01*
X89555252Y-117206521D01*
X89245872Y-117334670D01*
X89158245Y-117352100D01*
X88917437Y-117400000D01*
X88582563Y-117400000D01*
X88341755Y-117352100D01*
X88254128Y-117334670D01*
X87944748Y-117206521D01*
X87666313Y-117020477D01*
X87429523Y-116783687D01*
X87243479Y-116505252D01*
X87115330Y-116195872D01*
X87053969Y-115887390D01*
X87050000Y-115867437D01*
X87050000Y-115532563D01*
X87115330Y-115204129D01*
X87115330Y-115204128D01*
X87243479Y-114894748D01*
X87429523Y-114616313D01*
X87666313Y-114379523D01*
X87944748Y-114193479D01*
X88254128Y-114065330D01*
X88363607Y-114043553D01*
X88582563Y-114000000D01*
X88917437Y-114000000D01*
X89136393Y-114043553D01*
X89136393Y-114043553D01*
G37*
G36*
X105636393Y-114043553D02*
X105745872Y-114065330D01*
X106055252Y-114193479D01*
X106333687Y-114379523D01*
X106570477Y-114616313D01*
X106756521Y-114894748D01*
X106884670Y-115204128D01*
X106884670Y-115204129D01*
X106950000Y-115532563D01*
X106950000Y-115867437D01*
X106946031Y-115887390D01*
X106884670Y-116195872D01*
X106756521Y-116505252D01*
X106570477Y-116783687D01*
X106333687Y-117020477D01*
X106055252Y-117206521D01*
X105745872Y-117334670D01*
X105658245Y-117352100D01*
X105417437Y-117400000D01*
X105082563Y-117400000D01*
X104841755Y-117352100D01*
X104754128Y-117334670D01*
X104444748Y-117206521D01*
X104166313Y-117020477D01*
X103929523Y-116783687D01*
X103743479Y-116505252D01*
X103615330Y-116195872D01*
X103553969Y-115887390D01*
X103550000Y-115867437D01*
X103550000Y-115532563D01*
X103615330Y-115204129D01*
X103615330Y-115204128D01*
X103743479Y-114894748D01*
X103929523Y-114616313D01*
X104166313Y-114379523D01*
X104444748Y-114193479D01*
X104754128Y-114065330D01*
X104863607Y-114043553D01*
X105082563Y-114000000D01*
X105417437Y-114000000D01*
X105636393Y-114043553D01*
X105636393Y-114043553D01*
G37*
G36*
X133773497Y-115605997D02*
X133826153Y-115621970D01*
X133874665Y-115647900D01*
X133917196Y-115682804D01*
X133952100Y-115725335D01*
X133978030Y-115773847D01*
X133994003Y-115826503D01*
X134000000Y-115887390D01*
X134000000Y-117112610D01*
X133994003Y-117173497D01*
X133978030Y-117226153D01*
X133952100Y-117274665D01*
X133917196Y-117317196D01*
X133874665Y-117352100D01*
X133826153Y-117378030D01*
X133773497Y-117394003D01*
X133712610Y-117400000D01*
X132912390Y-117400000D01*
X132851503Y-117394003D01*
X132798847Y-117378030D01*
X132750335Y-117352100D01*
X132707804Y-117317196D01*
X132672900Y-117274665D01*
X132646970Y-117226153D01*
X132630997Y-117173497D01*
X132625000Y-117112610D01*
X132625000Y-115887390D01*
X132630997Y-115826503D01*
X132646970Y-115773847D01*
X132672900Y-115725335D01*
X132707804Y-115682804D01*
X132750335Y-115647900D01*
X132798847Y-115621970D01*
X132851503Y-115605997D01*
X132912390Y-115600000D01*
X133712610Y-115600000D01*
X133773497Y-115605997D01*
X133773497Y-115605997D01*
G37*
G36*
X77008352Y-113978030D02*
X77195872Y-114015330D01*
X77505252Y-114143479D01*
X77783687Y-114329523D01*
X78020477Y-114566313D01*
X78206521Y-114844748D01*
X78334670Y-115154128D01*
X78344616Y-115204129D01*
X78400000Y-115482563D01*
X78400000Y-115817437D01*
X78356447Y-116036393D01*
X78334670Y-116145872D01*
X78206521Y-116455252D01*
X78020477Y-116733687D01*
X77783687Y-116970477D01*
X77505252Y-117156521D01*
X77195872Y-117284670D01*
X77122231Y-117299318D01*
X76867437Y-117350000D01*
X76532563Y-117350000D01*
X76277769Y-117299318D01*
X76204128Y-117284670D01*
X75894748Y-117156521D01*
X75616313Y-116970477D01*
X75379523Y-116733687D01*
X75193479Y-116455252D01*
X75065330Y-116145872D01*
X75043553Y-116036393D01*
X75000000Y-115817437D01*
X75000000Y-115482563D01*
X75055384Y-115204129D01*
X75065330Y-115154128D01*
X75193479Y-114844748D01*
X75379523Y-114566313D01*
X75616313Y-114329523D01*
X75894748Y-114143479D01*
X76204128Y-114015330D01*
X76391648Y-113978030D01*
X76532563Y-113950000D01*
X76867437Y-113950000D01*
X77008352Y-113978030D01*
X77008352Y-113978030D01*
G37*
G36*
X93508352Y-113978030D02*
X93695872Y-114015330D01*
X94005252Y-114143479D01*
X94283687Y-114329523D01*
X94520477Y-114566313D01*
X94706521Y-114844748D01*
X94834670Y-115154128D01*
X94844616Y-115204129D01*
X94900000Y-115482563D01*
X94900000Y-115817437D01*
X94856447Y-116036393D01*
X94834670Y-116145872D01*
X94706521Y-116455252D01*
X94520477Y-116733687D01*
X94283687Y-116970477D01*
X94005252Y-117156521D01*
X93695872Y-117284670D01*
X93622231Y-117299318D01*
X93367437Y-117350000D01*
X93032563Y-117350000D01*
X92777769Y-117299318D01*
X92704128Y-117284670D01*
X92394748Y-117156521D01*
X92116313Y-116970477D01*
X91879523Y-116733687D01*
X91693479Y-116455252D01*
X91565330Y-116145872D01*
X91543553Y-116036393D01*
X91500000Y-115817437D01*
X91500000Y-115482563D01*
X91555384Y-115204129D01*
X91565330Y-115154128D01*
X91693479Y-114844748D01*
X91879523Y-114566313D01*
X92116313Y-114329523D01*
X92394748Y-114143479D01*
X92704128Y-114015330D01*
X92891648Y-113978030D01*
X93032563Y-113950000D01*
X93367437Y-113950000D01*
X93508352Y-113978030D01*
X93508352Y-113978030D01*
G37*
G36*
X114619628Y-114680493D02*
X114667354Y-114694970D01*
X114711336Y-114718479D01*
X114749885Y-114750115D01*
X114781521Y-114788664D01*
X114805030Y-114832646D01*
X114819507Y-114880372D01*
X114825000Y-114936141D01*
X114825000Y-116563859D01*
X114819507Y-116619628D01*
X114805030Y-116667354D01*
X114781521Y-116711336D01*
X114749885Y-116749885D01*
X114711336Y-116781521D01*
X114667354Y-116805030D01*
X114619628Y-116819507D01*
X114563859Y-116825000D01*
X113436141Y-116825000D01*
X113380372Y-116819507D01*
X113332646Y-116805030D01*
X113288664Y-116781521D01*
X113250115Y-116749885D01*
X113218479Y-116711336D01*
X113194970Y-116667354D01*
X113180493Y-116619628D01*
X113175000Y-116563859D01*
X113175000Y-114936141D01*
X113180493Y-114880372D01*
X113194970Y-114832646D01*
X113218479Y-114788664D01*
X113250115Y-114750115D01*
X113288664Y-114718479D01*
X113332646Y-114694970D01*
X113380372Y-114680493D01*
X113436141Y-114675000D01*
X114563859Y-114675000D01*
X114619628Y-114680493D01*
X114619628Y-114680493D01*
G37*
G36*
X117419628Y-114680493D02*
X117467354Y-114694970D01*
X117511336Y-114718479D01*
X117549885Y-114750115D01*
X117581521Y-114788664D01*
X117605030Y-114832646D01*
X117619507Y-114880372D01*
X117625000Y-114936141D01*
X117625000Y-116563859D01*
X117619507Y-116619628D01*
X117605030Y-116667354D01*
X117581521Y-116711336D01*
X117549885Y-116749885D01*
X117511336Y-116781521D01*
X117467354Y-116805030D01*
X117419628Y-116819507D01*
X117363859Y-116825000D01*
X116236141Y-116825000D01*
X116180372Y-116819507D01*
X116132646Y-116805030D01*
X116088664Y-116781521D01*
X116050115Y-116749885D01*
X116018479Y-116711336D01*
X115994970Y-116667354D01*
X115980493Y-116619628D01*
X115975000Y-116563859D01*
X115975000Y-114936141D01*
X115980493Y-114880372D01*
X115994970Y-114832646D01*
X116018479Y-114788664D01*
X116050115Y-114750115D01*
X116088664Y-114718479D01*
X116132646Y-114694970D01*
X116180372Y-114680493D01*
X116236141Y-114675000D01*
X117363859Y-114675000D01*
X117419628Y-114680493D01*
X117419628Y-114680493D01*
G37*
G36*
X121250000Y-116290000D02*
X119350000Y-116290000D01*
X119350000Y-115290000D01*
X121250000Y-115290000D01*
X121250000Y-116290000D01*
X121250000Y-116290000D01*
G37*
G36*
X126650000Y-116290000D02*
X124750000Y-116290000D01*
X124750000Y-115290000D01*
X126650000Y-115290000D01*
X126650000Y-116290000D01*
X126650000Y-116290000D01*
G37*
G36*
X147673497Y-114505997D02*
X147726153Y-114521970D01*
X147774665Y-114547900D01*
X147817196Y-114582804D01*
X147852100Y-114625335D01*
X147878030Y-114673847D01*
X147894003Y-114726503D01*
X147900000Y-114787390D01*
X147900000Y-115587610D01*
X147894003Y-115648497D01*
X147878030Y-115701153D01*
X147852100Y-115749665D01*
X147817196Y-115792196D01*
X147774665Y-115827100D01*
X147726153Y-115853030D01*
X147673497Y-115869003D01*
X147612610Y-115875000D01*
X146387390Y-115875000D01*
X146326503Y-115869003D01*
X146273847Y-115853030D01*
X146225335Y-115827100D01*
X146182804Y-115792196D01*
X146147900Y-115749665D01*
X146121970Y-115701153D01*
X146105997Y-115648497D01*
X146100000Y-115587610D01*
X146100000Y-114787390D01*
X146105997Y-114726503D01*
X146121970Y-114673847D01*
X146147900Y-114625335D01*
X146182804Y-114582804D01*
X146225335Y-114547900D01*
X146273847Y-114521970D01*
X146326503Y-114505997D01*
X146387390Y-114500000D01*
X147612610Y-114500000D01*
X147673497Y-114505997D01*
X147673497Y-114505997D01*
G37*
G36*
X151173497Y-114505997D02*
X151226153Y-114521970D01*
X151274665Y-114547900D01*
X151317196Y-114582804D01*
X151352100Y-114625335D01*
X151378030Y-114673847D01*
X151394003Y-114726503D01*
X151400000Y-114787390D01*
X151400000Y-115587610D01*
X151394003Y-115648497D01*
X151378030Y-115701153D01*
X151352100Y-115749665D01*
X151317196Y-115792196D01*
X151274665Y-115827100D01*
X151226153Y-115853030D01*
X151173497Y-115869003D01*
X151112610Y-115875000D01*
X149887390Y-115875000D01*
X149826503Y-115869003D01*
X149773847Y-115853030D01*
X149725335Y-115827100D01*
X149682804Y-115792196D01*
X149647900Y-115749665D01*
X149621970Y-115701153D01*
X149605997Y-115648497D01*
X149600000Y-115587610D01*
X149600000Y-114787390D01*
X149605997Y-114726503D01*
X149621970Y-114673847D01*
X149647900Y-114625335D01*
X149682804Y-114582804D01*
X149725335Y-114547900D01*
X149773847Y-114521970D01*
X149826503Y-114505997D01*
X149887390Y-114500000D01*
X151112610Y-114500000D01*
X151173497Y-114505997D01*
X151173497Y-114505997D01*
G37*
G36*
X154923497Y-114505997D02*
X154976153Y-114521970D01*
X155024665Y-114547900D01*
X155067196Y-114582804D01*
X155102100Y-114625335D01*
X155128030Y-114673847D01*
X155144003Y-114726503D01*
X155150000Y-114787390D01*
X155150000Y-115587610D01*
X155144003Y-115648497D01*
X155128030Y-115701153D01*
X155102100Y-115749665D01*
X155067196Y-115792196D01*
X155024665Y-115827100D01*
X154976153Y-115853030D01*
X154923497Y-115869003D01*
X154862610Y-115875000D01*
X153637390Y-115875000D01*
X153576503Y-115869003D01*
X153523847Y-115853030D01*
X153475335Y-115827100D01*
X153432804Y-115792196D01*
X153397900Y-115749665D01*
X153371970Y-115701153D01*
X153355997Y-115648497D01*
X153350000Y-115587610D01*
X153350000Y-114787390D01*
X153355997Y-114726503D01*
X153371970Y-114673847D01*
X153397900Y-114625335D01*
X153432804Y-114582804D01*
X153475335Y-114547900D01*
X153523847Y-114521970D01*
X153576503Y-114505997D01*
X153637390Y-114500000D01*
X154862610Y-114500000D01*
X154923497Y-114505997D01*
X154923497Y-114505997D01*
G37*
G36*
X158173497Y-114505997D02*
X158226153Y-114521970D01*
X158274665Y-114547900D01*
X158317196Y-114582804D01*
X158352100Y-114625335D01*
X158378030Y-114673847D01*
X158394003Y-114726503D01*
X158400000Y-114787390D01*
X158400000Y-115587610D01*
X158394003Y-115648497D01*
X158378030Y-115701153D01*
X158352100Y-115749665D01*
X158317196Y-115792196D01*
X158274665Y-115827100D01*
X158226153Y-115853030D01*
X158173497Y-115869003D01*
X158112610Y-115875000D01*
X156887390Y-115875000D01*
X156826503Y-115869003D01*
X156773847Y-115853030D01*
X156725335Y-115827100D01*
X156682804Y-115792196D01*
X156647900Y-115749665D01*
X156621970Y-115701153D01*
X156605997Y-115648497D01*
X156600000Y-115587610D01*
X156600000Y-114787390D01*
X156605997Y-114726503D01*
X156621970Y-114673847D01*
X156647900Y-114625335D01*
X156682804Y-114582804D01*
X156725335Y-114547900D01*
X156773847Y-114521970D01*
X156826503Y-114505997D01*
X156887390Y-114500000D01*
X158112610Y-114500000D01*
X158173497Y-114505997D01*
X158173497Y-114505997D01*
G37*
G36*
X133773497Y-113355997D02*
X133826153Y-113371970D01*
X133874665Y-113397900D01*
X133917196Y-113432804D01*
X133952100Y-113475335D01*
X133978030Y-113523847D01*
X133994003Y-113576503D01*
X134000000Y-113637390D01*
X134000000Y-114862610D01*
X133994003Y-114923497D01*
X133978030Y-114976153D01*
X133952100Y-115024665D01*
X133917196Y-115067196D01*
X133874665Y-115102100D01*
X133826153Y-115128030D01*
X133773497Y-115144003D01*
X133712610Y-115150000D01*
X132912390Y-115150000D01*
X132851503Y-115144003D01*
X132798847Y-115128030D01*
X132750335Y-115102100D01*
X132707804Y-115067196D01*
X132672900Y-115024665D01*
X132646970Y-114976153D01*
X132630997Y-114923497D01*
X132625000Y-114862610D01*
X132625000Y-113637390D01*
X132630997Y-113576503D01*
X132646970Y-113523847D01*
X132672900Y-113475335D01*
X132707804Y-113432804D01*
X132750335Y-113397900D01*
X132798847Y-113371970D01*
X132851503Y-113355997D01*
X132912390Y-113350000D01*
X133712610Y-113350000D01*
X133773497Y-113355997D01*
X133773497Y-113355997D01*
G37*
G36*
X135648497Y-113355997D02*
X135701153Y-113371970D01*
X135749665Y-113397900D01*
X135792196Y-113432804D01*
X135827100Y-113475335D01*
X135853030Y-113523847D01*
X135869003Y-113576503D01*
X135875000Y-113637390D01*
X135875000Y-114862610D01*
X135869003Y-114923497D01*
X135853030Y-114976153D01*
X135827100Y-115024665D01*
X135792196Y-115067196D01*
X135749665Y-115102100D01*
X135701153Y-115128030D01*
X135648497Y-115144003D01*
X135587610Y-115150000D01*
X134787390Y-115150000D01*
X134726503Y-115144003D01*
X134673847Y-115128030D01*
X134625335Y-115102100D01*
X134582804Y-115067196D01*
X134547900Y-115024665D01*
X134521970Y-114976153D01*
X134505997Y-114923497D01*
X134500000Y-114862610D01*
X134500000Y-113637390D01*
X134505997Y-113576503D01*
X134521970Y-113523847D01*
X134547900Y-113475335D01*
X134582804Y-113432804D01*
X134625335Y-113397900D01*
X134673847Y-113371970D01*
X134726503Y-113355997D01*
X134787390Y-113350000D01*
X135587610Y-113350000D01*
X135648497Y-113355997D01*
X135648497Y-113355997D01*
G37*
G36*
X126650000Y-115020000D02*
X124750000Y-115020000D01*
X124750000Y-114020000D01*
X126650000Y-114020000D01*
X126650000Y-115020000D01*
X126650000Y-115020000D01*
G37*
G36*
X121250000Y-115020000D02*
X119350000Y-115020000D01*
X119350000Y-114020000D01*
X121250000Y-114020000D01*
X121250000Y-115020000D01*
X121250000Y-115020000D01*
G37*
G36*
X151173497Y-112630997D02*
X151226153Y-112646970D01*
X151274665Y-112672900D01*
X151317196Y-112707804D01*
X151352100Y-112750335D01*
X151378030Y-112798847D01*
X151394003Y-112851503D01*
X151400000Y-112912390D01*
X151400000Y-113712610D01*
X151394003Y-113773497D01*
X151378030Y-113826153D01*
X151352100Y-113874665D01*
X151317196Y-113917196D01*
X151274665Y-113952100D01*
X151226153Y-113978030D01*
X151173497Y-113994003D01*
X151112610Y-114000000D01*
X149887390Y-114000000D01*
X149826503Y-113994003D01*
X149773847Y-113978030D01*
X149725335Y-113952100D01*
X149682804Y-113917196D01*
X149647900Y-113874665D01*
X149621970Y-113826153D01*
X149605997Y-113773497D01*
X149600000Y-113712610D01*
X149600000Y-112912390D01*
X149605997Y-112851503D01*
X149621970Y-112798847D01*
X149647900Y-112750335D01*
X149682804Y-112707804D01*
X149725335Y-112672900D01*
X149773847Y-112646970D01*
X149826503Y-112630997D01*
X149887390Y-112625000D01*
X151112610Y-112625000D01*
X151173497Y-112630997D01*
X151173497Y-112630997D01*
G37*
G36*
X154923497Y-112630997D02*
X154976153Y-112646970D01*
X155024665Y-112672900D01*
X155067196Y-112707804D01*
X155102100Y-112750335D01*
X155128030Y-112798847D01*
X155144003Y-112851503D01*
X155150000Y-112912390D01*
X155150000Y-113712610D01*
X155144003Y-113773497D01*
X155128030Y-113826153D01*
X155102100Y-113874665D01*
X155067196Y-113917196D01*
X155024665Y-113952100D01*
X154976153Y-113978030D01*
X154923497Y-113994003D01*
X154862610Y-114000000D01*
X153637390Y-114000000D01*
X153576503Y-113994003D01*
X153523847Y-113978030D01*
X153475335Y-113952100D01*
X153432804Y-113917196D01*
X153397900Y-113874665D01*
X153371970Y-113826153D01*
X153355997Y-113773497D01*
X153350000Y-113712610D01*
X153350000Y-112912390D01*
X153355997Y-112851503D01*
X153371970Y-112798847D01*
X153397900Y-112750335D01*
X153432804Y-112707804D01*
X153475335Y-112672900D01*
X153523847Y-112646970D01*
X153576503Y-112630997D01*
X153637390Y-112625000D01*
X154862610Y-112625000D01*
X154923497Y-112630997D01*
X154923497Y-112630997D01*
G37*
G36*
X147673497Y-112630997D02*
X147726153Y-112646970D01*
X147774665Y-112672900D01*
X147817196Y-112707804D01*
X147852100Y-112750335D01*
X147878030Y-112798847D01*
X147894003Y-112851503D01*
X147900000Y-112912390D01*
X147900000Y-113712610D01*
X147894003Y-113773497D01*
X147878030Y-113826153D01*
X147852100Y-113874665D01*
X147817196Y-113917196D01*
X147774665Y-113952100D01*
X147726153Y-113978030D01*
X147673497Y-113994003D01*
X147612610Y-114000000D01*
X146387390Y-114000000D01*
X146326503Y-113994003D01*
X146273847Y-113978030D01*
X146225335Y-113952100D01*
X146182804Y-113917196D01*
X146147900Y-113874665D01*
X146121970Y-113826153D01*
X146105997Y-113773497D01*
X146100000Y-113712610D01*
X146100000Y-112912390D01*
X146105997Y-112851503D01*
X146121970Y-112798847D01*
X146147900Y-112750335D01*
X146182804Y-112707804D01*
X146225335Y-112672900D01*
X146273847Y-112646970D01*
X146326503Y-112630997D01*
X146387390Y-112625000D01*
X147612610Y-112625000D01*
X147673497Y-112630997D01*
X147673497Y-112630997D01*
G37*
G36*
X158173497Y-112630997D02*
X158226153Y-112646970D01*
X158274665Y-112672900D01*
X158317196Y-112707804D01*
X158352100Y-112750335D01*
X158378030Y-112798847D01*
X158394003Y-112851503D01*
X158400000Y-112912390D01*
X158400000Y-113712610D01*
X158394003Y-113773497D01*
X158378030Y-113826153D01*
X158352100Y-113874665D01*
X158317196Y-113917196D01*
X158274665Y-113952100D01*
X158226153Y-113978030D01*
X158173497Y-113994003D01*
X158112610Y-114000000D01*
X156887390Y-114000000D01*
X156826503Y-113994003D01*
X156773847Y-113978030D01*
X156725335Y-113952100D01*
X156682804Y-113917196D01*
X156647900Y-113874665D01*
X156621970Y-113826153D01*
X156605997Y-113773497D01*
X156600000Y-113712610D01*
X156600000Y-112912390D01*
X156605997Y-112851503D01*
X156621970Y-112798847D01*
X156647900Y-112750335D01*
X156682804Y-112707804D01*
X156725335Y-112672900D01*
X156773847Y-112646970D01*
X156826503Y-112630997D01*
X156887390Y-112625000D01*
X158112610Y-112625000D01*
X158173497Y-112630997D01*
X158173497Y-112630997D01*
G37*
G36*
X126650000Y-113750000D02*
X124750000Y-113750000D01*
X124750000Y-112750000D01*
X126650000Y-112750000D01*
X126650000Y-113750000D01*
X126650000Y-113750000D01*
G37*
G36*
X121250000Y-113750000D02*
X119350000Y-113750000D01*
X119350000Y-112750000D01*
X121250000Y-112750000D01*
X121250000Y-113750000D01*
X121250000Y-113750000D01*
G37*
G36*
X131869628Y-111330493D02*
X131917354Y-111344970D01*
X131961336Y-111368479D01*
X131999885Y-111400115D01*
X132031521Y-111438664D01*
X132055030Y-111482646D01*
X132069507Y-111530372D01*
X132075000Y-111586141D01*
X132075000Y-112713859D01*
X132069507Y-112769628D01*
X132055030Y-112817354D01*
X132031521Y-112861336D01*
X131999885Y-112899885D01*
X131961336Y-112931521D01*
X131917354Y-112955030D01*
X131869628Y-112969507D01*
X131813859Y-112975000D01*
X130186141Y-112975000D01*
X130130372Y-112969507D01*
X130082646Y-112955030D01*
X130038664Y-112931521D01*
X130000115Y-112899885D01*
X129968479Y-112861336D01*
X129944970Y-112817354D01*
X129930493Y-112769628D01*
X129925000Y-112713859D01*
X129925000Y-111586141D01*
X129930493Y-111530372D01*
X129944970Y-111482646D01*
X129968479Y-111438664D01*
X130000115Y-111400115D01*
X130038664Y-111368479D01*
X130082646Y-111344970D01*
X130130372Y-111330493D01*
X130186141Y-111325000D01*
X131813859Y-111325000D01*
X131869628Y-111330493D01*
X131869628Y-111330493D01*
G37*
G36*
X112159122Y-109246115D02*
X112275041Y-109269173D01*
X112602620Y-109404861D01*
X112893511Y-109599228D01*
X112897436Y-109601851D01*
X113148149Y-109852564D01*
X113148151Y-109852567D01*
X113265598Y-110028338D01*
X113345140Y-110147382D01*
X113480827Y-110474960D01*
X113550000Y-110822714D01*
X113550000Y-111177286D01*
X113520618Y-111325000D01*
X113480827Y-111525041D01*
X113455518Y-111586141D01*
X113345140Y-111852618D01*
X113148149Y-112147436D01*
X112897436Y-112398149D01*
X112897433Y-112398151D01*
X112602620Y-112595139D01*
X112275041Y-112730827D01*
X112176967Y-112750335D01*
X111927286Y-112800000D01*
X111572714Y-112800000D01*
X111323033Y-112750335D01*
X111224959Y-112730827D01*
X110897380Y-112595139D01*
X110602567Y-112398151D01*
X110602564Y-112398149D01*
X110351851Y-112147436D01*
X110154860Y-111852618D01*
X110044482Y-111586141D01*
X110019173Y-111525041D01*
X109979382Y-111325000D01*
X109950000Y-111177286D01*
X109950000Y-110822714D01*
X110019173Y-110474960D01*
X110154860Y-110147382D01*
X110234403Y-110028338D01*
X110351849Y-109852567D01*
X110351851Y-109852564D01*
X110602564Y-109601851D01*
X110606489Y-109599228D01*
X110897380Y-109404861D01*
X111224959Y-109269173D01*
X111340878Y-109246115D01*
X111572714Y-109200000D01*
X111927286Y-109200000D01*
X112159122Y-109246115D01*
X112159122Y-109246115D01*
G37*
G36*
X170159122Y-109246115D02*
X170275041Y-109269173D01*
X170602620Y-109404861D01*
X170893511Y-109599228D01*
X170897436Y-109601851D01*
X171148149Y-109852564D01*
X171148151Y-109852567D01*
X171265598Y-110028338D01*
X171345140Y-110147382D01*
X171480827Y-110474960D01*
X171550000Y-110822714D01*
X171550000Y-111177286D01*
X171520618Y-111325000D01*
X171480827Y-111525041D01*
X171455518Y-111586141D01*
X171345140Y-111852618D01*
X171148149Y-112147436D01*
X170897436Y-112398149D01*
X170897433Y-112398151D01*
X170602620Y-112595139D01*
X170275041Y-112730827D01*
X170176967Y-112750335D01*
X169927286Y-112800000D01*
X169572714Y-112800000D01*
X169323033Y-112750335D01*
X169224959Y-112730827D01*
X168897380Y-112595139D01*
X168602567Y-112398151D01*
X168602564Y-112398149D01*
X168351851Y-112147436D01*
X168154860Y-111852618D01*
X168044482Y-111586141D01*
X168019173Y-111525041D01*
X167979382Y-111325000D01*
X167950000Y-111177286D01*
X167950000Y-110822714D01*
X168019173Y-110474960D01*
X168154860Y-110147382D01*
X168234403Y-110028338D01*
X168351849Y-109852567D01*
X168351851Y-109852564D01*
X168602564Y-109601851D01*
X168606489Y-109599228D01*
X168897380Y-109404861D01*
X169224959Y-109269173D01*
X169340878Y-109246115D01*
X169572714Y-109200000D01*
X169927286Y-109200000D01*
X170159122Y-109246115D01*
X170159122Y-109246115D01*
G37*
G36*
X126650000Y-112480000D02*
X124750000Y-112480000D01*
X124750000Y-111480000D01*
X126650000Y-111480000D01*
X126650000Y-112480000D01*
X126650000Y-112480000D01*
G37*
G36*
X121250000Y-112480000D02*
X119350000Y-112480000D01*
X119350000Y-111480000D01*
X121250000Y-111480000D01*
X121250000Y-112480000D01*
X121250000Y-112480000D01*
G37*
G36*
X126650000Y-111210000D02*
X124750000Y-111210000D01*
X124750000Y-110210000D01*
X126650000Y-110210000D01*
X126650000Y-111210000D01*
X126650000Y-111210000D01*
G37*
G36*
X121250000Y-111210000D02*
X119350000Y-111210000D01*
X119350000Y-110210000D01*
X121250000Y-110210000D01*
X121250000Y-111210000D01*
X121250000Y-111210000D01*
G37*
G36*
X157300000Y-110750000D02*
X147200000Y-110750000D01*
X147200000Y-109050000D01*
X157300000Y-109050000D01*
X157300000Y-110750000D01*
X157300000Y-110750000D01*
G37*
G36*
X131869628Y-108530493D02*
X131917354Y-108544970D01*
X131961336Y-108568479D01*
X131999885Y-108600115D01*
X132031521Y-108638664D01*
X132055030Y-108682646D01*
X132069507Y-108730372D01*
X132075000Y-108786141D01*
X132075000Y-109913859D01*
X132069507Y-109969628D01*
X132055030Y-110017354D01*
X132031521Y-110061336D01*
X131999885Y-110099885D01*
X131961336Y-110131521D01*
X131917354Y-110155030D01*
X131869628Y-110169507D01*
X131813859Y-110175000D01*
X130186141Y-110175000D01*
X130130372Y-110169507D01*
X130082646Y-110155030D01*
X130038664Y-110131521D01*
X130000115Y-110099885D01*
X129968479Y-110061336D01*
X129944970Y-110017354D01*
X129930493Y-109969628D01*
X129925000Y-109913859D01*
X129925000Y-108786141D01*
X129930493Y-108730372D01*
X129944970Y-108682646D01*
X129968479Y-108638664D01*
X130000115Y-108600115D01*
X130038664Y-108568479D01*
X130082646Y-108544970D01*
X130130372Y-108530493D01*
X130186141Y-108525000D01*
X131813859Y-108525000D01*
X131869628Y-108530493D01*
X131869628Y-108530493D01*
G37*
G36*
X126650000Y-109940000D02*
X124750000Y-109940000D01*
X124750000Y-108940000D01*
X126650000Y-108940000D01*
X126650000Y-109940000D01*
X126650000Y-109940000D01*
G37*
G36*
X121250000Y-109940000D02*
X119350000Y-109940000D01*
X119350000Y-108940000D01*
X121250000Y-108940000D01*
X121250000Y-109940000D01*
X121250000Y-109940000D01*
G37*
G36*
X125427378Y-106205308D02*
X125473302Y-106219239D01*
X125515615Y-106241855D01*
X125552705Y-106272295D01*
X125583145Y-106309385D01*
X125605761Y-106351698D01*
X125619692Y-106397622D01*
X125625000Y-106451511D01*
X125625000Y-107748489D01*
X125619692Y-107802378D01*
X125605761Y-107848302D01*
X125583145Y-107890615D01*
X125552705Y-107927705D01*
X125515615Y-107958145D01*
X125473302Y-107980761D01*
X125427378Y-107994692D01*
X125373489Y-108000000D01*
X124126511Y-108000000D01*
X124072622Y-107994692D01*
X124026698Y-107980761D01*
X123984385Y-107958145D01*
X123947295Y-107927705D01*
X123916855Y-107890615D01*
X123894239Y-107848302D01*
X123880308Y-107802378D01*
X123875000Y-107748489D01*
X123875000Y-106451511D01*
X123880308Y-106397622D01*
X123894239Y-106351698D01*
X123916855Y-106309385D01*
X123947295Y-106272295D01*
X123984385Y-106241855D01*
X124026698Y-106219239D01*
X124072622Y-106205308D01*
X124126511Y-106200000D01*
X125373489Y-106200000D01*
X125427378Y-106205308D01*
X125427378Y-106205308D01*
G37*
G36*
X128923497Y-106505997D02*
X128976153Y-106521970D01*
X129024665Y-106547900D01*
X129067196Y-106582804D01*
X129102100Y-106625335D01*
X129128030Y-106673847D01*
X129144003Y-106726503D01*
X129150000Y-106787390D01*
X129150000Y-107587610D01*
X129144003Y-107648497D01*
X129128030Y-107701153D01*
X129102100Y-107749665D01*
X129067196Y-107792196D01*
X129024665Y-107827100D01*
X128976153Y-107853030D01*
X128923497Y-107869003D01*
X128862610Y-107875000D01*
X127637390Y-107875000D01*
X127576503Y-107869003D01*
X127523847Y-107853030D01*
X127475335Y-107827100D01*
X127432804Y-107792196D01*
X127397900Y-107749665D01*
X127371970Y-107701153D01*
X127355997Y-107648497D01*
X127350000Y-107587610D01*
X127350000Y-106787390D01*
X127355997Y-106726503D01*
X127371970Y-106673847D01*
X127397900Y-106625335D01*
X127432804Y-106582804D01*
X127475335Y-106547900D01*
X127523847Y-106521970D01*
X127576503Y-106505997D01*
X127637390Y-106500000D01*
X128862610Y-106500000D01*
X128923497Y-106505997D01*
X128923497Y-106505997D01*
G37*
G36*
X118969628Y-105430493D02*
X119017354Y-105444970D01*
X119061336Y-105468479D01*
X119099885Y-105500115D01*
X119131521Y-105538664D01*
X119155030Y-105582646D01*
X119169507Y-105630372D01*
X119175000Y-105686141D01*
X119175000Y-107313859D01*
X119169507Y-107369628D01*
X119155030Y-107417354D01*
X119131521Y-107461336D01*
X119099885Y-107499885D01*
X119061336Y-107531521D01*
X119017354Y-107555030D01*
X118969628Y-107569507D01*
X118913859Y-107575000D01*
X117786141Y-107575000D01*
X117730372Y-107569507D01*
X117682646Y-107555030D01*
X117638664Y-107531521D01*
X117600115Y-107499885D01*
X117568479Y-107461336D01*
X117544970Y-107417354D01*
X117530493Y-107369628D01*
X117525000Y-107313859D01*
X117525000Y-105686141D01*
X117530493Y-105630372D01*
X117544970Y-105582646D01*
X117568479Y-105538664D01*
X117600115Y-105500115D01*
X117638664Y-105468479D01*
X117682646Y-105444970D01*
X117730372Y-105430493D01*
X117786141Y-105425000D01*
X118913859Y-105425000D01*
X118969628Y-105430493D01*
X118969628Y-105430493D01*
G37*
G36*
X121769628Y-105430493D02*
X121817354Y-105444970D01*
X121861336Y-105468479D01*
X121899885Y-105500115D01*
X121931521Y-105538664D01*
X121955030Y-105582646D01*
X121969507Y-105630372D01*
X121975000Y-105686141D01*
X121975000Y-107313859D01*
X121969507Y-107369628D01*
X121955030Y-107417354D01*
X121931521Y-107461336D01*
X121899885Y-107499885D01*
X121861336Y-107531521D01*
X121817354Y-107555030D01*
X121769628Y-107569507D01*
X121713859Y-107575000D01*
X120586141Y-107575000D01*
X120530372Y-107569507D01*
X120482646Y-107555030D01*
X120438664Y-107531521D01*
X120400115Y-107499885D01*
X120368479Y-107461336D01*
X120344970Y-107417354D01*
X120330493Y-107369628D01*
X120325000Y-107313859D01*
X120325000Y-105686141D01*
X120330493Y-105630372D01*
X120344970Y-105582646D01*
X120368479Y-105538664D01*
X120400115Y-105500115D01*
X120438664Y-105468479D01*
X120482646Y-105444970D01*
X120530372Y-105430493D01*
X120586141Y-105425000D01*
X121713859Y-105425000D01*
X121769628Y-105430493D01*
X121769628Y-105430493D01*
G37*
G36*
X135050000Y-106900000D02*
X133850000Y-106900000D01*
X133850000Y-105600000D01*
X135050000Y-105600000D01*
X135050000Y-106900000D01*
X135050000Y-106900000D01*
G37*
G36*
X133150000Y-106900000D02*
X131950000Y-106900000D01*
X131950000Y-105600000D01*
X133150000Y-105600000D01*
X133150000Y-106900000D01*
X133150000Y-106900000D01*
G37*
G36*
X163750000Y-106080000D02*
X161350000Y-106080000D01*
X161350000Y-105080000D01*
X163750000Y-105080000D01*
X163750000Y-106080000D01*
X163750000Y-106080000D01*
G37*
G36*
X173150000Y-106080000D02*
X170750000Y-106080000D01*
X170750000Y-105080000D01*
X173150000Y-105080000D01*
X173150000Y-106080000D01*
X173150000Y-106080000D01*
G37*
G36*
X128923497Y-104630997D02*
X128976153Y-104646970D01*
X129024665Y-104672900D01*
X129067196Y-104707804D01*
X129102100Y-104750335D01*
X129128030Y-104798847D01*
X129144003Y-104851503D01*
X129150000Y-104912390D01*
X129150000Y-105712610D01*
X129144003Y-105773497D01*
X129128030Y-105826153D01*
X129102100Y-105874665D01*
X129067196Y-105917196D01*
X129024665Y-105952100D01*
X128976153Y-105978030D01*
X128923497Y-105994003D01*
X128862610Y-106000000D01*
X127637390Y-106000000D01*
X127576503Y-105994003D01*
X127523847Y-105978030D01*
X127475335Y-105952100D01*
X127432804Y-105917196D01*
X127397900Y-105874665D01*
X127371970Y-105826153D01*
X127355997Y-105773497D01*
X127350000Y-105712610D01*
X127350000Y-104912390D01*
X127355997Y-104851503D01*
X127371970Y-104798847D01*
X127397900Y-104750335D01*
X127432804Y-104707804D01*
X127475335Y-104672900D01*
X127523847Y-104646970D01*
X127576503Y-104630997D01*
X127637390Y-104625000D01*
X128862610Y-104625000D01*
X128923497Y-104630997D01*
X128923497Y-104630997D01*
G37*
G36*
X125427378Y-103505308D02*
X125473302Y-103519239D01*
X125515615Y-103541855D01*
X125552705Y-103572295D01*
X125583145Y-103609385D01*
X125605761Y-103651698D01*
X125619692Y-103697622D01*
X125625000Y-103751511D01*
X125625000Y-105048489D01*
X125619692Y-105102378D01*
X125605761Y-105148302D01*
X125583145Y-105190615D01*
X125552705Y-105227705D01*
X125515615Y-105258145D01*
X125473302Y-105280761D01*
X125427378Y-105294692D01*
X125373489Y-105300000D01*
X124126511Y-105300000D01*
X124072622Y-105294692D01*
X124026698Y-105280761D01*
X123984385Y-105258145D01*
X123947295Y-105227705D01*
X123916855Y-105190615D01*
X123894239Y-105148302D01*
X123880308Y-105102378D01*
X123875000Y-105048489D01*
X123875000Y-103751511D01*
X123880308Y-103697622D01*
X123894239Y-103651698D01*
X123916855Y-103609385D01*
X123947295Y-103572295D01*
X123984385Y-103541855D01*
X124026698Y-103519239D01*
X124072622Y-103505308D01*
X124126511Y-103500000D01*
X125373489Y-103500000D01*
X125427378Y-103505308D01*
X125427378Y-103505308D01*
G37*
G36*
X118769628Y-102930493D02*
X118817354Y-102944970D01*
X118861336Y-102968479D01*
X118899885Y-103000115D01*
X118931521Y-103038664D01*
X118955030Y-103082646D01*
X118969507Y-103130372D01*
X118975000Y-103186141D01*
X118975000Y-104813859D01*
X118969507Y-104869628D01*
X118955030Y-104917354D01*
X118931521Y-104961336D01*
X118899885Y-104999885D01*
X118861336Y-105031521D01*
X118817354Y-105055030D01*
X118769628Y-105069507D01*
X118713859Y-105075000D01*
X117586141Y-105075000D01*
X117530372Y-105069507D01*
X117482646Y-105055030D01*
X117438664Y-105031521D01*
X117400115Y-104999885D01*
X117368479Y-104961336D01*
X117344970Y-104917354D01*
X117330493Y-104869628D01*
X117325000Y-104813859D01*
X117325000Y-103186141D01*
X117330493Y-103130372D01*
X117344970Y-103082646D01*
X117368479Y-103038664D01*
X117400115Y-103000115D01*
X117438664Y-102968479D01*
X117482646Y-102944970D01*
X117530372Y-102930493D01*
X117586141Y-102925000D01*
X118713859Y-102925000D01*
X118769628Y-102930493D01*
X118769628Y-102930493D01*
G37*
G36*
X115969628Y-102930493D02*
X116017354Y-102944970D01*
X116061336Y-102968479D01*
X116099885Y-103000115D01*
X116131521Y-103038664D01*
X116155030Y-103082646D01*
X116169507Y-103130372D01*
X116175000Y-103186141D01*
X116175000Y-104813859D01*
X116169507Y-104869628D01*
X116155030Y-104917354D01*
X116131521Y-104961336D01*
X116099885Y-104999885D01*
X116061336Y-105031521D01*
X116017354Y-105055030D01*
X115969628Y-105069507D01*
X115913859Y-105075000D01*
X114786141Y-105075000D01*
X114730372Y-105069507D01*
X114682646Y-105055030D01*
X114638664Y-105031521D01*
X114600115Y-104999885D01*
X114568479Y-104961336D01*
X114544970Y-104917354D01*
X114530493Y-104869628D01*
X114525000Y-104813859D01*
X114525000Y-103186141D01*
X114530493Y-103130372D01*
X114544970Y-103082646D01*
X114568479Y-103038664D01*
X114600115Y-103000115D01*
X114638664Y-102968479D01*
X114682646Y-102944970D01*
X114730372Y-102930493D01*
X114786141Y-102925000D01*
X115913859Y-102925000D01*
X115969628Y-102930493D01*
X115969628Y-102930493D01*
G37*
G36*
X77122947Y-102055722D02*
X77386833Y-102165027D01*
X77624324Y-102323713D01*
X77826287Y-102525676D01*
X77984973Y-102763167D01*
X78094278Y-103027053D01*
X78150000Y-103307186D01*
X78150000Y-103592814D01*
X78094278Y-103872947D01*
X77984973Y-104136833D01*
X77826287Y-104374324D01*
X77624324Y-104576287D01*
X77386833Y-104734973D01*
X77122947Y-104844278D01*
X76842814Y-104900000D01*
X76557186Y-104900000D01*
X76277053Y-104844278D01*
X76013167Y-104734973D01*
X75775676Y-104576287D01*
X75573713Y-104374324D01*
X75415027Y-104136833D01*
X75305722Y-103872947D01*
X75250000Y-103592814D01*
X75250000Y-103307186D01*
X75305722Y-103027053D01*
X75415027Y-102763167D01*
X75573713Y-102525676D01*
X75775676Y-102323713D01*
X76013167Y-102165027D01*
X76277053Y-102055722D01*
X76557186Y-102000000D01*
X76842814Y-102000000D01*
X77122947Y-102055722D01*
X77122947Y-102055722D01*
G37*
G36*
X93622947Y-102055722D02*
X93886833Y-102165027D01*
X94124324Y-102323713D01*
X94326287Y-102525676D01*
X94484973Y-102763167D01*
X94594278Y-103027053D01*
X94650000Y-103307186D01*
X94650000Y-103592814D01*
X94594278Y-103872947D01*
X94484973Y-104136833D01*
X94326287Y-104374324D01*
X94124324Y-104576287D01*
X93886833Y-104734973D01*
X93622947Y-104844278D01*
X93342814Y-104900000D01*
X93057186Y-104900000D01*
X92777053Y-104844278D01*
X92513167Y-104734973D01*
X92275676Y-104576287D01*
X92073713Y-104374324D01*
X91915027Y-104136833D01*
X91805722Y-103872947D01*
X91750000Y-103592814D01*
X91750000Y-103307186D01*
X91805722Y-103027053D01*
X91915027Y-102763167D01*
X92073713Y-102525676D01*
X92275676Y-102323713D01*
X92513167Y-102165027D01*
X92777053Y-102055722D01*
X93057186Y-102000000D01*
X93342814Y-102000000D01*
X93622947Y-102055722D01*
X93622947Y-102055722D01*
G37*
G36*
X105622947Y-102055722D02*
X105886833Y-102165027D01*
X106124324Y-102323713D01*
X106326287Y-102525676D01*
X106484973Y-102763167D01*
X106594278Y-103027053D01*
X106650000Y-103307186D01*
X106650000Y-103592814D01*
X106594278Y-103872947D01*
X106484973Y-104136833D01*
X106326287Y-104374324D01*
X106124324Y-104576287D01*
X105886833Y-104734973D01*
X105622947Y-104844278D01*
X105342814Y-104900000D01*
X105057186Y-104900000D01*
X104777053Y-104844278D01*
X104513167Y-104734973D01*
X104275676Y-104576287D01*
X104073713Y-104374324D01*
X103915027Y-104136833D01*
X103805722Y-103872947D01*
X103750000Y-103592814D01*
X103750000Y-103307186D01*
X103805722Y-103027053D01*
X103915027Y-102763167D01*
X104073713Y-102525676D01*
X104275676Y-102323713D01*
X104513167Y-102165027D01*
X104777053Y-102055722D01*
X105057186Y-102000000D01*
X105342814Y-102000000D01*
X105622947Y-102055722D01*
X105622947Y-102055722D01*
G37*
G36*
X89122947Y-102055722D02*
X89386833Y-102165027D01*
X89624324Y-102323713D01*
X89826287Y-102525676D01*
X89984973Y-102763167D01*
X90094278Y-103027053D01*
X90150000Y-103307186D01*
X90150000Y-103592814D01*
X90094278Y-103872947D01*
X89984973Y-104136833D01*
X89826287Y-104374324D01*
X89624324Y-104576287D01*
X89386833Y-104734973D01*
X89122947Y-104844278D01*
X88842814Y-104900000D01*
X88557186Y-104900000D01*
X88277053Y-104844278D01*
X88013167Y-104734973D01*
X87775676Y-104576287D01*
X87573713Y-104374324D01*
X87415027Y-104136833D01*
X87305722Y-103872947D01*
X87250000Y-103592814D01*
X87250000Y-103307186D01*
X87305722Y-103027053D01*
X87415027Y-102763167D01*
X87573713Y-102525676D01*
X87775676Y-102323713D01*
X88013167Y-102165027D01*
X88277053Y-102055722D01*
X88557186Y-102000000D01*
X88842814Y-102000000D01*
X89122947Y-102055722D01*
X89122947Y-102055722D01*
G37*
G36*
X134100000Y-104900000D02*
X132900000Y-104900000D01*
X132900000Y-103600000D01*
X134100000Y-103600000D01*
X134100000Y-104900000D01*
X134100000Y-104900000D01*
G37*
G36*
X173150000Y-104810000D02*
X170750000Y-104810000D01*
X170750000Y-103810000D01*
X173150000Y-103810000D01*
X173150000Y-104810000D01*
X173150000Y-104810000D01*
G37*
G36*
X163750000Y-104810000D02*
X161350000Y-104810000D01*
X161350000Y-103810000D01*
X163750000Y-103810000D01*
X163750000Y-104810000D01*
X163750000Y-104810000D01*
G37*
G36*
X157300000Y-104450000D02*
X147200000Y-104450000D01*
X147200000Y-102750000D01*
X157300000Y-102750000D01*
X157300000Y-104450000D01*
X157300000Y-104450000D01*
G37*
G36*
X173150000Y-103540000D02*
X170750000Y-103540000D01*
X170750000Y-102540000D01*
X173150000Y-102540000D01*
X173150000Y-103540000D01*
X173150000Y-103540000D01*
G37*
G36*
X163750000Y-103540000D02*
X161350000Y-103540000D01*
X161350000Y-102540000D01*
X163750000Y-102540000D01*
X163750000Y-103540000D01*
X163750000Y-103540000D01*
G37*
G36*
X83136393Y-99843553D02*
X83245872Y-99865330D01*
X83555252Y-99993479D01*
X83833687Y-100179523D01*
X84070477Y-100416313D01*
X84256521Y-100694748D01*
X84382960Y-101000000D01*
X84384670Y-101004129D01*
X84435978Y-101262068D01*
X84450000Y-101332565D01*
X84450000Y-101667435D01*
X84384670Y-101995872D01*
X84256521Y-102305252D01*
X84070477Y-102583687D01*
X83833687Y-102820477D01*
X83555252Y-103006521D01*
X83245872Y-103134670D01*
X83136393Y-103156447D01*
X82917437Y-103200000D01*
X82582563Y-103200000D01*
X82363607Y-103156447D01*
X82254128Y-103134670D01*
X81944748Y-103006521D01*
X81666313Y-102820477D01*
X81429523Y-102583687D01*
X81243479Y-102305252D01*
X81115330Y-101995872D01*
X81050000Y-101667435D01*
X81050000Y-101332565D01*
X81064023Y-101262068D01*
X81115330Y-101004129D01*
X81117040Y-101000000D01*
X81243479Y-100694748D01*
X81429523Y-100416313D01*
X81666313Y-100179523D01*
X81944748Y-99993479D01*
X82254128Y-99865330D01*
X82363607Y-99843553D01*
X82582563Y-99800000D01*
X82917437Y-99800000D01*
X83136393Y-99843553D01*
X83136393Y-99843553D01*
G37*
G36*
X99636393Y-99843553D02*
X99745872Y-99865330D01*
X100055252Y-99993479D01*
X100333687Y-100179523D01*
X100570477Y-100416313D01*
X100756521Y-100694748D01*
X100882960Y-101000000D01*
X100884670Y-101004129D01*
X100935978Y-101262068D01*
X100950000Y-101332565D01*
X100950000Y-101667435D01*
X100884670Y-101995872D01*
X100756521Y-102305252D01*
X100570477Y-102583687D01*
X100333687Y-102820477D01*
X100055252Y-103006521D01*
X99745872Y-103134670D01*
X99636393Y-103156447D01*
X99417437Y-103200000D01*
X99082563Y-103200000D01*
X98863607Y-103156447D01*
X98754128Y-103134670D01*
X98444748Y-103006521D01*
X98166313Y-102820477D01*
X97929523Y-102583687D01*
X97743479Y-102305252D01*
X97615330Y-101995872D01*
X97550000Y-101667435D01*
X97550000Y-101332565D01*
X97564023Y-101262068D01*
X97615330Y-101004129D01*
X97617040Y-101000000D01*
X97743479Y-100694748D01*
X97929523Y-100416313D01*
X98166313Y-100179523D01*
X98444748Y-99993479D01*
X98754128Y-99865330D01*
X98863607Y-99843553D01*
X99082563Y-99800000D01*
X99417437Y-99800000D01*
X99636393Y-99843553D01*
X99636393Y-99843553D01*
G37*
G36*
X132793000Y-102541000D02*
X129843000Y-102541000D01*
X129843000Y-101081000D01*
X132793000Y-101081000D01*
X132793000Y-102541000D01*
X132793000Y-102541000D01*
G37*
G36*
X173150000Y-102270000D02*
X170750000Y-102270000D01*
X170750000Y-101270000D01*
X173150000Y-101270000D01*
X173150000Y-102270000D01*
X173150000Y-102270000D01*
G37*
G36*
X163750000Y-102270000D02*
X161350000Y-102270000D01*
X161350000Y-101270000D01*
X163750000Y-101270000D01*
X163750000Y-102270000D01*
X163750000Y-102270000D01*
G37*
G36*
X118783497Y-99950997D02*
X118836153Y-99966970D01*
X118884665Y-99992900D01*
X118927196Y-100027804D01*
X118962100Y-100070335D01*
X118988030Y-100118847D01*
X119004003Y-100171503D01*
X119010000Y-100232390D01*
X119010000Y-101032610D01*
X119004003Y-101093497D01*
X118988030Y-101146153D01*
X118962100Y-101194665D01*
X118927196Y-101237196D01*
X118884665Y-101272100D01*
X118836153Y-101298030D01*
X118783497Y-101314003D01*
X118722610Y-101320000D01*
X117497390Y-101320000D01*
X117436503Y-101314003D01*
X117383847Y-101298030D01*
X117335335Y-101272100D01*
X117292804Y-101237196D01*
X117257900Y-101194665D01*
X117231970Y-101146153D01*
X117215997Y-101093497D01*
X117210000Y-101032610D01*
X117210000Y-100232390D01*
X117215997Y-100171503D01*
X117231970Y-100118847D01*
X117257900Y-100070335D01*
X117292804Y-100027804D01*
X117335335Y-99992900D01*
X117383847Y-99966970D01*
X117436503Y-99950997D01*
X117497390Y-99945000D01*
X118722610Y-99945000D01*
X118783497Y-99950997D01*
X118783497Y-99950997D01*
G37*
G36*
X173150000Y-101000000D02*
X170750000Y-101000000D01*
X170750000Y-100000000D01*
X173150000Y-100000000D01*
X173150000Y-101000000D01*
X173150000Y-101000000D01*
G37*
G36*
X163750000Y-101000000D02*
X161350000Y-101000000D01*
X161350000Y-100000000D01*
X163750000Y-100000000D01*
X163750000Y-101000000D01*
X163750000Y-101000000D01*
G37*
G36*
X151173497Y-99505997D02*
X151226153Y-99521970D01*
X151274665Y-99547900D01*
X151317196Y-99582804D01*
X151352100Y-99625335D01*
X151378030Y-99673847D01*
X151394003Y-99726503D01*
X151400000Y-99787390D01*
X151400000Y-100587610D01*
X151394003Y-100648497D01*
X151378030Y-100701153D01*
X151352100Y-100749665D01*
X151317196Y-100792196D01*
X151274665Y-100827100D01*
X151226153Y-100853030D01*
X151173497Y-100869003D01*
X151112610Y-100875000D01*
X149887390Y-100875000D01*
X149826503Y-100869003D01*
X149773847Y-100853030D01*
X149725335Y-100827100D01*
X149682804Y-100792196D01*
X149647900Y-100749665D01*
X149621970Y-100701153D01*
X149605997Y-100648497D01*
X149600000Y-100587610D01*
X149600000Y-99787390D01*
X149605997Y-99726503D01*
X149621970Y-99673847D01*
X149647900Y-99625335D01*
X149682804Y-99582804D01*
X149725335Y-99547900D01*
X149773847Y-99521970D01*
X149826503Y-99505997D01*
X149887390Y-99500000D01*
X151112610Y-99500000D01*
X151173497Y-99505997D01*
X151173497Y-99505997D01*
G37*
G36*
X154673497Y-99505997D02*
X154726153Y-99521970D01*
X154774665Y-99547900D01*
X154817196Y-99582804D01*
X154852100Y-99625335D01*
X154878030Y-99673847D01*
X154894003Y-99726503D01*
X154900000Y-99787390D01*
X154900000Y-100587610D01*
X154894003Y-100648497D01*
X154878030Y-100701153D01*
X154852100Y-100749665D01*
X154817196Y-100792196D01*
X154774665Y-100827100D01*
X154726153Y-100853030D01*
X154673497Y-100869003D01*
X154612610Y-100875000D01*
X153387390Y-100875000D01*
X153326503Y-100869003D01*
X153273847Y-100853030D01*
X153225335Y-100827100D01*
X153182804Y-100792196D01*
X153147900Y-100749665D01*
X153121970Y-100701153D01*
X153105997Y-100648497D01*
X153100000Y-100587610D01*
X153100000Y-99787390D01*
X153105997Y-99726503D01*
X153121970Y-99673847D01*
X153147900Y-99625335D01*
X153182804Y-99582804D01*
X153225335Y-99547900D01*
X153273847Y-99521970D01*
X153326503Y-99505997D01*
X153387390Y-99500000D01*
X154612610Y-99500000D01*
X154673497Y-99505997D01*
X154673497Y-99505997D01*
G37*
G36*
X157923497Y-99505997D02*
X157976153Y-99521970D01*
X158024665Y-99547900D01*
X158067196Y-99582804D01*
X158102100Y-99625335D01*
X158128030Y-99673847D01*
X158144003Y-99726503D01*
X158150000Y-99787390D01*
X158150000Y-100587610D01*
X158144003Y-100648497D01*
X158128030Y-100701153D01*
X158102100Y-100749665D01*
X158067196Y-100792196D01*
X158024665Y-100827100D01*
X157976153Y-100853030D01*
X157923497Y-100869003D01*
X157862610Y-100875000D01*
X156637390Y-100875000D01*
X156576503Y-100869003D01*
X156523847Y-100853030D01*
X156475335Y-100827100D01*
X156432804Y-100792196D01*
X156397900Y-100749665D01*
X156371970Y-100701153D01*
X156355997Y-100648497D01*
X156350000Y-100587610D01*
X156350000Y-99787390D01*
X156355997Y-99726503D01*
X156371970Y-99673847D01*
X156397900Y-99625335D01*
X156432804Y-99582804D01*
X156475335Y-99547900D01*
X156523847Y-99521970D01*
X156576503Y-99505997D01*
X156637390Y-99500000D01*
X157862610Y-99500000D01*
X157923497Y-99505997D01*
X157923497Y-99505997D01*
G37*
G36*
X147673497Y-99505997D02*
X147726153Y-99521970D01*
X147774665Y-99547900D01*
X147817196Y-99582804D01*
X147852100Y-99625335D01*
X147878030Y-99673847D01*
X147894003Y-99726503D01*
X147900000Y-99787390D01*
X147900000Y-100587610D01*
X147894003Y-100648497D01*
X147878030Y-100701153D01*
X147852100Y-100749665D01*
X147817196Y-100792196D01*
X147774665Y-100827100D01*
X147726153Y-100853030D01*
X147673497Y-100869003D01*
X147612610Y-100875000D01*
X146387390Y-100875000D01*
X146326503Y-100869003D01*
X146273847Y-100853030D01*
X146225335Y-100827100D01*
X146182804Y-100792196D01*
X146147900Y-100749665D01*
X146121970Y-100701153D01*
X146105997Y-100648497D01*
X146100000Y-100587610D01*
X146100000Y-99787390D01*
X146105997Y-99726503D01*
X146121970Y-99673847D01*
X146147900Y-99625335D01*
X146182804Y-99582804D01*
X146225335Y-99547900D01*
X146273847Y-99521970D01*
X146326503Y-99505997D01*
X146387390Y-99500000D01*
X147612610Y-99500000D01*
X147673497Y-99505997D01*
X147673497Y-99505997D01*
G37*
G36*
X127465000Y-100478000D02*
X125265000Y-100478000D01*
X125265000Y-97578000D01*
X127465000Y-97578000D01*
X127465000Y-100478000D01*
X127465000Y-100478000D01*
G37*
G36*
X132793000Y-100341000D02*
X131743000Y-100341000D01*
X131743000Y-98881000D01*
X132793000Y-98881000D01*
X132793000Y-100341000D01*
X132793000Y-100341000D01*
G37*
G36*
X130893000Y-100341000D02*
X129843000Y-100341000D01*
X129843000Y-98881000D01*
X130893000Y-98881000D01*
X130893000Y-100341000D01*
X130893000Y-100341000D01*
G37*
G36*
X163750000Y-99730000D02*
X161350000Y-99730000D01*
X161350000Y-98730000D01*
X163750000Y-98730000D01*
X163750000Y-99730000D01*
X163750000Y-99730000D01*
G37*
G36*
X173150000Y-99730000D02*
X170750000Y-99730000D01*
X170750000Y-98730000D01*
X173150000Y-98730000D01*
X173150000Y-99730000D01*
X173150000Y-99730000D01*
G37*
G36*
X118783497Y-98075997D02*
X118836153Y-98091970D01*
X118884665Y-98117900D01*
X118927196Y-98152804D01*
X118962100Y-98195335D01*
X118988030Y-98243847D01*
X119004003Y-98296503D01*
X119010000Y-98357390D01*
X119010000Y-99157610D01*
X119004003Y-99218497D01*
X118988030Y-99271153D01*
X118962100Y-99319665D01*
X118927196Y-99362196D01*
X118884665Y-99397100D01*
X118836153Y-99423030D01*
X118783497Y-99439003D01*
X118722610Y-99445000D01*
X117497390Y-99445000D01*
X117436503Y-99439003D01*
X117383847Y-99423030D01*
X117335335Y-99397100D01*
X117292804Y-99362196D01*
X117257900Y-99319665D01*
X117231970Y-99271153D01*
X117215997Y-99218497D01*
X117210000Y-99157610D01*
X117210000Y-98357390D01*
X117215997Y-98296503D01*
X117231970Y-98243847D01*
X117257900Y-98195335D01*
X117292804Y-98152804D01*
X117335335Y-98117900D01*
X117383847Y-98091970D01*
X117436503Y-98075997D01*
X117497390Y-98070000D01*
X118722610Y-98070000D01*
X118783497Y-98075997D01*
X118783497Y-98075997D01*
G37*
G36*
X144125000Y-99375000D02*
X142275000Y-99375000D01*
X142275000Y-94625000D01*
X144125000Y-94625000D01*
X144125000Y-99375000D01*
X144125000Y-99375000D01*
G37*
G36*
X138225000Y-99375000D02*
X136375000Y-99375000D01*
X136375000Y-94625000D01*
X138225000Y-94625000D01*
X138225000Y-99375000D01*
X138225000Y-99375000D01*
G37*
G36*
X147673497Y-97630997D02*
X147726153Y-97646970D01*
X147774665Y-97672900D01*
X147817196Y-97707804D01*
X147852100Y-97750335D01*
X147878030Y-97798847D01*
X147894003Y-97851503D01*
X147900000Y-97912390D01*
X147900000Y-98712610D01*
X147894003Y-98773497D01*
X147878030Y-98826153D01*
X147852100Y-98874665D01*
X147817196Y-98917196D01*
X147774665Y-98952100D01*
X147726153Y-98978030D01*
X147673497Y-98994003D01*
X147612610Y-99000000D01*
X146387390Y-99000000D01*
X146326503Y-98994003D01*
X146273847Y-98978030D01*
X146225335Y-98952100D01*
X146182804Y-98917196D01*
X146147900Y-98874665D01*
X146121970Y-98826153D01*
X146105997Y-98773497D01*
X146100000Y-98712610D01*
X146100000Y-97912390D01*
X146105997Y-97851503D01*
X146121970Y-97798847D01*
X146147900Y-97750335D01*
X146182804Y-97707804D01*
X146225335Y-97672900D01*
X146273847Y-97646970D01*
X146326503Y-97630997D01*
X146387390Y-97625000D01*
X147612610Y-97625000D01*
X147673497Y-97630997D01*
X147673497Y-97630997D01*
G37*
G36*
X151173497Y-97630997D02*
X151226153Y-97646970D01*
X151274665Y-97672900D01*
X151317196Y-97707804D01*
X151352100Y-97750335D01*
X151378030Y-97798847D01*
X151394003Y-97851503D01*
X151400000Y-97912390D01*
X151400000Y-98712610D01*
X151394003Y-98773497D01*
X151378030Y-98826153D01*
X151352100Y-98874665D01*
X151317196Y-98917196D01*
X151274665Y-98952100D01*
X151226153Y-98978030D01*
X151173497Y-98994003D01*
X151112610Y-99000000D01*
X149887390Y-99000000D01*
X149826503Y-98994003D01*
X149773847Y-98978030D01*
X149725335Y-98952100D01*
X149682804Y-98917196D01*
X149647900Y-98874665D01*
X149621970Y-98826153D01*
X149605997Y-98773497D01*
X149600000Y-98712610D01*
X149600000Y-97912390D01*
X149605997Y-97851503D01*
X149621970Y-97798847D01*
X149647900Y-97750335D01*
X149682804Y-97707804D01*
X149725335Y-97672900D01*
X149773847Y-97646970D01*
X149826503Y-97630997D01*
X149887390Y-97625000D01*
X151112610Y-97625000D01*
X151173497Y-97630997D01*
X151173497Y-97630997D01*
G37*
G36*
X154673497Y-97630997D02*
X154726153Y-97646970D01*
X154774665Y-97672900D01*
X154817196Y-97707804D01*
X154852100Y-97750335D01*
X154878030Y-97798847D01*
X154894003Y-97851503D01*
X154900000Y-97912390D01*
X154900000Y-98712610D01*
X154894003Y-98773497D01*
X154878030Y-98826153D01*
X154852100Y-98874665D01*
X154817196Y-98917196D01*
X154774665Y-98952100D01*
X154726153Y-98978030D01*
X154673497Y-98994003D01*
X154612610Y-99000000D01*
X153387390Y-99000000D01*
X153326503Y-98994003D01*
X153273847Y-98978030D01*
X153225335Y-98952100D01*
X153182804Y-98917196D01*
X153147900Y-98874665D01*
X153121970Y-98826153D01*
X153105997Y-98773497D01*
X153100000Y-98712610D01*
X153100000Y-97912390D01*
X153105997Y-97851503D01*
X153121970Y-97798847D01*
X153147900Y-97750335D01*
X153182804Y-97707804D01*
X153225335Y-97672900D01*
X153273847Y-97646970D01*
X153326503Y-97630997D01*
X153387390Y-97625000D01*
X154612610Y-97625000D01*
X154673497Y-97630997D01*
X154673497Y-97630997D01*
G37*
G36*
X157923497Y-97630997D02*
X157976153Y-97646970D01*
X158024665Y-97672900D01*
X158067196Y-97707804D01*
X158102100Y-97750335D01*
X158128030Y-97798847D01*
X158144003Y-97851503D01*
X158150000Y-97912390D01*
X158150000Y-98712610D01*
X158144003Y-98773497D01*
X158128030Y-98826153D01*
X158102100Y-98874665D01*
X158067196Y-98917196D01*
X158024665Y-98952100D01*
X157976153Y-98978030D01*
X157923497Y-98994003D01*
X157862610Y-99000000D01*
X156637390Y-99000000D01*
X156576503Y-98994003D01*
X156523847Y-98978030D01*
X156475335Y-98952100D01*
X156432804Y-98917196D01*
X156397900Y-98874665D01*
X156371970Y-98826153D01*
X156355997Y-98773497D01*
X156350000Y-98712610D01*
X156350000Y-97912390D01*
X156355997Y-97851503D01*
X156371970Y-97798847D01*
X156397900Y-97750335D01*
X156432804Y-97707804D01*
X156475335Y-97672900D01*
X156523847Y-97646970D01*
X156576503Y-97630997D01*
X156637390Y-97625000D01*
X157862610Y-97625000D01*
X157923497Y-97630997D01*
X157923497Y-97630997D01*
G37*
G36*
X163750000Y-98460000D02*
X161350000Y-98460000D01*
X161350000Y-97460000D01*
X163750000Y-97460000D01*
X163750000Y-98460000D01*
X163750000Y-98460000D01*
G37*
G36*
X173150000Y-98460000D02*
X170750000Y-98460000D01*
X170750000Y-97460000D01*
X173150000Y-97460000D01*
X173150000Y-98460000D01*
X173150000Y-98460000D01*
G37*
G36*
X132691000Y-97631000D02*
X129691000Y-97631000D01*
X129691000Y-96231000D01*
X132691000Y-96231000D01*
X132691000Y-97631000D01*
X132691000Y-97631000D01*
G37*
G36*
X85705836Y-95065193D02*
X85837787Y-95105220D01*
X85903763Y-95125233D01*
X86086172Y-95222733D01*
X86246054Y-95353946D01*
X86377267Y-95513829D01*
X86423326Y-95600000D01*
X86474767Y-95696238D01*
X86476387Y-95701578D01*
X86534807Y-95894165D01*
X86550000Y-96048423D01*
X86550000Y-96451578D01*
X86534807Y-96605836D01*
X86529064Y-96624767D01*
X86474767Y-96803763D01*
X86377267Y-96986172D01*
X86246054Y-97146054D01*
X86086171Y-97277267D01*
X85967300Y-97340805D01*
X85903762Y-97374767D01*
X85837786Y-97394780D01*
X85705835Y-97434807D01*
X85500000Y-97455080D01*
X85294164Y-97434807D01*
X85162213Y-97394780D01*
X85096237Y-97374767D01*
X84913828Y-97277267D01*
X84753946Y-97146054D01*
X84656241Y-97027000D01*
X84622733Y-96986171D01*
X84525234Y-96803763D01*
X84525233Y-96803762D01*
X84470936Y-96624767D01*
X84465193Y-96605835D01*
X84450000Y-96451577D01*
X84450000Y-96048422D01*
X84465193Y-95894164D01*
X84515901Y-95727000D01*
X84525233Y-95696237D01*
X84622734Y-95513828D01*
X84654600Y-95475000D01*
X84753947Y-95353946D01*
X84913829Y-95222733D01*
X85096238Y-95125233D01*
X85162214Y-95105220D01*
X85294165Y-95065193D01*
X85500000Y-95044920D01*
X85705836Y-95065193D01*
X85705836Y-95065193D01*
G37*
G36*
X89050000Y-97450000D02*
X86950000Y-97450000D01*
X86950000Y-95050000D01*
X89050000Y-95050000D01*
X89050000Y-97450000D01*
X89050000Y-97450000D01*
G37*
G36*
X173150000Y-97190000D02*
X170750000Y-97190000D01*
X170750000Y-96190000D01*
X173150000Y-96190000D01*
X173150000Y-97190000D01*
X173150000Y-97190000D01*
G37*
G36*
X163750000Y-97190000D02*
X161350000Y-97190000D01*
X161350000Y-96190000D01*
X163750000Y-96190000D01*
X163750000Y-97190000D01*
X163750000Y-97190000D01*
G37*
G36*
X121062000Y-97027000D02*
X119862000Y-97027000D01*
X119862000Y-95727000D01*
X121062000Y-95727000D01*
X121062000Y-97027000D01*
X121062000Y-97027000D01*
G37*
G36*
X122962000Y-97027000D02*
X121762000Y-97027000D01*
X121762000Y-95727000D01*
X122962000Y-95727000D01*
X122962000Y-97027000D01*
X122962000Y-97027000D01*
G37*
G36*
X117855000Y-96800000D02*
X116555000Y-96800000D01*
X116555000Y-95600000D01*
X117855000Y-95600000D01*
X117855000Y-96800000D01*
X117855000Y-96800000D01*
G37*
G36*
X102205835Y-94315193D02*
X102337786Y-94355220D01*
X102403762Y-94375233D01*
X102467300Y-94409195D01*
X102586171Y-94472733D01*
X102746054Y-94603946D01*
X102877267Y-94763828D01*
X102974767Y-94946237D01*
X102994780Y-95012213D01*
X103034807Y-95144164D01*
X103050000Y-95298422D01*
X103050000Y-95701577D01*
X103034807Y-95855835D01*
X103023179Y-95894166D01*
X102974767Y-96053762D01*
X102974766Y-96053763D01*
X102877267Y-96236171D01*
X102746054Y-96396054D01*
X102586172Y-96527267D01*
X102403763Y-96624767D01*
X102337787Y-96644780D01*
X102205836Y-96684807D01*
X102000000Y-96705080D01*
X101794165Y-96684807D01*
X101662214Y-96644780D01*
X101596238Y-96624767D01*
X101413829Y-96527267D01*
X101253947Y-96396054D01*
X101122734Y-96236172D01*
X101025233Y-96053763D01*
X100976821Y-95894167D01*
X100965193Y-95855836D01*
X100950000Y-95701578D01*
X100950000Y-95298423D01*
X100965193Y-95144165D01*
X101025233Y-94946239D01*
X101025233Y-94946238D01*
X101059195Y-94882700D01*
X101122733Y-94763829D01*
X101253946Y-94603946D01*
X101413828Y-94472733D01*
X101596237Y-94375233D01*
X101662213Y-94355220D01*
X101794164Y-94315193D01*
X102000000Y-94294920D01*
X102205835Y-94315193D01*
X102205835Y-94315193D01*
G37*
G36*
X100550000Y-96700000D02*
X98450000Y-96700000D01*
X98450000Y-94300000D01*
X100550000Y-94300000D01*
X100550000Y-96700000D01*
X100550000Y-96700000D01*
G37*
G36*
X127465000Y-96478000D02*
X125265000Y-96478000D01*
X125265000Y-93578000D01*
X127465000Y-93578000D01*
X127465000Y-96478000D01*
X127465000Y-96478000D01*
G37*
G36*
X78450000Y-96300000D02*
X76050000Y-96300000D01*
X76050000Y-94200000D01*
X78450000Y-94200000D01*
X78450000Y-96300000D01*
X78450000Y-96300000D01*
G37*
G36*
X163750000Y-95920000D02*
X161350000Y-95920000D01*
X161350000Y-94920000D01*
X163750000Y-94920000D01*
X163750000Y-95920000D01*
X163750000Y-95920000D01*
G37*
G36*
X173150000Y-95920000D02*
X170750000Y-95920000D01*
X170750000Y-94920000D01*
X173150000Y-94920000D01*
X173150000Y-95920000D01*
X173150000Y-95920000D01*
G37*
G36*
X115855000Y-95850000D02*
X114555000Y-95850000D01*
X114555000Y-94650000D01*
X115855000Y-94650000D01*
X115855000Y-95850000D01*
X115855000Y-95850000D01*
G37*
G36*
X132691000Y-95031000D02*
X129691000Y-95031000D01*
X129691000Y-93631000D01*
X132691000Y-93631000D01*
X132691000Y-95031000D01*
X132691000Y-95031000D01*
G37*
G36*
X122012000Y-95027000D02*
X120812000Y-95027000D01*
X120812000Y-93727000D01*
X122012000Y-93727000D01*
X122012000Y-95027000D01*
X122012000Y-95027000D01*
G37*
G36*
X117855000Y-94900000D02*
X116555000Y-94900000D01*
X116555000Y-93700000D01*
X117855000Y-93700000D01*
X117855000Y-94900000D01*
X117855000Y-94900000D01*
G37*
G36*
X77528707Y-91707597D02*
X77605836Y-91715193D01*
X77737787Y-91755220D01*
X77803763Y-91775233D01*
X77986172Y-91872733D01*
X78146054Y-92003946D01*
X78277267Y-92163828D01*
X78374767Y-92346237D01*
X78374767Y-92346238D01*
X78434807Y-92544164D01*
X78455080Y-92750000D01*
X78434807Y-92955836D01*
X78394780Y-93087787D01*
X78374767Y-93153763D01*
X78277267Y-93336172D01*
X78146054Y-93496054D01*
X77986172Y-93627267D01*
X77803763Y-93724767D01*
X77737787Y-93744780D01*
X77605836Y-93784807D01*
X77528707Y-93792404D01*
X77451580Y-93800000D01*
X77048420Y-93800000D01*
X76971293Y-93792404D01*
X76894164Y-93784807D01*
X76762213Y-93744780D01*
X76696237Y-93724767D01*
X76513828Y-93627267D01*
X76353946Y-93496054D01*
X76222733Y-93336172D01*
X76125233Y-93153763D01*
X76105220Y-93087787D01*
X76065193Y-92955836D01*
X76044920Y-92750000D01*
X76065193Y-92544164D01*
X76125233Y-92346238D01*
X76125233Y-92346237D01*
X76222733Y-92163828D01*
X76353946Y-92003946D01*
X76513828Y-91872733D01*
X76696237Y-91775233D01*
X76762213Y-91755220D01*
X76894164Y-91715193D01*
X76971293Y-91707597D01*
X77048420Y-91700000D01*
X77451580Y-91700000D01*
X77528707Y-91707597D01*
X77528707Y-91707597D01*
G37*
G36*
X93204497Y-91824997D02*
X93257153Y-91840970D01*
X93305665Y-91866900D01*
X93348196Y-91901804D01*
X93383100Y-91944335D01*
X93409030Y-91992847D01*
X93425003Y-92045503D01*
X93431000Y-92106390D01*
X93431000Y-93331610D01*
X93425003Y-93392497D01*
X93409030Y-93445153D01*
X93383100Y-93493665D01*
X93348196Y-93536196D01*
X93305665Y-93571100D01*
X93257153Y-93597030D01*
X93204497Y-93613003D01*
X93143610Y-93619000D01*
X92343390Y-93619000D01*
X92282503Y-93613003D01*
X92229847Y-93597030D01*
X92181335Y-93571100D01*
X92138804Y-93536196D01*
X92103900Y-93493665D01*
X92077970Y-93445153D01*
X92061997Y-93392497D01*
X92056000Y-93331610D01*
X92056000Y-92106390D01*
X92061997Y-92045503D01*
X92077970Y-91992847D01*
X92103900Y-91944335D01*
X92138804Y-91901804D01*
X92181335Y-91866900D01*
X92229847Y-91840970D01*
X92282503Y-91824997D01*
X92343390Y-91819000D01*
X93143610Y-91819000D01*
X93204497Y-91824997D01*
X93204497Y-91824997D01*
G37*
G36*
X95079497Y-91824997D02*
X95132153Y-91840970D01*
X95180665Y-91866900D01*
X95223196Y-91901804D01*
X95258100Y-91944335D01*
X95284030Y-91992847D01*
X95300003Y-92045503D01*
X95306000Y-92106390D01*
X95306000Y-93331610D01*
X95300003Y-93392497D01*
X95284030Y-93445153D01*
X95258100Y-93493665D01*
X95223196Y-93536196D01*
X95180665Y-93571100D01*
X95132153Y-93597030D01*
X95079497Y-93613003D01*
X95018610Y-93619000D01*
X94218390Y-93619000D01*
X94157503Y-93613003D01*
X94104847Y-93597030D01*
X94056335Y-93571100D01*
X94013804Y-93536196D01*
X93978900Y-93493665D01*
X93952970Y-93445153D01*
X93936997Y-93392497D01*
X93931000Y-93331610D01*
X93931000Y-92106390D01*
X93936997Y-92045503D01*
X93952970Y-91992847D01*
X93978900Y-91944335D01*
X94013804Y-91901804D01*
X94056335Y-91866900D01*
X94104847Y-91840970D01*
X94157503Y-91824997D01*
X94218390Y-91819000D01*
X95018610Y-91819000D01*
X95079497Y-91824997D01*
X95079497Y-91824997D01*
G37*
G36*
X152518503Y-88451789D02*
X152718991Y-88512607D01*
X152903764Y-88611369D01*
X153065718Y-88744282D01*
X153198631Y-88906236D01*
X153297393Y-89091009D01*
X153358211Y-89291497D01*
X153378746Y-89500000D01*
X153358211Y-89708503D01*
X153297393Y-89908991D01*
X153198631Y-90093764D01*
X153065718Y-90255718D01*
X152903764Y-90388631D01*
X152718991Y-90487393D01*
X152518503Y-90548211D01*
X152362251Y-90563600D01*
X152257749Y-90563600D01*
X152101497Y-90548211D01*
X151901009Y-90487393D01*
X151716236Y-90388631D01*
X151554282Y-90255718D01*
X151421369Y-90093764D01*
X151322607Y-89908991D01*
X151261789Y-89708503D01*
X151241254Y-89500000D01*
X151261789Y-89291497D01*
X151322607Y-89091009D01*
X151421369Y-88906236D01*
X151554282Y-88744282D01*
X151716236Y-88611369D01*
X151901009Y-88512607D01*
X152101497Y-88451789D01*
X152257749Y-88436400D01*
X152362251Y-88436400D01*
X152518503Y-88451789D01*
X152518503Y-88451789D01*
G37*
G36*
X155058503Y-88451789D02*
X155258991Y-88512607D01*
X155443764Y-88611369D01*
X155605718Y-88744282D01*
X155738631Y-88906236D01*
X155837393Y-89091009D01*
X155898211Y-89291497D01*
X155918746Y-89500000D01*
X155898211Y-89708503D01*
X155837393Y-89908991D01*
X155738631Y-90093764D01*
X155605718Y-90255718D01*
X155443764Y-90388631D01*
X155258991Y-90487393D01*
X155058503Y-90548211D01*
X154902251Y-90563600D01*
X154797749Y-90563600D01*
X154641497Y-90548211D01*
X154441009Y-90487393D01*
X154256236Y-90388631D01*
X154094282Y-90255718D01*
X153961369Y-90093764D01*
X153862607Y-89908991D01*
X153801789Y-89708503D01*
X153781254Y-89500000D01*
X153801789Y-89291497D01*
X153862607Y-89091009D01*
X153961369Y-88906236D01*
X154094282Y-88744282D01*
X154256236Y-88611369D01*
X154441009Y-88512607D01*
X154641497Y-88451789D01*
X154797749Y-88436400D01*
X154902251Y-88436400D01*
X155058503Y-88451789D01*
X155058503Y-88451789D01*
G37*
G36*
X157598503Y-88451789D02*
X157798991Y-88512607D01*
X157983764Y-88611369D01*
X158145718Y-88744282D01*
X158278631Y-88906236D01*
X158377393Y-89091009D01*
X158438211Y-89291497D01*
X158458746Y-89500000D01*
X158438211Y-89708503D01*
X158377393Y-89908991D01*
X158278631Y-90093764D01*
X158145718Y-90255718D01*
X157983764Y-90388631D01*
X157798991Y-90487393D01*
X157598503Y-90548211D01*
X157442251Y-90563600D01*
X157337749Y-90563600D01*
X157181497Y-90548211D01*
X156981009Y-90487393D01*
X156796236Y-90388631D01*
X156634282Y-90255718D01*
X156501369Y-90093764D01*
X156402607Y-89908991D01*
X156341789Y-89708503D01*
X156321254Y-89500000D01*
X156341789Y-89291497D01*
X156402607Y-89091009D01*
X156501369Y-88906236D01*
X156634282Y-88744282D01*
X156796236Y-88611369D01*
X156981009Y-88512607D01*
X157181497Y-88451789D01*
X157337749Y-88436400D01*
X157442251Y-88436400D01*
X157598503Y-88451789D01*
X157598503Y-88451789D01*
G37*
G36*
X160138503Y-88451789D02*
X160338991Y-88512607D01*
X160523764Y-88611369D01*
X160685718Y-88744282D01*
X160818631Y-88906236D01*
X160917393Y-89091009D01*
X160978211Y-89291497D01*
X160998746Y-89500000D01*
X160978211Y-89708503D01*
X160917393Y-89908991D01*
X160818631Y-90093764D01*
X160685718Y-90255718D01*
X160523764Y-90388631D01*
X160338991Y-90487393D01*
X160138503Y-90548211D01*
X159982251Y-90563600D01*
X159877749Y-90563600D01*
X159721497Y-90548211D01*
X159521009Y-90487393D01*
X159336236Y-90388631D01*
X159174282Y-90255718D01*
X159041369Y-90093764D01*
X158942607Y-89908991D01*
X158881789Y-89708503D01*
X158861254Y-89500000D01*
X158881789Y-89291497D01*
X158942607Y-89091009D01*
X159041369Y-88906236D01*
X159174282Y-88744282D01*
X159336236Y-88611369D01*
X159521009Y-88512607D01*
X159721497Y-88451789D01*
X159877749Y-88436400D01*
X159982251Y-88436400D01*
X160138503Y-88451789D01*
X160138503Y-88451789D01*
G37*
G36*
X162678503Y-88451789D02*
X162878991Y-88512607D01*
X163063764Y-88611369D01*
X163225718Y-88744282D01*
X163358631Y-88906236D01*
X163457393Y-89091009D01*
X163518211Y-89291497D01*
X163538746Y-89500000D01*
X163518211Y-89708503D01*
X163457393Y-89908991D01*
X163358631Y-90093764D01*
X163225718Y-90255718D01*
X163063764Y-90388631D01*
X162878991Y-90487393D01*
X162678503Y-90548211D01*
X162522251Y-90563600D01*
X162417749Y-90563600D01*
X162261497Y-90548211D01*
X162061009Y-90487393D01*
X161876236Y-90388631D01*
X161714282Y-90255718D01*
X161581369Y-90093764D01*
X161482607Y-89908991D01*
X161421789Y-89708503D01*
X161401254Y-89500000D01*
X161421789Y-89291497D01*
X161482607Y-89091009D01*
X161581369Y-88906236D01*
X161714282Y-88744282D01*
X161876236Y-88611369D01*
X162061009Y-88512607D01*
X162261497Y-88451789D01*
X162417749Y-88436400D01*
X162522251Y-88436400D01*
X162678503Y-88451789D01*
X162678503Y-88451789D01*
G37*
G36*
X119498503Y-88451789D02*
X119698991Y-88512607D01*
X119883764Y-88611369D01*
X120045718Y-88744282D01*
X120178631Y-88906236D01*
X120277393Y-89091009D01*
X120338211Y-89291497D01*
X120358746Y-89500000D01*
X120338211Y-89708503D01*
X120277393Y-89908991D01*
X120178631Y-90093764D01*
X120045718Y-90255718D01*
X119883764Y-90388631D01*
X119698991Y-90487393D01*
X119498503Y-90548211D01*
X119342251Y-90563600D01*
X119237749Y-90563600D01*
X119081497Y-90548211D01*
X118881009Y-90487393D01*
X118696236Y-90388631D01*
X118534282Y-90255718D01*
X118401369Y-90093764D01*
X118302607Y-89908991D01*
X118241789Y-89708503D01*
X118221254Y-89500000D01*
X118241789Y-89291497D01*
X118302607Y-89091009D01*
X118401369Y-88906236D01*
X118534282Y-88744282D01*
X118696236Y-88611369D01*
X118881009Y-88512607D01*
X119081497Y-88451789D01*
X119237749Y-88436400D01*
X119342251Y-88436400D01*
X119498503Y-88451789D01*
X119498503Y-88451789D01*
G37*
G36*
X147438503Y-88451789D02*
X147638991Y-88512607D01*
X147823764Y-88611369D01*
X147985718Y-88744282D01*
X148118631Y-88906236D01*
X148217393Y-89091009D01*
X148278211Y-89291497D01*
X148298746Y-89500000D01*
X148278211Y-89708503D01*
X148217393Y-89908991D01*
X148118631Y-90093764D01*
X147985718Y-90255718D01*
X147823764Y-90388631D01*
X147638991Y-90487393D01*
X147438503Y-90548211D01*
X147282251Y-90563600D01*
X147177749Y-90563600D01*
X147021497Y-90548211D01*
X146821009Y-90487393D01*
X146636236Y-90388631D01*
X146474282Y-90255718D01*
X146341369Y-90093764D01*
X146242607Y-89908991D01*
X146181789Y-89708503D01*
X146161254Y-89500000D01*
X146181789Y-89291497D01*
X146242607Y-89091009D01*
X146341369Y-88906236D01*
X146474282Y-88744282D01*
X146636236Y-88611369D01*
X146821009Y-88512607D01*
X147021497Y-88451789D01*
X147177749Y-88436400D01*
X147282251Y-88436400D01*
X147438503Y-88451789D01*
X147438503Y-88451789D01*
G37*
G36*
X144898503Y-88451789D02*
X145098991Y-88512607D01*
X145283764Y-88611369D01*
X145445718Y-88744282D01*
X145578631Y-88906236D01*
X145677393Y-89091009D01*
X145738211Y-89291497D01*
X145758746Y-89500000D01*
X145738211Y-89708503D01*
X145677393Y-89908991D01*
X145578631Y-90093764D01*
X145445718Y-90255718D01*
X145283764Y-90388631D01*
X145098991Y-90487393D01*
X144898503Y-90548211D01*
X144742251Y-90563600D01*
X144637749Y-90563600D01*
X144481497Y-90548211D01*
X144281009Y-90487393D01*
X144096236Y-90388631D01*
X143934282Y-90255718D01*
X143801369Y-90093764D01*
X143702607Y-89908991D01*
X143641789Y-89708503D01*
X143621254Y-89500000D01*
X143641789Y-89291497D01*
X143702607Y-89091009D01*
X143801369Y-88906236D01*
X143934282Y-88744282D01*
X144096236Y-88611369D01*
X144281009Y-88512607D01*
X144481497Y-88451789D01*
X144637749Y-88436400D01*
X144742251Y-88436400D01*
X144898503Y-88451789D01*
X144898503Y-88451789D01*
G37*
G36*
X165218503Y-88451789D02*
X165418991Y-88512607D01*
X165603764Y-88611369D01*
X165765718Y-88744282D01*
X165898631Y-88906236D01*
X165997393Y-89091009D01*
X166058211Y-89291497D01*
X166078746Y-89500000D01*
X166058211Y-89708503D01*
X165997393Y-89908991D01*
X165898631Y-90093764D01*
X165765718Y-90255718D01*
X165603764Y-90388631D01*
X165418991Y-90487393D01*
X165218503Y-90548211D01*
X165062251Y-90563600D01*
X164957749Y-90563600D01*
X164801497Y-90548211D01*
X164601009Y-90487393D01*
X164416236Y-90388631D01*
X164254282Y-90255718D01*
X164121369Y-90093764D01*
X164022607Y-89908991D01*
X163961789Y-89708503D01*
X163941254Y-89500000D01*
X163961789Y-89291497D01*
X164022607Y-89091009D01*
X164121369Y-88906236D01*
X164254282Y-88744282D01*
X164416236Y-88611369D01*
X164601009Y-88512607D01*
X164801497Y-88451789D01*
X164957749Y-88436400D01*
X165062251Y-88436400D01*
X165218503Y-88451789D01*
X165218503Y-88451789D01*
G37*
G36*
X142358503Y-88451789D02*
X142558991Y-88512607D01*
X142743764Y-88611369D01*
X142905718Y-88744282D01*
X143038631Y-88906236D01*
X143137393Y-89091009D01*
X143198211Y-89291497D01*
X143218746Y-89500000D01*
X143198211Y-89708503D01*
X143137393Y-89908991D01*
X143038631Y-90093764D01*
X142905718Y-90255718D01*
X142743764Y-90388631D01*
X142558991Y-90487393D01*
X142358503Y-90548211D01*
X142202251Y-90563600D01*
X142097749Y-90563600D01*
X141941497Y-90548211D01*
X141741009Y-90487393D01*
X141556236Y-90388631D01*
X141394282Y-90255718D01*
X141261369Y-90093764D01*
X141162607Y-89908991D01*
X141101789Y-89708503D01*
X141081254Y-89500000D01*
X141101789Y-89291497D01*
X141162607Y-89091009D01*
X141261369Y-88906236D01*
X141394282Y-88744282D01*
X141556236Y-88611369D01*
X141741009Y-88512607D01*
X141941497Y-88451789D01*
X142097749Y-88436400D01*
X142202251Y-88436400D01*
X142358503Y-88451789D01*
X142358503Y-88451789D01*
G37*
G36*
X137278503Y-88451789D02*
X137478991Y-88512607D01*
X137663764Y-88611369D01*
X137825718Y-88744282D01*
X137958631Y-88906236D01*
X138057393Y-89091009D01*
X138118211Y-89291497D01*
X138138746Y-89500000D01*
X138118211Y-89708503D01*
X138057393Y-89908991D01*
X137958631Y-90093764D01*
X137825718Y-90255718D01*
X137663764Y-90388631D01*
X137478991Y-90487393D01*
X137278503Y-90548211D01*
X137122251Y-90563600D01*
X137017749Y-90563600D01*
X136861497Y-90548211D01*
X136661009Y-90487393D01*
X136476236Y-90388631D01*
X136314282Y-90255718D01*
X136181369Y-90093764D01*
X136082607Y-89908991D01*
X136021789Y-89708503D01*
X136001254Y-89500000D01*
X136021789Y-89291497D01*
X136082607Y-89091009D01*
X136181369Y-88906236D01*
X136314282Y-88744282D01*
X136476236Y-88611369D01*
X136661009Y-88512607D01*
X136861497Y-88451789D01*
X137017749Y-88436400D01*
X137122251Y-88436400D01*
X137278503Y-88451789D01*
X137278503Y-88451789D01*
G37*
G36*
X139818503Y-88451789D02*
X140018991Y-88512607D01*
X140203764Y-88611369D01*
X140365718Y-88744282D01*
X140498631Y-88906236D01*
X140597393Y-89091009D01*
X140658211Y-89291497D01*
X140678746Y-89500000D01*
X140658211Y-89708503D01*
X140597393Y-89908991D01*
X140498631Y-90093764D01*
X140365718Y-90255718D01*
X140203764Y-90388631D01*
X140018991Y-90487393D01*
X139818503Y-90548211D01*
X139662251Y-90563600D01*
X139557749Y-90563600D01*
X139401497Y-90548211D01*
X139201009Y-90487393D01*
X139016236Y-90388631D01*
X138854282Y-90255718D01*
X138721369Y-90093764D01*
X138622607Y-89908991D01*
X138561789Y-89708503D01*
X138541254Y-89500000D01*
X138561789Y-89291497D01*
X138622607Y-89091009D01*
X138721369Y-88906236D01*
X138854282Y-88744282D01*
X139016236Y-88611369D01*
X139201009Y-88512607D01*
X139401497Y-88451789D01*
X139557749Y-88436400D01*
X139662251Y-88436400D01*
X139818503Y-88451789D01*
X139818503Y-88451789D01*
G37*
G36*
X132198503Y-88451789D02*
X132398991Y-88512607D01*
X132583764Y-88611369D01*
X132745718Y-88744282D01*
X132878631Y-88906236D01*
X132977393Y-89091009D01*
X133038211Y-89291497D01*
X133058746Y-89500000D01*
X133038211Y-89708503D01*
X132977393Y-89908991D01*
X132878631Y-90093764D01*
X132745718Y-90255718D01*
X132583764Y-90388631D01*
X132398991Y-90487393D01*
X132198503Y-90548211D01*
X132042251Y-90563600D01*
X131937749Y-90563600D01*
X131781497Y-90548211D01*
X131581009Y-90487393D01*
X131396236Y-90388631D01*
X131234282Y-90255718D01*
X131101369Y-90093764D01*
X131002607Y-89908991D01*
X130941789Y-89708503D01*
X130921254Y-89500000D01*
X130941789Y-89291497D01*
X131002607Y-89091009D01*
X131101369Y-88906236D01*
X131234282Y-88744282D01*
X131396236Y-88611369D01*
X131581009Y-88512607D01*
X131781497Y-88451789D01*
X131937749Y-88436400D01*
X132042251Y-88436400D01*
X132198503Y-88451789D01*
X132198503Y-88451789D01*
G37*
G36*
X129658503Y-88451789D02*
X129858991Y-88512607D01*
X130043764Y-88611369D01*
X130205718Y-88744282D01*
X130338631Y-88906236D01*
X130437393Y-89091009D01*
X130498211Y-89291497D01*
X130518746Y-89500000D01*
X130498211Y-89708503D01*
X130437393Y-89908991D01*
X130338631Y-90093764D01*
X130205718Y-90255718D01*
X130043764Y-90388631D01*
X129858991Y-90487393D01*
X129658503Y-90548211D01*
X129502251Y-90563600D01*
X129397749Y-90563600D01*
X129241497Y-90548211D01*
X129041009Y-90487393D01*
X128856236Y-90388631D01*
X128694282Y-90255718D01*
X128561369Y-90093764D01*
X128462607Y-89908991D01*
X128401789Y-89708503D01*
X128381254Y-89500000D01*
X128401789Y-89291497D01*
X128462607Y-89091009D01*
X128561369Y-88906236D01*
X128694282Y-88744282D01*
X128856236Y-88611369D01*
X129041009Y-88512607D01*
X129241497Y-88451789D01*
X129397749Y-88436400D01*
X129502251Y-88436400D01*
X129658503Y-88451789D01*
X129658503Y-88451789D01*
G37*
G36*
X127118503Y-88451789D02*
X127318991Y-88512607D01*
X127503764Y-88611369D01*
X127665718Y-88744282D01*
X127798631Y-88906236D01*
X127897393Y-89091009D01*
X127958211Y-89291497D01*
X127978746Y-89500000D01*
X127958211Y-89708503D01*
X127897393Y-89908991D01*
X127798631Y-90093764D01*
X127665718Y-90255718D01*
X127503764Y-90388631D01*
X127318991Y-90487393D01*
X127118503Y-90548211D01*
X126962251Y-90563600D01*
X126857749Y-90563600D01*
X126701497Y-90548211D01*
X126501009Y-90487393D01*
X126316236Y-90388631D01*
X126154282Y-90255718D01*
X126021369Y-90093764D01*
X125922607Y-89908991D01*
X125861789Y-89708503D01*
X125841254Y-89500000D01*
X125861789Y-89291497D01*
X125922607Y-89091009D01*
X126021369Y-88906236D01*
X126154282Y-88744282D01*
X126316236Y-88611369D01*
X126501009Y-88512607D01*
X126701497Y-88451789D01*
X126857749Y-88436400D01*
X126962251Y-88436400D01*
X127118503Y-88451789D01*
X127118503Y-88451789D01*
G37*
G36*
X124578503Y-88451789D02*
X124778991Y-88512607D01*
X124963764Y-88611369D01*
X125125718Y-88744282D01*
X125258631Y-88906236D01*
X125357393Y-89091009D01*
X125418211Y-89291497D01*
X125438746Y-89500000D01*
X125418211Y-89708503D01*
X125357393Y-89908991D01*
X125258631Y-90093764D01*
X125125718Y-90255718D01*
X124963764Y-90388631D01*
X124778991Y-90487393D01*
X124578503Y-90548211D01*
X124422251Y-90563600D01*
X124317749Y-90563600D01*
X124161497Y-90548211D01*
X123961009Y-90487393D01*
X123776236Y-90388631D01*
X123614282Y-90255718D01*
X123481369Y-90093764D01*
X123382607Y-89908991D01*
X123321789Y-89708503D01*
X123301254Y-89500000D01*
X123321789Y-89291497D01*
X123382607Y-89091009D01*
X123481369Y-88906236D01*
X123614282Y-88744282D01*
X123776236Y-88611369D01*
X123961009Y-88512607D01*
X124161497Y-88451789D01*
X124317749Y-88436400D01*
X124422251Y-88436400D01*
X124578503Y-88451789D01*
X124578503Y-88451789D01*
G37*
G36*
X122038503Y-88451789D02*
X122238991Y-88512607D01*
X122423764Y-88611369D01*
X122585718Y-88744282D01*
X122718631Y-88906236D01*
X122817393Y-89091009D01*
X122878211Y-89291497D01*
X122898746Y-89500000D01*
X122878211Y-89708503D01*
X122817393Y-89908991D01*
X122718631Y-90093764D01*
X122585718Y-90255718D01*
X122423764Y-90388631D01*
X122238991Y-90487393D01*
X122038503Y-90548211D01*
X121882251Y-90563600D01*
X121777749Y-90563600D01*
X121621497Y-90548211D01*
X121421009Y-90487393D01*
X121236236Y-90388631D01*
X121074282Y-90255718D01*
X120941369Y-90093764D01*
X120842607Y-89908991D01*
X120781789Y-89708503D01*
X120761254Y-89500000D01*
X120781789Y-89291497D01*
X120842607Y-89091009D01*
X120941369Y-88906236D01*
X121074282Y-88744282D01*
X121236236Y-88611369D01*
X121421009Y-88512607D01*
X121621497Y-88451789D01*
X121777749Y-88436400D01*
X121882251Y-88436400D01*
X122038503Y-88451789D01*
X122038503Y-88451789D01*
G37*
G36*
X149978503Y-88451789D02*
X150178991Y-88512607D01*
X150363764Y-88611369D01*
X150525718Y-88744282D01*
X150658631Y-88906236D01*
X150757393Y-89091009D01*
X150818211Y-89291497D01*
X150838746Y-89500000D01*
X150818211Y-89708503D01*
X150757393Y-89908991D01*
X150658631Y-90093764D01*
X150525718Y-90255718D01*
X150363764Y-90388631D01*
X150178991Y-90487393D01*
X149978503Y-90548211D01*
X149822251Y-90563600D01*
X149717749Y-90563600D01*
X149561497Y-90548211D01*
X149361009Y-90487393D01*
X149176236Y-90388631D01*
X149014282Y-90255718D01*
X148881369Y-90093764D01*
X148782607Y-89908991D01*
X148721789Y-89708503D01*
X148701254Y-89500000D01*
X148721789Y-89291497D01*
X148782607Y-89091009D01*
X148881369Y-88906236D01*
X149014282Y-88744282D01*
X149176236Y-88611369D01*
X149361009Y-88512607D01*
X149561497Y-88451789D01*
X149717749Y-88436400D01*
X149822251Y-88436400D01*
X149978503Y-88451789D01*
X149978503Y-88451789D01*
G37*
G36*
X117813600Y-90563600D02*
X115686400Y-90563600D01*
X115686400Y-88436400D01*
X117813600Y-88436400D01*
X117813600Y-90563600D01*
X117813600Y-90563600D01*
G37*
G36*
X134738503Y-88451789D02*
X134938991Y-88512607D01*
X135123764Y-88611369D01*
X135285718Y-88744282D01*
X135418631Y-88906236D01*
X135517393Y-89091009D01*
X135578211Y-89291497D01*
X135598746Y-89500000D01*
X135578211Y-89708503D01*
X135517393Y-89908991D01*
X135418631Y-90093764D01*
X135285718Y-90255718D01*
X135123764Y-90388631D01*
X134938991Y-90487393D01*
X134738503Y-90548211D01*
X134582251Y-90563600D01*
X134477749Y-90563600D01*
X134321497Y-90548211D01*
X134121009Y-90487393D01*
X133936236Y-90388631D01*
X133774282Y-90255718D01*
X133641369Y-90093764D01*
X133542607Y-89908991D01*
X133481789Y-89708503D01*
X133461254Y-89500000D01*
X133481789Y-89291497D01*
X133542607Y-89091009D01*
X133641369Y-88906236D01*
X133774282Y-88744282D01*
X133936236Y-88611369D01*
X134121009Y-88512607D01*
X134321497Y-88451789D01*
X134477749Y-88436400D01*
X134582251Y-88436400D01*
X134738503Y-88451789D01*
X134738503Y-88451789D01*
G37*
G36*
X95079497Y-88395997D02*
X95132153Y-88411970D01*
X95180665Y-88437900D01*
X95223196Y-88472804D01*
X95258100Y-88515335D01*
X95284030Y-88563847D01*
X95300003Y-88616503D01*
X95306000Y-88677390D01*
X95306000Y-89902610D01*
X95300003Y-89963497D01*
X95284030Y-90016153D01*
X95258100Y-90064665D01*
X95223196Y-90107196D01*
X95180665Y-90142100D01*
X95132153Y-90168030D01*
X95079497Y-90184003D01*
X95018610Y-90190000D01*
X94218390Y-90190000D01*
X94157503Y-90184003D01*
X94104847Y-90168030D01*
X94056335Y-90142100D01*
X94013804Y-90107196D01*
X93978900Y-90064665D01*
X93952970Y-90016153D01*
X93936997Y-89963497D01*
X93931000Y-89902610D01*
X93931000Y-88677390D01*
X93936997Y-88616503D01*
X93952970Y-88563847D01*
X93978900Y-88515335D01*
X94013804Y-88472804D01*
X94056335Y-88437900D01*
X94104847Y-88411970D01*
X94157503Y-88395997D01*
X94218390Y-88390000D01*
X95018610Y-88390000D01*
X95079497Y-88395997D01*
X95079497Y-88395997D01*
G37*
G36*
X93204497Y-88395997D02*
X93257153Y-88411970D01*
X93305665Y-88437900D01*
X93348196Y-88472804D01*
X93383100Y-88515335D01*
X93409030Y-88563847D01*
X93425003Y-88616503D01*
X93431000Y-88677390D01*
X93431000Y-89902610D01*
X93425003Y-89963497D01*
X93409030Y-90016153D01*
X93383100Y-90064665D01*
X93348196Y-90107196D01*
X93305665Y-90142100D01*
X93257153Y-90168030D01*
X93204497Y-90184003D01*
X93143610Y-90190000D01*
X92343390Y-90190000D01*
X92282503Y-90184003D01*
X92229847Y-90168030D01*
X92181335Y-90142100D01*
X92138804Y-90107196D01*
X92103900Y-90064665D01*
X92077970Y-90016153D01*
X92061997Y-89963497D01*
X92056000Y-89902610D01*
X92056000Y-88677390D01*
X92061997Y-88616503D01*
X92077970Y-88563847D01*
X92103900Y-88515335D01*
X92138804Y-88472804D01*
X92181335Y-88437900D01*
X92229847Y-88411970D01*
X92282503Y-88395997D01*
X92343390Y-88390000D01*
X93143610Y-88390000D01*
X93204497Y-88395997D01*
X93204497Y-88395997D01*
G37*
G36*
X112159122Y-86246115D02*
X112275041Y-86269173D01*
X112602620Y-86404861D01*
X112838130Y-86562224D01*
X112897436Y-86601851D01*
X113148149Y-86852564D01*
X113148151Y-86852567D01*
X113332448Y-87128386D01*
X113345140Y-87147382D01*
X113358340Y-87179250D01*
X113466428Y-87440196D01*
X113480827Y-87474960D01*
X113550000Y-87822714D01*
X113550000Y-88177286D01*
X113511957Y-88368541D01*
X113480827Y-88525041D01*
X113445068Y-88611370D01*
X113345140Y-88852618D01*
X113148149Y-89147436D01*
X112897436Y-89398149D01*
X112897433Y-89398151D01*
X112602620Y-89595139D01*
X112275041Y-89730827D01*
X112159122Y-89753885D01*
X111927286Y-89800000D01*
X111572714Y-89800000D01*
X111340878Y-89753885D01*
X111224959Y-89730827D01*
X110897380Y-89595139D01*
X110602567Y-89398151D01*
X110602564Y-89398149D01*
X110351851Y-89147436D01*
X110154860Y-88852618D01*
X110054932Y-88611370D01*
X110019173Y-88525041D01*
X109988043Y-88368541D01*
X109950000Y-88177286D01*
X109950000Y-87822714D01*
X110019173Y-87474960D01*
X110033573Y-87440196D01*
X110141660Y-87179250D01*
X110154860Y-87147382D01*
X110167553Y-87128386D01*
X110351849Y-86852567D01*
X110351851Y-86852564D01*
X110602564Y-86601851D01*
X110661870Y-86562224D01*
X110897380Y-86404861D01*
X111224959Y-86269173D01*
X111340878Y-86246115D01*
X111572714Y-86200000D01*
X111927286Y-86200000D01*
X112159122Y-86246115D01*
X112159122Y-86246115D01*
G37*
G36*
X170159122Y-86246115D02*
X170275041Y-86269173D01*
X170602620Y-86404861D01*
X170838130Y-86562224D01*
X170897436Y-86601851D01*
X171148149Y-86852564D01*
X171148151Y-86852567D01*
X171332448Y-87128386D01*
X171345140Y-87147382D01*
X171358340Y-87179250D01*
X171466428Y-87440196D01*
X171480827Y-87474960D01*
X171550000Y-87822714D01*
X171550000Y-88177286D01*
X171511957Y-88368541D01*
X171480827Y-88525041D01*
X171445068Y-88611370D01*
X171345140Y-88852618D01*
X171148149Y-89147436D01*
X170897436Y-89398149D01*
X170897433Y-89398151D01*
X170602620Y-89595139D01*
X170275041Y-89730827D01*
X170159122Y-89753885D01*
X169927286Y-89800000D01*
X169572714Y-89800000D01*
X169340878Y-89753885D01*
X169224959Y-89730827D01*
X168897380Y-89595139D01*
X168602567Y-89398151D01*
X168602564Y-89398149D01*
X168351851Y-89147436D01*
X168154860Y-88852618D01*
X168054932Y-88611370D01*
X168019173Y-88525041D01*
X167988043Y-88368541D01*
X167950000Y-88177286D01*
X167950000Y-87822714D01*
X168019173Y-87474960D01*
X168033573Y-87440196D01*
X168141660Y-87179250D01*
X168154860Y-87147382D01*
X168167553Y-87128386D01*
X168351849Y-86852567D01*
X168351851Y-86852564D01*
X168602564Y-86601851D01*
X168661870Y-86562224D01*
X168897380Y-86404861D01*
X169224959Y-86269173D01*
X169340878Y-86246115D01*
X169572714Y-86200000D01*
X169927286Y-86200000D01*
X170159122Y-86246115D01*
X170159122Y-86246115D01*
G37*
G36*
X87450000Y-88245943D02*
X87452402Y-88270329D01*
X87459515Y-88293778D01*
X87471066Y-88315389D01*
X87486612Y-88334331D01*
X87505554Y-88349877D01*
X87527165Y-88361428D01*
X87550614Y-88368541D01*
X87575000Y-88370943D01*
X87599386Y-88368541D01*
X87622835Y-88361428D01*
X87654297Y-88342570D01*
X87723176Y-88286042D01*
X87840439Y-88223364D01*
X87967677Y-88184767D01*
X88066841Y-88175000D01*
X88433159Y-88175000D01*
X88532323Y-88184767D01*
X88659561Y-88223364D01*
X88776824Y-88286042D01*
X88879606Y-88370394D01*
X88963958Y-88473176D01*
X89026636Y-88590439D01*
X89065233Y-88717677D01*
X89078266Y-88850000D01*
X89065233Y-88982323D01*
X89026636Y-89109561D01*
X88963958Y-89226824D01*
X88879606Y-89329606D01*
X88776824Y-89413958D01*
X88659561Y-89476636D01*
X88532323Y-89515233D01*
X88433159Y-89525000D01*
X88066841Y-89525000D01*
X87967677Y-89515233D01*
X87840439Y-89476636D01*
X87723176Y-89413958D01*
X87654296Y-89357429D01*
X87633924Y-89343817D01*
X87611285Y-89334439D01*
X87587252Y-89329659D01*
X87562748Y-89329659D01*
X87538714Y-89334440D01*
X87516075Y-89343817D01*
X87495701Y-89357431D01*
X87478374Y-89374758D01*
X87464760Y-89395133D01*
X87455382Y-89417772D01*
X87450000Y-89454057D01*
X87450000Y-89725000D01*
X84050000Y-89725000D01*
X84050000Y-89454057D01*
X84047598Y-89429671D01*
X84040485Y-89406222D01*
X84028934Y-89384611D01*
X84013388Y-89365669D01*
X83994446Y-89350123D01*
X83972835Y-89338572D01*
X83949386Y-89331459D01*
X83925000Y-89329057D01*
X83900614Y-89331459D01*
X83877165Y-89338572D01*
X83845703Y-89357430D01*
X83776824Y-89413958D01*
X83659561Y-89476636D01*
X83532323Y-89515233D01*
X83433159Y-89525000D01*
X83066841Y-89525000D01*
X82967677Y-89515233D01*
X82840439Y-89476636D01*
X82723176Y-89413958D01*
X82620394Y-89329606D01*
X82536042Y-89226824D01*
X82473364Y-89109561D01*
X82434767Y-88982323D01*
X82421734Y-88850000D01*
X82434767Y-88717677D01*
X82473364Y-88590439D01*
X82536042Y-88473176D01*
X82620394Y-88370394D01*
X82723176Y-88286042D01*
X82840439Y-88223364D01*
X82967677Y-88184767D01*
X83066841Y-88175000D01*
X83433159Y-88175000D01*
X83532323Y-88184767D01*
X83659561Y-88223364D01*
X83776824Y-88286042D01*
X83845704Y-88342571D01*
X83866076Y-88356183D01*
X83888715Y-88365561D01*
X83912748Y-88370341D01*
X83937252Y-88370341D01*
X83961286Y-88365560D01*
X83983925Y-88356183D01*
X84004299Y-88342569D01*
X84021626Y-88325242D01*
X84035240Y-88304867D01*
X84044618Y-88282228D01*
X84050000Y-88245943D01*
X84050000Y-87975000D01*
X87450000Y-87975000D01*
X87450000Y-88245943D01*
X87450000Y-88245943D01*
G37*
G36*
X103700000Y-88245943D02*
X103702402Y-88270329D01*
X103709515Y-88293778D01*
X103721066Y-88315389D01*
X103736612Y-88334331D01*
X103755554Y-88349877D01*
X103777165Y-88361428D01*
X103800614Y-88368541D01*
X103825000Y-88370943D01*
X103849386Y-88368541D01*
X103872835Y-88361428D01*
X103904297Y-88342570D01*
X103973176Y-88286042D01*
X104090439Y-88223364D01*
X104217677Y-88184767D01*
X104316841Y-88175000D01*
X104683159Y-88175000D01*
X104782323Y-88184767D01*
X104909561Y-88223364D01*
X105026824Y-88286042D01*
X105129606Y-88370394D01*
X105213958Y-88473176D01*
X105276636Y-88590439D01*
X105315233Y-88717677D01*
X105328266Y-88850000D01*
X105315233Y-88982323D01*
X105276636Y-89109561D01*
X105213958Y-89226824D01*
X105129606Y-89329606D01*
X105026824Y-89413958D01*
X104909561Y-89476636D01*
X104782323Y-89515233D01*
X104683159Y-89525000D01*
X104316841Y-89525000D01*
X104217677Y-89515233D01*
X104090439Y-89476636D01*
X103973176Y-89413958D01*
X103904296Y-89357429D01*
X103883924Y-89343817D01*
X103861285Y-89334439D01*
X103837252Y-89329659D01*
X103812748Y-89329659D01*
X103788714Y-89334440D01*
X103766075Y-89343817D01*
X103745701Y-89357431D01*
X103728374Y-89374758D01*
X103714760Y-89395133D01*
X103705382Y-89417772D01*
X103700000Y-89454057D01*
X103700000Y-89725000D01*
X100300000Y-89725000D01*
X100300000Y-89454057D01*
X100297598Y-89429671D01*
X100290485Y-89406222D01*
X100278934Y-89384611D01*
X100263388Y-89365669D01*
X100244446Y-89350123D01*
X100222835Y-89338572D01*
X100199386Y-89331459D01*
X100175000Y-89329057D01*
X100150614Y-89331459D01*
X100127165Y-89338572D01*
X100095703Y-89357430D01*
X100026824Y-89413958D01*
X99909561Y-89476636D01*
X99782323Y-89515233D01*
X99683159Y-89525000D01*
X99316841Y-89525000D01*
X99217677Y-89515233D01*
X99090439Y-89476636D01*
X98973176Y-89413958D01*
X98870394Y-89329606D01*
X98786042Y-89226824D01*
X98723364Y-89109561D01*
X98684767Y-88982323D01*
X98671734Y-88850000D01*
X98684767Y-88717677D01*
X98723364Y-88590439D01*
X98786042Y-88473176D01*
X98870394Y-88370394D01*
X98973176Y-88286042D01*
X99090439Y-88223364D01*
X99217677Y-88184767D01*
X99316841Y-88175000D01*
X99683159Y-88175000D01*
X99782323Y-88184767D01*
X99909561Y-88223364D01*
X100026824Y-88286042D01*
X100095704Y-88342571D01*
X100116076Y-88356183D01*
X100138715Y-88365561D01*
X100162748Y-88370341D01*
X100187252Y-88370341D01*
X100211286Y-88365560D01*
X100233925Y-88356183D01*
X100254299Y-88342569D01*
X100271626Y-88325242D01*
X100285240Y-88304867D01*
X100294618Y-88282228D01*
X100300000Y-88245943D01*
X100300000Y-87975000D01*
X103700000Y-87975000D01*
X103700000Y-88245943D01*
X103700000Y-88245943D01*
G37*
G36*
X80173497Y-87505997D02*
X80226153Y-87521970D01*
X80274665Y-87547900D01*
X80317196Y-87582804D01*
X80352100Y-87625335D01*
X80378030Y-87673847D01*
X80394003Y-87726503D01*
X80400000Y-87787390D01*
X80400000Y-88587610D01*
X80394003Y-88648497D01*
X80378030Y-88701153D01*
X80352100Y-88749665D01*
X80317196Y-88792196D01*
X80274665Y-88827100D01*
X80226153Y-88853030D01*
X80173497Y-88869003D01*
X80112610Y-88875000D01*
X78887390Y-88875000D01*
X78826503Y-88869003D01*
X78773847Y-88853030D01*
X78725335Y-88827100D01*
X78682804Y-88792196D01*
X78647900Y-88749665D01*
X78621970Y-88701153D01*
X78605997Y-88648497D01*
X78600000Y-88587610D01*
X78600000Y-87787390D01*
X78605997Y-87726503D01*
X78621970Y-87673847D01*
X78647900Y-87625335D01*
X78682804Y-87582804D01*
X78725335Y-87547900D01*
X78773847Y-87521970D01*
X78826503Y-87505997D01*
X78887390Y-87500000D01*
X80112610Y-87500000D01*
X80173497Y-87505997D01*
X80173497Y-87505997D01*
G37*
G36*
X77423497Y-87505997D02*
X77476153Y-87521970D01*
X77524665Y-87547900D01*
X77567196Y-87582804D01*
X77602100Y-87625335D01*
X77628030Y-87673847D01*
X77644003Y-87726503D01*
X77650000Y-87787390D01*
X77650000Y-88587610D01*
X77644003Y-88648497D01*
X77628030Y-88701153D01*
X77602100Y-88749665D01*
X77567196Y-88792196D01*
X77524665Y-88827100D01*
X77476153Y-88853030D01*
X77423497Y-88869003D01*
X77362610Y-88875000D01*
X76137390Y-88875000D01*
X76076503Y-88869003D01*
X76023847Y-88853030D01*
X75975335Y-88827100D01*
X75932804Y-88792196D01*
X75897900Y-88749665D01*
X75871970Y-88701153D01*
X75855997Y-88648497D01*
X75850000Y-88587610D01*
X75850000Y-87787390D01*
X75855997Y-87726503D01*
X75871970Y-87673847D01*
X75897900Y-87625335D01*
X75932804Y-87582804D01*
X75975335Y-87547900D01*
X76023847Y-87521970D01*
X76076503Y-87505997D01*
X76137390Y-87500000D01*
X77362610Y-87500000D01*
X77423497Y-87505997D01*
X77423497Y-87505997D01*
G37*
G36*
X160138503Y-85911789D02*
X160338991Y-85972607D01*
X160523764Y-86071369D01*
X160685718Y-86204282D01*
X160818631Y-86366236D01*
X160917393Y-86551009D01*
X160978211Y-86751497D01*
X160998746Y-86960000D01*
X160978211Y-87168503D01*
X160917393Y-87368991D01*
X160818631Y-87553764D01*
X160685718Y-87715718D01*
X160523764Y-87848631D01*
X160338991Y-87947393D01*
X160138503Y-88008211D01*
X159982251Y-88023600D01*
X159877749Y-88023600D01*
X159721497Y-88008211D01*
X159521009Y-87947393D01*
X159336236Y-87848631D01*
X159174282Y-87715718D01*
X159041369Y-87553764D01*
X158942607Y-87368991D01*
X158881789Y-87168503D01*
X158861254Y-86960000D01*
X158881789Y-86751497D01*
X158942607Y-86551009D01*
X159041369Y-86366236D01*
X159174282Y-86204282D01*
X159336236Y-86071369D01*
X159521009Y-85972607D01*
X159721497Y-85911789D01*
X159877749Y-85896400D01*
X159982251Y-85896400D01*
X160138503Y-85911789D01*
X160138503Y-85911789D01*
G37*
G36*
X139818503Y-85911789D02*
X140018991Y-85972607D01*
X140203764Y-86071369D01*
X140365718Y-86204282D01*
X140498631Y-86366236D01*
X140597393Y-86551009D01*
X140658211Y-86751497D01*
X140678746Y-86960000D01*
X140658211Y-87168503D01*
X140597393Y-87368991D01*
X140498631Y-87553764D01*
X140365718Y-87715718D01*
X140203764Y-87848631D01*
X140018991Y-87947393D01*
X139818503Y-88008211D01*
X139662251Y-88023600D01*
X139557749Y-88023600D01*
X139401497Y-88008211D01*
X139201009Y-87947393D01*
X139016236Y-87848631D01*
X138854282Y-87715718D01*
X138721369Y-87553764D01*
X138622607Y-87368991D01*
X138561789Y-87168503D01*
X138541254Y-86960000D01*
X138561789Y-86751497D01*
X138622607Y-86551009D01*
X138721369Y-86366236D01*
X138854282Y-86204282D01*
X139016236Y-86071369D01*
X139201009Y-85972607D01*
X139401497Y-85911789D01*
X139557749Y-85896400D01*
X139662251Y-85896400D01*
X139818503Y-85911789D01*
X139818503Y-85911789D01*
G37*
G36*
X157598503Y-85911789D02*
X157798991Y-85972607D01*
X157983764Y-86071369D01*
X158145718Y-86204282D01*
X158278631Y-86366236D01*
X158377393Y-86551009D01*
X158438211Y-86751497D01*
X158458746Y-86960000D01*
X158438211Y-87168503D01*
X158377393Y-87368991D01*
X158278631Y-87553764D01*
X158145718Y-87715718D01*
X157983764Y-87848631D01*
X157798991Y-87947393D01*
X157598503Y-88008211D01*
X157442251Y-88023600D01*
X157337749Y-88023600D01*
X157181497Y-88008211D01*
X156981009Y-87947393D01*
X156796236Y-87848631D01*
X156634282Y-87715718D01*
X156501369Y-87553764D01*
X156402607Y-87368991D01*
X156341789Y-87168503D01*
X156321254Y-86960000D01*
X156341789Y-86751497D01*
X156402607Y-86551009D01*
X156501369Y-86366236D01*
X156634282Y-86204282D01*
X156796236Y-86071369D01*
X156981009Y-85972607D01*
X157181497Y-85911789D01*
X157337749Y-85896400D01*
X157442251Y-85896400D01*
X157598503Y-85911789D01*
X157598503Y-85911789D01*
G37*
G36*
X155058503Y-85911789D02*
X155258991Y-85972607D01*
X155443764Y-86071369D01*
X155605718Y-86204282D01*
X155738631Y-86366236D01*
X155837393Y-86551009D01*
X155898211Y-86751497D01*
X155918746Y-86960000D01*
X155898211Y-87168503D01*
X155837393Y-87368991D01*
X155738631Y-87553764D01*
X155605718Y-87715718D01*
X155443764Y-87848631D01*
X155258991Y-87947393D01*
X155058503Y-88008211D01*
X154902251Y-88023600D01*
X154797749Y-88023600D01*
X154641497Y-88008211D01*
X154441009Y-87947393D01*
X154256236Y-87848631D01*
X154094282Y-87715718D01*
X153961369Y-87553764D01*
X153862607Y-87368991D01*
X153801789Y-87168503D01*
X153781254Y-86960000D01*
X153801789Y-86751497D01*
X153862607Y-86551009D01*
X153961369Y-86366236D01*
X154094282Y-86204282D01*
X154256236Y-86071369D01*
X154441009Y-85972607D01*
X154641497Y-85911789D01*
X154797749Y-85896400D01*
X154902251Y-85896400D01*
X155058503Y-85911789D01*
X155058503Y-85911789D01*
G37*
G36*
X152518503Y-85911789D02*
X152718991Y-85972607D01*
X152903764Y-86071369D01*
X153065718Y-86204282D01*
X153198631Y-86366236D01*
X153297393Y-86551009D01*
X153358211Y-86751497D01*
X153378746Y-86960000D01*
X153358211Y-87168503D01*
X153297393Y-87368991D01*
X153198631Y-87553764D01*
X153065718Y-87715718D01*
X152903764Y-87848631D01*
X152718991Y-87947393D01*
X152518503Y-88008211D01*
X152362251Y-88023600D01*
X152257749Y-88023600D01*
X152101497Y-88008211D01*
X151901009Y-87947393D01*
X151716236Y-87848631D01*
X151554282Y-87715718D01*
X151421369Y-87553764D01*
X151322607Y-87368991D01*
X151261789Y-87168503D01*
X151241254Y-86960000D01*
X151261789Y-86751497D01*
X151322607Y-86551009D01*
X151421369Y-86366236D01*
X151554282Y-86204282D01*
X151716236Y-86071369D01*
X151901009Y-85972607D01*
X152101497Y-85911789D01*
X152257749Y-85896400D01*
X152362251Y-85896400D01*
X152518503Y-85911789D01*
X152518503Y-85911789D01*
G37*
G36*
X149978503Y-85911789D02*
X150178991Y-85972607D01*
X150363764Y-86071369D01*
X150525718Y-86204282D01*
X150658631Y-86366236D01*
X150757393Y-86551009D01*
X150818211Y-86751497D01*
X150838746Y-86960000D01*
X150818211Y-87168503D01*
X150757393Y-87368991D01*
X150658631Y-87553764D01*
X150525718Y-87715718D01*
X150363764Y-87848631D01*
X150178991Y-87947393D01*
X149978503Y-88008211D01*
X149822251Y-88023600D01*
X149717749Y-88023600D01*
X149561497Y-88008211D01*
X149361009Y-87947393D01*
X149176236Y-87848631D01*
X149014282Y-87715718D01*
X148881369Y-87553764D01*
X148782607Y-87368991D01*
X148721789Y-87168503D01*
X148701254Y-86960000D01*
X148721789Y-86751497D01*
X148782607Y-86551009D01*
X148881369Y-86366236D01*
X149014282Y-86204282D01*
X149176236Y-86071369D01*
X149361009Y-85972607D01*
X149561497Y-85911789D01*
X149717749Y-85896400D01*
X149822251Y-85896400D01*
X149978503Y-85911789D01*
X149978503Y-85911789D01*
G37*
G36*
X147438503Y-85911789D02*
X147638991Y-85972607D01*
X147823764Y-86071369D01*
X147985718Y-86204282D01*
X148118631Y-86366236D01*
X148217393Y-86551009D01*
X148278211Y-86751497D01*
X148298746Y-86960000D01*
X148278211Y-87168503D01*
X148217393Y-87368991D01*
X148118631Y-87553764D01*
X147985718Y-87715718D01*
X147823764Y-87848631D01*
X147638991Y-87947393D01*
X147438503Y-88008211D01*
X147282251Y-88023600D01*
X147177749Y-88023600D01*
X147021497Y-88008211D01*
X146821009Y-87947393D01*
X146636236Y-87848631D01*
X146474282Y-87715718D01*
X146341369Y-87553764D01*
X146242607Y-87368991D01*
X146181789Y-87168503D01*
X146161254Y-86960000D01*
X146181789Y-86751497D01*
X146242607Y-86551009D01*
X146341369Y-86366236D01*
X146474282Y-86204282D01*
X146636236Y-86071369D01*
X146821009Y-85972607D01*
X147021497Y-85911789D01*
X147177749Y-85896400D01*
X147282251Y-85896400D01*
X147438503Y-85911789D01*
X147438503Y-85911789D01*
G37*
G36*
X144898503Y-85911789D02*
X145098991Y-85972607D01*
X145283764Y-86071369D01*
X145445718Y-86204282D01*
X145578631Y-86366236D01*
X145677393Y-86551009D01*
X145738211Y-86751497D01*
X145758746Y-86960000D01*
X145738211Y-87168503D01*
X145677393Y-87368991D01*
X145578631Y-87553764D01*
X145445718Y-87715718D01*
X145283764Y-87848631D01*
X145098991Y-87947393D01*
X144898503Y-88008211D01*
X144742251Y-88023600D01*
X144637749Y-88023600D01*
X144481497Y-88008211D01*
X144281009Y-87947393D01*
X144096236Y-87848631D01*
X143934282Y-87715718D01*
X143801369Y-87553764D01*
X143702607Y-87368991D01*
X143641789Y-87168503D01*
X143621254Y-86960000D01*
X143641789Y-86751497D01*
X143702607Y-86551009D01*
X143801369Y-86366236D01*
X143934282Y-86204282D01*
X144096236Y-86071369D01*
X144281009Y-85972607D01*
X144481497Y-85911789D01*
X144637749Y-85896400D01*
X144742251Y-85896400D01*
X144898503Y-85911789D01*
X144898503Y-85911789D01*
G37*
G36*
X142358503Y-85911789D02*
X142558991Y-85972607D01*
X142743764Y-86071369D01*
X142905718Y-86204282D01*
X143038631Y-86366236D01*
X143137393Y-86551009D01*
X143198211Y-86751497D01*
X143218746Y-86960000D01*
X143198211Y-87168503D01*
X143137393Y-87368991D01*
X143038631Y-87553764D01*
X142905718Y-87715718D01*
X142743764Y-87848631D01*
X142558991Y-87947393D01*
X142358503Y-88008211D01*
X142202251Y-88023600D01*
X142097749Y-88023600D01*
X141941497Y-88008211D01*
X141741009Y-87947393D01*
X141556236Y-87848631D01*
X141394282Y-87715718D01*
X141261369Y-87553764D01*
X141162607Y-87368991D01*
X141101789Y-87168503D01*
X141081254Y-86960000D01*
X141101789Y-86751497D01*
X141162607Y-86551009D01*
X141261369Y-86366236D01*
X141394282Y-86204282D01*
X141556236Y-86071369D01*
X141741009Y-85972607D01*
X141941497Y-85911789D01*
X142097749Y-85896400D01*
X142202251Y-85896400D01*
X142358503Y-85911789D01*
X142358503Y-85911789D01*
G37*
G36*
X162678503Y-85911789D02*
X162878991Y-85972607D01*
X163063764Y-86071369D01*
X163225718Y-86204282D01*
X163358631Y-86366236D01*
X163457393Y-86551009D01*
X163518211Y-86751497D01*
X163538746Y-86960000D01*
X163518211Y-87168503D01*
X163457393Y-87368991D01*
X163358631Y-87553764D01*
X163225718Y-87715718D01*
X163063764Y-87848631D01*
X162878991Y-87947393D01*
X162678503Y-88008211D01*
X162522251Y-88023600D01*
X162417749Y-88023600D01*
X162261497Y-88008211D01*
X162061009Y-87947393D01*
X161876236Y-87848631D01*
X161714282Y-87715718D01*
X161581369Y-87553764D01*
X161482607Y-87368991D01*
X161421789Y-87168503D01*
X161401254Y-86960000D01*
X161421789Y-86751497D01*
X161482607Y-86551009D01*
X161581369Y-86366236D01*
X161714282Y-86204282D01*
X161876236Y-86071369D01*
X162061009Y-85972607D01*
X162261497Y-85911789D01*
X162417749Y-85896400D01*
X162522251Y-85896400D01*
X162678503Y-85911789D01*
X162678503Y-85911789D01*
G37*
G36*
X134738503Y-85911789D02*
X134938991Y-85972607D01*
X135123764Y-86071369D01*
X135285718Y-86204282D01*
X135418631Y-86366236D01*
X135517393Y-86551009D01*
X135578211Y-86751497D01*
X135598746Y-86960000D01*
X135578211Y-87168503D01*
X135517393Y-87368991D01*
X135418631Y-87553764D01*
X135285718Y-87715718D01*
X135123764Y-87848631D01*
X134938991Y-87947393D01*
X134738503Y-88008211D01*
X134582251Y-88023600D01*
X134477749Y-88023600D01*
X134321497Y-88008211D01*
X134121009Y-87947393D01*
X133936236Y-87848631D01*
X133774282Y-87715718D01*
X133641369Y-87553764D01*
X133542607Y-87368991D01*
X133481789Y-87168503D01*
X133461254Y-86960000D01*
X133481789Y-86751497D01*
X133542607Y-86551009D01*
X133641369Y-86366236D01*
X133774282Y-86204282D01*
X133936236Y-86071369D01*
X134121009Y-85972607D01*
X134321497Y-85911789D01*
X134477749Y-85896400D01*
X134582251Y-85896400D01*
X134738503Y-85911789D01*
X134738503Y-85911789D01*
G37*
G36*
X165218503Y-85911789D02*
X165418991Y-85972607D01*
X165603764Y-86071369D01*
X165765718Y-86204282D01*
X165898631Y-86366236D01*
X165997393Y-86551009D01*
X166058211Y-86751497D01*
X166078746Y-86960000D01*
X166058211Y-87168503D01*
X165997393Y-87368991D01*
X165898631Y-87553764D01*
X165765718Y-87715718D01*
X165603764Y-87848631D01*
X165418991Y-87947393D01*
X165218503Y-88008211D01*
X165062251Y-88023600D01*
X164957749Y-88023600D01*
X164801497Y-88008211D01*
X164601009Y-87947393D01*
X164416236Y-87848631D01*
X164254282Y-87715718D01*
X164121369Y-87553764D01*
X164022607Y-87368991D01*
X163961789Y-87168503D01*
X163941254Y-86960000D01*
X163961789Y-86751497D01*
X164022607Y-86551009D01*
X164121369Y-86366236D01*
X164254282Y-86204282D01*
X164416236Y-86071369D01*
X164601009Y-85972607D01*
X164801497Y-85911789D01*
X164957749Y-85896400D01*
X165062251Y-85896400D01*
X165218503Y-85911789D01*
X165218503Y-85911789D01*
G37*
G36*
X116958503Y-85911789D02*
X117158991Y-85972607D01*
X117343764Y-86071369D01*
X117505718Y-86204282D01*
X117638631Y-86366236D01*
X117737393Y-86551009D01*
X117798211Y-86751497D01*
X117818746Y-86960000D01*
X117798211Y-87168503D01*
X117737393Y-87368991D01*
X117638631Y-87553764D01*
X117505718Y-87715718D01*
X117343764Y-87848631D01*
X117158991Y-87947393D01*
X116958503Y-88008211D01*
X116802251Y-88023600D01*
X116697749Y-88023600D01*
X116541497Y-88008211D01*
X116341009Y-87947393D01*
X116156236Y-87848631D01*
X115994282Y-87715718D01*
X115861369Y-87553764D01*
X115762607Y-87368991D01*
X115701789Y-87168503D01*
X115681254Y-86960000D01*
X115701789Y-86751497D01*
X115762607Y-86551009D01*
X115861369Y-86366236D01*
X115994282Y-86204282D01*
X116156236Y-86071369D01*
X116341009Y-85972607D01*
X116541497Y-85911789D01*
X116697749Y-85896400D01*
X116802251Y-85896400D01*
X116958503Y-85911789D01*
X116958503Y-85911789D01*
G37*
G36*
X119498503Y-85911789D02*
X119698991Y-85972607D01*
X119883764Y-86071369D01*
X120045718Y-86204282D01*
X120178631Y-86366236D01*
X120277393Y-86551009D01*
X120338211Y-86751497D01*
X120358746Y-86960000D01*
X120338211Y-87168503D01*
X120277393Y-87368991D01*
X120178631Y-87553764D01*
X120045718Y-87715718D01*
X119883764Y-87848631D01*
X119698991Y-87947393D01*
X119498503Y-88008211D01*
X119342251Y-88023600D01*
X119237749Y-88023600D01*
X119081497Y-88008211D01*
X118881009Y-87947393D01*
X118696236Y-87848631D01*
X118534282Y-87715718D01*
X118401369Y-87553764D01*
X118302607Y-87368991D01*
X118241789Y-87168503D01*
X118221254Y-86960000D01*
X118241789Y-86751497D01*
X118302607Y-86551009D01*
X118401369Y-86366236D01*
X118534282Y-86204282D01*
X118696236Y-86071369D01*
X118881009Y-85972607D01*
X119081497Y-85911789D01*
X119237749Y-85896400D01*
X119342251Y-85896400D01*
X119498503Y-85911789D01*
X119498503Y-85911789D01*
G37*
G36*
X122038503Y-85911789D02*
X122238991Y-85972607D01*
X122423764Y-86071369D01*
X122585718Y-86204282D01*
X122718631Y-86366236D01*
X122817393Y-86551009D01*
X122878211Y-86751497D01*
X122898746Y-86960000D01*
X122878211Y-87168503D01*
X122817393Y-87368991D01*
X122718631Y-87553764D01*
X122585718Y-87715718D01*
X122423764Y-87848631D01*
X122238991Y-87947393D01*
X122038503Y-88008211D01*
X121882251Y-88023600D01*
X121777749Y-88023600D01*
X121621497Y-88008211D01*
X121421009Y-87947393D01*
X121236236Y-87848631D01*
X121074282Y-87715718D01*
X120941369Y-87553764D01*
X120842607Y-87368991D01*
X120781789Y-87168503D01*
X120761254Y-86960000D01*
X120781789Y-86751497D01*
X120842607Y-86551009D01*
X120941369Y-86366236D01*
X121074282Y-86204282D01*
X121236236Y-86071369D01*
X121421009Y-85972607D01*
X121621497Y-85911789D01*
X121777749Y-85896400D01*
X121882251Y-85896400D01*
X122038503Y-85911789D01*
X122038503Y-85911789D01*
G37*
G36*
X124578503Y-85911789D02*
X124778991Y-85972607D01*
X124963764Y-86071369D01*
X125125718Y-86204282D01*
X125258631Y-86366236D01*
X125357393Y-86551009D01*
X125418211Y-86751497D01*
X125438746Y-86960000D01*
X125418211Y-87168503D01*
X125357393Y-87368991D01*
X125258631Y-87553764D01*
X125125718Y-87715718D01*
X124963764Y-87848631D01*
X124778991Y-87947393D01*
X124578503Y-88008211D01*
X124422251Y-88023600D01*
X124317749Y-88023600D01*
X124161497Y-88008211D01*
X123961009Y-87947393D01*
X123776236Y-87848631D01*
X123614282Y-87715718D01*
X123481369Y-87553764D01*
X123382607Y-87368991D01*
X123321789Y-87168503D01*
X123301254Y-86960000D01*
X123321789Y-86751497D01*
X123382607Y-86551009D01*
X123481369Y-86366236D01*
X123614282Y-86204282D01*
X123776236Y-86071369D01*
X123961009Y-85972607D01*
X124161497Y-85911789D01*
X124317749Y-85896400D01*
X124422251Y-85896400D01*
X124578503Y-85911789D01*
X124578503Y-85911789D01*
G37*
G36*
X127118503Y-85911789D02*
X127318991Y-85972607D01*
X127503764Y-86071369D01*
X127665718Y-86204282D01*
X127798631Y-86366236D01*
X127897393Y-86551009D01*
X127958211Y-86751497D01*
X127978746Y-86960000D01*
X127958211Y-87168503D01*
X127897393Y-87368991D01*
X127798631Y-87553764D01*
X127665718Y-87715718D01*
X127503764Y-87848631D01*
X127318991Y-87947393D01*
X127118503Y-88008211D01*
X126962251Y-88023600D01*
X126857749Y-88023600D01*
X126701497Y-88008211D01*
X126501009Y-87947393D01*
X126316236Y-87848631D01*
X126154282Y-87715718D01*
X126021369Y-87553764D01*
X125922607Y-87368991D01*
X125861789Y-87168503D01*
X125841254Y-86960000D01*
X125861789Y-86751497D01*
X125922607Y-86551009D01*
X126021369Y-86366236D01*
X126154282Y-86204282D01*
X126316236Y-86071369D01*
X126501009Y-85972607D01*
X126701497Y-85911789D01*
X126857749Y-85896400D01*
X126962251Y-85896400D01*
X127118503Y-85911789D01*
X127118503Y-85911789D01*
G37*
G36*
X129658503Y-85911789D02*
X129858991Y-85972607D01*
X130043764Y-86071369D01*
X130205718Y-86204282D01*
X130338631Y-86366236D01*
X130437393Y-86551009D01*
X130498211Y-86751497D01*
X130518746Y-86960000D01*
X130498211Y-87168503D01*
X130437393Y-87368991D01*
X130338631Y-87553764D01*
X130205718Y-87715718D01*
X130043764Y-87848631D01*
X129858991Y-87947393D01*
X129658503Y-88008211D01*
X129502251Y-88023600D01*
X129397749Y-88023600D01*
X129241497Y-88008211D01*
X129041009Y-87947393D01*
X128856236Y-87848631D01*
X128694282Y-87715718D01*
X128561369Y-87553764D01*
X128462607Y-87368991D01*
X128401789Y-87168503D01*
X128381254Y-86960000D01*
X128401789Y-86751497D01*
X128462607Y-86551009D01*
X128561369Y-86366236D01*
X128694282Y-86204282D01*
X128856236Y-86071369D01*
X129041009Y-85972607D01*
X129241497Y-85911789D01*
X129397749Y-85896400D01*
X129502251Y-85896400D01*
X129658503Y-85911789D01*
X129658503Y-85911789D01*
G37*
G36*
X132198503Y-85911789D02*
X132398991Y-85972607D01*
X132583764Y-86071369D01*
X132745718Y-86204282D01*
X132878631Y-86366236D01*
X132977393Y-86551009D01*
X133038211Y-86751497D01*
X133058746Y-86960000D01*
X133038211Y-87168503D01*
X132977393Y-87368991D01*
X132878631Y-87553764D01*
X132745718Y-87715718D01*
X132583764Y-87848631D01*
X132398991Y-87947393D01*
X132198503Y-88008211D01*
X132042251Y-88023600D01*
X131937749Y-88023600D01*
X131781497Y-88008211D01*
X131581009Y-87947393D01*
X131396236Y-87848631D01*
X131234282Y-87715718D01*
X131101369Y-87553764D01*
X131002607Y-87368991D01*
X130941789Y-87168503D01*
X130921254Y-86960000D01*
X130941789Y-86751497D01*
X131002607Y-86551009D01*
X131101369Y-86366236D01*
X131234282Y-86204282D01*
X131396236Y-86071369D01*
X131581009Y-85972607D01*
X131781497Y-85911789D01*
X131937749Y-85896400D01*
X132042251Y-85896400D01*
X132198503Y-85911789D01*
X132198503Y-85911789D01*
G37*
G36*
X137278503Y-85911789D02*
X137478991Y-85972607D01*
X137663764Y-86071369D01*
X137825718Y-86204282D01*
X137958631Y-86366236D01*
X138057393Y-86551009D01*
X138118211Y-86751497D01*
X138138746Y-86960000D01*
X138118211Y-87168503D01*
X138057393Y-87368991D01*
X137958631Y-87553764D01*
X137825718Y-87715718D01*
X137663764Y-87848631D01*
X137478991Y-87947393D01*
X137278503Y-88008211D01*
X137122251Y-88023600D01*
X137017749Y-88023600D01*
X136861497Y-88008211D01*
X136661009Y-87947393D01*
X136476236Y-87848631D01*
X136314282Y-87715718D01*
X136181369Y-87553764D01*
X136082607Y-87368991D01*
X136021789Y-87168503D01*
X136001254Y-86960000D01*
X136021789Y-86751497D01*
X136082607Y-86551009D01*
X136181369Y-86366236D01*
X136314282Y-86204282D01*
X136476236Y-86071369D01*
X136661009Y-85972607D01*
X136861497Y-85911789D01*
X137017749Y-85896400D01*
X137122251Y-85896400D01*
X137278503Y-85911789D01*
X137278503Y-85911789D01*
G37*
G36*
X95079497Y-85728997D02*
X95132153Y-85744970D01*
X95180665Y-85770900D01*
X95223196Y-85805804D01*
X95258100Y-85848335D01*
X95284030Y-85896847D01*
X95300003Y-85949503D01*
X95306000Y-86010390D01*
X95306000Y-87235610D01*
X95300003Y-87296497D01*
X95284030Y-87349153D01*
X95258100Y-87397665D01*
X95223196Y-87440196D01*
X95180665Y-87475100D01*
X95132153Y-87501030D01*
X95079497Y-87517003D01*
X95018610Y-87523000D01*
X94218390Y-87523000D01*
X94157503Y-87517003D01*
X94104847Y-87501030D01*
X94056335Y-87475100D01*
X94013804Y-87440196D01*
X93978900Y-87397665D01*
X93952970Y-87349153D01*
X93936997Y-87296497D01*
X93931000Y-87235610D01*
X93931000Y-86010390D01*
X93936997Y-85949503D01*
X93952970Y-85896847D01*
X93978900Y-85848335D01*
X94013804Y-85805804D01*
X94056335Y-85770900D01*
X94104847Y-85744970D01*
X94157503Y-85728997D01*
X94218390Y-85723000D01*
X95018610Y-85723000D01*
X95079497Y-85728997D01*
X95079497Y-85728997D01*
G37*
G36*
X93204497Y-85728997D02*
X93257153Y-85744970D01*
X93305665Y-85770900D01*
X93348196Y-85805804D01*
X93383100Y-85848335D01*
X93409030Y-85896847D01*
X93425003Y-85949503D01*
X93431000Y-86010390D01*
X93431000Y-87235610D01*
X93425003Y-87296497D01*
X93409030Y-87349153D01*
X93383100Y-87397665D01*
X93348196Y-87440196D01*
X93305665Y-87475100D01*
X93257153Y-87501030D01*
X93204497Y-87517003D01*
X93143610Y-87523000D01*
X92343390Y-87523000D01*
X92282503Y-87517003D01*
X92229847Y-87501030D01*
X92181335Y-87475100D01*
X92138804Y-87440196D01*
X92103900Y-87397665D01*
X92077970Y-87349153D01*
X92061997Y-87296497D01*
X92056000Y-87235610D01*
X92056000Y-86010390D01*
X92061997Y-85949503D01*
X92077970Y-85896847D01*
X92103900Y-85848335D01*
X92138804Y-85805804D01*
X92181335Y-85770900D01*
X92229847Y-85744970D01*
X92282503Y-85728997D01*
X92343390Y-85723000D01*
X93143610Y-85723000D01*
X93204497Y-85728997D01*
X93204497Y-85728997D01*
G37*
G36*
X105637224Y-85185128D02*
X105769175Y-85225155D01*
X105890781Y-85290155D01*
X105997370Y-85377630D01*
X106084845Y-85484219D01*
X106149845Y-85605825D01*
X106189872Y-85737776D01*
X106200000Y-85840610D01*
X106200000Y-86459390D01*
X106189872Y-86562224D01*
X106149845Y-86694175D01*
X106084845Y-86815781D01*
X105997369Y-86922370D01*
X105890780Y-87009845D01*
X105769174Y-87074845D01*
X105637223Y-87114872D01*
X105500000Y-87128387D01*
X105362776Y-87114872D01*
X105230825Y-87074845D01*
X105109219Y-87009845D01*
X105002630Y-86922369D01*
X104915155Y-86815780D01*
X104850155Y-86694174D01*
X104810128Y-86562223D01*
X104800000Y-86459389D01*
X104800000Y-85840610D01*
X104810128Y-85737776D01*
X104850155Y-85605825D01*
X104915155Y-85484219D01*
X105002631Y-85377630D01*
X105109220Y-85290155D01*
X105230826Y-85225155D01*
X105362777Y-85185128D01*
X105500000Y-85171613D01*
X105637224Y-85185128D01*
X105637224Y-85185128D01*
G37*
G36*
X98637224Y-85185128D02*
X98769175Y-85225155D01*
X98890781Y-85290155D01*
X98997370Y-85377630D01*
X99084845Y-85484219D01*
X99149845Y-85605825D01*
X99189872Y-85737776D01*
X99200000Y-85840610D01*
X99200000Y-86459390D01*
X99189872Y-86562224D01*
X99149845Y-86694175D01*
X99084845Y-86815781D01*
X98997369Y-86922370D01*
X98890780Y-87009845D01*
X98769174Y-87074845D01*
X98637223Y-87114872D01*
X98500000Y-87128387D01*
X98362776Y-87114872D01*
X98230825Y-87074845D01*
X98109219Y-87009845D01*
X98002630Y-86922369D01*
X97915155Y-86815780D01*
X97850155Y-86694174D01*
X97810128Y-86562223D01*
X97800000Y-86459389D01*
X97800000Y-85840610D01*
X97810128Y-85737776D01*
X97850155Y-85605825D01*
X97915155Y-85484219D01*
X98002631Y-85377630D01*
X98109220Y-85290155D01*
X98230826Y-85225155D01*
X98362777Y-85185128D01*
X98500000Y-85171613D01*
X98637224Y-85185128D01*
X98637224Y-85185128D01*
G37*
G36*
X89387224Y-85185128D02*
X89519175Y-85225155D01*
X89640781Y-85290155D01*
X89747370Y-85377630D01*
X89834845Y-85484219D01*
X89899845Y-85605825D01*
X89939872Y-85737776D01*
X89950000Y-85840610D01*
X89950000Y-86459390D01*
X89939872Y-86562224D01*
X89899845Y-86694175D01*
X89834845Y-86815781D01*
X89747369Y-86922370D01*
X89640780Y-87009845D01*
X89519174Y-87074845D01*
X89387223Y-87114872D01*
X89250000Y-87128387D01*
X89112776Y-87114872D01*
X88980825Y-87074845D01*
X88859219Y-87009845D01*
X88752630Y-86922369D01*
X88665155Y-86815780D01*
X88600155Y-86694174D01*
X88560128Y-86562223D01*
X88550000Y-86459389D01*
X88550000Y-85840610D01*
X88560128Y-85737776D01*
X88600155Y-85605825D01*
X88665155Y-85484219D01*
X88752631Y-85377630D01*
X88859220Y-85290155D01*
X88980826Y-85225155D01*
X89112777Y-85185128D01*
X89250000Y-85171613D01*
X89387224Y-85185128D01*
X89387224Y-85185128D01*
G37*
G36*
X82387224Y-85185128D02*
X82519175Y-85225155D01*
X82640781Y-85290155D01*
X82747370Y-85377630D01*
X82834845Y-85484219D01*
X82899845Y-85605825D01*
X82939872Y-85737776D01*
X82950000Y-85840610D01*
X82950000Y-86459390D01*
X82939872Y-86562224D01*
X82899845Y-86694175D01*
X82834845Y-86815781D01*
X82747369Y-86922370D01*
X82640780Y-87009845D01*
X82519174Y-87074845D01*
X82387223Y-87114872D01*
X82250000Y-87128387D01*
X82112776Y-87114872D01*
X81980825Y-87074845D01*
X81859219Y-87009845D01*
X81752630Y-86922369D01*
X81665155Y-86815780D01*
X81600155Y-86694174D01*
X81560128Y-86562223D01*
X81550000Y-86459389D01*
X81550000Y-85840610D01*
X81560128Y-85737776D01*
X81600155Y-85605825D01*
X81665155Y-85484219D01*
X81752631Y-85377630D01*
X81859220Y-85290155D01*
X81980826Y-85225155D01*
X82112777Y-85185128D01*
X82250000Y-85171613D01*
X82387224Y-85185128D01*
X82387224Y-85185128D01*
G37*
G36*
X77423497Y-85630997D02*
X77476153Y-85646970D01*
X77524665Y-85672900D01*
X77567196Y-85707804D01*
X77602100Y-85750335D01*
X77628030Y-85798847D01*
X77644003Y-85851503D01*
X77650000Y-85912390D01*
X77650000Y-86712610D01*
X77644003Y-86773497D01*
X77628030Y-86826153D01*
X77602100Y-86874665D01*
X77567196Y-86917196D01*
X77524665Y-86952100D01*
X77476153Y-86978030D01*
X77423497Y-86994003D01*
X77362610Y-87000000D01*
X76137390Y-87000000D01*
X76076503Y-86994003D01*
X76023847Y-86978030D01*
X75975335Y-86952100D01*
X75932804Y-86917196D01*
X75897900Y-86874665D01*
X75871970Y-86826153D01*
X75855997Y-86773497D01*
X75850000Y-86712610D01*
X75850000Y-85912390D01*
X75855997Y-85851503D01*
X75871970Y-85798847D01*
X75897900Y-85750335D01*
X75932804Y-85707804D01*
X75975335Y-85672900D01*
X76023847Y-85646970D01*
X76076503Y-85630997D01*
X76137390Y-85625000D01*
X77362610Y-85625000D01*
X77423497Y-85630997D01*
X77423497Y-85630997D01*
G37*
G36*
X80173497Y-85630997D02*
X80226153Y-85646970D01*
X80274665Y-85672900D01*
X80317196Y-85707804D01*
X80352100Y-85750335D01*
X80378030Y-85798847D01*
X80394003Y-85851503D01*
X80400000Y-85912390D01*
X80400000Y-86712610D01*
X80394003Y-86773497D01*
X80378030Y-86826153D01*
X80352100Y-86874665D01*
X80317196Y-86917196D01*
X80274665Y-86952100D01*
X80226153Y-86978030D01*
X80173497Y-86994003D01*
X80112610Y-87000000D01*
X78887390Y-87000000D01*
X78826503Y-86994003D01*
X78773847Y-86978030D01*
X78725335Y-86952100D01*
X78682804Y-86917196D01*
X78647900Y-86874665D01*
X78621970Y-86826153D01*
X78605997Y-86773497D01*
X78600000Y-86712610D01*
X78600000Y-85912390D01*
X78605997Y-85851503D01*
X78621970Y-85798847D01*
X78647900Y-85750335D01*
X78682804Y-85707804D01*
X78725335Y-85672900D01*
X78773847Y-85646970D01*
X78826503Y-85630997D01*
X78887390Y-85625000D01*
X80112610Y-85625000D01*
X80173497Y-85630997D01*
X80173497Y-85630997D01*
G37*
M02*
