G04 #@! TF.GenerationSoftware,KiCad,Pcbnew,5.0.2-bee76a0~70~ubuntu16.04.1*
G04 #@! TF.CreationDate,2018-12-12T21:45:09+05:30*
G04 #@! TF.ProjectId,sanjaya,73616e6a-6179-4612-9e6b-696361645f70,rev?*
G04 #@! TF.SameCoordinates,Original*
G04 #@! TF.FileFunction,Other,User*
%FSLAX46Y46*%
G04 Gerber Fmt 4.6, Leading zero omitted, Abs format (unit mm)*
G04 Created by KiCad (PCBNEW 5.0.2-bee76a0~70~ubuntu16.04.1) date Wed Dec 12 21:45:09 2018*
%MOMM*%
%LPD*%
G01*
G04 APERTURE LIST*
%ADD10C,0.050000*%
G04 APERTURE END LIST*
D10*
G04 #@! TO.C,J11*
X106600000Y-83240000D02*
X106600000Y-90090000D01*
X97400000Y-83240000D02*
X106600000Y-83240000D01*
X97400000Y-90090000D02*
X97400000Y-83240000D01*
X106600000Y-90090000D02*
X97400000Y-90090000D01*
G04 #@! TO.C,R6*
X132570000Y-117450000D02*
X132570000Y-115550000D01*
X132570000Y-115550000D02*
X135930000Y-115550000D01*
X135930000Y-115550000D02*
X135930000Y-117450000D01*
X135930000Y-117450000D02*
X132570000Y-117450000D01*
G04 #@! TO.C,R20*
X135930000Y-115200000D02*
X132570000Y-115200000D01*
X135930000Y-113300000D02*
X135930000Y-115200000D01*
X132570000Y-113300000D02*
X135930000Y-113300000D01*
X132570000Y-115200000D02*
X132570000Y-113300000D01*
G04 #@! TO.C,C1*
X123700000Y-103450000D02*
X125800000Y-103450000D01*
X125800000Y-103450000D02*
X125800000Y-108050000D01*
X125800000Y-108050000D02*
X123700000Y-108050000D01*
X123700000Y-108050000D02*
X123700000Y-103450000D01*
G04 #@! TO.C,C2*
X127300000Y-104570000D02*
X129200000Y-104570000D01*
X129200000Y-104570000D02*
X129200000Y-107930000D01*
X129200000Y-107930000D02*
X127300000Y-107930000D01*
X127300000Y-107930000D02*
X127300000Y-104570000D01*
G04 #@! TO.C,D1*
X123162000Y-97077000D02*
X119662000Y-97077000D01*
X123162000Y-93677000D02*
X123162000Y-97077000D01*
X119662000Y-93677000D02*
X123162000Y-93677000D01*
X119662000Y-97077000D02*
X119662000Y-93677000D01*
G04 #@! TO.C,D2*
X128115000Y-93528000D02*
X128115000Y-100528000D01*
X128115000Y-100528000D02*
X124615000Y-100528000D01*
X124615000Y-100528000D02*
X124615000Y-93528000D01*
X124615000Y-93528000D02*
X128115000Y-93528000D01*
G04 #@! TO.C,J8*
X95361000Y-93669000D02*
X92001000Y-93669000D01*
X95361000Y-91769000D02*
X95361000Y-93669000D01*
X92001000Y-91769000D02*
X95361000Y-91769000D01*
X92001000Y-93669000D02*
X92001000Y-91769000D01*
G04 #@! TO.C,J10*
X92001000Y-87573000D02*
X92001000Y-85673000D01*
X92001000Y-85673000D02*
X95361000Y-85673000D01*
X95361000Y-85673000D02*
X95361000Y-87573000D01*
X95361000Y-87573000D02*
X92001000Y-87573000D01*
G04 #@! TO.C,J12*
X91000000Y-98350000D02*
X91000000Y-93550000D01*
X91000000Y-93550000D02*
X82500000Y-93550000D01*
X82500000Y-93550000D02*
X82500000Y-98350000D01*
X82500000Y-98350000D02*
X91000000Y-98350000D01*
G04 #@! TO.C,J13*
X111400000Y-83550000D02*
X170360000Y-83550000D01*
X170360000Y-83550000D02*
X170360000Y-92910000D01*
X170360000Y-92910000D02*
X111400000Y-92910000D01*
X111400000Y-92910000D02*
X111400000Y-83550000D01*
G04 #@! TO.C,J14*
X75150000Y-89750000D02*
X75150000Y-98250000D01*
X79950000Y-89750000D02*
X75150000Y-89750000D01*
X79950000Y-98250000D02*
X79950000Y-89750000D01*
X75150000Y-98250000D02*
X79950000Y-98250000D01*
G04 #@! TO.C,K1*
X74800000Y-99950000D02*
X74800000Y-120050000D01*
X90700000Y-120050000D02*
X74800000Y-120050000D01*
X74800000Y-99950000D02*
X90700000Y-99950000D01*
X90700000Y-120050000D02*
X90700000Y-99950000D01*
G04 #@! TO.C,K2*
X107200000Y-120050000D02*
X107200000Y-99950000D01*
X91300000Y-99950000D02*
X107200000Y-99950000D01*
X107200000Y-120050000D02*
X91300000Y-120050000D01*
X91300000Y-99950000D02*
X91300000Y-120050000D01*
G04 #@! TO.C,Q1*
X117905000Y-93500000D02*
X117905000Y-97000000D01*
X114505000Y-93500000D02*
X117905000Y-93500000D01*
X114505000Y-97000000D02*
X114505000Y-93500000D01*
X117905000Y-97000000D02*
X114505000Y-97000000D01*
G04 #@! TO.C,Q2*
X129491000Y-97681000D02*
X129491000Y-93581000D01*
X129491000Y-97681000D02*
X132891000Y-97681000D01*
X132891000Y-93581000D02*
X129491000Y-93581000D01*
X132891000Y-93581000D02*
X132891000Y-97681000D01*
G04 #@! TO.C,R1*
X113120000Y-116870000D02*
X113120000Y-114630000D01*
X113120000Y-114630000D02*
X117680000Y-114630000D01*
X117680000Y-114630000D02*
X117680000Y-116870000D01*
X117680000Y-116870000D02*
X113120000Y-116870000D01*
G04 #@! TO.C,R2*
X117160000Y-101375000D02*
X117160000Y-98015000D01*
X119060000Y-101375000D02*
X117160000Y-101375000D01*
X119060000Y-98015000D02*
X119060000Y-101375000D01*
X117160000Y-98015000D02*
X119060000Y-98015000D01*
G04 #@! TO.C,R3*
X114470000Y-105120000D02*
X114470000Y-102880000D01*
X114470000Y-102880000D02*
X119030000Y-102880000D01*
X119030000Y-102880000D02*
X119030000Y-105120000D01*
X119030000Y-105120000D02*
X114470000Y-105120000D01*
G04 #@! TO.C,R4*
X122030000Y-107620000D02*
X117470000Y-107620000D01*
X122030000Y-105380000D02*
X122030000Y-107620000D01*
X117470000Y-105380000D02*
X122030000Y-105380000D01*
X117470000Y-107620000D02*
X117470000Y-105380000D01*
G04 #@! TO.C,R7*
X114680000Y-119450000D02*
X111320000Y-119450000D01*
X114680000Y-117550000D02*
X114680000Y-119450000D01*
X111320000Y-117550000D02*
X114680000Y-117550000D01*
X111320000Y-119450000D02*
X111320000Y-117550000D01*
G04 #@! TO.C,R8*
X146050000Y-112570000D02*
X147950000Y-112570000D01*
X147950000Y-112570000D02*
X147950000Y-115930000D01*
X147950000Y-115930000D02*
X146050000Y-115930000D01*
X146050000Y-115930000D02*
X146050000Y-112570000D01*
G04 #@! TO.C,R9*
X149550000Y-115930000D02*
X149550000Y-112570000D01*
X151450000Y-115930000D02*
X149550000Y-115930000D01*
X151450000Y-112570000D02*
X151450000Y-115930000D01*
X149550000Y-112570000D02*
X151450000Y-112570000D01*
G04 #@! TO.C,R10*
X153300000Y-112570000D02*
X155200000Y-112570000D01*
X155200000Y-112570000D02*
X155200000Y-115930000D01*
X155200000Y-115930000D02*
X153300000Y-115930000D01*
X153300000Y-115930000D02*
X153300000Y-112570000D01*
G04 #@! TO.C,R11*
X156550000Y-115930000D02*
X156550000Y-112570000D01*
X158450000Y-115930000D02*
X156550000Y-115930000D01*
X158450000Y-112570000D02*
X158450000Y-115930000D01*
X156550000Y-112570000D02*
X158450000Y-112570000D01*
G04 #@! TO.C,R12*
X147950000Y-100930000D02*
X146050000Y-100930000D01*
X146050000Y-100930000D02*
X146050000Y-97570000D01*
X146050000Y-97570000D02*
X147950000Y-97570000D01*
X147950000Y-97570000D02*
X147950000Y-100930000D01*
G04 #@! TO.C,R13*
X151450000Y-97570000D02*
X151450000Y-100930000D01*
X149550000Y-97570000D02*
X151450000Y-97570000D01*
X149550000Y-100930000D02*
X149550000Y-97570000D01*
X151450000Y-100930000D02*
X149550000Y-100930000D01*
G04 #@! TO.C,R14*
X154950000Y-100930000D02*
X153050000Y-100930000D01*
X153050000Y-100930000D02*
X153050000Y-97570000D01*
X153050000Y-97570000D02*
X154950000Y-97570000D01*
X154950000Y-97570000D02*
X154950000Y-100930000D01*
G04 #@! TO.C,R15*
X158200000Y-97570000D02*
X158200000Y-100930000D01*
X156300000Y-97570000D02*
X158200000Y-97570000D01*
X156300000Y-100930000D02*
X156300000Y-97570000D01*
X158200000Y-100930000D02*
X156300000Y-100930000D01*
G04 #@! TO.C,R_4_20*
X129880000Y-113030000D02*
X129880000Y-108470000D01*
X132120000Y-113030000D02*
X129880000Y-113030000D01*
X132120000Y-108470000D02*
X132120000Y-113030000D01*
X129880000Y-108470000D02*
X132120000Y-108470000D01*
G04 #@! TO.C,U1*
X136300000Y-94200000D02*
X136300000Y-99800000D01*
X144200000Y-94200000D02*
X144200000Y-99800000D01*
X136300000Y-94200000D02*
X144200000Y-94200000D01*
X136300000Y-99800000D02*
X144200000Y-99800000D01*
G04 #@! TO.C,U2*
X131750000Y-106950000D02*
X131750000Y-103550000D01*
X131750000Y-103550000D02*
X135250000Y-103550000D01*
X135250000Y-103550000D02*
X135250000Y-106950000D01*
X135250000Y-106950000D02*
X131750000Y-106950000D01*
G04 #@! TO.C,U3*
X129518000Y-102611000D02*
X129518000Y-98811000D01*
X129518000Y-98811000D02*
X133118000Y-98811000D01*
X133118000Y-98811000D02*
X133118000Y-102611000D01*
X133118000Y-102611000D02*
X129518000Y-102611000D01*
G04 #@! TO.C,U4*
X161300000Y-94350000D02*
X161300000Y-106650000D01*
X173200000Y-94350000D02*
X173200000Y-106650000D01*
X161300000Y-94350000D02*
X173200000Y-94350000D01*
X161300000Y-106650000D02*
X173200000Y-106650000D01*
G04 #@! TO.C,U6*
X146800000Y-110800000D02*
X146800000Y-102700000D01*
X146800000Y-110800000D02*
X157700000Y-110800000D01*
X157700000Y-102700000D02*
X146800000Y-102700000D01*
X157700000Y-102700000D02*
X157700000Y-110800000D01*
G04 #@! TO.C,J17*
X132400000Y-128500000D02*
X137200000Y-128500000D01*
X137200000Y-128500000D02*
X137200000Y-120000000D01*
X137200000Y-120000000D02*
X132400000Y-120000000D01*
X132400000Y-120000000D02*
X132400000Y-128500000D01*
G04 #@! TO.C,J18*
X95361000Y-88340000D02*
X95361000Y-90240000D01*
X95361000Y-90240000D02*
X92001000Y-90240000D01*
X92001000Y-90240000D02*
X92001000Y-88340000D01*
X92001000Y-88340000D02*
X95361000Y-88340000D01*
G04 #@! TO.C,D4*
X80450000Y-88930000D02*
X78550000Y-88930000D01*
X78550000Y-88930000D02*
X78550000Y-85570000D01*
X78550000Y-85570000D02*
X80450000Y-85570000D01*
X80450000Y-85570000D02*
X80450000Y-88930000D01*
G04 #@! TO.C,F1*
X96500000Y-93400000D02*
X96500000Y-98200000D01*
X96500000Y-98200000D02*
X105000000Y-98200000D01*
X105000000Y-98200000D02*
X105000000Y-93400000D01*
X105000000Y-93400000D02*
X96500000Y-93400000D01*
G04 #@! TO.C,F6*
X137920000Y-122220000D02*
X141080000Y-122220000D01*
X141080000Y-122220000D02*
X141080000Y-126780000D01*
X141080000Y-126780000D02*
X137920000Y-126780000D01*
X137920000Y-126780000D02*
X137920000Y-122220000D01*
G04 #@! TO.C,F7*
X142170000Y-126780000D02*
X142170000Y-122220000D01*
X145330000Y-126780000D02*
X142170000Y-126780000D01*
X145330000Y-122220000D02*
X145330000Y-126780000D01*
X142170000Y-122220000D02*
X145330000Y-122220000D01*
G04 #@! TO.C,F8*
X158170000Y-122220000D02*
X161330000Y-122220000D01*
X161330000Y-122220000D02*
X161330000Y-126780000D01*
X161330000Y-126780000D02*
X158170000Y-126780000D01*
X158170000Y-126780000D02*
X158170000Y-122220000D01*
G04 #@! TO.C,F9*
X162420000Y-126780000D02*
X162420000Y-122220000D01*
X165580000Y-126780000D02*
X162420000Y-126780000D01*
X165580000Y-122220000D02*
X165580000Y-126780000D01*
X162420000Y-122220000D02*
X165580000Y-122220000D01*
G04 #@! TO.C,R5*
X77700000Y-88930000D02*
X75800000Y-88930000D01*
X75800000Y-88930000D02*
X75800000Y-85570000D01*
X75800000Y-85570000D02*
X77700000Y-85570000D01*
X77700000Y-85570000D02*
X77700000Y-88930000D01*
G04 #@! TO.C,U5*
X119300000Y-108600000D02*
X119300000Y-117900000D01*
X126700000Y-108600000D02*
X126700000Y-117900000D01*
X119300000Y-108600000D02*
X126700000Y-108600000D01*
X119300000Y-117900000D02*
X126700000Y-117900000D01*
G04 #@! TO.C,J1*
X76750000Y-121150000D02*
X76750000Y-128350000D01*
X76750000Y-128350000D02*
X83290000Y-128350000D01*
X83290000Y-128350000D02*
X83290000Y-121150000D01*
X83290000Y-121150000D02*
X76750000Y-121150000D01*
G04 #@! TO.C,J2*
X146000000Y-120900000D02*
X146000000Y-128100000D01*
X146000000Y-128100000D02*
X157630000Y-128100000D01*
X157630000Y-128100000D02*
X157630000Y-120900000D01*
X157630000Y-120900000D02*
X146000000Y-120900000D01*
G04 #@! TO.C,J3*
X166250000Y-120900000D02*
X166250000Y-128100000D01*
X166250000Y-128100000D02*
X172790000Y-128100000D01*
X172790000Y-128100000D02*
X172790000Y-120900000D01*
X172790000Y-120900000D02*
X166250000Y-120900000D01*
G04 #@! TO.C,J4*
X84250000Y-121150000D02*
X84250000Y-128350000D01*
X84250000Y-128350000D02*
X93330000Y-128350000D01*
X93330000Y-128350000D02*
X93330000Y-121150000D01*
X93330000Y-121150000D02*
X84250000Y-121150000D01*
G04 #@! TO.C,J5*
X102580000Y-121150000D02*
X93500000Y-121150000D01*
X102580000Y-128350000D02*
X102580000Y-121150000D01*
X93500000Y-128350000D02*
X102580000Y-128350000D01*
X93500000Y-121150000D02*
X93500000Y-128350000D01*
G04 #@! TO.C,J6*
X125040000Y-121150000D02*
X118500000Y-121150000D01*
X125040000Y-128350000D02*
X125040000Y-121150000D01*
X118500000Y-128350000D02*
X125040000Y-128350000D01*
X118500000Y-121150000D02*
X118500000Y-128350000D01*
G04 #@! TO.C,J7*
X125000000Y-121150000D02*
X125000000Y-128350000D01*
X125000000Y-128350000D02*
X131540000Y-128350000D01*
X131540000Y-128350000D02*
X131540000Y-121150000D01*
X131540000Y-121150000D02*
X125000000Y-121150000D01*
G04 #@! TO.C,J15*
X109290000Y-121150000D02*
X102750000Y-121150000D01*
X109290000Y-128350000D02*
X109290000Y-121150000D01*
X102750000Y-128350000D02*
X109290000Y-128350000D01*
X102750000Y-121150000D02*
X102750000Y-128350000D01*
G04 #@! TO.C,J16*
X109250000Y-121150000D02*
X109250000Y-128350000D01*
X109250000Y-128350000D02*
X118330000Y-128350000D01*
X118330000Y-128350000D02*
X118330000Y-121150000D01*
X118330000Y-121150000D02*
X109250000Y-121150000D01*
G04 #@! TO.C,J9*
X90350000Y-90090000D02*
X81150000Y-90090000D01*
X81150000Y-90090000D02*
X81150000Y-83240000D01*
X81150000Y-83240000D02*
X90350000Y-83240000D01*
X90350000Y-83240000D02*
X90350000Y-90090000D01*
G04 #@! TO.C,REF\002A\002A*
X114800000Y-88000000D02*
G75*
G03X114800000Y-88000000I-3050000J0D01*
G01*
X172800000Y-88000000D02*
G75*
G03X172800000Y-88000000I-3050000J0D01*
G01*
X172800000Y-111000000D02*
G75*
G03X172800000Y-111000000I-3050000J0D01*
G01*
X114800000Y-111000000D02*
G75*
G03X114800000Y-111000000I-3050000J0D01*
G01*
G04 #@! TD*
M02*
