G04 #@! TF.GenerationSoftware,KiCad,Pcbnew,5.0.2-bee76a0~70~ubuntu16.04.1*
G04 #@! TF.CreationDate,2018-12-12T21:45:08+05:30*
G04 #@! TF.ProjectId,sanjaya,73616e6a-6179-4612-9e6b-696361645f70,rev?*
G04 #@! TF.SameCoordinates,Original*
G04 #@! TF.FileFunction,Paste,Bot*
G04 #@! TF.FilePolarity,Positive*
%FSLAX46Y46*%
G04 Gerber Fmt 4.6, Leading zero omitted, Abs format (unit mm)*
G04 Created by KiCad (PCBNEW 5.0.2-bee76a0~70~ubuntu16.04.1) date Wed Dec 12 21:45:08 2018*
%MOMM*%
%LPD*%
G01*
G04 APERTURE LIST*
%ADD10C,0.100000*%
%ADD11C,0.975000*%
%ADD12R,0.800000X0.900000*%
%ADD13C,1.125000*%
%ADD14R,2.650000X0.760000*%
%ADD15R,1.500000X0.450000*%
%ADD16R,1.550000X0.600000*%
G04 APERTURE END LIST*
D10*
G04 #@! TO.C,C3*
G36*
X145230142Y-104701174D02*
X145253803Y-104704684D01*
X145277007Y-104710496D01*
X145299529Y-104718554D01*
X145321153Y-104728782D01*
X145341670Y-104741079D01*
X145360883Y-104755329D01*
X145378607Y-104771393D01*
X145394671Y-104789117D01*
X145408921Y-104808330D01*
X145421218Y-104828847D01*
X145431446Y-104850471D01*
X145439504Y-104872993D01*
X145445316Y-104896197D01*
X145448826Y-104919858D01*
X145450000Y-104943750D01*
X145450000Y-105431250D01*
X145448826Y-105455142D01*
X145445316Y-105478803D01*
X145439504Y-105502007D01*
X145431446Y-105524529D01*
X145421218Y-105546153D01*
X145408921Y-105566670D01*
X145394671Y-105585883D01*
X145378607Y-105603607D01*
X145360883Y-105619671D01*
X145341670Y-105633921D01*
X145321153Y-105646218D01*
X145299529Y-105656446D01*
X145277007Y-105664504D01*
X145253803Y-105670316D01*
X145230142Y-105673826D01*
X145206250Y-105675000D01*
X144293750Y-105675000D01*
X144269858Y-105673826D01*
X144246197Y-105670316D01*
X144222993Y-105664504D01*
X144200471Y-105656446D01*
X144178847Y-105646218D01*
X144158330Y-105633921D01*
X144139117Y-105619671D01*
X144121393Y-105603607D01*
X144105329Y-105585883D01*
X144091079Y-105566670D01*
X144078782Y-105546153D01*
X144068554Y-105524529D01*
X144060496Y-105502007D01*
X144054684Y-105478803D01*
X144051174Y-105455142D01*
X144050000Y-105431250D01*
X144050000Y-104943750D01*
X144051174Y-104919858D01*
X144054684Y-104896197D01*
X144060496Y-104872993D01*
X144068554Y-104850471D01*
X144078782Y-104828847D01*
X144091079Y-104808330D01*
X144105329Y-104789117D01*
X144121393Y-104771393D01*
X144139117Y-104755329D01*
X144158330Y-104741079D01*
X144178847Y-104728782D01*
X144200471Y-104718554D01*
X144222993Y-104710496D01*
X144246197Y-104704684D01*
X144269858Y-104701174D01*
X144293750Y-104700000D01*
X145206250Y-104700000D01*
X145230142Y-104701174D01*
X145230142Y-104701174D01*
G37*
D11*
X144750000Y-105187500D03*
D10*
G36*
X145230142Y-102826174D02*
X145253803Y-102829684D01*
X145277007Y-102835496D01*
X145299529Y-102843554D01*
X145321153Y-102853782D01*
X145341670Y-102866079D01*
X145360883Y-102880329D01*
X145378607Y-102896393D01*
X145394671Y-102914117D01*
X145408921Y-102933330D01*
X145421218Y-102953847D01*
X145431446Y-102975471D01*
X145439504Y-102997993D01*
X145445316Y-103021197D01*
X145448826Y-103044858D01*
X145450000Y-103068750D01*
X145450000Y-103556250D01*
X145448826Y-103580142D01*
X145445316Y-103603803D01*
X145439504Y-103627007D01*
X145431446Y-103649529D01*
X145421218Y-103671153D01*
X145408921Y-103691670D01*
X145394671Y-103710883D01*
X145378607Y-103728607D01*
X145360883Y-103744671D01*
X145341670Y-103758921D01*
X145321153Y-103771218D01*
X145299529Y-103781446D01*
X145277007Y-103789504D01*
X145253803Y-103795316D01*
X145230142Y-103798826D01*
X145206250Y-103800000D01*
X144293750Y-103800000D01*
X144269858Y-103798826D01*
X144246197Y-103795316D01*
X144222993Y-103789504D01*
X144200471Y-103781446D01*
X144178847Y-103771218D01*
X144158330Y-103758921D01*
X144139117Y-103744671D01*
X144121393Y-103728607D01*
X144105329Y-103710883D01*
X144091079Y-103691670D01*
X144078782Y-103671153D01*
X144068554Y-103649529D01*
X144060496Y-103627007D01*
X144054684Y-103603803D01*
X144051174Y-103580142D01*
X144050000Y-103556250D01*
X144050000Y-103068750D01*
X144051174Y-103044858D01*
X144054684Y-103021197D01*
X144060496Y-102997993D01*
X144068554Y-102975471D01*
X144078782Y-102953847D01*
X144091079Y-102933330D01*
X144105329Y-102914117D01*
X144121393Y-102896393D01*
X144139117Y-102880329D01*
X144158330Y-102866079D01*
X144178847Y-102853782D01*
X144200471Y-102843554D01*
X144222993Y-102835496D01*
X144246197Y-102829684D01*
X144269858Y-102826174D01*
X144293750Y-102825000D01*
X145206250Y-102825000D01*
X145230142Y-102826174D01*
X145230142Y-102826174D01*
G37*
D11*
X144750000Y-103312500D03*
G04 #@! TD*
D10*
G04 #@! TO.C,C4*
G36*
X148980142Y-117326174D02*
X149003803Y-117329684D01*
X149027007Y-117335496D01*
X149049529Y-117343554D01*
X149071153Y-117353782D01*
X149091670Y-117366079D01*
X149110883Y-117380329D01*
X149128607Y-117396393D01*
X149144671Y-117414117D01*
X149158921Y-117433330D01*
X149171218Y-117453847D01*
X149181446Y-117475471D01*
X149189504Y-117497993D01*
X149195316Y-117521197D01*
X149198826Y-117544858D01*
X149200000Y-117568750D01*
X149200000Y-118056250D01*
X149198826Y-118080142D01*
X149195316Y-118103803D01*
X149189504Y-118127007D01*
X149181446Y-118149529D01*
X149171218Y-118171153D01*
X149158921Y-118191670D01*
X149144671Y-118210883D01*
X149128607Y-118228607D01*
X149110883Y-118244671D01*
X149091670Y-118258921D01*
X149071153Y-118271218D01*
X149049529Y-118281446D01*
X149027007Y-118289504D01*
X149003803Y-118295316D01*
X148980142Y-118298826D01*
X148956250Y-118300000D01*
X148043750Y-118300000D01*
X148019858Y-118298826D01*
X147996197Y-118295316D01*
X147972993Y-118289504D01*
X147950471Y-118281446D01*
X147928847Y-118271218D01*
X147908330Y-118258921D01*
X147889117Y-118244671D01*
X147871393Y-118228607D01*
X147855329Y-118210883D01*
X147841079Y-118191670D01*
X147828782Y-118171153D01*
X147818554Y-118149529D01*
X147810496Y-118127007D01*
X147804684Y-118103803D01*
X147801174Y-118080142D01*
X147800000Y-118056250D01*
X147800000Y-117568750D01*
X147801174Y-117544858D01*
X147804684Y-117521197D01*
X147810496Y-117497993D01*
X147818554Y-117475471D01*
X147828782Y-117453847D01*
X147841079Y-117433330D01*
X147855329Y-117414117D01*
X147871393Y-117396393D01*
X147889117Y-117380329D01*
X147908330Y-117366079D01*
X147928847Y-117353782D01*
X147950471Y-117343554D01*
X147972993Y-117335496D01*
X147996197Y-117329684D01*
X148019858Y-117326174D01*
X148043750Y-117325000D01*
X148956250Y-117325000D01*
X148980142Y-117326174D01*
X148980142Y-117326174D01*
G37*
D11*
X148500000Y-117812500D03*
D10*
G36*
X148980142Y-119201174D02*
X149003803Y-119204684D01*
X149027007Y-119210496D01*
X149049529Y-119218554D01*
X149071153Y-119228782D01*
X149091670Y-119241079D01*
X149110883Y-119255329D01*
X149128607Y-119271393D01*
X149144671Y-119289117D01*
X149158921Y-119308330D01*
X149171218Y-119328847D01*
X149181446Y-119350471D01*
X149189504Y-119372993D01*
X149195316Y-119396197D01*
X149198826Y-119419858D01*
X149200000Y-119443750D01*
X149200000Y-119931250D01*
X149198826Y-119955142D01*
X149195316Y-119978803D01*
X149189504Y-120002007D01*
X149181446Y-120024529D01*
X149171218Y-120046153D01*
X149158921Y-120066670D01*
X149144671Y-120085883D01*
X149128607Y-120103607D01*
X149110883Y-120119671D01*
X149091670Y-120133921D01*
X149071153Y-120146218D01*
X149049529Y-120156446D01*
X149027007Y-120164504D01*
X149003803Y-120170316D01*
X148980142Y-120173826D01*
X148956250Y-120175000D01*
X148043750Y-120175000D01*
X148019858Y-120173826D01*
X147996197Y-120170316D01*
X147972993Y-120164504D01*
X147950471Y-120156446D01*
X147928847Y-120146218D01*
X147908330Y-120133921D01*
X147889117Y-120119671D01*
X147871393Y-120103607D01*
X147855329Y-120085883D01*
X147841079Y-120066670D01*
X147828782Y-120046153D01*
X147818554Y-120024529D01*
X147810496Y-120002007D01*
X147804684Y-119978803D01*
X147801174Y-119955142D01*
X147800000Y-119931250D01*
X147800000Y-119443750D01*
X147801174Y-119419858D01*
X147804684Y-119396197D01*
X147810496Y-119372993D01*
X147818554Y-119350471D01*
X147828782Y-119328847D01*
X147841079Y-119308330D01*
X147855329Y-119289117D01*
X147871393Y-119271393D01*
X147889117Y-119255329D01*
X147908330Y-119241079D01*
X147928847Y-119228782D01*
X147950471Y-119218554D01*
X147972993Y-119210496D01*
X147996197Y-119204684D01*
X148019858Y-119201174D01*
X148043750Y-119200000D01*
X148956250Y-119200000D01*
X148980142Y-119201174D01*
X148980142Y-119201174D01*
G37*
D11*
X148500000Y-119687500D03*
G04 #@! TD*
D10*
G04 #@! TO.C,C5*
G36*
X131730142Y-102701174D02*
X131753803Y-102704684D01*
X131777007Y-102710496D01*
X131799529Y-102718554D01*
X131821153Y-102728782D01*
X131841670Y-102741079D01*
X131860883Y-102755329D01*
X131878607Y-102771393D01*
X131894671Y-102789117D01*
X131908921Y-102808330D01*
X131921218Y-102828847D01*
X131931446Y-102850471D01*
X131939504Y-102872993D01*
X131945316Y-102896197D01*
X131948826Y-102919858D01*
X131950000Y-102943750D01*
X131950000Y-103431250D01*
X131948826Y-103455142D01*
X131945316Y-103478803D01*
X131939504Y-103502007D01*
X131931446Y-103524529D01*
X131921218Y-103546153D01*
X131908921Y-103566670D01*
X131894671Y-103585883D01*
X131878607Y-103603607D01*
X131860883Y-103619671D01*
X131841670Y-103633921D01*
X131821153Y-103646218D01*
X131799529Y-103656446D01*
X131777007Y-103664504D01*
X131753803Y-103670316D01*
X131730142Y-103673826D01*
X131706250Y-103675000D01*
X130793750Y-103675000D01*
X130769858Y-103673826D01*
X130746197Y-103670316D01*
X130722993Y-103664504D01*
X130700471Y-103656446D01*
X130678847Y-103646218D01*
X130658330Y-103633921D01*
X130639117Y-103619671D01*
X130621393Y-103603607D01*
X130605329Y-103585883D01*
X130591079Y-103566670D01*
X130578782Y-103546153D01*
X130568554Y-103524529D01*
X130560496Y-103502007D01*
X130554684Y-103478803D01*
X130551174Y-103455142D01*
X130550000Y-103431250D01*
X130550000Y-102943750D01*
X130551174Y-102919858D01*
X130554684Y-102896197D01*
X130560496Y-102872993D01*
X130568554Y-102850471D01*
X130578782Y-102828847D01*
X130591079Y-102808330D01*
X130605329Y-102789117D01*
X130621393Y-102771393D01*
X130639117Y-102755329D01*
X130658330Y-102741079D01*
X130678847Y-102728782D01*
X130700471Y-102718554D01*
X130722993Y-102710496D01*
X130746197Y-102704684D01*
X130769858Y-102701174D01*
X130793750Y-102700000D01*
X131706250Y-102700000D01*
X131730142Y-102701174D01*
X131730142Y-102701174D01*
G37*
D11*
X131250000Y-103187500D03*
D10*
G36*
X131730142Y-100826174D02*
X131753803Y-100829684D01*
X131777007Y-100835496D01*
X131799529Y-100843554D01*
X131821153Y-100853782D01*
X131841670Y-100866079D01*
X131860883Y-100880329D01*
X131878607Y-100896393D01*
X131894671Y-100914117D01*
X131908921Y-100933330D01*
X131921218Y-100953847D01*
X131931446Y-100975471D01*
X131939504Y-100997993D01*
X131945316Y-101021197D01*
X131948826Y-101044858D01*
X131950000Y-101068750D01*
X131950000Y-101556250D01*
X131948826Y-101580142D01*
X131945316Y-101603803D01*
X131939504Y-101627007D01*
X131931446Y-101649529D01*
X131921218Y-101671153D01*
X131908921Y-101691670D01*
X131894671Y-101710883D01*
X131878607Y-101728607D01*
X131860883Y-101744671D01*
X131841670Y-101758921D01*
X131821153Y-101771218D01*
X131799529Y-101781446D01*
X131777007Y-101789504D01*
X131753803Y-101795316D01*
X131730142Y-101798826D01*
X131706250Y-101800000D01*
X130793750Y-101800000D01*
X130769858Y-101798826D01*
X130746197Y-101795316D01*
X130722993Y-101789504D01*
X130700471Y-101781446D01*
X130678847Y-101771218D01*
X130658330Y-101758921D01*
X130639117Y-101744671D01*
X130621393Y-101728607D01*
X130605329Y-101710883D01*
X130591079Y-101691670D01*
X130578782Y-101671153D01*
X130568554Y-101649529D01*
X130560496Y-101627007D01*
X130554684Y-101603803D01*
X130551174Y-101580142D01*
X130550000Y-101556250D01*
X130550000Y-101068750D01*
X130551174Y-101044858D01*
X130554684Y-101021197D01*
X130560496Y-100997993D01*
X130568554Y-100975471D01*
X130578782Y-100953847D01*
X130591079Y-100933330D01*
X130605329Y-100914117D01*
X130621393Y-100896393D01*
X130639117Y-100880329D01*
X130658330Y-100866079D01*
X130678847Y-100853782D01*
X130700471Y-100843554D01*
X130722993Y-100835496D01*
X130746197Y-100829684D01*
X130769858Y-100826174D01*
X130793750Y-100825000D01*
X131706250Y-100825000D01*
X131730142Y-100826174D01*
X131730142Y-100826174D01*
G37*
D11*
X131250000Y-101312500D03*
G04 #@! TD*
D10*
G04 #@! TO.C,C6*
G36*
X148980142Y-109201174D02*
X149003803Y-109204684D01*
X149027007Y-109210496D01*
X149049529Y-109218554D01*
X149071153Y-109228782D01*
X149091670Y-109241079D01*
X149110883Y-109255329D01*
X149128607Y-109271393D01*
X149144671Y-109289117D01*
X149158921Y-109308330D01*
X149171218Y-109328847D01*
X149181446Y-109350471D01*
X149189504Y-109372993D01*
X149195316Y-109396197D01*
X149198826Y-109419858D01*
X149200000Y-109443750D01*
X149200000Y-109931250D01*
X149198826Y-109955142D01*
X149195316Y-109978803D01*
X149189504Y-110002007D01*
X149181446Y-110024529D01*
X149171218Y-110046153D01*
X149158921Y-110066670D01*
X149144671Y-110085883D01*
X149128607Y-110103607D01*
X149110883Y-110119671D01*
X149091670Y-110133921D01*
X149071153Y-110146218D01*
X149049529Y-110156446D01*
X149027007Y-110164504D01*
X149003803Y-110170316D01*
X148980142Y-110173826D01*
X148956250Y-110175000D01*
X148043750Y-110175000D01*
X148019858Y-110173826D01*
X147996197Y-110170316D01*
X147972993Y-110164504D01*
X147950471Y-110156446D01*
X147928847Y-110146218D01*
X147908330Y-110133921D01*
X147889117Y-110119671D01*
X147871393Y-110103607D01*
X147855329Y-110085883D01*
X147841079Y-110066670D01*
X147828782Y-110046153D01*
X147818554Y-110024529D01*
X147810496Y-110002007D01*
X147804684Y-109978803D01*
X147801174Y-109955142D01*
X147800000Y-109931250D01*
X147800000Y-109443750D01*
X147801174Y-109419858D01*
X147804684Y-109396197D01*
X147810496Y-109372993D01*
X147818554Y-109350471D01*
X147828782Y-109328847D01*
X147841079Y-109308330D01*
X147855329Y-109289117D01*
X147871393Y-109271393D01*
X147889117Y-109255329D01*
X147908330Y-109241079D01*
X147928847Y-109228782D01*
X147950471Y-109218554D01*
X147972993Y-109210496D01*
X147996197Y-109204684D01*
X148019858Y-109201174D01*
X148043750Y-109200000D01*
X148956250Y-109200000D01*
X148980142Y-109201174D01*
X148980142Y-109201174D01*
G37*
D11*
X148500000Y-109687500D03*
D10*
G36*
X148980142Y-107326174D02*
X149003803Y-107329684D01*
X149027007Y-107335496D01*
X149049529Y-107343554D01*
X149071153Y-107353782D01*
X149091670Y-107366079D01*
X149110883Y-107380329D01*
X149128607Y-107396393D01*
X149144671Y-107414117D01*
X149158921Y-107433330D01*
X149171218Y-107453847D01*
X149181446Y-107475471D01*
X149189504Y-107497993D01*
X149195316Y-107521197D01*
X149198826Y-107544858D01*
X149200000Y-107568750D01*
X149200000Y-108056250D01*
X149198826Y-108080142D01*
X149195316Y-108103803D01*
X149189504Y-108127007D01*
X149181446Y-108149529D01*
X149171218Y-108171153D01*
X149158921Y-108191670D01*
X149144671Y-108210883D01*
X149128607Y-108228607D01*
X149110883Y-108244671D01*
X149091670Y-108258921D01*
X149071153Y-108271218D01*
X149049529Y-108281446D01*
X149027007Y-108289504D01*
X149003803Y-108295316D01*
X148980142Y-108298826D01*
X148956250Y-108300000D01*
X148043750Y-108300000D01*
X148019858Y-108298826D01*
X147996197Y-108295316D01*
X147972993Y-108289504D01*
X147950471Y-108281446D01*
X147928847Y-108271218D01*
X147908330Y-108258921D01*
X147889117Y-108244671D01*
X147871393Y-108228607D01*
X147855329Y-108210883D01*
X147841079Y-108191670D01*
X147828782Y-108171153D01*
X147818554Y-108149529D01*
X147810496Y-108127007D01*
X147804684Y-108103803D01*
X147801174Y-108080142D01*
X147800000Y-108056250D01*
X147800000Y-107568750D01*
X147801174Y-107544858D01*
X147804684Y-107521197D01*
X147810496Y-107497993D01*
X147818554Y-107475471D01*
X147828782Y-107453847D01*
X147841079Y-107433330D01*
X147855329Y-107414117D01*
X147871393Y-107396393D01*
X147889117Y-107380329D01*
X147908330Y-107366079D01*
X147928847Y-107353782D01*
X147950471Y-107343554D01*
X147972993Y-107335496D01*
X147996197Y-107329684D01*
X148019858Y-107326174D01*
X148043750Y-107325000D01*
X148956250Y-107325000D01*
X148980142Y-107326174D01*
X148980142Y-107326174D01*
G37*
D11*
X148500000Y-107812500D03*
G04 #@! TD*
D10*
G04 #@! TO.C,C7*
G36*
X145230142Y-107326174D02*
X145253803Y-107329684D01*
X145277007Y-107335496D01*
X145299529Y-107343554D01*
X145321153Y-107353782D01*
X145341670Y-107366079D01*
X145360883Y-107380329D01*
X145378607Y-107396393D01*
X145394671Y-107414117D01*
X145408921Y-107433330D01*
X145421218Y-107453847D01*
X145431446Y-107475471D01*
X145439504Y-107497993D01*
X145445316Y-107521197D01*
X145448826Y-107544858D01*
X145450000Y-107568750D01*
X145450000Y-108056250D01*
X145448826Y-108080142D01*
X145445316Y-108103803D01*
X145439504Y-108127007D01*
X145431446Y-108149529D01*
X145421218Y-108171153D01*
X145408921Y-108191670D01*
X145394671Y-108210883D01*
X145378607Y-108228607D01*
X145360883Y-108244671D01*
X145341670Y-108258921D01*
X145321153Y-108271218D01*
X145299529Y-108281446D01*
X145277007Y-108289504D01*
X145253803Y-108295316D01*
X145230142Y-108298826D01*
X145206250Y-108300000D01*
X144293750Y-108300000D01*
X144269858Y-108298826D01*
X144246197Y-108295316D01*
X144222993Y-108289504D01*
X144200471Y-108281446D01*
X144178847Y-108271218D01*
X144158330Y-108258921D01*
X144139117Y-108244671D01*
X144121393Y-108228607D01*
X144105329Y-108210883D01*
X144091079Y-108191670D01*
X144078782Y-108171153D01*
X144068554Y-108149529D01*
X144060496Y-108127007D01*
X144054684Y-108103803D01*
X144051174Y-108080142D01*
X144050000Y-108056250D01*
X144050000Y-107568750D01*
X144051174Y-107544858D01*
X144054684Y-107521197D01*
X144060496Y-107497993D01*
X144068554Y-107475471D01*
X144078782Y-107453847D01*
X144091079Y-107433330D01*
X144105329Y-107414117D01*
X144121393Y-107396393D01*
X144139117Y-107380329D01*
X144158330Y-107366079D01*
X144178847Y-107353782D01*
X144200471Y-107343554D01*
X144222993Y-107335496D01*
X144246197Y-107329684D01*
X144269858Y-107326174D01*
X144293750Y-107325000D01*
X145206250Y-107325000D01*
X145230142Y-107326174D01*
X145230142Y-107326174D01*
G37*
D11*
X144750000Y-107812500D03*
D10*
G36*
X145230142Y-109201174D02*
X145253803Y-109204684D01*
X145277007Y-109210496D01*
X145299529Y-109218554D01*
X145321153Y-109228782D01*
X145341670Y-109241079D01*
X145360883Y-109255329D01*
X145378607Y-109271393D01*
X145394671Y-109289117D01*
X145408921Y-109308330D01*
X145421218Y-109328847D01*
X145431446Y-109350471D01*
X145439504Y-109372993D01*
X145445316Y-109396197D01*
X145448826Y-109419858D01*
X145450000Y-109443750D01*
X145450000Y-109931250D01*
X145448826Y-109955142D01*
X145445316Y-109978803D01*
X145439504Y-110002007D01*
X145431446Y-110024529D01*
X145421218Y-110046153D01*
X145408921Y-110066670D01*
X145394671Y-110085883D01*
X145378607Y-110103607D01*
X145360883Y-110119671D01*
X145341670Y-110133921D01*
X145321153Y-110146218D01*
X145299529Y-110156446D01*
X145277007Y-110164504D01*
X145253803Y-110170316D01*
X145230142Y-110173826D01*
X145206250Y-110175000D01*
X144293750Y-110175000D01*
X144269858Y-110173826D01*
X144246197Y-110170316D01*
X144222993Y-110164504D01*
X144200471Y-110156446D01*
X144178847Y-110146218D01*
X144158330Y-110133921D01*
X144139117Y-110119671D01*
X144121393Y-110103607D01*
X144105329Y-110085883D01*
X144091079Y-110066670D01*
X144078782Y-110046153D01*
X144068554Y-110024529D01*
X144060496Y-110002007D01*
X144054684Y-109978803D01*
X144051174Y-109955142D01*
X144050000Y-109931250D01*
X144050000Y-109443750D01*
X144051174Y-109419858D01*
X144054684Y-109396197D01*
X144060496Y-109372993D01*
X144068554Y-109350471D01*
X144078782Y-109328847D01*
X144091079Y-109308330D01*
X144105329Y-109289117D01*
X144121393Y-109271393D01*
X144139117Y-109255329D01*
X144158330Y-109241079D01*
X144178847Y-109228782D01*
X144200471Y-109218554D01*
X144222993Y-109210496D01*
X144246197Y-109204684D01*
X144269858Y-109201174D01*
X144293750Y-109200000D01*
X145206250Y-109200000D01*
X145230142Y-109201174D01*
X145230142Y-109201174D01*
G37*
D11*
X144750000Y-109687500D03*
G04 #@! TD*
D10*
G04 #@! TO.C,C8*
G36*
X148980142Y-102826174D02*
X149003803Y-102829684D01*
X149027007Y-102835496D01*
X149049529Y-102843554D01*
X149071153Y-102853782D01*
X149091670Y-102866079D01*
X149110883Y-102880329D01*
X149128607Y-102896393D01*
X149144671Y-102914117D01*
X149158921Y-102933330D01*
X149171218Y-102953847D01*
X149181446Y-102975471D01*
X149189504Y-102997993D01*
X149195316Y-103021197D01*
X149198826Y-103044858D01*
X149200000Y-103068750D01*
X149200000Y-103556250D01*
X149198826Y-103580142D01*
X149195316Y-103603803D01*
X149189504Y-103627007D01*
X149181446Y-103649529D01*
X149171218Y-103671153D01*
X149158921Y-103691670D01*
X149144671Y-103710883D01*
X149128607Y-103728607D01*
X149110883Y-103744671D01*
X149091670Y-103758921D01*
X149071153Y-103771218D01*
X149049529Y-103781446D01*
X149027007Y-103789504D01*
X149003803Y-103795316D01*
X148980142Y-103798826D01*
X148956250Y-103800000D01*
X148043750Y-103800000D01*
X148019858Y-103798826D01*
X147996197Y-103795316D01*
X147972993Y-103789504D01*
X147950471Y-103781446D01*
X147928847Y-103771218D01*
X147908330Y-103758921D01*
X147889117Y-103744671D01*
X147871393Y-103728607D01*
X147855329Y-103710883D01*
X147841079Y-103691670D01*
X147828782Y-103671153D01*
X147818554Y-103649529D01*
X147810496Y-103627007D01*
X147804684Y-103603803D01*
X147801174Y-103580142D01*
X147800000Y-103556250D01*
X147800000Y-103068750D01*
X147801174Y-103044858D01*
X147804684Y-103021197D01*
X147810496Y-102997993D01*
X147818554Y-102975471D01*
X147828782Y-102953847D01*
X147841079Y-102933330D01*
X147855329Y-102914117D01*
X147871393Y-102896393D01*
X147889117Y-102880329D01*
X147908330Y-102866079D01*
X147928847Y-102853782D01*
X147950471Y-102843554D01*
X147972993Y-102835496D01*
X147996197Y-102829684D01*
X148019858Y-102826174D01*
X148043750Y-102825000D01*
X148956250Y-102825000D01*
X148980142Y-102826174D01*
X148980142Y-102826174D01*
G37*
D11*
X148500000Y-103312500D03*
D10*
G36*
X148980142Y-104701174D02*
X149003803Y-104704684D01*
X149027007Y-104710496D01*
X149049529Y-104718554D01*
X149071153Y-104728782D01*
X149091670Y-104741079D01*
X149110883Y-104755329D01*
X149128607Y-104771393D01*
X149144671Y-104789117D01*
X149158921Y-104808330D01*
X149171218Y-104828847D01*
X149181446Y-104850471D01*
X149189504Y-104872993D01*
X149195316Y-104896197D01*
X149198826Y-104919858D01*
X149200000Y-104943750D01*
X149200000Y-105431250D01*
X149198826Y-105455142D01*
X149195316Y-105478803D01*
X149189504Y-105502007D01*
X149181446Y-105524529D01*
X149171218Y-105546153D01*
X149158921Y-105566670D01*
X149144671Y-105585883D01*
X149128607Y-105603607D01*
X149110883Y-105619671D01*
X149091670Y-105633921D01*
X149071153Y-105646218D01*
X149049529Y-105656446D01*
X149027007Y-105664504D01*
X149003803Y-105670316D01*
X148980142Y-105673826D01*
X148956250Y-105675000D01*
X148043750Y-105675000D01*
X148019858Y-105673826D01*
X147996197Y-105670316D01*
X147972993Y-105664504D01*
X147950471Y-105656446D01*
X147928847Y-105646218D01*
X147908330Y-105633921D01*
X147889117Y-105619671D01*
X147871393Y-105603607D01*
X147855329Y-105585883D01*
X147841079Y-105566670D01*
X147828782Y-105546153D01*
X147818554Y-105524529D01*
X147810496Y-105502007D01*
X147804684Y-105478803D01*
X147801174Y-105455142D01*
X147800000Y-105431250D01*
X147800000Y-104943750D01*
X147801174Y-104919858D01*
X147804684Y-104896197D01*
X147810496Y-104872993D01*
X147818554Y-104850471D01*
X147828782Y-104828847D01*
X147841079Y-104808330D01*
X147855329Y-104789117D01*
X147871393Y-104771393D01*
X147889117Y-104755329D01*
X147908330Y-104741079D01*
X147928847Y-104728782D01*
X147950471Y-104718554D01*
X147972993Y-104710496D01*
X147996197Y-104704684D01*
X148019858Y-104701174D01*
X148043750Y-104700000D01*
X148956250Y-104700000D01*
X148980142Y-104701174D01*
X148980142Y-104701174D01*
G37*
D11*
X148500000Y-105187500D03*
G04 #@! TD*
D10*
G04 #@! TO.C,C9*
G36*
X128980142Y-113951174D02*
X129003803Y-113954684D01*
X129027007Y-113960496D01*
X129049529Y-113968554D01*
X129071153Y-113978782D01*
X129091670Y-113991079D01*
X129110883Y-114005329D01*
X129128607Y-114021393D01*
X129144671Y-114039117D01*
X129158921Y-114058330D01*
X129171218Y-114078847D01*
X129181446Y-114100471D01*
X129189504Y-114122993D01*
X129195316Y-114146197D01*
X129198826Y-114169858D01*
X129200000Y-114193750D01*
X129200000Y-114681250D01*
X129198826Y-114705142D01*
X129195316Y-114728803D01*
X129189504Y-114752007D01*
X129181446Y-114774529D01*
X129171218Y-114796153D01*
X129158921Y-114816670D01*
X129144671Y-114835883D01*
X129128607Y-114853607D01*
X129110883Y-114869671D01*
X129091670Y-114883921D01*
X129071153Y-114896218D01*
X129049529Y-114906446D01*
X129027007Y-114914504D01*
X129003803Y-114920316D01*
X128980142Y-114923826D01*
X128956250Y-114925000D01*
X128043750Y-114925000D01*
X128019858Y-114923826D01*
X127996197Y-114920316D01*
X127972993Y-114914504D01*
X127950471Y-114906446D01*
X127928847Y-114896218D01*
X127908330Y-114883921D01*
X127889117Y-114869671D01*
X127871393Y-114853607D01*
X127855329Y-114835883D01*
X127841079Y-114816670D01*
X127828782Y-114796153D01*
X127818554Y-114774529D01*
X127810496Y-114752007D01*
X127804684Y-114728803D01*
X127801174Y-114705142D01*
X127800000Y-114681250D01*
X127800000Y-114193750D01*
X127801174Y-114169858D01*
X127804684Y-114146197D01*
X127810496Y-114122993D01*
X127818554Y-114100471D01*
X127828782Y-114078847D01*
X127841079Y-114058330D01*
X127855329Y-114039117D01*
X127871393Y-114021393D01*
X127889117Y-114005329D01*
X127908330Y-113991079D01*
X127928847Y-113978782D01*
X127950471Y-113968554D01*
X127972993Y-113960496D01*
X127996197Y-113954684D01*
X128019858Y-113951174D01*
X128043750Y-113950000D01*
X128956250Y-113950000D01*
X128980142Y-113951174D01*
X128980142Y-113951174D01*
G37*
D11*
X128500000Y-114437500D03*
D10*
G36*
X128980142Y-112076174D02*
X129003803Y-112079684D01*
X129027007Y-112085496D01*
X129049529Y-112093554D01*
X129071153Y-112103782D01*
X129091670Y-112116079D01*
X129110883Y-112130329D01*
X129128607Y-112146393D01*
X129144671Y-112164117D01*
X129158921Y-112183330D01*
X129171218Y-112203847D01*
X129181446Y-112225471D01*
X129189504Y-112247993D01*
X129195316Y-112271197D01*
X129198826Y-112294858D01*
X129200000Y-112318750D01*
X129200000Y-112806250D01*
X129198826Y-112830142D01*
X129195316Y-112853803D01*
X129189504Y-112877007D01*
X129181446Y-112899529D01*
X129171218Y-112921153D01*
X129158921Y-112941670D01*
X129144671Y-112960883D01*
X129128607Y-112978607D01*
X129110883Y-112994671D01*
X129091670Y-113008921D01*
X129071153Y-113021218D01*
X129049529Y-113031446D01*
X129027007Y-113039504D01*
X129003803Y-113045316D01*
X128980142Y-113048826D01*
X128956250Y-113050000D01*
X128043750Y-113050000D01*
X128019858Y-113048826D01*
X127996197Y-113045316D01*
X127972993Y-113039504D01*
X127950471Y-113031446D01*
X127928847Y-113021218D01*
X127908330Y-113008921D01*
X127889117Y-112994671D01*
X127871393Y-112978607D01*
X127855329Y-112960883D01*
X127841079Y-112941670D01*
X127828782Y-112921153D01*
X127818554Y-112899529D01*
X127810496Y-112877007D01*
X127804684Y-112853803D01*
X127801174Y-112830142D01*
X127800000Y-112806250D01*
X127800000Y-112318750D01*
X127801174Y-112294858D01*
X127804684Y-112271197D01*
X127810496Y-112247993D01*
X127818554Y-112225471D01*
X127828782Y-112203847D01*
X127841079Y-112183330D01*
X127855329Y-112164117D01*
X127871393Y-112146393D01*
X127889117Y-112130329D01*
X127908330Y-112116079D01*
X127928847Y-112103782D01*
X127950471Y-112093554D01*
X127972993Y-112085496D01*
X127996197Y-112079684D01*
X128019858Y-112076174D01*
X128043750Y-112075000D01*
X128956250Y-112075000D01*
X128980142Y-112076174D01*
X128980142Y-112076174D01*
G37*
D11*
X128500000Y-112562500D03*
G04 #@! TD*
D10*
G04 #@! TO.C,C10*
G36*
X132480142Y-116826174D02*
X132503803Y-116829684D01*
X132527007Y-116835496D01*
X132549529Y-116843554D01*
X132571153Y-116853782D01*
X132591670Y-116866079D01*
X132610883Y-116880329D01*
X132628607Y-116896393D01*
X132644671Y-116914117D01*
X132658921Y-116933330D01*
X132671218Y-116953847D01*
X132681446Y-116975471D01*
X132689504Y-116997993D01*
X132695316Y-117021197D01*
X132698826Y-117044858D01*
X132700000Y-117068750D01*
X132700000Y-117556250D01*
X132698826Y-117580142D01*
X132695316Y-117603803D01*
X132689504Y-117627007D01*
X132681446Y-117649529D01*
X132671218Y-117671153D01*
X132658921Y-117691670D01*
X132644671Y-117710883D01*
X132628607Y-117728607D01*
X132610883Y-117744671D01*
X132591670Y-117758921D01*
X132571153Y-117771218D01*
X132549529Y-117781446D01*
X132527007Y-117789504D01*
X132503803Y-117795316D01*
X132480142Y-117798826D01*
X132456250Y-117800000D01*
X131543750Y-117800000D01*
X131519858Y-117798826D01*
X131496197Y-117795316D01*
X131472993Y-117789504D01*
X131450471Y-117781446D01*
X131428847Y-117771218D01*
X131408330Y-117758921D01*
X131389117Y-117744671D01*
X131371393Y-117728607D01*
X131355329Y-117710883D01*
X131341079Y-117691670D01*
X131328782Y-117671153D01*
X131318554Y-117649529D01*
X131310496Y-117627007D01*
X131304684Y-117603803D01*
X131301174Y-117580142D01*
X131300000Y-117556250D01*
X131300000Y-117068750D01*
X131301174Y-117044858D01*
X131304684Y-117021197D01*
X131310496Y-116997993D01*
X131318554Y-116975471D01*
X131328782Y-116953847D01*
X131341079Y-116933330D01*
X131355329Y-116914117D01*
X131371393Y-116896393D01*
X131389117Y-116880329D01*
X131408330Y-116866079D01*
X131428847Y-116853782D01*
X131450471Y-116843554D01*
X131472993Y-116835496D01*
X131496197Y-116829684D01*
X131519858Y-116826174D01*
X131543750Y-116825000D01*
X132456250Y-116825000D01*
X132480142Y-116826174D01*
X132480142Y-116826174D01*
G37*
D11*
X132000000Y-117312500D03*
D10*
G36*
X132480142Y-118701174D02*
X132503803Y-118704684D01*
X132527007Y-118710496D01*
X132549529Y-118718554D01*
X132571153Y-118728782D01*
X132591670Y-118741079D01*
X132610883Y-118755329D01*
X132628607Y-118771393D01*
X132644671Y-118789117D01*
X132658921Y-118808330D01*
X132671218Y-118828847D01*
X132681446Y-118850471D01*
X132689504Y-118872993D01*
X132695316Y-118896197D01*
X132698826Y-118919858D01*
X132700000Y-118943750D01*
X132700000Y-119431250D01*
X132698826Y-119455142D01*
X132695316Y-119478803D01*
X132689504Y-119502007D01*
X132681446Y-119524529D01*
X132671218Y-119546153D01*
X132658921Y-119566670D01*
X132644671Y-119585883D01*
X132628607Y-119603607D01*
X132610883Y-119619671D01*
X132591670Y-119633921D01*
X132571153Y-119646218D01*
X132549529Y-119656446D01*
X132527007Y-119664504D01*
X132503803Y-119670316D01*
X132480142Y-119673826D01*
X132456250Y-119675000D01*
X131543750Y-119675000D01*
X131519858Y-119673826D01*
X131496197Y-119670316D01*
X131472993Y-119664504D01*
X131450471Y-119656446D01*
X131428847Y-119646218D01*
X131408330Y-119633921D01*
X131389117Y-119619671D01*
X131371393Y-119603607D01*
X131355329Y-119585883D01*
X131341079Y-119566670D01*
X131328782Y-119546153D01*
X131318554Y-119524529D01*
X131310496Y-119502007D01*
X131304684Y-119478803D01*
X131301174Y-119455142D01*
X131300000Y-119431250D01*
X131300000Y-118943750D01*
X131301174Y-118919858D01*
X131304684Y-118896197D01*
X131310496Y-118872993D01*
X131318554Y-118850471D01*
X131328782Y-118828847D01*
X131341079Y-118808330D01*
X131355329Y-118789117D01*
X131371393Y-118771393D01*
X131389117Y-118755329D01*
X131408330Y-118741079D01*
X131428847Y-118728782D01*
X131450471Y-118718554D01*
X131472993Y-118710496D01*
X131496197Y-118704684D01*
X131519858Y-118701174D01*
X131543750Y-118700000D01*
X132456250Y-118700000D01*
X132480142Y-118701174D01*
X132480142Y-118701174D01*
G37*
D11*
X132000000Y-119187500D03*
G04 #@! TD*
D12*
G04 #@! TO.C,D3*
X152950000Y-115500000D03*
X151050000Y-115500000D03*
X152000000Y-113500000D03*
G04 #@! TD*
D10*
G04 #@! TO.C,D_RX1*
G36*
X165230142Y-100951174D02*
X165253803Y-100954684D01*
X165277007Y-100960496D01*
X165299529Y-100968554D01*
X165321153Y-100978782D01*
X165341670Y-100991079D01*
X165360883Y-101005329D01*
X165378607Y-101021393D01*
X165394671Y-101039117D01*
X165408921Y-101058330D01*
X165421218Y-101078847D01*
X165431446Y-101100471D01*
X165439504Y-101122993D01*
X165445316Y-101146197D01*
X165448826Y-101169858D01*
X165450000Y-101193750D01*
X165450000Y-101681250D01*
X165448826Y-101705142D01*
X165445316Y-101728803D01*
X165439504Y-101752007D01*
X165431446Y-101774529D01*
X165421218Y-101796153D01*
X165408921Y-101816670D01*
X165394671Y-101835883D01*
X165378607Y-101853607D01*
X165360883Y-101869671D01*
X165341670Y-101883921D01*
X165321153Y-101896218D01*
X165299529Y-101906446D01*
X165277007Y-101914504D01*
X165253803Y-101920316D01*
X165230142Y-101923826D01*
X165206250Y-101925000D01*
X164293750Y-101925000D01*
X164269858Y-101923826D01*
X164246197Y-101920316D01*
X164222993Y-101914504D01*
X164200471Y-101906446D01*
X164178847Y-101896218D01*
X164158330Y-101883921D01*
X164139117Y-101869671D01*
X164121393Y-101853607D01*
X164105329Y-101835883D01*
X164091079Y-101816670D01*
X164078782Y-101796153D01*
X164068554Y-101774529D01*
X164060496Y-101752007D01*
X164054684Y-101728803D01*
X164051174Y-101705142D01*
X164050000Y-101681250D01*
X164050000Y-101193750D01*
X164051174Y-101169858D01*
X164054684Y-101146197D01*
X164060496Y-101122993D01*
X164068554Y-101100471D01*
X164078782Y-101078847D01*
X164091079Y-101058330D01*
X164105329Y-101039117D01*
X164121393Y-101021393D01*
X164139117Y-101005329D01*
X164158330Y-100991079D01*
X164178847Y-100978782D01*
X164200471Y-100968554D01*
X164222993Y-100960496D01*
X164246197Y-100954684D01*
X164269858Y-100951174D01*
X164293750Y-100950000D01*
X165206250Y-100950000D01*
X165230142Y-100951174D01*
X165230142Y-100951174D01*
G37*
D11*
X164750000Y-101437500D03*
D10*
G36*
X165230142Y-99076174D02*
X165253803Y-99079684D01*
X165277007Y-99085496D01*
X165299529Y-99093554D01*
X165321153Y-99103782D01*
X165341670Y-99116079D01*
X165360883Y-99130329D01*
X165378607Y-99146393D01*
X165394671Y-99164117D01*
X165408921Y-99183330D01*
X165421218Y-99203847D01*
X165431446Y-99225471D01*
X165439504Y-99247993D01*
X165445316Y-99271197D01*
X165448826Y-99294858D01*
X165450000Y-99318750D01*
X165450000Y-99806250D01*
X165448826Y-99830142D01*
X165445316Y-99853803D01*
X165439504Y-99877007D01*
X165431446Y-99899529D01*
X165421218Y-99921153D01*
X165408921Y-99941670D01*
X165394671Y-99960883D01*
X165378607Y-99978607D01*
X165360883Y-99994671D01*
X165341670Y-100008921D01*
X165321153Y-100021218D01*
X165299529Y-100031446D01*
X165277007Y-100039504D01*
X165253803Y-100045316D01*
X165230142Y-100048826D01*
X165206250Y-100050000D01*
X164293750Y-100050000D01*
X164269858Y-100048826D01*
X164246197Y-100045316D01*
X164222993Y-100039504D01*
X164200471Y-100031446D01*
X164178847Y-100021218D01*
X164158330Y-100008921D01*
X164139117Y-99994671D01*
X164121393Y-99978607D01*
X164105329Y-99960883D01*
X164091079Y-99941670D01*
X164078782Y-99921153D01*
X164068554Y-99899529D01*
X164060496Y-99877007D01*
X164054684Y-99853803D01*
X164051174Y-99830142D01*
X164050000Y-99806250D01*
X164050000Y-99318750D01*
X164051174Y-99294858D01*
X164054684Y-99271197D01*
X164060496Y-99247993D01*
X164068554Y-99225471D01*
X164078782Y-99203847D01*
X164091079Y-99183330D01*
X164105329Y-99164117D01*
X164121393Y-99146393D01*
X164139117Y-99130329D01*
X164158330Y-99116079D01*
X164178847Y-99103782D01*
X164200471Y-99093554D01*
X164222993Y-99085496D01*
X164246197Y-99079684D01*
X164269858Y-99076174D01*
X164293750Y-99075000D01*
X165206250Y-99075000D01*
X165230142Y-99076174D01*
X165230142Y-99076174D01*
G37*
D11*
X164750000Y-99562500D03*
G04 #@! TD*
D10*
G04 #@! TO.C,D_TX1*
G36*
X168730142Y-99076174D02*
X168753803Y-99079684D01*
X168777007Y-99085496D01*
X168799529Y-99093554D01*
X168821153Y-99103782D01*
X168841670Y-99116079D01*
X168860883Y-99130329D01*
X168878607Y-99146393D01*
X168894671Y-99164117D01*
X168908921Y-99183330D01*
X168921218Y-99203847D01*
X168931446Y-99225471D01*
X168939504Y-99247993D01*
X168945316Y-99271197D01*
X168948826Y-99294858D01*
X168950000Y-99318750D01*
X168950000Y-99806250D01*
X168948826Y-99830142D01*
X168945316Y-99853803D01*
X168939504Y-99877007D01*
X168931446Y-99899529D01*
X168921218Y-99921153D01*
X168908921Y-99941670D01*
X168894671Y-99960883D01*
X168878607Y-99978607D01*
X168860883Y-99994671D01*
X168841670Y-100008921D01*
X168821153Y-100021218D01*
X168799529Y-100031446D01*
X168777007Y-100039504D01*
X168753803Y-100045316D01*
X168730142Y-100048826D01*
X168706250Y-100050000D01*
X167793750Y-100050000D01*
X167769858Y-100048826D01*
X167746197Y-100045316D01*
X167722993Y-100039504D01*
X167700471Y-100031446D01*
X167678847Y-100021218D01*
X167658330Y-100008921D01*
X167639117Y-99994671D01*
X167621393Y-99978607D01*
X167605329Y-99960883D01*
X167591079Y-99941670D01*
X167578782Y-99921153D01*
X167568554Y-99899529D01*
X167560496Y-99877007D01*
X167554684Y-99853803D01*
X167551174Y-99830142D01*
X167550000Y-99806250D01*
X167550000Y-99318750D01*
X167551174Y-99294858D01*
X167554684Y-99271197D01*
X167560496Y-99247993D01*
X167568554Y-99225471D01*
X167578782Y-99203847D01*
X167591079Y-99183330D01*
X167605329Y-99164117D01*
X167621393Y-99146393D01*
X167639117Y-99130329D01*
X167658330Y-99116079D01*
X167678847Y-99103782D01*
X167700471Y-99093554D01*
X167722993Y-99085496D01*
X167746197Y-99079684D01*
X167769858Y-99076174D01*
X167793750Y-99075000D01*
X168706250Y-99075000D01*
X168730142Y-99076174D01*
X168730142Y-99076174D01*
G37*
D11*
X168250000Y-99562500D03*
D10*
G36*
X168730142Y-100951174D02*
X168753803Y-100954684D01*
X168777007Y-100960496D01*
X168799529Y-100968554D01*
X168821153Y-100978782D01*
X168841670Y-100991079D01*
X168860883Y-101005329D01*
X168878607Y-101021393D01*
X168894671Y-101039117D01*
X168908921Y-101058330D01*
X168921218Y-101078847D01*
X168931446Y-101100471D01*
X168939504Y-101122993D01*
X168945316Y-101146197D01*
X168948826Y-101169858D01*
X168950000Y-101193750D01*
X168950000Y-101681250D01*
X168948826Y-101705142D01*
X168945316Y-101728803D01*
X168939504Y-101752007D01*
X168931446Y-101774529D01*
X168921218Y-101796153D01*
X168908921Y-101816670D01*
X168894671Y-101835883D01*
X168878607Y-101853607D01*
X168860883Y-101869671D01*
X168841670Y-101883921D01*
X168821153Y-101896218D01*
X168799529Y-101906446D01*
X168777007Y-101914504D01*
X168753803Y-101920316D01*
X168730142Y-101923826D01*
X168706250Y-101925000D01*
X167793750Y-101925000D01*
X167769858Y-101923826D01*
X167746197Y-101920316D01*
X167722993Y-101914504D01*
X167700471Y-101906446D01*
X167678847Y-101896218D01*
X167658330Y-101883921D01*
X167639117Y-101869671D01*
X167621393Y-101853607D01*
X167605329Y-101835883D01*
X167591079Y-101816670D01*
X167578782Y-101796153D01*
X167568554Y-101774529D01*
X167560496Y-101752007D01*
X167554684Y-101728803D01*
X167551174Y-101705142D01*
X167550000Y-101681250D01*
X167550000Y-101193750D01*
X167551174Y-101169858D01*
X167554684Y-101146197D01*
X167560496Y-101122993D01*
X167568554Y-101100471D01*
X167578782Y-101078847D01*
X167591079Y-101058330D01*
X167605329Y-101039117D01*
X167621393Y-101021393D01*
X167639117Y-101005329D01*
X167658330Y-100991079D01*
X167678847Y-100978782D01*
X167700471Y-100968554D01*
X167722993Y-100960496D01*
X167746197Y-100954684D01*
X167769858Y-100951174D01*
X167793750Y-100950000D01*
X168706250Y-100950000D01*
X168730142Y-100951174D01*
X168730142Y-100951174D01*
G37*
D11*
X168250000Y-101437500D03*
G04 #@! TD*
D10*
G04 #@! TO.C,F2*
G36*
X117449505Y-109301204D02*
X117473773Y-109304804D01*
X117497572Y-109310765D01*
X117520671Y-109319030D01*
X117542850Y-109329520D01*
X117563893Y-109342132D01*
X117583599Y-109356747D01*
X117601777Y-109373223D01*
X117618253Y-109391401D01*
X117632868Y-109411107D01*
X117645480Y-109432150D01*
X117655970Y-109454329D01*
X117664235Y-109477428D01*
X117670196Y-109501227D01*
X117673796Y-109525495D01*
X117675000Y-109549999D01*
X117675000Y-112450001D01*
X117673796Y-112474505D01*
X117670196Y-112498773D01*
X117664235Y-112522572D01*
X117655970Y-112545671D01*
X117645480Y-112567850D01*
X117632868Y-112588893D01*
X117618253Y-112608599D01*
X117601777Y-112626777D01*
X117583599Y-112643253D01*
X117563893Y-112657868D01*
X117542850Y-112670480D01*
X117520671Y-112680970D01*
X117497572Y-112689235D01*
X117473773Y-112695196D01*
X117449505Y-112698796D01*
X117425001Y-112700000D01*
X116799999Y-112700000D01*
X116775495Y-112698796D01*
X116751227Y-112695196D01*
X116727428Y-112689235D01*
X116704329Y-112680970D01*
X116682150Y-112670480D01*
X116661107Y-112657868D01*
X116641401Y-112643253D01*
X116623223Y-112626777D01*
X116606747Y-112608599D01*
X116592132Y-112588893D01*
X116579520Y-112567850D01*
X116569030Y-112545671D01*
X116560765Y-112522572D01*
X116554804Y-112498773D01*
X116551204Y-112474505D01*
X116550000Y-112450001D01*
X116550000Y-109549999D01*
X116551204Y-109525495D01*
X116554804Y-109501227D01*
X116560765Y-109477428D01*
X116569030Y-109454329D01*
X116579520Y-109432150D01*
X116592132Y-109411107D01*
X116606747Y-109391401D01*
X116623223Y-109373223D01*
X116641401Y-109356747D01*
X116661107Y-109342132D01*
X116682150Y-109329520D01*
X116704329Y-109319030D01*
X116727428Y-109310765D01*
X116751227Y-109304804D01*
X116775495Y-109301204D01*
X116799999Y-109300000D01*
X117425001Y-109300000D01*
X117449505Y-109301204D01*
X117449505Y-109301204D01*
G37*
D13*
X117112500Y-111000000D03*
D10*
G36*
X121724505Y-109301204D02*
X121748773Y-109304804D01*
X121772572Y-109310765D01*
X121795671Y-109319030D01*
X121817850Y-109329520D01*
X121838893Y-109342132D01*
X121858599Y-109356747D01*
X121876777Y-109373223D01*
X121893253Y-109391401D01*
X121907868Y-109411107D01*
X121920480Y-109432150D01*
X121930970Y-109454329D01*
X121939235Y-109477428D01*
X121945196Y-109501227D01*
X121948796Y-109525495D01*
X121950000Y-109549999D01*
X121950000Y-112450001D01*
X121948796Y-112474505D01*
X121945196Y-112498773D01*
X121939235Y-112522572D01*
X121930970Y-112545671D01*
X121920480Y-112567850D01*
X121907868Y-112588893D01*
X121893253Y-112608599D01*
X121876777Y-112626777D01*
X121858599Y-112643253D01*
X121838893Y-112657868D01*
X121817850Y-112670480D01*
X121795671Y-112680970D01*
X121772572Y-112689235D01*
X121748773Y-112695196D01*
X121724505Y-112698796D01*
X121700001Y-112700000D01*
X121074999Y-112700000D01*
X121050495Y-112698796D01*
X121026227Y-112695196D01*
X121002428Y-112689235D01*
X120979329Y-112680970D01*
X120957150Y-112670480D01*
X120936107Y-112657868D01*
X120916401Y-112643253D01*
X120898223Y-112626777D01*
X120881747Y-112608599D01*
X120867132Y-112588893D01*
X120854520Y-112567850D01*
X120844030Y-112545671D01*
X120835765Y-112522572D01*
X120829804Y-112498773D01*
X120826204Y-112474505D01*
X120825000Y-112450001D01*
X120825000Y-109549999D01*
X120826204Y-109525495D01*
X120829804Y-109501227D01*
X120835765Y-109477428D01*
X120844030Y-109454329D01*
X120854520Y-109432150D01*
X120867132Y-109411107D01*
X120881747Y-109391401D01*
X120898223Y-109373223D01*
X120916401Y-109356747D01*
X120936107Y-109342132D01*
X120957150Y-109329520D01*
X120979329Y-109319030D01*
X121002428Y-109310765D01*
X121026227Y-109304804D01*
X121050495Y-109301204D01*
X121074999Y-109300000D01*
X121700001Y-109300000D01*
X121724505Y-109301204D01*
X121724505Y-109301204D01*
G37*
D13*
X121387500Y-111000000D03*
G04 #@! TD*
D10*
G04 #@! TO.C,F3*
G36*
X121974505Y-118051204D02*
X121998773Y-118054804D01*
X122022572Y-118060765D01*
X122045671Y-118069030D01*
X122067850Y-118079520D01*
X122088893Y-118092132D01*
X122108599Y-118106747D01*
X122126777Y-118123223D01*
X122143253Y-118141401D01*
X122157868Y-118161107D01*
X122170480Y-118182150D01*
X122180970Y-118204329D01*
X122189235Y-118227428D01*
X122195196Y-118251227D01*
X122198796Y-118275495D01*
X122200000Y-118299999D01*
X122200000Y-121200001D01*
X122198796Y-121224505D01*
X122195196Y-121248773D01*
X122189235Y-121272572D01*
X122180970Y-121295671D01*
X122170480Y-121317850D01*
X122157868Y-121338893D01*
X122143253Y-121358599D01*
X122126777Y-121376777D01*
X122108599Y-121393253D01*
X122088893Y-121407868D01*
X122067850Y-121420480D01*
X122045671Y-121430970D01*
X122022572Y-121439235D01*
X121998773Y-121445196D01*
X121974505Y-121448796D01*
X121950001Y-121450000D01*
X121324999Y-121450000D01*
X121300495Y-121448796D01*
X121276227Y-121445196D01*
X121252428Y-121439235D01*
X121229329Y-121430970D01*
X121207150Y-121420480D01*
X121186107Y-121407868D01*
X121166401Y-121393253D01*
X121148223Y-121376777D01*
X121131747Y-121358599D01*
X121117132Y-121338893D01*
X121104520Y-121317850D01*
X121094030Y-121295671D01*
X121085765Y-121272572D01*
X121079804Y-121248773D01*
X121076204Y-121224505D01*
X121075000Y-121200001D01*
X121075000Y-118299999D01*
X121076204Y-118275495D01*
X121079804Y-118251227D01*
X121085765Y-118227428D01*
X121094030Y-118204329D01*
X121104520Y-118182150D01*
X121117132Y-118161107D01*
X121131747Y-118141401D01*
X121148223Y-118123223D01*
X121166401Y-118106747D01*
X121186107Y-118092132D01*
X121207150Y-118079520D01*
X121229329Y-118069030D01*
X121252428Y-118060765D01*
X121276227Y-118054804D01*
X121300495Y-118051204D01*
X121324999Y-118050000D01*
X121950001Y-118050000D01*
X121974505Y-118051204D01*
X121974505Y-118051204D01*
G37*
D13*
X121637500Y-119750000D03*
D10*
G36*
X117699505Y-118051204D02*
X117723773Y-118054804D01*
X117747572Y-118060765D01*
X117770671Y-118069030D01*
X117792850Y-118079520D01*
X117813893Y-118092132D01*
X117833599Y-118106747D01*
X117851777Y-118123223D01*
X117868253Y-118141401D01*
X117882868Y-118161107D01*
X117895480Y-118182150D01*
X117905970Y-118204329D01*
X117914235Y-118227428D01*
X117920196Y-118251227D01*
X117923796Y-118275495D01*
X117925000Y-118299999D01*
X117925000Y-121200001D01*
X117923796Y-121224505D01*
X117920196Y-121248773D01*
X117914235Y-121272572D01*
X117905970Y-121295671D01*
X117895480Y-121317850D01*
X117882868Y-121338893D01*
X117868253Y-121358599D01*
X117851777Y-121376777D01*
X117833599Y-121393253D01*
X117813893Y-121407868D01*
X117792850Y-121420480D01*
X117770671Y-121430970D01*
X117747572Y-121439235D01*
X117723773Y-121445196D01*
X117699505Y-121448796D01*
X117675001Y-121450000D01*
X117049999Y-121450000D01*
X117025495Y-121448796D01*
X117001227Y-121445196D01*
X116977428Y-121439235D01*
X116954329Y-121430970D01*
X116932150Y-121420480D01*
X116911107Y-121407868D01*
X116891401Y-121393253D01*
X116873223Y-121376777D01*
X116856747Y-121358599D01*
X116842132Y-121338893D01*
X116829520Y-121317850D01*
X116819030Y-121295671D01*
X116810765Y-121272572D01*
X116804804Y-121248773D01*
X116801204Y-121224505D01*
X116800000Y-121200001D01*
X116800000Y-118299999D01*
X116801204Y-118275495D01*
X116804804Y-118251227D01*
X116810765Y-118227428D01*
X116819030Y-118204329D01*
X116829520Y-118182150D01*
X116842132Y-118161107D01*
X116856747Y-118141401D01*
X116873223Y-118123223D01*
X116891401Y-118106747D01*
X116911107Y-118092132D01*
X116932150Y-118079520D01*
X116954329Y-118069030D01*
X116977428Y-118060765D01*
X117001227Y-118054804D01*
X117025495Y-118051204D01*
X117049999Y-118050000D01*
X117675001Y-118050000D01*
X117699505Y-118051204D01*
X117699505Y-118051204D01*
G37*
D13*
X117362500Y-119750000D03*
G04 #@! TD*
D10*
G04 #@! TO.C,R16*
G36*
X148980142Y-113076174D02*
X149003803Y-113079684D01*
X149027007Y-113085496D01*
X149049529Y-113093554D01*
X149071153Y-113103782D01*
X149091670Y-113116079D01*
X149110883Y-113130329D01*
X149128607Y-113146393D01*
X149144671Y-113164117D01*
X149158921Y-113183330D01*
X149171218Y-113203847D01*
X149181446Y-113225471D01*
X149189504Y-113247993D01*
X149195316Y-113271197D01*
X149198826Y-113294858D01*
X149200000Y-113318750D01*
X149200000Y-113806250D01*
X149198826Y-113830142D01*
X149195316Y-113853803D01*
X149189504Y-113877007D01*
X149181446Y-113899529D01*
X149171218Y-113921153D01*
X149158921Y-113941670D01*
X149144671Y-113960883D01*
X149128607Y-113978607D01*
X149110883Y-113994671D01*
X149091670Y-114008921D01*
X149071153Y-114021218D01*
X149049529Y-114031446D01*
X149027007Y-114039504D01*
X149003803Y-114045316D01*
X148980142Y-114048826D01*
X148956250Y-114050000D01*
X148043750Y-114050000D01*
X148019858Y-114048826D01*
X147996197Y-114045316D01*
X147972993Y-114039504D01*
X147950471Y-114031446D01*
X147928847Y-114021218D01*
X147908330Y-114008921D01*
X147889117Y-113994671D01*
X147871393Y-113978607D01*
X147855329Y-113960883D01*
X147841079Y-113941670D01*
X147828782Y-113921153D01*
X147818554Y-113899529D01*
X147810496Y-113877007D01*
X147804684Y-113853803D01*
X147801174Y-113830142D01*
X147800000Y-113806250D01*
X147800000Y-113318750D01*
X147801174Y-113294858D01*
X147804684Y-113271197D01*
X147810496Y-113247993D01*
X147818554Y-113225471D01*
X147828782Y-113203847D01*
X147841079Y-113183330D01*
X147855329Y-113164117D01*
X147871393Y-113146393D01*
X147889117Y-113130329D01*
X147908330Y-113116079D01*
X147928847Y-113103782D01*
X147950471Y-113093554D01*
X147972993Y-113085496D01*
X147996197Y-113079684D01*
X148019858Y-113076174D01*
X148043750Y-113075000D01*
X148956250Y-113075000D01*
X148980142Y-113076174D01*
X148980142Y-113076174D01*
G37*
D11*
X148500000Y-113562500D03*
D10*
G36*
X148980142Y-114951174D02*
X149003803Y-114954684D01*
X149027007Y-114960496D01*
X149049529Y-114968554D01*
X149071153Y-114978782D01*
X149091670Y-114991079D01*
X149110883Y-115005329D01*
X149128607Y-115021393D01*
X149144671Y-115039117D01*
X149158921Y-115058330D01*
X149171218Y-115078847D01*
X149181446Y-115100471D01*
X149189504Y-115122993D01*
X149195316Y-115146197D01*
X149198826Y-115169858D01*
X149200000Y-115193750D01*
X149200000Y-115681250D01*
X149198826Y-115705142D01*
X149195316Y-115728803D01*
X149189504Y-115752007D01*
X149181446Y-115774529D01*
X149171218Y-115796153D01*
X149158921Y-115816670D01*
X149144671Y-115835883D01*
X149128607Y-115853607D01*
X149110883Y-115869671D01*
X149091670Y-115883921D01*
X149071153Y-115896218D01*
X149049529Y-115906446D01*
X149027007Y-115914504D01*
X149003803Y-115920316D01*
X148980142Y-115923826D01*
X148956250Y-115925000D01*
X148043750Y-115925000D01*
X148019858Y-115923826D01*
X147996197Y-115920316D01*
X147972993Y-115914504D01*
X147950471Y-115906446D01*
X147928847Y-115896218D01*
X147908330Y-115883921D01*
X147889117Y-115869671D01*
X147871393Y-115853607D01*
X147855329Y-115835883D01*
X147841079Y-115816670D01*
X147828782Y-115796153D01*
X147818554Y-115774529D01*
X147810496Y-115752007D01*
X147804684Y-115728803D01*
X147801174Y-115705142D01*
X147800000Y-115681250D01*
X147800000Y-115193750D01*
X147801174Y-115169858D01*
X147804684Y-115146197D01*
X147810496Y-115122993D01*
X147818554Y-115100471D01*
X147828782Y-115078847D01*
X147841079Y-115058330D01*
X147855329Y-115039117D01*
X147871393Y-115021393D01*
X147889117Y-115005329D01*
X147908330Y-114991079D01*
X147928847Y-114978782D01*
X147950471Y-114968554D01*
X147972993Y-114960496D01*
X147996197Y-114954684D01*
X148019858Y-114951174D01*
X148043750Y-114950000D01*
X148956250Y-114950000D01*
X148980142Y-114951174D01*
X148980142Y-114951174D01*
G37*
D11*
X148500000Y-115437500D03*
G04 #@! TD*
D10*
G04 #@! TO.C,R17*
G36*
X132480142Y-112076174D02*
X132503803Y-112079684D01*
X132527007Y-112085496D01*
X132549529Y-112093554D01*
X132571153Y-112103782D01*
X132591670Y-112116079D01*
X132610883Y-112130329D01*
X132628607Y-112146393D01*
X132644671Y-112164117D01*
X132658921Y-112183330D01*
X132671218Y-112203847D01*
X132681446Y-112225471D01*
X132689504Y-112247993D01*
X132695316Y-112271197D01*
X132698826Y-112294858D01*
X132700000Y-112318750D01*
X132700000Y-112806250D01*
X132698826Y-112830142D01*
X132695316Y-112853803D01*
X132689504Y-112877007D01*
X132681446Y-112899529D01*
X132671218Y-112921153D01*
X132658921Y-112941670D01*
X132644671Y-112960883D01*
X132628607Y-112978607D01*
X132610883Y-112994671D01*
X132591670Y-113008921D01*
X132571153Y-113021218D01*
X132549529Y-113031446D01*
X132527007Y-113039504D01*
X132503803Y-113045316D01*
X132480142Y-113048826D01*
X132456250Y-113050000D01*
X131543750Y-113050000D01*
X131519858Y-113048826D01*
X131496197Y-113045316D01*
X131472993Y-113039504D01*
X131450471Y-113031446D01*
X131428847Y-113021218D01*
X131408330Y-113008921D01*
X131389117Y-112994671D01*
X131371393Y-112978607D01*
X131355329Y-112960883D01*
X131341079Y-112941670D01*
X131328782Y-112921153D01*
X131318554Y-112899529D01*
X131310496Y-112877007D01*
X131304684Y-112853803D01*
X131301174Y-112830142D01*
X131300000Y-112806250D01*
X131300000Y-112318750D01*
X131301174Y-112294858D01*
X131304684Y-112271197D01*
X131310496Y-112247993D01*
X131318554Y-112225471D01*
X131328782Y-112203847D01*
X131341079Y-112183330D01*
X131355329Y-112164117D01*
X131371393Y-112146393D01*
X131389117Y-112130329D01*
X131408330Y-112116079D01*
X131428847Y-112103782D01*
X131450471Y-112093554D01*
X131472993Y-112085496D01*
X131496197Y-112079684D01*
X131519858Y-112076174D01*
X131543750Y-112075000D01*
X132456250Y-112075000D01*
X132480142Y-112076174D01*
X132480142Y-112076174D01*
G37*
D11*
X132000000Y-112562500D03*
D10*
G36*
X132480142Y-113951174D02*
X132503803Y-113954684D01*
X132527007Y-113960496D01*
X132549529Y-113968554D01*
X132571153Y-113978782D01*
X132591670Y-113991079D01*
X132610883Y-114005329D01*
X132628607Y-114021393D01*
X132644671Y-114039117D01*
X132658921Y-114058330D01*
X132671218Y-114078847D01*
X132681446Y-114100471D01*
X132689504Y-114122993D01*
X132695316Y-114146197D01*
X132698826Y-114169858D01*
X132700000Y-114193750D01*
X132700000Y-114681250D01*
X132698826Y-114705142D01*
X132695316Y-114728803D01*
X132689504Y-114752007D01*
X132681446Y-114774529D01*
X132671218Y-114796153D01*
X132658921Y-114816670D01*
X132644671Y-114835883D01*
X132628607Y-114853607D01*
X132610883Y-114869671D01*
X132591670Y-114883921D01*
X132571153Y-114896218D01*
X132549529Y-114906446D01*
X132527007Y-114914504D01*
X132503803Y-114920316D01*
X132480142Y-114923826D01*
X132456250Y-114925000D01*
X131543750Y-114925000D01*
X131519858Y-114923826D01*
X131496197Y-114920316D01*
X131472993Y-114914504D01*
X131450471Y-114906446D01*
X131428847Y-114896218D01*
X131408330Y-114883921D01*
X131389117Y-114869671D01*
X131371393Y-114853607D01*
X131355329Y-114835883D01*
X131341079Y-114816670D01*
X131328782Y-114796153D01*
X131318554Y-114774529D01*
X131310496Y-114752007D01*
X131304684Y-114728803D01*
X131301174Y-114705142D01*
X131300000Y-114681250D01*
X131300000Y-114193750D01*
X131301174Y-114169858D01*
X131304684Y-114146197D01*
X131310496Y-114122993D01*
X131318554Y-114100471D01*
X131328782Y-114078847D01*
X131341079Y-114058330D01*
X131355329Y-114039117D01*
X131371393Y-114021393D01*
X131389117Y-114005329D01*
X131408330Y-113991079D01*
X131428847Y-113978782D01*
X131450471Y-113968554D01*
X131472993Y-113960496D01*
X131496197Y-113954684D01*
X131519858Y-113951174D01*
X131543750Y-113950000D01*
X132456250Y-113950000D01*
X132480142Y-113951174D01*
X132480142Y-113951174D01*
G37*
D11*
X132000000Y-114437500D03*
G04 #@! TD*
D10*
G04 #@! TO.C,R18*
G36*
X128980142Y-118701174D02*
X129003803Y-118704684D01*
X129027007Y-118710496D01*
X129049529Y-118718554D01*
X129071153Y-118728782D01*
X129091670Y-118741079D01*
X129110883Y-118755329D01*
X129128607Y-118771393D01*
X129144671Y-118789117D01*
X129158921Y-118808330D01*
X129171218Y-118828847D01*
X129181446Y-118850471D01*
X129189504Y-118872993D01*
X129195316Y-118896197D01*
X129198826Y-118919858D01*
X129200000Y-118943750D01*
X129200000Y-119431250D01*
X129198826Y-119455142D01*
X129195316Y-119478803D01*
X129189504Y-119502007D01*
X129181446Y-119524529D01*
X129171218Y-119546153D01*
X129158921Y-119566670D01*
X129144671Y-119585883D01*
X129128607Y-119603607D01*
X129110883Y-119619671D01*
X129091670Y-119633921D01*
X129071153Y-119646218D01*
X129049529Y-119656446D01*
X129027007Y-119664504D01*
X129003803Y-119670316D01*
X128980142Y-119673826D01*
X128956250Y-119675000D01*
X128043750Y-119675000D01*
X128019858Y-119673826D01*
X127996197Y-119670316D01*
X127972993Y-119664504D01*
X127950471Y-119656446D01*
X127928847Y-119646218D01*
X127908330Y-119633921D01*
X127889117Y-119619671D01*
X127871393Y-119603607D01*
X127855329Y-119585883D01*
X127841079Y-119566670D01*
X127828782Y-119546153D01*
X127818554Y-119524529D01*
X127810496Y-119502007D01*
X127804684Y-119478803D01*
X127801174Y-119455142D01*
X127800000Y-119431250D01*
X127800000Y-118943750D01*
X127801174Y-118919858D01*
X127804684Y-118896197D01*
X127810496Y-118872993D01*
X127818554Y-118850471D01*
X127828782Y-118828847D01*
X127841079Y-118808330D01*
X127855329Y-118789117D01*
X127871393Y-118771393D01*
X127889117Y-118755329D01*
X127908330Y-118741079D01*
X127928847Y-118728782D01*
X127950471Y-118718554D01*
X127972993Y-118710496D01*
X127996197Y-118704684D01*
X128019858Y-118701174D01*
X128043750Y-118700000D01*
X128956250Y-118700000D01*
X128980142Y-118701174D01*
X128980142Y-118701174D01*
G37*
D11*
X128500000Y-119187500D03*
D10*
G36*
X128980142Y-116826174D02*
X129003803Y-116829684D01*
X129027007Y-116835496D01*
X129049529Y-116843554D01*
X129071153Y-116853782D01*
X129091670Y-116866079D01*
X129110883Y-116880329D01*
X129128607Y-116896393D01*
X129144671Y-116914117D01*
X129158921Y-116933330D01*
X129171218Y-116953847D01*
X129181446Y-116975471D01*
X129189504Y-116997993D01*
X129195316Y-117021197D01*
X129198826Y-117044858D01*
X129200000Y-117068750D01*
X129200000Y-117556250D01*
X129198826Y-117580142D01*
X129195316Y-117603803D01*
X129189504Y-117627007D01*
X129181446Y-117649529D01*
X129171218Y-117671153D01*
X129158921Y-117691670D01*
X129144671Y-117710883D01*
X129128607Y-117728607D01*
X129110883Y-117744671D01*
X129091670Y-117758921D01*
X129071153Y-117771218D01*
X129049529Y-117781446D01*
X129027007Y-117789504D01*
X129003803Y-117795316D01*
X128980142Y-117798826D01*
X128956250Y-117800000D01*
X128043750Y-117800000D01*
X128019858Y-117798826D01*
X127996197Y-117795316D01*
X127972993Y-117789504D01*
X127950471Y-117781446D01*
X127928847Y-117771218D01*
X127908330Y-117758921D01*
X127889117Y-117744671D01*
X127871393Y-117728607D01*
X127855329Y-117710883D01*
X127841079Y-117691670D01*
X127828782Y-117671153D01*
X127818554Y-117649529D01*
X127810496Y-117627007D01*
X127804684Y-117603803D01*
X127801174Y-117580142D01*
X127800000Y-117556250D01*
X127800000Y-117068750D01*
X127801174Y-117044858D01*
X127804684Y-117021197D01*
X127810496Y-116997993D01*
X127818554Y-116975471D01*
X127828782Y-116953847D01*
X127841079Y-116933330D01*
X127855329Y-116914117D01*
X127871393Y-116896393D01*
X127889117Y-116880329D01*
X127908330Y-116866079D01*
X127928847Y-116853782D01*
X127950471Y-116843554D01*
X127972993Y-116835496D01*
X127996197Y-116829684D01*
X128019858Y-116826174D01*
X128043750Y-116825000D01*
X128956250Y-116825000D01*
X128980142Y-116826174D01*
X128980142Y-116826174D01*
G37*
D11*
X128500000Y-117312500D03*
G04 #@! TD*
D10*
G04 #@! TO.C,R19*
G36*
X124230142Y-114076174D02*
X124253803Y-114079684D01*
X124277007Y-114085496D01*
X124299529Y-114093554D01*
X124321153Y-114103782D01*
X124341670Y-114116079D01*
X124360883Y-114130329D01*
X124378607Y-114146393D01*
X124394671Y-114164117D01*
X124408921Y-114183330D01*
X124421218Y-114203847D01*
X124431446Y-114225471D01*
X124439504Y-114247993D01*
X124445316Y-114271197D01*
X124448826Y-114294858D01*
X124450000Y-114318750D01*
X124450000Y-114806250D01*
X124448826Y-114830142D01*
X124445316Y-114853803D01*
X124439504Y-114877007D01*
X124431446Y-114899529D01*
X124421218Y-114921153D01*
X124408921Y-114941670D01*
X124394671Y-114960883D01*
X124378607Y-114978607D01*
X124360883Y-114994671D01*
X124341670Y-115008921D01*
X124321153Y-115021218D01*
X124299529Y-115031446D01*
X124277007Y-115039504D01*
X124253803Y-115045316D01*
X124230142Y-115048826D01*
X124206250Y-115050000D01*
X123293750Y-115050000D01*
X123269858Y-115048826D01*
X123246197Y-115045316D01*
X123222993Y-115039504D01*
X123200471Y-115031446D01*
X123178847Y-115021218D01*
X123158330Y-115008921D01*
X123139117Y-114994671D01*
X123121393Y-114978607D01*
X123105329Y-114960883D01*
X123091079Y-114941670D01*
X123078782Y-114921153D01*
X123068554Y-114899529D01*
X123060496Y-114877007D01*
X123054684Y-114853803D01*
X123051174Y-114830142D01*
X123050000Y-114806250D01*
X123050000Y-114318750D01*
X123051174Y-114294858D01*
X123054684Y-114271197D01*
X123060496Y-114247993D01*
X123068554Y-114225471D01*
X123078782Y-114203847D01*
X123091079Y-114183330D01*
X123105329Y-114164117D01*
X123121393Y-114146393D01*
X123139117Y-114130329D01*
X123158330Y-114116079D01*
X123178847Y-114103782D01*
X123200471Y-114093554D01*
X123222993Y-114085496D01*
X123246197Y-114079684D01*
X123269858Y-114076174D01*
X123293750Y-114075000D01*
X124206250Y-114075000D01*
X124230142Y-114076174D01*
X124230142Y-114076174D01*
G37*
D11*
X123750000Y-114562500D03*
D10*
G36*
X124230142Y-115951174D02*
X124253803Y-115954684D01*
X124277007Y-115960496D01*
X124299529Y-115968554D01*
X124321153Y-115978782D01*
X124341670Y-115991079D01*
X124360883Y-116005329D01*
X124378607Y-116021393D01*
X124394671Y-116039117D01*
X124408921Y-116058330D01*
X124421218Y-116078847D01*
X124431446Y-116100471D01*
X124439504Y-116122993D01*
X124445316Y-116146197D01*
X124448826Y-116169858D01*
X124450000Y-116193750D01*
X124450000Y-116681250D01*
X124448826Y-116705142D01*
X124445316Y-116728803D01*
X124439504Y-116752007D01*
X124431446Y-116774529D01*
X124421218Y-116796153D01*
X124408921Y-116816670D01*
X124394671Y-116835883D01*
X124378607Y-116853607D01*
X124360883Y-116869671D01*
X124341670Y-116883921D01*
X124321153Y-116896218D01*
X124299529Y-116906446D01*
X124277007Y-116914504D01*
X124253803Y-116920316D01*
X124230142Y-116923826D01*
X124206250Y-116925000D01*
X123293750Y-116925000D01*
X123269858Y-116923826D01*
X123246197Y-116920316D01*
X123222993Y-116914504D01*
X123200471Y-116906446D01*
X123178847Y-116896218D01*
X123158330Y-116883921D01*
X123139117Y-116869671D01*
X123121393Y-116853607D01*
X123105329Y-116835883D01*
X123091079Y-116816670D01*
X123078782Y-116796153D01*
X123068554Y-116774529D01*
X123060496Y-116752007D01*
X123054684Y-116728803D01*
X123051174Y-116705142D01*
X123050000Y-116681250D01*
X123050000Y-116193750D01*
X123051174Y-116169858D01*
X123054684Y-116146197D01*
X123060496Y-116122993D01*
X123068554Y-116100471D01*
X123078782Y-116078847D01*
X123091079Y-116058330D01*
X123105329Y-116039117D01*
X123121393Y-116021393D01*
X123139117Y-116005329D01*
X123158330Y-115991079D01*
X123178847Y-115978782D01*
X123200471Y-115968554D01*
X123222993Y-115960496D01*
X123246197Y-115954684D01*
X123269858Y-115951174D01*
X123293750Y-115950000D01*
X124206250Y-115950000D01*
X124230142Y-115951174D01*
X124230142Y-115951174D01*
G37*
D11*
X123750000Y-116437500D03*
G04 #@! TD*
D10*
G04 #@! TO.C,R_RX1*
G36*
X165230142Y-94076174D02*
X165253803Y-94079684D01*
X165277007Y-94085496D01*
X165299529Y-94093554D01*
X165321153Y-94103782D01*
X165341670Y-94116079D01*
X165360883Y-94130329D01*
X165378607Y-94146393D01*
X165394671Y-94164117D01*
X165408921Y-94183330D01*
X165421218Y-94203847D01*
X165431446Y-94225471D01*
X165439504Y-94247993D01*
X165445316Y-94271197D01*
X165448826Y-94294858D01*
X165450000Y-94318750D01*
X165450000Y-94806250D01*
X165448826Y-94830142D01*
X165445316Y-94853803D01*
X165439504Y-94877007D01*
X165431446Y-94899529D01*
X165421218Y-94921153D01*
X165408921Y-94941670D01*
X165394671Y-94960883D01*
X165378607Y-94978607D01*
X165360883Y-94994671D01*
X165341670Y-95008921D01*
X165321153Y-95021218D01*
X165299529Y-95031446D01*
X165277007Y-95039504D01*
X165253803Y-95045316D01*
X165230142Y-95048826D01*
X165206250Y-95050000D01*
X164293750Y-95050000D01*
X164269858Y-95048826D01*
X164246197Y-95045316D01*
X164222993Y-95039504D01*
X164200471Y-95031446D01*
X164178847Y-95021218D01*
X164158330Y-95008921D01*
X164139117Y-94994671D01*
X164121393Y-94978607D01*
X164105329Y-94960883D01*
X164091079Y-94941670D01*
X164078782Y-94921153D01*
X164068554Y-94899529D01*
X164060496Y-94877007D01*
X164054684Y-94853803D01*
X164051174Y-94830142D01*
X164050000Y-94806250D01*
X164050000Y-94318750D01*
X164051174Y-94294858D01*
X164054684Y-94271197D01*
X164060496Y-94247993D01*
X164068554Y-94225471D01*
X164078782Y-94203847D01*
X164091079Y-94183330D01*
X164105329Y-94164117D01*
X164121393Y-94146393D01*
X164139117Y-94130329D01*
X164158330Y-94116079D01*
X164178847Y-94103782D01*
X164200471Y-94093554D01*
X164222993Y-94085496D01*
X164246197Y-94079684D01*
X164269858Y-94076174D01*
X164293750Y-94075000D01*
X165206250Y-94075000D01*
X165230142Y-94076174D01*
X165230142Y-94076174D01*
G37*
D11*
X164750000Y-94562500D03*
D10*
G36*
X165230142Y-95951174D02*
X165253803Y-95954684D01*
X165277007Y-95960496D01*
X165299529Y-95968554D01*
X165321153Y-95978782D01*
X165341670Y-95991079D01*
X165360883Y-96005329D01*
X165378607Y-96021393D01*
X165394671Y-96039117D01*
X165408921Y-96058330D01*
X165421218Y-96078847D01*
X165431446Y-96100471D01*
X165439504Y-96122993D01*
X165445316Y-96146197D01*
X165448826Y-96169858D01*
X165450000Y-96193750D01*
X165450000Y-96681250D01*
X165448826Y-96705142D01*
X165445316Y-96728803D01*
X165439504Y-96752007D01*
X165431446Y-96774529D01*
X165421218Y-96796153D01*
X165408921Y-96816670D01*
X165394671Y-96835883D01*
X165378607Y-96853607D01*
X165360883Y-96869671D01*
X165341670Y-96883921D01*
X165321153Y-96896218D01*
X165299529Y-96906446D01*
X165277007Y-96914504D01*
X165253803Y-96920316D01*
X165230142Y-96923826D01*
X165206250Y-96925000D01*
X164293750Y-96925000D01*
X164269858Y-96923826D01*
X164246197Y-96920316D01*
X164222993Y-96914504D01*
X164200471Y-96906446D01*
X164178847Y-96896218D01*
X164158330Y-96883921D01*
X164139117Y-96869671D01*
X164121393Y-96853607D01*
X164105329Y-96835883D01*
X164091079Y-96816670D01*
X164078782Y-96796153D01*
X164068554Y-96774529D01*
X164060496Y-96752007D01*
X164054684Y-96728803D01*
X164051174Y-96705142D01*
X164050000Y-96681250D01*
X164050000Y-96193750D01*
X164051174Y-96169858D01*
X164054684Y-96146197D01*
X164060496Y-96122993D01*
X164068554Y-96100471D01*
X164078782Y-96078847D01*
X164091079Y-96058330D01*
X164105329Y-96039117D01*
X164121393Y-96021393D01*
X164139117Y-96005329D01*
X164158330Y-95991079D01*
X164178847Y-95978782D01*
X164200471Y-95968554D01*
X164222993Y-95960496D01*
X164246197Y-95954684D01*
X164269858Y-95951174D01*
X164293750Y-95950000D01*
X165206250Y-95950000D01*
X165230142Y-95951174D01*
X165230142Y-95951174D01*
G37*
D11*
X164750000Y-96437500D03*
G04 #@! TD*
D10*
G04 #@! TO.C,R_TX1*
G36*
X168730142Y-95951174D02*
X168753803Y-95954684D01*
X168777007Y-95960496D01*
X168799529Y-95968554D01*
X168821153Y-95978782D01*
X168841670Y-95991079D01*
X168860883Y-96005329D01*
X168878607Y-96021393D01*
X168894671Y-96039117D01*
X168908921Y-96058330D01*
X168921218Y-96078847D01*
X168931446Y-96100471D01*
X168939504Y-96122993D01*
X168945316Y-96146197D01*
X168948826Y-96169858D01*
X168950000Y-96193750D01*
X168950000Y-96681250D01*
X168948826Y-96705142D01*
X168945316Y-96728803D01*
X168939504Y-96752007D01*
X168931446Y-96774529D01*
X168921218Y-96796153D01*
X168908921Y-96816670D01*
X168894671Y-96835883D01*
X168878607Y-96853607D01*
X168860883Y-96869671D01*
X168841670Y-96883921D01*
X168821153Y-96896218D01*
X168799529Y-96906446D01*
X168777007Y-96914504D01*
X168753803Y-96920316D01*
X168730142Y-96923826D01*
X168706250Y-96925000D01*
X167793750Y-96925000D01*
X167769858Y-96923826D01*
X167746197Y-96920316D01*
X167722993Y-96914504D01*
X167700471Y-96906446D01*
X167678847Y-96896218D01*
X167658330Y-96883921D01*
X167639117Y-96869671D01*
X167621393Y-96853607D01*
X167605329Y-96835883D01*
X167591079Y-96816670D01*
X167578782Y-96796153D01*
X167568554Y-96774529D01*
X167560496Y-96752007D01*
X167554684Y-96728803D01*
X167551174Y-96705142D01*
X167550000Y-96681250D01*
X167550000Y-96193750D01*
X167551174Y-96169858D01*
X167554684Y-96146197D01*
X167560496Y-96122993D01*
X167568554Y-96100471D01*
X167578782Y-96078847D01*
X167591079Y-96058330D01*
X167605329Y-96039117D01*
X167621393Y-96021393D01*
X167639117Y-96005329D01*
X167658330Y-95991079D01*
X167678847Y-95978782D01*
X167700471Y-95968554D01*
X167722993Y-95960496D01*
X167746197Y-95954684D01*
X167769858Y-95951174D01*
X167793750Y-95950000D01*
X168706250Y-95950000D01*
X168730142Y-95951174D01*
X168730142Y-95951174D01*
G37*
D11*
X168250000Y-96437500D03*
D10*
G36*
X168730142Y-94076174D02*
X168753803Y-94079684D01*
X168777007Y-94085496D01*
X168799529Y-94093554D01*
X168821153Y-94103782D01*
X168841670Y-94116079D01*
X168860883Y-94130329D01*
X168878607Y-94146393D01*
X168894671Y-94164117D01*
X168908921Y-94183330D01*
X168921218Y-94203847D01*
X168931446Y-94225471D01*
X168939504Y-94247993D01*
X168945316Y-94271197D01*
X168948826Y-94294858D01*
X168950000Y-94318750D01*
X168950000Y-94806250D01*
X168948826Y-94830142D01*
X168945316Y-94853803D01*
X168939504Y-94877007D01*
X168931446Y-94899529D01*
X168921218Y-94921153D01*
X168908921Y-94941670D01*
X168894671Y-94960883D01*
X168878607Y-94978607D01*
X168860883Y-94994671D01*
X168841670Y-95008921D01*
X168821153Y-95021218D01*
X168799529Y-95031446D01*
X168777007Y-95039504D01*
X168753803Y-95045316D01*
X168730142Y-95048826D01*
X168706250Y-95050000D01*
X167793750Y-95050000D01*
X167769858Y-95048826D01*
X167746197Y-95045316D01*
X167722993Y-95039504D01*
X167700471Y-95031446D01*
X167678847Y-95021218D01*
X167658330Y-95008921D01*
X167639117Y-94994671D01*
X167621393Y-94978607D01*
X167605329Y-94960883D01*
X167591079Y-94941670D01*
X167578782Y-94921153D01*
X167568554Y-94899529D01*
X167560496Y-94877007D01*
X167554684Y-94853803D01*
X167551174Y-94830142D01*
X167550000Y-94806250D01*
X167550000Y-94318750D01*
X167551174Y-94294858D01*
X167554684Y-94271197D01*
X167560496Y-94247993D01*
X167568554Y-94225471D01*
X167578782Y-94203847D01*
X167591079Y-94183330D01*
X167605329Y-94164117D01*
X167621393Y-94146393D01*
X167639117Y-94130329D01*
X167658330Y-94116079D01*
X167678847Y-94103782D01*
X167700471Y-94093554D01*
X167722993Y-94085496D01*
X167746197Y-94079684D01*
X167769858Y-94076174D01*
X167793750Y-94075000D01*
X168706250Y-94075000D01*
X168730142Y-94076174D01*
X168730142Y-94076174D01*
G37*
D11*
X168250000Y-94562500D03*
G04 #@! TD*
D14*
G04 #@! TO.C,SW2*
X161625000Y-104345000D03*
X156375000Y-108155000D03*
X161625000Y-105615000D03*
X156375000Y-106885000D03*
X161625000Y-106885000D03*
X156375000Y-105615000D03*
X161625000Y-108155000D03*
X156375000Y-104345000D03*
G04 #@! TD*
D15*
G04 #@! TO.C,U7*
X140950000Y-103225000D03*
X140950000Y-103875000D03*
X140950000Y-104525000D03*
X140950000Y-105175000D03*
X140950000Y-105825000D03*
X140950000Y-106475000D03*
X140950000Y-107125000D03*
X140950000Y-107775000D03*
X135050000Y-107775000D03*
X135050000Y-107125000D03*
X135050000Y-106475000D03*
X135050000Y-105825000D03*
X135050000Y-105175000D03*
X135050000Y-104525000D03*
X135050000Y-103875000D03*
X135050000Y-103225000D03*
G04 #@! TD*
D16*
G04 #@! TO.C,U8*
X142450000Y-114095000D03*
X142450000Y-115365000D03*
X142450000Y-116635000D03*
X142450000Y-117905000D03*
X137050000Y-117905000D03*
X137050000Y-116635000D03*
X137050000Y-115365000D03*
X137050000Y-114095000D03*
G04 #@! TD*
D10*
G04 #@! TO.C,F4*
G36*
X124449505Y-102301204D02*
X124473773Y-102304804D01*
X124497572Y-102310765D01*
X124520671Y-102319030D01*
X124542850Y-102329520D01*
X124563893Y-102342132D01*
X124583599Y-102356747D01*
X124601777Y-102373223D01*
X124618253Y-102391401D01*
X124632868Y-102411107D01*
X124645480Y-102432150D01*
X124655970Y-102454329D01*
X124664235Y-102477428D01*
X124670196Y-102501227D01*
X124673796Y-102525495D01*
X124675000Y-102549999D01*
X124675000Y-105450001D01*
X124673796Y-105474505D01*
X124670196Y-105498773D01*
X124664235Y-105522572D01*
X124655970Y-105545671D01*
X124645480Y-105567850D01*
X124632868Y-105588893D01*
X124618253Y-105608599D01*
X124601777Y-105626777D01*
X124583599Y-105643253D01*
X124563893Y-105657868D01*
X124542850Y-105670480D01*
X124520671Y-105680970D01*
X124497572Y-105689235D01*
X124473773Y-105695196D01*
X124449505Y-105698796D01*
X124425001Y-105700000D01*
X123799999Y-105700000D01*
X123775495Y-105698796D01*
X123751227Y-105695196D01*
X123727428Y-105689235D01*
X123704329Y-105680970D01*
X123682150Y-105670480D01*
X123661107Y-105657868D01*
X123641401Y-105643253D01*
X123623223Y-105626777D01*
X123606747Y-105608599D01*
X123592132Y-105588893D01*
X123579520Y-105567850D01*
X123569030Y-105545671D01*
X123560765Y-105522572D01*
X123554804Y-105498773D01*
X123551204Y-105474505D01*
X123550000Y-105450001D01*
X123550000Y-102549999D01*
X123551204Y-102525495D01*
X123554804Y-102501227D01*
X123560765Y-102477428D01*
X123569030Y-102454329D01*
X123579520Y-102432150D01*
X123592132Y-102411107D01*
X123606747Y-102391401D01*
X123623223Y-102373223D01*
X123641401Y-102356747D01*
X123661107Y-102342132D01*
X123682150Y-102329520D01*
X123704329Y-102319030D01*
X123727428Y-102310765D01*
X123751227Y-102304804D01*
X123775495Y-102301204D01*
X123799999Y-102300000D01*
X124425001Y-102300000D01*
X124449505Y-102301204D01*
X124449505Y-102301204D01*
G37*
D13*
X124112500Y-104000000D03*
D10*
G36*
X128724505Y-102301204D02*
X128748773Y-102304804D01*
X128772572Y-102310765D01*
X128795671Y-102319030D01*
X128817850Y-102329520D01*
X128838893Y-102342132D01*
X128858599Y-102356747D01*
X128876777Y-102373223D01*
X128893253Y-102391401D01*
X128907868Y-102411107D01*
X128920480Y-102432150D01*
X128930970Y-102454329D01*
X128939235Y-102477428D01*
X128945196Y-102501227D01*
X128948796Y-102525495D01*
X128950000Y-102549999D01*
X128950000Y-105450001D01*
X128948796Y-105474505D01*
X128945196Y-105498773D01*
X128939235Y-105522572D01*
X128930970Y-105545671D01*
X128920480Y-105567850D01*
X128907868Y-105588893D01*
X128893253Y-105608599D01*
X128876777Y-105626777D01*
X128858599Y-105643253D01*
X128838893Y-105657868D01*
X128817850Y-105670480D01*
X128795671Y-105680970D01*
X128772572Y-105689235D01*
X128748773Y-105695196D01*
X128724505Y-105698796D01*
X128700001Y-105700000D01*
X128074999Y-105700000D01*
X128050495Y-105698796D01*
X128026227Y-105695196D01*
X128002428Y-105689235D01*
X127979329Y-105680970D01*
X127957150Y-105670480D01*
X127936107Y-105657868D01*
X127916401Y-105643253D01*
X127898223Y-105626777D01*
X127881747Y-105608599D01*
X127867132Y-105588893D01*
X127854520Y-105567850D01*
X127844030Y-105545671D01*
X127835765Y-105522572D01*
X127829804Y-105498773D01*
X127826204Y-105474505D01*
X127825000Y-105450001D01*
X127825000Y-102549999D01*
X127826204Y-102525495D01*
X127829804Y-102501227D01*
X127835765Y-102477428D01*
X127844030Y-102454329D01*
X127854520Y-102432150D01*
X127867132Y-102411107D01*
X127881747Y-102391401D01*
X127898223Y-102373223D01*
X127916401Y-102356747D01*
X127936107Y-102342132D01*
X127957150Y-102329520D01*
X127979329Y-102319030D01*
X128002428Y-102310765D01*
X128026227Y-102304804D01*
X128050495Y-102301204D01*
X128074999Y-102300000D01*
X128700001Y-102300000D01*
X128724505Y-102301204D01*
X128724505Y-102301204D01*
G37*
D13*
X128387500Y-104000000D03*
G04 #@! TD*
D10*
G04 #@! TO.C,F5*
G36*
X128724505Y-107051204D02*
X128748773Y-107054804D01*
X128772572Y-107060765D01*
X128795671Y-107069030D01*
X128817850Y-107079520D01*
X128838893Y-107092132D01*
X128858599Y-107106747D01*
X128876777Y-107123223D01*
X128893253Y-107141401D01*
X128907868Y-107161107D01*
X128920480Y-107182150D01*
X128930970Y-107204329D01*
X128939235Y-107227428D01*
X128945196Y-107251227D01*
X128948796Y-107275495D01*
X128950000Y-107299999D01*
X128950000Y-110200001D01*
X128948796Y-110224505D01*
X128945196Y-110248773D01*
X128939235Y-110272572D01*
X128930970Y-110295671D01*
X128920480Y-110317850D01*
X128907868Y-110338893D01*
X128893253Y-110358599D01*
X128876777Y-110376777D01*
X128858599Y-110393253D01*
X128838893Y-110407868D01*
X128817850Y-110420480D01*
X128795671Y-110430970D01*
X128772572Y-110439235D01*
X128748773Y-110445196D01*
X128724505Y-110448796D01*
X128700001Y-110450000D01*
X128074999Y-110450000D01*
X128050495Y-110448796D01*
X128026227Y-110445196D01*
X128002428Y-110439235D01*
X127979329Y-110430970D01*
X127957150Y-110420480D01*
X127936107Y-110407868D01*
X127916401Y-110393253D01*
X127898223Y-110376777D01*
X127881747Y-110358599D01*
X127867132Y-110338893D01*
X127854520Y-110317850D01*
X127844030Y-110295671D01*
X127835765Y-110272572D01*
X127829804Y-110248773D01*
X127826204Y-110224505D01*
X127825000Y-110200001D01*
X127825000Y-107299999D01*
X127826204Y-107275495D01*
X127829804Y-107251227D01*
X127835765Y-107227428D01*
X127844030Y-107204329D01*
X127854520Y-107182150D01*
X127867132Y-107161107D01*
X127881747Y-107141401D01*
X127898223Y-107123223D01*
X127916401Y-107106747D01*
X127936107Y-107092132D01*
X127957150Y-107079520D01*
X127979329Y-107069030D01*
X128002428Y-107060765D01*
X128026227Y-107054804D01*
X128050495Y-107051204D01*
X128074999Y-107050000D01*
X128700001Y-107050000D01*
X128724505Y-107051204D01*
X128724505Y-107051204D01*
G37*
D13*
X128387500Y-108750000D03*
D10*
G36*
X124449505Y-107051204D02*
X124473773Y-107054804D01*
X124497572Y-107060765D01*
X124520671Y-107069030D01*
X124542850Y-107079520D01*
X124563893Y-107092132D01*
X124583599Y-107106747D01*
X124601777Y-107123223D01*
X124618253Y-107141401D01*
X124632868Y-107161107D01*
X124645480Y-107182150D01*
X124655970Y-107204329D01*
X124664235Y-107227428D01*
X124670196Y-107251227D01*
X124673796Y-107275495D01*
X124675000Y-107299999D01*
X124675000Y-110200001D01*
X124673796Y-110224505D01*
X124670196Y-110248773D01*
X124664235Y-110272572D01*
X124655970Y-110295671D01*
X124645480Y-110317850D01*
X124632868Y-110338893D01*
X124618253Y-110358599D01*
X124601777Y-110376777D01*
X124583599Y-110393253D01*
X124563893Y-110407868D01*
X124542850Y-110420480D01*
X124520671Y-110430970D01*
X124497572Y-110439235D01*
X124473773Y-110445196D01*
X124449505Y-110448796D01*
X124425001Y-110450000D01*
X123799999Y-110450000D01*
X123775495Y-110448796D01*
X123751227Y-110445196D01*
X123727428Y-110439235D01*
X123704329Y-110430970D01*
X123682150Y-110420480D01*
X123661107Y-110407868D01*
X123641401Y-110393253D01*
X123623223Y-110376777D01*
X123606747Y-110358599D01*
X123592132Y-110338893D01*
X123579520Y-110317850D01*
X123569030Y-110295671D01*
X123560765Y-110272572D01*
X123554804Y-110248773D01*
X123551204Y-110224505D01*
X123550000Y-110200001D01*
X123550000Y-107299999D01*
X123551204Y-107275495D01*
X123554804Y-107251227D01*
X123560765Y-107227428D01*
X123569030Y-107204329D01*
X123579520Y-107182150D01*
X123592132Y-107161107D01*
X123606747Y-107141401D01*
X123623223Y-107123223D01*
X123641401Y-107106747D01*
X123661107Y-107092132D01*
X123682150Y-107079520D01*
X123704329Y-107069030D01*
X123727428Y-107060765D01*
X123751227Y-107054804D01*
X123775495Y-107051204D01*
X123799999Y-107050000D01*
X124425001Y-107050000D01*
X124449505Y-107051204D01*
X124449505Y-107051204D01*
G37*
D13*
X124112500Y-108750000D03*
G04 #@! TD*
M02*
