G04 #@! TF.GenerationSoftware,KiCad,Pcbnew,5.0.2-bee76a0~70~ubuntu16.04.1*
G04 #@! TF.CreationDate,2018-12-12T21:45:09+05:30*
G04 #@! TF.ProjectId,sanjaya,73616e6a-6179-4612-9e6b-696361645f70,rev?*
G04 #@! TF.SameCoordinates,Original*
G04 #@! TF.FileFunction,Other,User*
%FSLAX46Y46*%
G04 Gerber Fmt 4.6, Leading zero omitted, Abs format (unit mm)*
G04 Created by KiCad (PCBNEW 5.0.2-bee76a0~70~ubuntu16.04.1) date Wed Dec 12 21:45:09 2018*
%MOMM*%
%LPD*%
G01*
G04 APERTURE LIST*
%ADD10C,0.050000*%
G04 APERTURE END LIST*
D10*
G04 #@! TO.C,C3*
X145700000Y-105930000D02*
X145700000Y-102570000D01*
X143800000Y-105930000D02*
X145700000Y-105930000D01*
X143800000Y-102570000D02*
X143800000Y-105930000D01*
X145700000Y-102570000D02*
X143800000Y-102570000D01*
G04 #@! TO.C,C4*
X149450000Y-117070000D02*
X147550000Y-117070000D01*
X147550000Y-117070000D02*
X147550000Y-120430000D01*
X147550000Y-120430000D02*
X149450000Y-120430000D01*
X149450000Y-120430000D02*
X149450000Y-117070000D01*
G04 #@! TO.C,C5*
X132200000Y-103930000D02*
X132200000Y-100570000D01*
X130300000Y-103930000D02*
X132200000Y-103930000D01*
X130300000Y-100570000D02*
X130300000Y-103930000D01*
X132200000Y-100570000D02*
X130300000Y-100570000D01*
G04 #@! TO.C,C6*
X149450000Y-110430000D02*
X149450000Y-107070000D01*
X147550000Y-110430000D02*
X149450000Y-110430000D01*
X147550000Y-107070000D02*
X147550000Y-110430000D01*
X149450000Y-107070000D02*
X147550000Y-107070000D01*
G04 #@! TO.C,C7*
X145700000Y-107070000D02*
X143800000Y-107070000D01*
X143800000Y-107070000D02*
X143800000Y-110430000D01*
X143800000Y-110430000D02*
X145700000Y-110430000D01*
X145700000Y-110430000D02*
X145700000Y-107070000D01*
G04 #@! TO.C,C8*
X149450000Y-102570000D02*
X147550000Y-102570000D01*
X147550000Y-102570000D02*
X147550000Y-105930000D01*
X147550000Y-105930000D02*
X149450000Y-105930000D01*
X149450000Y-105930000D02*
X149450000Y-102570000D01*
G04 #@! TO.C,C9*
X129450000Y-115180000D02*
X129450000Y-111820000D01*
X127550000Y-115180000D02*
X129450000Y-115180000D01*
X127550000Y-111820000D02*
X127550000Y-115180000D01*
X129450000Y-111820000D02*
X127550000Y-111820000D01*
G04 #@! TO.C,C10*
X132950000Y-116570000D02*
X131050000Y-116570000D01*
X131050000Y-116570000D02*
X131050000Y-119930000D01*
X131050000Y-119930000D02*
X132950000Y-119930000D01*
X132950000Y-119930000D02*
X132950000Y-116570000D01*
G04 #@! TO.C,D3*
X153750000Y-116200000D02*
X153750000Y-112800000D01*
X153750000Y-112800000D02*
X150250000Y-112800000D01*
X150250000Y-112800000D02*
X150250000Y-116200000D01*
X150250000Y-116200000D02*
X153750000Y-116200000D01*
G04 #@! TO.C,D_RX1*
X163800000Y-102180000D02*
X165700000Y-102180000D01*
X165700000Y-102180000D02*
X165700000Y-98820000D01*
X165700000Y-98820000D02*
X163800000Y-98820000D01*
X163800000Y-98820000D02*
X163800000Y-102180000D01*
G04 #@! TO.C,D_TX1*
X167300000Y-98820000D02*
X167300000Y-102180000D01*
X169200000Y-98820000D02*
X167300000Y-98820000D01*
X169200000Y-102180000D02*
X169200000Y-98820000D01*
X167300000Y-102180000D02*
X169200000Y-102180000D01*
G04 #@! TO.C,F2*
X116300000Y-109050000D02*
X116300000Y-112950000D01*
X116300000Y-112950000D02*
X122200000Y-112950000D01*
X122200000Y-112950000D02*
X122200000Y-109050000D01*
X122200000Y-109050000D02*
X116300000Y-109050000D01*
G04 #@! TO.C,F3*
X122450000Y-117800000D02*
X116550000Y-117800000D01*
X122450000Y-121700000D02*
X122450000Y-117800000D01*
X116550000Y-121700000D02*
X122450000Y-121700000D01*
X116550000Y-117800000D02*
X116550000Y-121700000D01*
G04 #@! TO.C,R16*
X149450000Y-112820000D02*
X147550000Y-112820000D01*
X147550000Y-112820000D02*
X147550000Y-116180000D01*
X147550000Y-116180000D02*
X149450000Y-116180000D01*
X149450000Y-116180000D02*
X149450000Y-112820000D01*
G04 #@! TO.C,R17*
X132950000Y-111820000D02*
X131050000Y-111820000D01*
X131050000Y-111820000D02*
X131050000Y-115180000D01*
X131050000Y-115180000D02*
X132950000Y-115180000D01*
X132950000Y-115180000D02*
X132950000Y-111820000D01*
G04 #@! TO.C,R18*
X129450000Y-119930000D02*
X129450000Y-116570000D01*
X127550000Y-119930000D02*
X129450000Y-119930000D01*
X127550000Y-116570000D02*
X127550000Y-119930000D01*
X129450000Y-116570000D02*
X127550000Y-116570000D01*
G04 #@! TO.C,R19*
X124700000Y-113820000D02*
X122800000Y-113820000D01*
X122800000Y-113820000D02*
X122800000Y-117180000D01*
X122800000Y-117180000D02*
X124700000Y-117180000D01*
X124700000Y-117180000D02*
X124700000Y-113820000D01*
G04 #@! TO.C,R_RX1*
X165700000Y-93820000D02*
X163800000Y-93820000D01*
X163800000Y-93820000D02*
X163800000Y-97180000D01*
X163800000Y-97180000D02*
X165700000Y-97180000D01*
X165700000Y-97180000D02*
X165700000Y-93820000D01*
G04 #@! TO.C,R_TX1*
X169200000Y-97180000D02*
X169200000Y-93820000D01*
X167300000Y-97180000D02*
X169200000Y-97180000D01*
X167300000Y-93820000D02*
X167300000Y-97180000D01*
X169200000Y-93820000D02*
X167300000Y-93820000D01*
G04 #@! TO.C,SW2*
X163200000Y-102500000D02*
X163200000Y-110000000D01*
X163200000Y-110000000D02*
X154800000Y-110000000D01*
X154800000Y-110000000D02*
X154800000Y-102500000D01*
X154800000Y-102500000D02*
X163200000Y-102500000D01*
G04 #@! TO.C,U7*
X141950000Y-102600000D02*
X141950000Y-108300000D01*
X134050000Y-102600000D02*
X134050000Y-108300000D01*
X141950000Y-102600000D02*
X134050000Y-102600000D01*
X141950000Y-108300000D02*
X134050000Y-108300000D01*
G04 #@! TO.C,U8*
X143480000Y-113300000D02*
X143480000Y-118700000D01*
X136020000Y-113300000D02*
X136020000Y-118700000D01*
X143480000Y-113300000D02*
X136020000Y-113300000D01*
X143480000Y-118700000D02*
X136020000Y-118700000D01*
G04 #@! TO.C,F4*
X123300000Y-102050000D02*
X123300000Y-105950000D01*
X123300000Y-105950000D02*
X129200000Y-105950000D01*
X129200000Y-105950000D02*
X129200000Y-102050000D01*
X129200000Y-102050000D02*
X123300000Y-102050000D01*
G04 #@! TO.C,F5*
X129200000Y-106800000D02*
X123300000Y-106800000D01*
X129200000Y-110700000D02*
X129200000Y-106800000D01*
X123300000Y-110700000D02*
X129200000Y-110700000D01*
X123300000Y-106800000D02*
X123300000Y-110700000D01*
G04 #@! TD*
M02*
