M48
;DRILL file {KiCad 5.0.0-fee4fd1~66~ubuntu16.04.1} date Thu Oct 18 17:18:26 2018
;FORMAT={-:-/ absolute / inch / decimal}
FMAT,2
INCH,TZ
T1C0.0157
T2C0.0197
T3C0.0217
T4C0.0394
T5C0.0400
T6C0.0433
T7C0.0512
%
G90
G05
M72
T1
X3.5827Y-3.5827
X3.5866Y-3.3937
X3.6516Y-3.7205
X3.6713Y-3.8976
X3.7205Y-3.5827
X3.7598Y-3.8091
X3.9469Y-3.8583
X4.1339Y-3.6969
X4.2244Y-3.3819
X4.2913Y-4.8228
X4.3012Y-3.7894
X4.311Y-4.2126
X4.3701Y-3.6516
X4.3799Y-3.9173
X4.4198Y-3.9178
X4.4291Y-3.7992
X4.439Y-3.7106
X4.4783Y-3.5827
X4.5472Y-3.5827
X4.5472Y-3.622
X4.5472Y-3.6614
X4.5472Y-4.3701
X4.5571Y-4.4685
X4.5768Y-3.9567
X4.5768Y-4.2224
X4.6358Y-4.4685
X4.6752Y-4.3701
X4.6806Y-4.6216
X4.685Y-4.685
X4.7539Y-3.3661
X4.7539Y-4.0551
X4.8228Y-3.3051
X4.8327Y-4.1339
X4.8524Y-4.6949
X4.8622Y-3.9665
X4.872Y-4.4193
X4.9606Y-4.7254
X5.0069Y-4.0551
X5.0069Y-4.1831
X5.0989Y-4.7534
X5.0997Y-4.835
X5.1181Y-3.6614
X5.1607Y-4.2158
X5.1969Y-3.622
X5.1969Y-4.2421
X5.2461Y-4.311
X5.2559Y-4.0551
X5.2648Y-4.4094
X5.2657Y-3.878
X5.2953Y-3.8287
X5.315Y-4.6555
X5.315Y-4.7136
X5.3248Y-4.4094
X5.3445Y-3.7008
X5.3699Y-4.1037
X5.3937Y-4.9606
X5.3985Y-4.2815
X5.4232Y-4.2126
X5.4331Y-3.7008
X5.4724Y-3.9075
X5.4724Y-4.4291
X5.4828Y-4.656
X5.4921Y-3.6904
X5.5315Y-3.7697
X5.5807Y-3.6909
X5.6004Y-4.0059
X5.6299Y-4.2126
X5.6594Y-3.9764
X5.6693Y-4.626
X5.689Y-4.5669
X5.7087Y-3.8287
X5.7185Y-3.7707
X5.7185Y-3.8976
X5.7283Y-4.3799
X5.7579Y-4.1929
X5.7677Y-4.3209
X5.8465Y-4.1412
X5.8661Y-3.9764
X5.9744Y-4.1732
X5.9843Y-4.0157
X6.122Y-3.5925
X6.1319Y-3.937
X6.2008Y-3.7008
X6.2697Y-3.8484
X6.2992Y-3.8878
X6.4665Y-4.1732
X6.5059Y-4.2323
X6.5551Y-3.6811
X6.5748Y-3.622
X6.6831Y-4.065
T4
X3.0197Y-4.0728
X3.4921Y-4.0728
X5.2953Y-4.8425
X5.2953Y-4.9409
X3.6693Y-4.0728
X4.1417Y-4.0728
X3.0413Y-3.6516
X3.0413Y-3.75
X3.9173Y-3.7598
X4.0157Y-3.7598
X3.3661Y-3.7894
X3.4646Y-3.7894
T5
X4.5965Y-3.4236
X4.5965Y-3.5236
X4.6965Y-3.4236
X4.6965Y-3.5236
X4.7965Y-3.4236
X4.7965Y-3.5236
X4.8965Y-3.4236
X4.8965Y-3.5236
X4.9965Y-3.4236
X4.9965Y-3.5236
X5.0965Y-3.4236
X5.0965Y-3.5236
X5.1965Y-3.4236
X5.1965Y-3.5236
X5.2965Y-3.4236
X5.2965Y-3.5236
X5.3965Y-3.4236
X5.3965Y-3.5236
X5.4965Y-3.4236
X5.4965Y-3.5236
X5.5965Y-3.4236
X5.5965Y-3.5236
X5.6965Y-3.4236
X5.6965Y-3.5236
X5.7965Y-3.4236
X5.7965Y-3.5236
X5.8965Y-3.4236
X5.8965Y-3.5236
X5.9965Y-3.4236
X5.9965Y-3.5236
X6.0965Y-3.4236
X6.0965Y-3.5236
X6.1965Y-3.4236
X6.1965Y-3.5236
X6.2965Y-3.4236
X6.2965Y-3.5236
X6.3965Y-3.4236
X6.3965Y-3.5236
X6.4965Y-3.4236
X6.4965Y-3.5236
T6
X6.624Y-4.9016
X6.724Y-4.9016
X3.3957Y-4.9114
X3.4957Y-4.9114
X3.5957Y-4.9114
X5.Y-4.9114
X5.1Y-4.9114
X4.3799Y-4.9114
X4.4799Y-4.9114
X4.5799Y-4.9114
X4.7441Y-4.9114
X4.8441Y-4.9114
X5.8268Y-4.9016
X5.9268Y-4.9016
X6.0268Y-4.9016
X6.1268Y-4.9016
X3.7598Y-4.9114
X3.8598Y-4.9114
X3.9598Y-4.9114
X4.124Y-4.9114
X4.224Y-4.9114
X3.1004Y-4.9114
X3.2004Y-4.9114
T7
X3.0197Y-4.5531
X3.2579Y-3.9961
X3.4941Y-4.5551
X3.6693Y-4.5531
X3.9075Y-3.9961
X4.1437Y-4.5551
T2
X3.2382Y-3.3789G85X3.2382Y-3.4045
G05
X3.5138Y-3.3789G85X3.5138Y-3.4045
G05
X3.878Y-3.3789G85X3.878Y-3.4045
G05
X4.1535Y-3.3789G85X4.1535Y-3.4045
G05
T3
X3.2835Y-3.498G85X3.2717Y-3.498
G05
X3.4803Y-3.498G85X3.4685Y-3.498
G05
X3.9232Y-3.498G85X3.9114Y-3.498
G05
X4.1201Y-3.498G85X4.1083Y-3.498
G05
T0
M30
