M48
;DRILL file {KiCad 5.0.0-fee4fd1~66~ubuntu16.04.1} date Thu Oct 18 17:18:26 2018
;FORMAT={-:-/ absolute / inch / decimal}
FMAT,2
INCH,TZ
T1C0.0433
T2C0.1260
%
G90
G05
M72
T1
X3.4957Y-5.0114
X3.5957Y-5.0114
X5.Y-5.0114
X4.3799Y-5.0114
X4.4799Y-5.0114
X4.5799Y-5.0114
X4.7441Y-5.0114
X4.8441Y-5.0114
X3.7598Y-5.0114
X3.8598Y-5.0114
X3.9598Y-5.0114
X4.124Y-5.0114
X4.224Y-5.0114
X3.1004Y-5.0114
X3.2004Y-5.0114
X6.624Y-5.0016
X6.724Y-5.0016
X3.3957Y-5.0114
X5.1Y-5.0114
T2
X6.6831Y-3.4646
X6.6831Y-4.3701
X4.3996Y-3.4646
X4.3996Y-4.3701
T0
M30
